<svg width="641" height="244" viewBox="0 0 641 244" fill="none" xmlns="http://www.w3.org/2000/svg">
<path d="M320.347 177C433.196 177 541.424 197.65 621.221 234.407C627.964 237.513 634.457 240.714 640.694 244H0C6.23744 240.714 12.7299 237.513 19.4727 234.407C99.2694 197.65 207.497 177 320.347 177Z" fill="#F5A200"/>
<path d="M276.125 102.768C276.125 102.768 276.362 73.4441 272.595 66.9484C270.473 63.2933 263.374 61.2338 258.92 67.3245C251.747 77.1188 270.556 108.688 270.556 108.688C270.556 108.688 274.142 111.724 276.125 102.768Z" fill="#494645"/>
<path d="M387.087 137.185C388.108 174.39 361.44 195.48 327.854 196.403C294.269 197.326 266.488 177.728 265.467 140.522C264.447 103.317 282.251 56.173 323.98 55.0362C369.054 53.7982 386.07 99.9936 387.082 137.193L387.087 137.185Z" fill="#494645"/>
<path d="M363.71 96.1766C364.709 78.9997 350.21 63.0003 326.209 63.0003C301.209 63.0001 286.709 77.4991 288.209 93.1771C289.866 110.499 301.494 119.179 322.315 120.741C343.131 122.294 362.838 111.151 363.71 96.1766Z" fill="white"/>
<path d="M309.805 77.2514C307.994 77.2358 306.493 80.9436 306.454 85.5329C306.415 90.1222 307.851 93.8552 309.663 93.8708C311.474 93.8863 312.974 90.1786 313.014 85.5892C313.053 80.9999 311.617 77.2669 309.805 77.2514Z" fill="#46353A"/>
<path d="M340.804 77.2497C338.993 77.2342 337.493 80.9421 337.454 85.5314C337.414 90.1208 338.851 93.8536 340.663 93.8691C342.474 93.8845 343.974 90.1766 344.013 85.5873C344.052 80.998 342.616 77.2651 340.804 77.2497Z" fill="#46353A"/>
<path d="M310.288 216.983L307.442 217.059C303.414 217.171 300.701 212.155 301.315 206.688L303.343 188.665C303.653 185.873 305.894 183.74 308.337 183.672L310.065 183.628C312.509 183.56 314.707 185.579 314.963 188.353L316.626 206.279C317.13 211.714 314.31 216.879 310.29 216.997L310.288 216.983Z" fill="#494645"/>
<path d="M346.525 215.988L349.371 215.913C353.398 215.8 355.83 210.64 354.919 205.22L351.907 187.327C351.443 184.558 349.096 182.547 346.652 182.615L344.924 182.659C342.48 182.727 340.406 184.863 340.296 187.645L339.616 205.634C339.41 211.086 342.511 216.098 346.525 215.988Z" fill="#494645"/>
<path d="M371.201 96.3127C371.201 96.3127 376.635 67.4866 381.579 61.8551C384.362 58.6813 391.728 58.0355 394.924 64.8632C400.064 75.8569 375.513 103.202 375.513 103.202C375.513 103.202 371.413 105.489 371.193 96.3194L371.201 96.3127Z" fill="#494645"/>
</svg>
