<svg width="553" height="553" viewBox="0 0 553 553" fill="none" xmlns="http://www.w3.org/2000/svg">
<path d="M518.839 0H34.1608C15.2943 0 0 16.0075 0 35.7536V517.246C0 536.993 15.2943 553 34.1608 553H518.839C537.706 553 553 536.993 553 517.246V35.7536C553 16.0075 537.706 0 518.839 0Z" fill="#006859"/>
<path d="M495.674 24.3457H57.3261C38.4932 24.3457 23.2261 40.3575 23.2261 60.109V494.05C23.2261 513.801 38.4932 529.813 57.3261 529.813H495.674C514.507 529.813 529.774 513.801 529.774 494.05V60.109C529.774 40.3575 514.507 24.3457 495.674 24.3457Z" fill="white"/>
<g style="mix-blend-mode:screen" opacity="0.15">
<path d="M536.428 47.3849C536.428 30.1715 523.123 16.2172 506.71 16.2171H45.1841C28.7715 16.2171 15.4664 30.1714 15.4664 47.3849V505.615C15.4664 522.829 28.7715 536.783 45.1841 536.783H506.71C523.123 536.783 536.428 522.829 536.428 505.615V47.3849ZM545.258 505.615C545.258 527.943 528 546.044 506.71 546.044H45.1841C23.8947 546.044 6.63623 527.943 6.63623 505.615V47.3849C6.63623 25.0567 23.8947 6.95605 45.1841 6.95605H506.71C528 6.95608 545.258 25.0567 545.258 47.3849V505.615Z" fill="#006859"/>
</g>
</svg>
