<svg width="553" height="553" viewBox="0 0 553 553" fill="none" xmlns="http://www.w3.org/2000/svg">
<path d="M537.228 47.3784C537.228 30.1864 523.912 16.2496 507.485 16.2495H45.5795C29.1535 16.2495 15.8375 30.1864 15.8375 47.3784V505.037C15.8375 522.229 29.1534 536.166 45.5795 536.166H507.485C523.912 536.166 537.228 522.229 537.228 505.037V47.3784ZM546.065 505.037C546.065 527.337 528.792 545.415 507.485 545.415H45.5795C24.2727 545.415 7 527.337 7 505.037V47.3784C7 25.078 24.2727 7 45.5795 7H507.485C528.792 7.00003 546.065 25.0781 546.065 47.3784V505.037Z" fill="white"/>
<path d="M518.839 0C537.705 0 553 16.0077 553 35.7539V517.246C553 536.992 537.705 553 518.839 553H34.1611C15.2946 553 0 536.992 0 517.246V35.7539C0 16.0077 15.2946 0 34.1611 0H518.839ZM45.5488 7.29492C24.2421 7.29517 6.96973 25.3736 6.96973 47.6738V505.332C6.9699 527.632 24.2423 545.71 45.5488 545.71H507.455C528.762 545.71 546.035 527.632 546.035 505.332V47.6738C546.035 25.3735 528.762 7.29495 507.455 7.29492H45.5488ZM507.455 16.5449C523.881 16.5449 537.197 30.4818 537.197 47.6738V505.332C537.197 522.524 523.881 536.461 507.455 536.461H45.5488C29.123 536.461 15.8078 522.524 15.8076 505.332V47.6738C15.8076 30.482 29.1229 16.5452 45.5488 16.5449H507.455ZM56.9336 23.834C38.0671 23.834 22.7725 39.8417 22.7725 59.5879V493.411C22.7725 513.157 38.0671 529.165 56.9336 529.165H496.062C514.929 529.165 530.224 513.157 530.224 493.411V59.5879C530.224 39.8417 514.929 23.834 496.062 23.834H56.9336Z" fill="#EB9E14"/>
<path opacity="0.85" d="M537.197 47.6733C537.197 30.4814 523.881 16.5445 507.455 16.5445H45.5493C29.1232 16.5445 15.8072 30.4813 15.8072 47.6733V505.332C15.8072 522.524 29.1232 536.461 45.5493 536.461H507.455C523.881 536.461 537.197 522.524 537.197 505.332V47.6733ZM546.035 505.332C546.035 527.632 528.762 545.71 507.455 545.71H45.5493C24.2424 545.71 6.96973 527.632 6.96973 505.332V47.6733C6.96973 25.373 24.2424 7.29492 45.5493 7.29492H507.455C528.762 7.29495 546.035 25.373 546.035 47.6733V505.332Z" fill="#EB9E14"/>
</svg>
