<svg width="553" height="583" viewBox="0 0 553 583" fill="none" xmlns="http://www.w3.org/2000/svg">
<path d="M537.228 47.3784C537.228 30.1864 523.912 16.2496 507.485 16.2495H45.5795C29.1535 16.2495 15.8375 30.1864 15.8375 47.3784V505.037C15.8375 522.229 29.1534 536.166 45.5795 536.166H507.485C523.912 536.166 537.228 522.229 537.228 505.037V47.3784ZM546.065 505.037C546.065 527.337 528.792 545.415 507.485 545.415H45.5795C24.2727 545.415 7 527.337 7 505.037V47.3784C7 25.078 24.2727 7 45.5795 7H507.485C528.792 7.00003 546.065 25.0781 546.065 47.3784V505.037Z" fill="white"/>
<path d="M518.839 0C537.705 0 553 16.0077 553 35.7539V517.246C553 536.992 537.705 553 518.839 553H34.1611C15.2946 553 0 536.992 0 517.246V35.7539C0 16.0077 15.2946 0 34.1611 0H518.839ZM45.5488 7.29492C24.2421 7.29517 6.96973 25.3736 6.96973 47.6738V505.332C6.9699 527.632 24.2423 545.71 45.5488 545.71H507.455C528.762 545.71 546.035 527.632 546.035 505.332V47.6738C546.035 25.3735 528.762 7.29495 507.455 7.29492H45.5488ZM507.455 16.5449C523.881 16.5449 537.197 30.4818 537.197 47.6738V505.332C537.197 522.524 523.881 536.461 507.455 536.461H45.5488C29.123 536.461 15.8078 522.524 15.8076 505.332V47.6738C15.8076 30.482 29.1229 16.5452 45.5488 16.5449H507.455ZM56.9336 23.834C38.0671 23.834 22.7725 39.8417 22.7725 59.5879V493.411C22.7725 513.157 38.0671 529.165 56.9336 529.165H496.062C514.929 529.165 530.224 513.157 530.224 493.411V59.5879C530.224 39.8417 514.929 23.834 496.062 23.834H56.9336Z" fill="#16A0C6"/>
<path opacity="0.85" d="M537.197 47.6733C537.197 30.4814 523.881 16.5445 507.455 16.5445H45.5493C29.1232 16.5445 15.8072 30.4813 15.8072 47.6733V505.332C15.8072 522.524 29.1232 536.461 45.5493 536.461H507.455C523.881 536.461 537.197 522.524 537.197 505.332V47.6733ZM546.035 505.332C546.035 527.632 528.762 545.71 507.455 545.71H45.5493C24.2424 545.71 6.96973 527.632 6.96973 505.332V47.6733C6.96973 25.373 24.2424 7.29492 45.5493 7.29492H507.455C528.762 7.29495 546.035 25.373 546.035 47.6733V505.332Z" fill="#16A0C6"/>
<path d="M185.885 508.906C186.315 542.926 159.315 561.886 125.725 562.306C92.1346 562.726 64.6646 544.466 64.2346 510.436C63.7946 476.426 82.3446 433.536 124.085 433.006C169.165 432.436 185.455 474.876 185.885 508.906Z" fill="#494645"/>
<path d="M90.7946 580.946L88.0546 580.196C84.1746 579.136 83.0246 573.546 85.1946 568.496L92.3546 551.826C93.4646 549.246 96.2246 547.846 98.5746 548.486L100.245 548.936C102.605 549.576 104.115 552.146 103.565 554.876L99.9646 572.516C98.8746 577.866 94.6746 581.996 90.7946 580.936V580.946Z" fill="#494645"/>
<path d="M155.315 582.516L158.005 581.586C161.805 580.266 162.575 574.616 160.065 569.716L151.785 553.576C150.505 551.076 147.655 549.866 145.345 550.666L143.715 551.236C141.405 552.036 140.075 554.706 140.815 557.386L145.605 574.746C147.055 580.006 151.525 583.846 155.325 582.526L155.315 582.516Z" fill="#494645"/>
<path d="M79.1046 484.076C79.1046 484.076 62.3046 456.456 54.5046 452.926C50.1146 450.936 41.3046 453.816 40.0746 462.526C38.0846 476.546 76.5846 493.386 76.5846 493.386C76.5846 493.386 82.1846 493.806 79.1046 484.076Z" fill="#494645"/>
<path d="M182.355 497.246C182.355 497.246 202.185 518.856 203.735 526.196C204.615 530.326 200.715 536.616 193.335 535.076C181.455 532.606 174.255 496.576 174.255 496.576C174.255 496.576 174.885 491.926 182.355 497.246Z" fill="#494645"/>
</svg>
