<svg width="553" height="553" viewBox="0 0 553 553" fill="none" xmlns="http://www.w3.org/2000/svg">
<path d="M518.854 0H34.1457C15.2876 0 0 16 0 35.7371V517.263C0 537 15.2876 553 34.1457 553H518.854C537.712 553 553 537 553 517.263V35.7371C553 16 537.712 0 518.854 0Z" fill="#C82667"/>
<path d="M496.117 23.8389H56.9231C38.0649 23.8389 22.7773 39.8389 22.7773 59.576V493.424C22.7773 513.161 38.0649 529.161 56.9231 529.161H496.117C514.976 529.161 530.263 513.161 530.263 493.424V59.576C530.263 39.8389 514.976 23.8389 496.117 23.8389Z" fill="white"/>
<g style="mix-blend-mode:screen" opacity="0.1">
<path d="M537.213 47.6353C537.213 30.4525 523.903 16.5231 507.486 16.523H45.5543C29.1366 16.523 15.8275 30.4525 15.8275 47.6353V505.322C15.8275 522.505 29.1366 536.434 45.5543 536.434H507.486C523.903 536.434 537.213 522.505 537.213 505.322V47.6353ZM546.05 505.322C546.05 527.613 528.784 545.684 507.486 545.684H45.5543C24.2557 545.684 6.98975 527.613 6.98975 505.322V47.6353C6.98975 25.3441 24.2557 7.27344 45.5543 7.27344H507.486C528.784 7.27352 546.05 25.3441 546.05 47.6353V505.322Z" fill="#CB5D78"/>
</g>
</svg>
