<svg width="553" height="555" viewBox="0 0 553 555" fill="none" xmlns="http://www.w3.org/2000/svg">
<path d="M537.228 47.3784C537.228 30.1864 523.912 16.2496 507.485 16.2495H45.5795C29.1535 16.2495 15.8375 30.1864 15.8375 47.3784V505.037C15.8375 522.229 29.1534 536.166 45.5795 536.166H507.485C523.912 536.166 537.228 522.229 537.228 505.037V47.3784ZM546.065 505.037C546.065 527.337 528.792 545.415 507.485 545.415H45.5795C24.2727 545.415 7 527.337 7 505.037V47.3784C7 25.078 24.2727 7 45.5795 7H507.485C528.792 7.00003 546.065 25.0781 546.065 47.3784V505.037Z" fill="white"/>
<path d="M518.839 0C537.705 0 553 16.0077 553 35.7539V517.246C553 536.992 537.705 553 518.839 553H34.1611C15.2946 553 0 536.992 0 517.246V35.7539C0 16.0077 15.2946 0 34.1611 0H518.839ZM45.5488 7.29492C24.2421 7.29517 6.96973 25.3736 6.96973 47.6738V505.332C6.9699 527.632 24.2423 545.71 45.5488 545.71H507.455C528.762 545.71 546.035 527.632 546.035 505.332V47.6738C546.035 25.3735 528.762 7.29495 507.455 7.29492H45.5488ZM507.455 16.5449C523.881 16.5449 537.197 30.4818 537.197 47.6738V505.332C537.197 522.524 523.881 536.461 507.455 536.461H45.5488C29.123 536.461 15.8078 522.524 15.8076 505.332V47.6738C15.8076 30.482 29.1229 16.5452 45.5488 16.5449H507.455ZM56.9336 23.834C38.0671 23.834 22.7725 39.8417 22.7725 59.5879V493.411C22.7725 513.157 38.0671 529.165 56.9336 529.165H496.062C514.929 529.165 530.224 513.157 530.224 493.411V59.5879C530.224 39.8417 514.929 23.834 496.062 23.834H56.9336Z" fill="#C82667"/>
<path opacity="0.9" d="M537.197 47.6733C537.197 30.4814 523.881 16.5445 507.455 16.5445H45.5493C29.1232 16.5445 15.8072 30.4813 15.8072 47.6733V505.332C15.8072 522.524 29.1232 536.461 45.5493 536.461H507.455C523.881 536.461 537.197 522.524 537.197 505.332V47.6733ZM546.035 505.332C546.035 527.632 528.762 545.71 507.455 545.71H45.5493C24.2424 545.71 6.96973 527.632 6.96973 505.332V47.6733C6.96973 25.373 24.2424 7.29492 45.5493 7.29492H507.455C528.762 7.29495 546.035 25.373 546.035 47.6733V505.332Z" fill="#C82667"/>
<path d="M495.392 478.459C495.392 478.459 524.242 493.039 528.372 500.539C530.692 504.759 528.512 513.769 519.932 515.679C506.112 518.759 486.312 481.699 486.312 481.699C486.312 481.699 485.462 476.149 495.392 478.459Z" fill="#494645"/>
<path d="M390.842 465.119C390.842 465.119 381.672 434.119 375.032 428.709C371.292 425.669 362.042 426.199 358.622 434.299C353.112 447.339 386.012 473.469 386.012 473.469C386.012 473.469 391.322 475.309 390.832 465.119H390.842Z" fill="#494645"/>
<path d="M377.672 500.829C378.882 534.839 406.762 552.469 440.342 551.269C473.922 550.069 500.472 530.499 499.262 496.499C498.042 462.489 477.452 420.549 435.732 422.039C390.672 423.649 376.462 466.829 377.672 500.829Z" fill="#494645"/>
<path d="M440.414 500.802C461.708 500.043 478.473 485.5 477.861 468.318C477.249 451.136 459.491 437.823 438.198 438.581C416.904 439.34 400.138 453.883 400.75 471.065C401.362 488.247 419.12 501.56 440.414 500.802Z" fill="white"/>
<path d="M455.648 477.897C457.552 477.829 458.943 473.492 458.755 468.21C458.567 462.928 456.871 458.701 454.966 458.769C453.062 458.837 451.671 463.174 451.859 468.456C452.047 473.738 453.744 477.964 455.648 477.897Z" fill="#46353A"/>
<path d="M423.589 479.037C425.493 478.969 426.884 474.633 426.696 469.351C426.508 464.069 424.812 459.842 422.907 459.909C421.003 459.977 419.612 464.314 419.8 469.596C419.988 474.878 421.685 479.105 423.589 479.037Z" fill="#46353A"/>
<path d="M492.882 549.698L493.622 546.958C494.672 543.078 488.592 535.018 483.132 534.338L466.972 536.328C464.192 535.978 461.582 537.648 460.942 540.008L460.492 541.678C459.852 544.038 461.302 546.638 463.942 547.538L478.522 554.278C483.692 556.038 491.832 553.578 492.882 549.698Z" fill="#494645"/>
<path d="M382.352 547.139L381.082 544.599C379.282 540.999 381.702 534.909 386.912 533.149L405.072 528.859C407.732 527.959 410.612 529.079 411.712 531.259L412.482 532.799C413.582 534.989 412.682 537.829 410.272 539.229L399.172 550.149C394.462 552.909 384.152 550.729 382.352 547.129V547.139Z" fill="#494645"/>
</svg>
