<svg width="553" height="553" viewBox="0 0 553 553" fill="none" xmlns="http://www.w3.org/2000/svg">
<path d="M518.839 0H34.1608C15.2943 0 0 16.0075 0 35.7536V517.246C0 536.993 15.2943 553 34.1608 553H518.839C537.706 553 553 536.993 553 517.246V35.7536C553 16.0075 537.706 0 518.839 0Z" fill="#16A0C6"/>
<path d="M495.875 24.0957H57.1249C38.2747 24.0957 22.9937 40.1247 22.9937 59.8976V494.307C22.9937 514.08 38.2747 530.109 57.1249 530.109H495.875C514.725 530.109 530.006 514.08 530.006 494.307V59.8976C530.006 40.1247 514.725 24.0957 495.875 24.0957Z" fill="white"/>
<g style="mix-blend-mode:screen" opacity="0.15">
<path d="M537.262 47.6165C537.262 30.4204 523.942 16.4803 507.512 16.4802H45.4874C29.0571 16.4802 15.7377 30.4204 15.7377 47.6165V505.383C15.7377 522.579 29.0571 536.519 45.4874 536.519H507.512C523.942 536.519 537.262 522.579 537.262 505.383V47.6165ZM546.102 505.383C546.102 527.689 528.825 545.771 507.512 545.771H45.4874C24.1751 545.771 6.89795 527.689 6.89795 505.383V47.6165C6.89795 25.3108 24.1751 7.22852 45.4874 7.22852H507.512C528.825 7.22854 546.102 25.3108 546.102 47.6165V505.383Z" fill="#6FAEC8"/>
</g>
</svg>
