<svg width="553" height="553" viewBox="0 0 553 553" fill="none" xmlns="http://www.w3.org/2000/svg">
<path d="M518.839 0H34.1608C15.2943 0 0 16.0075 0 35.7536V517.246C0 536.993 15.2943 553 34.1608 553H518.839C537.706 553 553 536.993 553 517.246V35.7536C553 16.0075 537.706 0 518.839 0Z" fill="#EB9E14"/>
<path d="M496.063 23.834H56.9333C38.0668 23.834 22.7725 39.8414 22.7725 59.5876V493.412C22.7725 513.158 38.0668 529.165 56.9333 529.165H496.063C514.929 529.165 530.223 513.158 530.223 493.412V59.5876C530.223 39.8414 514.929 23.834 496.063 23.834Z" fill="white"/>
<g style="mix-blend-mode:screen" opacity="0.15">
<path d="M537.197 47.6733C537.197 30.4814 523.881 16.5445 507.455 16.5445H45.5493C29.1232 16.5445 15.8072 30.4813 15.8072 47.6733V505.332C15.8072 522.524 29.1232 536.461 45.5493 536.461H507.455C523.881 536.461 537.197 522.524 537.197 505.332V47.6733ZM546.035 505.332C546.035 527.632 528.762 545.71 507.455 545.71H45.5493C24.2424 545.71 6.96973 527.632 6.96973 505.332V47.6733C6.96973 25.373 24.2424 7.29492 45.5493 7.29492H507.455C528.762 7.29495 546.035 25.373 546.035 47.6733V505.332Z" fill="#EB9E14"/>
</g>
</svg>
