<svg width="538" height="964" viewBox="0 0 538 964" fill="none" xmlns="http://www.w3.org/2000/svg">
<rect x="68" y="39" width="54" height="925" fill="#C09239"/>
<rect x="415" y="39" width="54" height="925" fill="#C09239"/>
<path d="M508.66 76.67C508.66 110.7 481.42 129.31 447.83 129.31C414.23 129.31 387 110.7 387 76.67C386.99 42.65 406.08 0 447.82 0C492.91 0 508.65 42.65 508.65 76.67H508.66Z" fill="#494645"/>
<path d="M483.001 39.1298C483.001 21.9398 465.731 7.99977 444.421 7.99977C423.111 7.99977 407.561 21.9398 407.561 39.1298C407.561 56.3198 423.111 70.2598 444.421 70.2598C465.731 70.2598 483.001 56.3198 483.001 39.1298Z" fill="white"/>
<path d="M462.052 36.3081C462.117 31.7743 460.616 28.0767 458.7 28.0493C456.784 28.0219 455.178 31.675 455.113 36.2088C455.048 40.7426 456.549 44.4402 458.465 44.4676C460.381 44.4951 461.987 40.8419 462.052 36.3081Z" fill="#46353A"/>
<path d="M433.617 36.3081C433.682 31.7743 432.181 28.0767 430.265 28.0493C428.349 28.0219 426.743 31.675 426.678 36.2088C426.613 40.7426 428.114 44.4402 430.03 44.4676C431.946 44.4951 433.552 40.8419 433.617 36.3081Z" fill="#46353A"/>
<path d="M0 108C0 91.4314 13.4315 78 30 78H508C524.569 78 538 91.4315 538 108V829C538 845.569 524.569 859 508 859H30C13.4314 859 0 845.569 0 829V108Z" fill="#F5A200"/>
<path d="M179.952 78.6215C179.566 78.2357 179.038 78.0001 178.449 78.0001L166.915 78.0001C166.643 78.0001 166.415 78.1057 166.245 78.2803C166.074 78.455 165.972 78.6905 165.972 78.9424C165.972 79.0155 165.981 79.0886 166.001 79.1657C166.18 79.909 166.326 80.5182 166.423 80.9405C166.525 81.3629 166.582 81.5985 166.582 81.5985C166.695 82.0818 166.752 82.561 166.752 83.0403C166.752 83.9175 166.561 84.7704 166.212 85.5624C165.863 86.3503 165.359 87.0773 164.73 87.7109C163.475 88.9739 161.72 89.8715 159.681 90.2005C159.681 90.2005 159.681 90.2005 159.677 90.2005C159.677 90.2005 159.673 90.2005 159.669 90.2005C159.097 90.302 158.532 90.3507 157.972 90.3507C156.237 90.3507 154.601 89.8877 153.216 89.108C151.835 88.3282 150.702 87.2276 150.003 85.9157C149.54 85.0425 149.272 84.0719 149.272 83.0606C149.272 82.5773 149.333 82.0899 149.459 81.6026L150.04 79.1657C150.056 79.0886 150.068 79.0155 150.068 78.9424C150.068 78.6946 149.967 78.459 149.796 78.2844C149.621 78.1098 149.398 78.0042 149.126 78.0042L137.571 78.0042C136.982 78.0042 136.454 78.2397 136.069 78.6256C135.683 79.0114 135.447 79.5394 135.447 80.1283L135.447 93.0353C135.447 93.7704 135.143 94.4324 134.667 94.8995C134.192 95.3665 133.542 95.6508 132.836 95.6508C132.633 95.6508 132.43 95.6265 132.222 95.5777L128.685 94.733L128.677 94.733C128.319 94.6355 127.97 94.5949 127.625 94.5949C126.91 94.5949 126.216 94.7817 125.554 95.131C124.896 95.4803 124.278 95.9961 123.75 96.6377C122.686 97.913 122 99.7 122 101.613C122 102.08 122.041 102.555 122.126 103.03L122.126 103.038L122.126 103.047C122.333 104.338 122.808 105.467 123.45 106.365C124.096 107.266 124.908 107.936 125.789 108.326C126.378 108.586 127 108.72 127.633 108.724C127.978 108.724 128.332 108.684 128.685 108.598C128.685 108.598 129.038 108.513 129.66 108.367C130.281 108.221 131.158 108.01 132.21 107.758C132.413 107.709 132.62 107.685 132.824 107.685C133.53 107.685 134.18 107.969 134.655 108.436C135.13 108.903 135.435 109.565 135.435 110.3L135.435 123.187C135.435 123.776 135.671 124.304 136.056 124.69C136.442 125.075 136.97 125.311 137.559 125.311L149.093 125.311C149.366 125.311 149.593 125.205 149.764 125.031C149.934 124.856 150.036 124.621 150.036 124.369C150.036 124.296 150.028 124.223 150.007 124.145C149.65 122.655 149.426 121.713 149.426 121.713C149.313 121.229 149.256 120.75 149.256 120.271C149.256 119.394 149.447 118.541 149.796 117.753C150.145 116.965 150.649 116.238 151.278 115.604C152.533 114.341 154.288 113.444 156.327 113.115C156.327 113.115 156.327 113.115 156.331 113.115L156.339 113.115C156.912 113.013 157.476 112.964 158.037 112.964C159.771 112.964 161.407 113.427 162.792 114.207C164.173 114.987 165.306 116.088 166.005 117.399C166.468 118.273 166.736 119.243 166.736 120.255C166.736 120.738 166.675 121.225 166.549 121.713L165.968 124.149C165.948 124.227 165.94 124.3 165.94 124.373C165.94 124.621 166.042 124.856 166.212 125.031C166.387 125.205 166.61 125.311 166.882 125.311L178.437 125.311C179.026 125.311 179.554 125.075 179.94 124.69C180.325 124.304 180.561 123.776 180.561 123.187L180.561 110.28C180.561 109.545 180.866 108.883 181.341 108.416C181.816 107.949 182.466 107.664 183.172 107.664C183.375 107.664 183.579 107.689 183.782 107.737L187.319 108.582L187.331 108.582C187.689 108.68 188.038 108.724 188.383 108.724C189.098 108.724 189.792 108.538 190.454 108.188C191.112 107.839 191.73 107.323 192.258 106.686C193.314 105.402 194.004 103.615 194 101.702C194 101.235 193.959 100.76 193.874 100.285L193.874 100.277L193.874 100.269C193.667 98.9771 193.192 97.848 192.55 96.9505C191.904 96.0489 191.092 95.3787 190.211 94.9888C189.622 94.7289 189 94.5949 188.367 94.5908C188.022 94.5908 187.668 94.6314 187.315 94.7167C187.315 94.7167 186.962 94.802 186.34 94.9482C185.723 95.0944 184.842 95.3056 183.79 95.5574C183.587 95.6062 183.38 95.6305 183.176 95.6305C182.47 95.6305 181.82 95.3462 181.345 94.8792C180.87 94.4121 180.565 93.7501 180.565 93.015L180.565 80.1283C180.565 79.5394 180.329 79.0114 179.944 78.6256L179.952 78.6215Z" fill="white"/>
<path d="M491.279 68.1324C491.279 68.1324 521.809 53.0124 519.619 79.4624C519.619 79.4624 519.169 88.9824 491.279 83.9924C463.399 79.0024 491.279 68.1224 491.279 68.1224V68.1324Z" fill="#494645"/>
<path d="M376.889 82.1025C375.199 81.2525 373.939 79.7525 373.259 77.9925C371.619 73.6925 369.529 64.3625 381.729 63.1425C397.649 61.5525 398.559 73.7925 398.559 73.7925C398.559 73.7925 386.079 86.6925 376.889 82.1025Z" fill="#494645"/>
</svg>
