<svg width="538" height="1083" viewBox="0 0 538 1083" fill="none" xmlns="http://www.w3.org/2000/svg">
<path d="M267.449 101.133C266.006 135.13 238.004 152.569 204.437 151.148C170.87 149.727 144.444 129.976 145.886 95.979C147.328 61.9826 168.209 20.1829 209.928 21.9523C254.976 23.8636 268.901 67.1403 267.458 101.137L267.449 101.133Z" fill="#494645"/>
<path d="M204.7 100.678C225.988 101.581 243.836 88.388 244.565 71.2108C245.293 54.0336 228.626 39.3769 207.338 38.474C186.05 37.5712 168.202 50.7642 167.474 67.9414C166.745 85.1186 183.412 99.7753 204.7 100.678Z" fill="white"/>
<path d="M186.688 77.2949C188.591 77.3756 190.316 73.1603 190.54 67.8796C190.764 62.599 189.402 58.2528 187.499 58.1721C185.595 58.0913 183.87 62.3067 183.646 67.5873C183.422 72.8679 184.784 77.2141 186.688 77.2949Z" fill="#46353A"/>
<path d="M218.729 78.666C220.632 78.7467 222.357 74.5314 222.581 69.2507C222.805 63.9701 221.443 59.6239 219.54 59.5432C217.636 59.4624 215.911 63.6778 215.687 68.9584C215.463 74.239 216.825 78.5852 218.729 78.666Z" fill="#46353A"/>
<path d="M162.293 74.3467C162.293 74.3467 141.835 49.3173 133.623 46.8973C128.997 45.5363 120.672 49.6053 120.659 58.4045C120.631 72.5666 161.084 83.9173 161.084 83.9173C161.084 83.9173 166.695 83.5535 162.293 74.3467Z" fill="#494645"/>
<path d="M257.259 90.2174C257.259 90.2174 284.616 100.797 289.265 106.68C291.883 109.993 291.179 117.35 283.885 119.253C272.137 122.314 249.709 93.2092 249.709 93.2092C249.709 93.2092 248.206 88.7647 257.259 90.2174Z" fill="#494645"/>
<path d="M106.038 13.8677C105.58 14.1644 105.239 14.6314 105.116 15.2073L102.704 26.4865C102.647 26.7526 102.702 26.9971 102.837 27.2004C102.973 27.4038 103.182 27.5523 103.428 27.605C103.499 27.6203 103.573 27.6276 103.652 27.6239C104.416 27.6046 105.043 27.589 105.476 27.582C105.91 27.5711 106.153 27.5647 106.153 27.5647C106.649 27.5546 107.13 27.5992 107.598 27.6994C108.456 27.8829 109.25 28.2479 109.952 28.7551C110.649 29.2614 111.255 29.9059 111.743 30.654C112.715 32.1454 113.226 34.0488 113.121 36.1114C113.121 36.1114 113.121 36.1114 113.121 36.1153C113.121 36.1153 113.12 36.1193 113.119 36.1233C113.098 36.7045 113.028 37.2667 112.911 37.8148C112.548 39.5107 111.753 41.0144 110.701 42.2056C109.65 43.3929 108.336 44.2708 106.907 44.6795C105.957 44.9497 104.951 45.0088 103.962 44.7973C103.49 44.6962 103.026 44.5347 102.576 44.3097L100.314 43.2321C100.242 43.2001 100.173 43.1729 100.102 43.1576C99.8595 43.1058 99.6079 43.1558 99.4015 43.2861C99.1942 43.4204 99.0442 43.6167 98.9873 43.8828L96.5709 55.1819C96.4477 55.7578 96.5676 56.3234 96.8642 56.7814C97.1608 57.2393 97.6279 57.5801 98.2038 57.7033L110.825 60.4025C111.544 60.5563 112.128 60.9926 112.485 61.5549C112.843 62.1173 112.985 62.8122 112.837 63.5032C112.794 63.7018 112.728 63.8953 112.637 64.0877L111.071 67.3702L111.07 67.3782C110.9 67.7073 110.787 68.0403 110.715 68.3779C110.565 69.0769 110.603 69.7951 110.806 70.5155C111.01 71.232 111.385 71.9435 111.902 72.594C112.927 73.9013 114.531 74.9462 116.401 75.3462C116.858 75.4439 117.331 75.5036 117.814 75.5195L117.821 75.5212L117.829 75.5229C119.136 75.5905 120.339 75.3619 121.351 74.9221C122.368 74.4792 123.193 73.825 123.759 73.0448C124.136 72.5232 124.397 71.9436 124.533 71.3249C124.606 70.9873 124.64 70.6333 124.63 70.2699C124.63 70.2699 124.621 69.9066 124.608 69.2683C124.595 68.6301 124.572 67.7281 124.545 66.6468C124.54 66.438 124.56 66.2304 124.602 66.0318C124.75 65.3408 125.164 64.7648 125.72 64.3978C126.276 64.0308 126.987 63.8713 127.706 64.0251L140.308 66.7201C140.884 66.8433 141.449 66.7233 141.907 66.4267C142.365 66.1301 142.706 65.6631 142.829 65.0872L145.241 53.8079C145.298 53.5418 145.242 53.2974 145.107 53.094C144.972 52.8907 144.763 52.7421 144.517 52.6895C144.445 52.6742 144.372 52.6668 144.293 52.6706C142.76 52.7084 141.792 52.7297 141.792 52.7297C141.296 52.7399 140.815 52.6952 140.347 52.595C139.489 52.4116 138.695 52.0465 137.997 51.5402C137.3 51.0339 136.694 50.3894 136.206 49.6413C135.233 48.1499 134.723 46.2465 134.827 44.184C134.827 44.184 134.827 44.184 134.828 44.18L134.83 44.172C134.85 43.5908 134.921 43.0286 135.038 42.4805C135.401 40.7846 136.196 39.2809 137.248 38.0897C138.299 36.9024 139.612 36.0246 141.041 35.6158C141.992 35.3456 142.997 35.2865 143.986 35.498C144.459 35.5991 144.923 35.7606 145.373 35.9856L147.634 37.0632C147.706 37.0992 147.776 37.1224 147.847 37.1377C148.089 37.1895 148.341 37.1395 148.547 37.0092C148.755 36.8749 148.905 36.6786 148.961 36.4125L151.378 25.1134C151.501 24.5375 151.381 23.9719 151.085 23.5139C150.788 23.056 150.321 22.7152 149.745 22.592L137.123 19.8928C136.404 19.739 135.821 19.3027 135.463 18.7404C135.106 18.178 134.964 17.4831 135.112 16.7921C135.154 16.5935 135.221 16.4 135.311 16.2116L136.877 12.9291L136.879 12.9171C137.049 12.588 137.166 12.2558 137.238 11.9182C137.388 11.2192 137.35 10.501 137.147 9.78062C136.943 9.06418 136.568 8.35263 136.055 7.70298C135.02 6.40197 133.417 5.35309 131.546 4.95701C131.089 4.85934 130.616 4.79968 130.134 4.78371L130.126 4.78201L130.118 4.78031C128.811 4.71276 127.608 4.94131 126.596 5.38111C125.579 5.82403 124.754 6.4782 124.188 7.25849C123.811 7.78001 123.55 8.35963 123.414 8.97834C123.341 9.31593 123.307 9.66995 123.317 10.0333C123.317 10.0333 123.326 10.3967 123.339 11.0349C123.353 11.6692 123.375 12.5752 123.402 13.6564C123.407 13.8652 123.387 14.0729 123.345 14.2714C123.197 14.9625 122.783 15.5385 122.227 15.9055C121.671 16.2725 120.96 16.4319 120.241 16.2782L107.639 13.5832C107.063 13.46 106.498 13.5799 106.04 13.8765L106.038 13.8677Z" fill="#F5A200"/>
<rect x="68" y="79.0161" width="54" height="1003" fill="#D889AC"/>
<rect x="415" y="79.0161" width="54" height="1003" fill="#D889AC"/>
<path d="M0 147.016C0 130.448 13.4315 117.016 30 117.016H508C524.569 117.016 538 130.448 538 147.016V950.016C538 966.585 524.569 980.016 508 980.016H30C13.4314 980.016 0 966.585 0 950.016V147.016Z" fill="#E61673"/>
</svg>
