<svg width="538" height="925" viewBox="0 0 538 925" fill="none" xmlns="http://www.w3.org/2000/svg">
<rect x="68" width="54" height="925" fill="#C09239"/>
<rect x="415" width="54" height="925" fill="#C09239"/>
<path d="M0 69C0 52.4314 13.4315 39 30 39H508C524.569 39 538 52.4315 538 69V790C538 806.569 524.569 820 508 820H30C13.4314 820 0 806.569 0 790V69Z" fill="#F5A200"/>
<path d="M179.952 39.621C179.566 39.2352 179.038 38.9996 178.449 38.9996L166.915 38.9996C166.643 38.9996 166.415 39.1052 166.245 39.2799C166.074 39.4545 165.972 39.6901 165.972 39.9419C165.972 40.015 165.981 40.0881 166.001 40.1652C166.18 40.9085 166.326 41.5177 166.423 41.9401C166.525 42.3624 166.582 42.598 166.582 42.598C166.695 43.0813 166.752 43.5605 166.752 44.0398C166.752 44.917 166.561 45.7699 166.212 46.5619C165.863 47.3498 165.359 48.0768 164.73 48.7104C163.475 49.9735 161.72 50.871 159.681 51.2C159.681 51.2 159.681 51.2 159.677 51.2C159.677 51.2 159.673 51.2 159.669 51.2C159.097 51.3015 158.532 51.3503 157.972 51.3503C156.237 51.3503 154.601 50.8873 153.216 50.1075C151.835 49.3277 150.702 48.2271 150.003 46.9152C149.54 46.042 149.272 45.0714 149.272 44.0601C149.272 43.5768 149.333 43.0894 149.459 42.6021L150.04 40.1652C150.056 40.0881 150.068 40.015 150.068 39.9419C150.068 39.6941 149.967 39.4586 149.796 39.2839C149.621 39.1093 149.398 39.0037 149.126 39.0037L137.571 39.0037C136.982 39.0037 136.454 39.2392 136.069 39.6251C135.683 40.0109 135.447 40.5389 135.447 41.1278L135.447 54.0348C135.447 54.7699 135.143 55.4319 134.667 55.899C134.192 56.3661 133.542 56.6503 132.836 56.6503C132.633 56.6503 132.43 56.626 132.222 56.5772L128.685 55.7325L128.677 55.7325C128.319 55.635 127.97 55.5944 127.625 55.5944C126.91 55.5944 126.216 55.7812 125.554 56.1305C124.896 56.4798 124.278 56.9956 123.75 57.6373C122.686 58.9125 122 60.6995 122 62.6124C122 63.0795 122.041 63.5547 122.126 64.0299L122.126 64.038L122.126 64.0461C122.333 65.3376 122.808 66.4667 123.45 67.3642C124.096 68.2659 124.908 68.936 125.789 69.3259C126.378 69.5858 127 69.7198 127.633 69.7239C127.978 69.7239 128.332 69.6833 128.685 69.598C128.685 69.598 129.038 69.5127 129.66 69.3665C130.281 69.2203 131.158 69.0091 132.21 68.7573C132.413 68.7086 132.62 68.6842 132.824 68.6842C133.53 68.6842 134.18 68.9685 134.655 69.4355C135.13 69.9026 135.435 70.5646 135.435 71.2997L135.435 84.1864C135.435 84.7753 135.671 85.3033 136.056 85.6892C136.442 86.075 136.97 86.3105 137.559 86.3105L149.093 86.3105C149.366 86.3105 149.593 86.205 149.764 86.0303C149.934 85.8557 150.036 85.6201 150.036 85.3683C150.036 85.2952 150.028 85.2221 150.007 85.1449C149.65 83.6544 149.426 82.7122 149.426 82.7122C149.313 82.2289 149.256 81.7496 149.256 81.2704C149.256 80.3931 149.447 79.5402 149.796 78.7523C150.145 77.9644 150.649 77.2374 151.278 76.6039C152.533 75.3408 154.288 74.4432 156.327 74.1142C156.327 74.1142 156.327 74.1142 156.331 74.1142L156.339 74.1142C156.912 74.0127 157.476 73.964 158.037 73.964C159.771 73.964 161.407 74.427 162.792 75.2068C164.173 75.9865 165.306 77.0872 166.005 78.399C166.468 79.2722 166.736 80.2429 166.736 81.2541C166.736 81.7374 166.675 82.2248 166.549 82.7122L165.968 85.149C165.948 85.2262 165.94 85.2993 165.94 85.3724C165.94 85.6201 166.042 85.8557 166.212 86.0303C166.387 86.205 166.61 86.3105 166.882 86.3105L178.437 86.3105C179.026 86.3105 179.554 86.075 179.94 85.6892C180.325 85.3033 180.561 84.7753 180.561 84.1865L180.561 71.2794C180.561 70.5443 180.866 69.8823 181.341 69.4152C181.816 68.9482 182.466 68.6639 183.172 68.6639C183.375 68.6639 183.579 68.6883 183.782 68.737L187.319 69.5818L187.331 69.5818C187.689 69.6792 188.038 69.7239 188.383 69.7239C189.098 69.7239 189.792 69.5371 190.454 69.1878C191.112 68.8385 191.73 68.3227 192.258 67.6851C193.314 66.4017 194.004 64.6147 194 62.7018C194 62.2347 193.959 61.7596 193.874 61.2844L193.874 61.2762L193.874 61.2681C193.667 59.9766 193.192 58.8476 192.55 57.95C191.904 57.0484 191.092 56.3782 190.211 55.9883C189.622 55.7284 189 55.5944 188.367 55.5903C188.022 55.5903 187.668 55.6309 187.315 55.7162C187.315 55.7162 186.962 55.8015 186.34 55.9477C185.723 56.0939 184.842 56.3051 183.79 56.5569C183.587 56.6057 183.38 56.63 183.176 56.63C182.47 56.63 181.82 56.3457 181.345 55.8787C180.87 55.4116 180.565 54.7496 180.565 54.0145L180.565 41.1278C180.565 40.5389 180.329 40.0109 179.944 39.6251L179.952 39.621Z" fill="white"/>
</svg>
