<svg width="497" height="170" viewBox="0 0 497 170" fill="none" xmlns="http://www.w3.org/2000/svg">
<path d="M170.689 139.741C170.689 140.166 170.337 140.52 169.905 140.511C146.133 140.094 126.922 120.597 126.922 96.6859C126.922 72.7752 146.133 53.2776 169.905 52.8604C170.329 52.8604 170.689 53.2054 170.689 53.6306V67.5117C170.689 67.9209 170.361 68.2499 169.945 68.2659C154.638 68.6591 142.309 81.2563 142.309 96.6859C142.309 112.116 154.638 124.713 169.945 125.106C170.353 125.114 170.689 125.443 170.689 125.86V139.741Z" fill="#006B5C"/>
<path d="M118.249 102.423L102.607 86.7606C102.159 76.8754 98.9023 67.7043 93.6296 60.0336C93.6696 59.9453 93.6936 59.841 93.6936 59.7367V37.3425H113.864C114.289 37.3425 114.625 36.9975 114.625 36.5802V23.9429C114.625 23.5176 114.281 23.1806 113.864 23.1806H93.6936V0.786424C93.6936 0.361166 93.3495 0.0241699 92.9335 0.0241699H80.3156C79.8916 0.0241699 79.5555 0.36919 79.5555 0.786424V46.2007C71.4504 40.8408 61.753 37.7036 51.3354 37.7036C23.0273 37.7036 0 60.7718 0 89.1276C0 117.483 23.0273 140.552 51.3354 140.552C74.2988 140.552 93.7896 125.371 100.327 104.501L108.248 112.437C108.544 112.733 109.024 112.733 109.328 112.437L118.249 103.498C118.545 103.201 118.545 102.72 118.249 102.423ZM51.3354 125.146C31.5086 125.146 15.3782 108.986 15.3782 89.1276C15.3782 69.2689 31.5086 53.1091 51.3354 53.1091C71.1623 53.1091 87.2926 69.2689 87.2926 89.1276C87.2926 108.986 71.1623 125.146 51.3354 125.146Z" fill="#E61673"/>
<path d="M230.761 63.516C231.186 63.516 231.522 63.2593 231.522 62.9383V53.4302C231.522 53.1092 231.178 52.8525 230.761 52.8525H224.041L230.369 46.5137C230.665 46.2169 230.665 45.7354 230.369 45.4386L221.48 36.5322C221.184 36.2354 220.704 36.2354 220.4 36.5322L204.102 52.8605H189.812C189.387 52.8605 189.051 53.1173 189.051 53.4382V62.9463C189.051 63.2673 189.395 63.524 189.812 63.524H193.46L177.018 79.9887C176.722 80.2856 176.722 80.767 177.018 81.0639L185.907 89.9702C186.203 90.2671 186.683 90.2671 186.987 89.9702L213.399 63.516H230.753H230.761Z" fill="#F5A200"/>
<path d="M253.325 108.088C252.517 100.401 248.732 93.5888 243.155 88.8227V74.043C243.155 73.6178 242.811 73.2808 242.395 73.2808H229.817C229.393 73.2808 229.057 73.6258 229.057 74.043V82.2272C227.473 81.9624 225.841 81.81 224.184 81.81C208.03 81.81 194.876 94.9769 194.876 111.161C194.876 127.345 208.022 140.512 224.184 140.512C235.418 140.512 245.188 134.141 250.108 124.825L258.277 133.009C258.573 133.306 259.054 133.306 259.358 133.009L268.247 124.103C268.543 123.806 268.543 123.325 268.247 123.028L253.325 108.08V108.088ZM224.184 125.114C216.503 125.114 210.262 118.856 210.262 111.169C210.262 103.482 216.511 97.2235 224.184 97.2235C231.858 97.2235 238.106 103.482 238.106 111.169C238.106 118.856 231.866 125.114 224.184 125.114Z" fill="#F5A200"/>
<path d="M272.656 75.5274L252.597 55.436C252.301 55.1392 251.821 55.1392 251.517 55.436L242.627 64.3424C242.331 64.6393 242.331 65.1207 242.627 65.4176L262.686 85.509C262.982 85.8058 263.462 85.8058 263.766 85.509L272.656 76.6026C272.952 76.3057 272.952 75.8243 272.656 75.5274Z" fill="#F5A200"/>
<path d="M346.378 101.669C346.378 87.0735 338.097 74.38 325.991 68.0573C325.479 67.7925 325.423 67.0864 325.903 66.7574L336.753 59.3034C340.713 56.5834 341.041 50.1564 335.24 47.1154C335.128 47.0592 335 47.0271 334.872 47.0271H288.618C288.194 47.0271 287.858 47.3721 287.858 47.7894V59.7206C287.858 60.1459 288.202 60.4829 288.618 60.4829H308.829C309.581 60.4829 309.877 61.4538 309.261 61.871L304.764 64.9601C300.771 67.7042 300.475 74.2195 306.42 77.2204C306.54 77.2846 306.684 77.3086 306.82 77.3006C319.55 76.41 330.392 85.3805 332.544 97.3358C327.591 88.261 317.966 82.0908 306.932 82.0908C290.85 82.0908 277.768 95.1935 277.768 111.305C277.768 127.417 290.85 140.52 306.932 140.52C308.533 140.52 310.101 140.383 311.629 140.134C330.432 137.663 346.386 120.934 346.386 101.669H346.378ZM293.13 111.305C293.13 103.691 299.315 97.4963 306.916 97.4963C314.517 97.4963 320.702 103.691 320.702 111.305C320.702 118.92 314.517 125.114 306.916 125.114C299.315 125.114 293.13 118.92 293.13 111.305Z" fill="#00AAD4"/>
<path d="M484.158 145.222C470.324 145.222 459.074 133.948 459.074 120.099V107.63H444.976V120.099C444.976 141.739 462.555 159.343 484.158 159.343H497V145.222H484.158Z" fill="#403D3C"/>
<path d="M489.279 45.5027V1.17168C489.279 0.74642 488.935 0.409424 488.519 0.409424H362.044C361.62 0.409424 361.284 0.754444 361.284 1.17168V97.7773C361.284 128.62 357.068 154.184 305.492 154.433C305.076 154.433 304.732 154.77 304.732 155.187V169.068C304.732 169.493 305.084 169.838 305.508 169.838C333.848 169.71 353.107 162.448 364.357 147.645C375.206 133.379 376.67 114.435 376.67 97.7853V47.0353C376.67 46.61 377.014 46.273 377.43 46.273H488.519C488.943 46.273 489.279 45.928 489.279 45.5108V45.5027ZM473.892 30.0972C473.892 30.5225 473.548 30.8595 473.132 30.8595H377.422C376.998 30.8595 376.662 30.5144 376.662 30.0972V16.5772C376.662 16.152 377.006 15.815 377.422 15.815H473.132C473.556 15.815 473.892 16.16 473.892 16.5772V30.0972Z" fill="#403D3C"/>
<path d="M489.063 102.832V90.2351C489.063 89.8098 488.719 89.4728 488.302 89.4728H463.283V77.6379H475.589C476.013 77.6379 476.349 77.2928 476.349 76.8756V64.2784C476.349 63.8531 476.005 63.5161 475.589 63.5161H463.283V58.0279C463.283 57.6026 462.939 57.2656 462.523 57.2656H449.945C449.521 57.2656 449.185 57.6106 449.185 58.0279V63.5161H424.101V58.0279C424.101 57.6026 423.757 57.2656 423.341 57.2656H410.763C410.339 57.2656 410.003 57.6106 410.003 58.0279V63.5161H393.921C393.497 63.5161 393.161 63.8611 393.161 64.2784V76.8756C393.161 77.3009 393.505 77.6379 393.921 77.6379H410.003V89.4728H385.512C385.088 89.4728 384.751 89.8179 384.751 90.2351V102.832C384.751 103.258 385.096 103.595 385.512 103.595H488.302C488.727 103.595 489.063 103.25 489.063 102.832ZM424.101 77.6379H449.185V89.4728H424.101V77.6379Z" fill="#403D3C"/>
<path d="M432.263 131.99C432.094 131.605 431.646 131.429 431.262 131.589L411.916 139.95V110.88C411.916 110.455 411.572 110.118 411.155 110.118H398.578C398.154 110.118 397.818 110.463 397.818 110.88V145.39C397.818 145.607 397.914 145.799 398.058 145.936L382.655 152.595C382.271 152.764 382.087 153.213 382.255 153.598L387.232 165.16C387.4 165.546 387.848 165.722 388.232 165.562L436.839 144.555C437.223 144.387 437.407 143.938 437.239 143.553L432.263 131.99Z" fill="#403D3C"/>
<path d="M464.89 119.022L482.1 111.586C482.482 111.421 482.934 111.601 483.099 111.984L488.069 123.553C488.237 123.944 488.054 124.39 487.672 124.555L470.463 131.991C470.081 132.156 469.629 131.976 469.464 131.593L464.493 120.024C464.325 119.633 464.508 119.187 464.89 119.022Z" fill="#403D3C"/>
<path d="M148.358 10.816V6.96459L145.101 2.55957H147.589L149.382 5.15926L151.182 2.55957H153.662L150.414 6.97262V10.824H148.358V10.816Z" fill="#403D3C"/>
<path d="M160.167 2.44727C161.575 2.44727 162.712 2.87252 163.584 3.72304C164.456 4.57355 164.888 5.56047 164.888 6.69181C164.888 7.82316 164.448 8.82612 163.568 9.66862C162.688 10.5111 161.551 10.9283 160.175 10.9283C158.799 10.9283 157.639 10.5111 156.767 9.67664C155.887 8.84217 155.447 7.84723 155.447 6.69984C155.447 5.55245 155.879 4.58158 156.751 3.73106C157.623 2.88055 158.759 2.46331 160.167 2.46331V2.44727ZM160.167 9.20324C160.943 9.20324 161.575 8.97055 162.047 8.50518C162.528 8.0398 162.76 7.43802 162.76 6.68379C162.76 5.92956 162.52 5.31976 162.047 4.85438C161.575 4.38901 160.943 4.16434 160.167 4.16434C159.391 4.16434 158.751 4.39703 158.279 4.85438C157.799 5.31173 157.559 5.92154 157.559 6.68379C157.559 7.44604 157.799 8.04782 158.279 8.50518C158.759 8.97055 159.391 9.20324 160.167 9.20324Z" fill="#403D3C"/>
<path d="M174.505 2.55151L171.817 6.435L175.457 10.8079H172.889L169.617 6.93247V10.8079H167.56V2.55151H169.617V6.27452L172.241 2.55151H174.497H174.505Z" fill="#403D3C"/>
<path d="M183.603 2.55151H185.659V7.23737C185.659 8.44093 185.299 9.35563 184.595 9.98148C183.883 10.6073 182.867 10.9122 181.538 10.9122C180.21 10.9122 179.218 10.5993 178.498 9.96543C177.778 9.33156 177.418 8.42488 177.418 7.24539V2.55151H179.474V7.30156C179.474 7.87927 179.658 8.33662 180.042 8.68164C180.418 9.02666 180.914 9.20318 181.522 9.20318C182.13 9.20318 182.658 9.02666 183.043 8.67361C183.419 8.32057 183.611 7.81508 183.611 7.15713V2.55151H183.603Z" fill="#403D3C"/>
<path d="M197.005 2.55151V10.8159H195.268L190.716 5.52029V10.8159H188.659V2.55151H190.54L194.94 7.59844V2.55151H196.997H197.005Z" fill="#403D3C"/>
<path d="M204.894 2.55151L208.558 10.8159H206.35L205.67 9.18713H201.973L201.357 10.8159H199.181L202.509 2.55151H204.894ZM205.07 7.73484L203.734 4.52535L202.525 7.73484H205.07Z" fill="#403D3C"/>
<path d="M210.718 2.55151H214.399C215.199 2.55151 215.847 2.7842 216.343 3.24958C216.839 3.71495 217.095 4.27661 217.095 4.93456C217.095 5.84124 216.623 6.51523 215.679 6.95654C216.095 7.14911 216.487 7.6546 216.863 8.48104C217.239 9.30749 217.599 10.0858 217.944 10.824H215.687C215.551 10.5512 215.319 10.0296 214.983 9.26737C214.647 8.50512 214.359 8.01567 214.127 7.791C213.887 7.57436 213.631 7.46203 213.359 7.46203H212.767V10.8159H210.71V2.55151H210.718ZM212.767 4.068V5.94555H213.855C214.199 5.94555 214.479 5.86531 214.679 5.69681C214.879 5.53634 214.983 5.29563 214.983 4.99875C214.983 4.3729 214.591 4.068 213.807 4.068H212.767Z" fill="#403D3C"/>
<path d="M226.225 2.55151H228.281V7.23737C228.281 8.44093 227.921 9.35563 227.217 9.98148C226.505 10.6073 225.489 10.9122 224.161 10.9122C222.832 10.9122 221.84 10.5993 221.12 9.96543C220.4 9.33156 220.04 8.42488 220.04 7.24539V2.55151H222.096V7.30156C222.096 7.87927 222.28 8.33662 222.664 8.68164C223.04 9.02666 223.537 9.20318 224.145 9.20318C224.753 9.20318 225.281 9.02666 225.665 8.67361C226.041 8.32057 226.233 7.81508 226.233 7.15713V2.55151H226.225Z" fill="#403D3C"/>
<path d="M246.508 9.29946V10.8159H240.427V2.55151H246.428V4.068H242.483V5.80112H246.244V7.3176H242.483V9.30749H246.508V9.29946Z" fill="#403D3C"/>
<path d="M257.789 2.55151L254.565 6.53128L258.141 10.8159H255.477L253.245 8.08788L251.044 10.8159H248.42L251.924 6.5393L248.62 2.55954H251.284L253.253 4.99875L255.189 2.55954H257.797L257.789 2.55151Z" fill="#403D3C"/>
<path d="M268.559 2.55151V10.8159H266.503V7.47808H262.39V10.8159H260.334V2.55151H262.39V5.86531H266.503V2.55151H268.559Z" fill="#403D3C"/>
<path d="M273.736 2.55151V10.8159H271.679V2.55151H273.736Z" fill="#403D3C"/>
<path d="M276.84 2.55151H280.409C281.257 2.55151 281.929 2.76013 282.417 3.16934C282.905 3.57855 283.145 4.05997 283.145 4.62163C283.145 5.33575 282.769 5.88938 282.017 6.27452C282.585 6.42697 283.017 6.69175 283.321 7.06887C283.625 7.44598 283.769 7.88729 283.769 8.39278C283.769 9.10689 283.521 9.69263 283.033 10.142C282.545 10.5913 281.817 10.8159 280.857 10.8159H276.84V2.55151ZM278.897 4.068V5.83322H279.969C280.297 5.83322 280.553 5.74496 280.745 5.57646C280.937 5.40796 281.025 5.19132 281.025 4.93456C281.025 4.6778 280.929 4.47721 280.745 4.30871C280.561 4.14021 280.305 4.05997 279.969 4.05997H278.897V4.068ZM278.897 7.3497V9.29946H280.057C280.601 9.29946 281.001 9.22725 281.241 9.0748C281.481 8.92235 281.601 8.65757 281.601 8.28848C281.601 7.99962 281.489 7.77496 281.257 7.60646C281.025 7.43796 280.721 7.35772 280.345 7.35772H278.905L278.897 7.3497Z" fill="#403D3C"/>
<path d="M288.618 2.55151V10.8159H286.562V2.55151H288.618Z" fill="#403D3C"/>
<path d="M299.171 2.55151V4.068H296.187V10.8159H294.131V4.068H291.138V2.55151H299.163H299.171Z" fill="#403D3C"/>
<path d="M303.764 2.55151V10.8159H301.708V2.55151H303.764Z" fill="#403D3C"/>
<path d="M311.245 2.44727C312.653 2.44727 313.789 2.87252 314.662 3.72304C315.534 4.57355 315.966 5.56047 315.966 6.69181C315.966 7.82316 315.526 8.82612 314.646 9.66862C313.765 10.5111 312.629 10.9283 311.253 10.9283C309.877 10.9283 308.717 10.5111 307.845 9.67664C306.964 8.84217 306.524 7.84723 306.524 6.69984C306.524 5.55245 306.956 4.58158 307.829 3.73106C308.701 2.88055 309.837 2.46331 311.245 2.46331V2.44727ZM311.245 9.20324C312.021 9.20324 312.653 8.97055 313.125 8.50518C313.605 8.0398 313.837 7.43802 313.837 6.68379C313.837 5.92956 313.597 5.31976 313.125 4.85438C312.645 4.39703 312.021 4.16434 311.245 4.16434C310.469 4.16434 309.829 4.39703 309.357 4.85438C308.877 5.31173 308.637 5.92154 308.637 6.68379C308.637 7.44604 308.877 8.04782 309.357 8.50518C309.837 8.97055 310.469 9.20324 311.245 9.20324Z" fill="#403D3C"/>
<path d="M327.016 2.55151V10.8159H325.279L320.727 5.52029V10.8159H318.67V2.55151H320.551L324.951 7.59844V2.55151H327.008H327.016Z" fill="#403D3C"/>
<path d="M236.522 30.0731L228.953 22.7154H137.124C131.443 22.7154 126.818 17.861 126.818 11.8994V0.409424H128.083V11.8994C128.083 17.163 132.139 21.4476 137.124 21.4476H229.465L236.514 28.3079L243.563 21.4476H335.905C340.889 21.4476 344.946 17.163 344.946 11.8994V0.409424H346.21V11.8994C346.21 17.861 341.585 22.7154 335.905 22.7154H244.075L236.506 30.0731H236.522Z" fill="#403D3C"/>
<path d="M2.69643 24.2236V21.311L11.0176 10.1901C11.4977 9.55621 11.8738 8.89826 12.1378 8.21624C12.4018 7.53423 12.5379 6.89233 12.5379 6.29055V6.25846C12.5379 5.30363 12.2578 4.56545 11.6977 4.03589C11.1377 3.50632 10.3455 3.24956 9.32139 3.24956C8.36125 3.24956 7.57714 3.53841 6.96905 4.11612C6.36096 4.69383 5.99291 5.50423 5.86489 6.56336V6.57941H2.40039V6.56336C2.69643 4.50126 3.44854 2.90454 4.64872 1.76517C5.84889 0.625804 7.40112 0.0480957 9.28939 0.0480957C11.4337 0.0480957 13.0899 0.593709 14.2581 1.67691C15.4263 2.76011 16.0104 4.30067 16.0104 6.28253V6.29858C16.0104 7.14107 15.8343 8.0317 15.4823 8.95443C15.1302 9.87715 14.6422 10.7678 14.0181 11.6103L7.11307 21.0221H16.1384V24.2155H2.69643V24.2236Z" fill="#221714"/>
<path d="M27.2279 24.4724C24.9556 24.4724 23.2514 23.8625 22.1152 22.6349C20.979 21.4073 20.4189 19.7544 20.4189 17.6763V6.79609C20.4189 4.67783 20.995 3.01692 22.1392 1.81336C23.2834 0.609803 24.9796 0 27.2279 0C29.4763 0 31.1805 0.601779 32.3247 1.80534C33.4688 3.0089 34.0369 4.66981 34.0369 6.79609V17.6763C34.0369 19.7945 33.4688 21.4554 32.3247 22.659C31.1805 23.8625 29.4843 24.4724 27.2279 24.4724ZM27.2279 21.2789C28.4521 21.2789 29.3322 20.958 29.8763 20.3161C30.4204 19.6742 30.6924 18.7916 30.6924 17.6763V6.79609C30.6924 5.66475 30.4204 4.78214 29.8763 4.14826C29.3322 3.51439 28.4521 3.19344 27.2279 3.19344C26.0038 3.19344 25.1156 3.51439 24.5795 4.14826C24.0435 4.78214 23.7714 5.66475 23.7714 6.79609V17.6763C23.7714 18.7916 24.0435 19.6742 24.5795 20.3161C25.1156 20.958 26.0038 21.2789 27.2279 21.2789Z" fill="#221714"/>
<path d="M38.5976 24.2236V21.311L46.9188 10.1901C47.3988 9.55621 47.7749 8.89826 48.0389 8.21624C48.303 7.53423 48.439 6.89233 48.439 6.29055V6.25846C48.439 5.30363 48.1589 4.56545 47.5989 4.03589C47.0388 3.50632 46.2467 3.24956 45.2225 3.24956C44.2624 3.24956 43.4783 3.53841 42.8702 4.11612C42.2621 4.69383 41.894 5.50423 41.766 6.56336V6.57941H38.3015V6.56336C38.5976 4.50126 39.3497 2.90454 40.5498 1.76517C41.75 0.625804 43.3022 0.0480957 45.1905 0.0480957C47.3348 0.0480957 48.9911 0.593709 50.1592 1.67691C51.3274 2.76011 51.9115 4.30067 51.9115 6.28253V6.29858C51.9115 7.14107 51.7355 8.0317 51.3834 8.95443C51.0314 9.87715 50.5433 10.7678 49.9192 11.6103L43.0142 21.0221H52.0395V24.2155H38.5816L38.5976 24.2236Z" fill="#221714"/>
<path d="M61.4889 24.4723C59.3766 24.4723 57.7443 23.8385 56.5842 22.5788C55.424 21.319 54.8479 19.5378 54.8479 17.251V17.235C54.8479 16.1999 54.9919 15.1087 55.272 13.9532C55.552 12.7978 55.9681 11.6825 56.5041 10.6074L61.6889 0.296875H65.2974L59.2085 12.2281L59.2245 11.6344C59.7926 10.5512 60.8088 10.0056 62.257 10.0056C64.1292 10.0056 65.5775 10.6314 66.6016 11.8751C67.6257 13.1188 68.1458 14.876 68.1458 17.1467V17.1627C68.1458 19.4736 67.5697 21.2709 66.4096 22.5547C65.2494 23.8385 63.6092 24.4723 61.4889 24.4723ZM61.4889 21.2468C62.561 21.2468 63.3851 20.9178 63.9532 20.2599C64.5213 19.6019 64.8093 18.6632 64.8093 17.4436V17.4275C64.8093 16.0876 64.5053 15.0525 63.9052 14.3223C63.3051 13.5922 62.441 13.2311 61.3288 13.2311C60.3367 13.2311 59.5606 13.6002 59.0165 14.3304C58.4724 15.0605 58.1924 16.1036 58.1924 17.4436V17.4596C58.1924 18.6792 58.4804 19.61 59.0565 20.2679C59.6326 20.9259 60.4407 21.2468 61.4969 21.2468H61.4889Z" fill="#221714"/>
</svg>
