<svg width="478" height="165" viewBox="0 0 478 165" fill="none" xmlns="http://www.w3.org/2000/svg">
<path d="M468.655 0H8.6788C3.8881 0 0 3.8881 0 8.6788V155.934C0 160.724 3.8881 164.612 8.6788 164.612H370.75C368.779 164.612 367.182 163.015 367.182 161.045V142.837C363.268 143.775 360.3 144.477 360.3 144.477C356.091 145.484 352.012 142.126 351.188 136.988C350.033 130.531 355.05 124.473 360.3 125.853L367.182 127.493V109.268C367.182 107.298 368.779 105.701 370.75 105.701H387.335C386.562 102.455 386.007 100.138 386.007 100.138C385 95.9283 388.359 91.8493 393.497 91.0248C399.954 89.8705 406.011 94.8869 404.632 100.138L403.304 105.701H419.906C421.876 105.701 423.473 107.298 423.473 109.268V127.476C427.387 126.538 430.355 125.835 430.355 125.835C434.565 124.829 438.644 128.187 439.468 133.325C440.622 139.782 435.606 145.84 430.355 144.46L423.473 142.82V161.045C423.473 163.015 421.876 164.612 419.906 164.612H468.655C473.446 164.612 477.334 160.724 477.334 155.934V8.6788C477.334 3.8881 473.446 0 468.655 0Z" fill="#E61673"/>
<path d="M154.323 93.1006V58.0606H159.747V88.3006H178.803V93.1006H154.323ZM185.13 93.1006V58.0606H190.602V93.1006H185.13ZM199.182 93.1006V58.0606H204.942L221.646 84.4606H221.742V58.0606H227.022V93.1006H221.262L204.558 66.7006H204.462V93.1006H199.182ZM235.182 93.1006V58.0606H258.222V62.7646H240.462V72.4606H257.262V77.0686H240.462V88.3966H258.222V93.1006H235.182ZM279.093 93.5806C274.549 93.5806 271.093 92.5246 268.725 90.4126C266.357 88.2686 265.173 85.1646 265.173 81.1006V58.0606H270.453V80.1406C270.453 83.1486 271.141 85.3406 272.517 86.7166C273.893 88.0926 276.085 88.7806 279.093 88.7806C282.101 88.7806 284.293 88.0926 285.669 86.7166C287.045 85.3406 287.733 83.1486 287.733 80.1406V58.0606H293.013V81.1006C293.013 85.1646 291.829 88.2686 289.461 90.4126C287.125 92.5246 283.669 93.5806 279.093 93.5806ZM300.807 93.1006V58.0606H310.887C316.103 58.0606 319.959 59.0206 322.455 60.9406C324.983 62.8286 326.247 65.7566 326.247 69.7246C326.247 73.6286 325.031 76.5566 322.599 78.5086C320.199 80.4286 316.535 81.3886 311.607 81.3886H303.447V76.5886H310.983C314.439 76.5886 316.951 76.0446 318.519 74.9566C320.087 73.8686 320.871 72.1246 320.871 69.7246C320.871 67.3246 320.087 65.5806 318.519 64.4926C316.951 63.4046 314.439 62.8606 310.983 62.8606H306.087V93.1006H300.807ZM210.054 123.901V109.401H208.554V107.601H218.254V109.401H212.314V112.601H217.654V114.401H212.314V117.701H217.654V119.541H212.314V123.901H210.054ZM202.154 123.901V110.981H204.354V123.901H202.154ZM200.574 116.921L199.534 114.941C200.254 114.087 200.887 113.194 201.434 112.261C201.98 111.327 202.454 110.327 202.854 109.261C203.254 108.194 203.587 107.047 203.854 105.821L205.894 106.281C205.654 107.507 205.334 108.661 204.934 109.741C204.534 110.807 204.06 111.794 203.514 112.701V112.101C203.354 112.501 203.16 112.921 202.934 113.361C202.707 113.787 202.46 114.221 202.194 114.661C201.94 115.087 201.674 115.494 201.394 115.881C201.114 116.267 200.84 116.614 200.574 116.921ZM206.474 114.861L204.774 113.581C205.587 112.381 206.314 111.107 206.954 109.761C207.594 108.414 208.127 107.034 208.554 105.621L210.594 106.021C210.14 107.581 209.56 109.114 208.854 110.621C208.147 112.127 207.354 113.541 206.474 114.861ZM222.854 113.801V106.341H235.054V113.801H225.054V112.141H232.854V108.101H225.054V113.801H222.854ZM220.254 123.741V115.141H228.154V123.741H226.054V122.941H222.394V121.301H226.054V116.861H222.394V123.741H220.254ZM229.754 123.741V115.141H237.654V123.741H235.514V122.941H231.854V121.301H235.514V116.861H231.854V123.741H229.754ZM239.954 115.501V113.401H257.954V115.501H239.954ZM273.554 123.901C272.674 123.901 271.98 123.881 271.474 123.841C270.967 123.814 270.594 123.754 270.354 123.661C270.114 123.567 269.96 123.421 269.894 123.221C269.827 123.034 269.794 122.781 269.794 122.461V120.461H264.054V119.061H273.854V118.301H264.054V117.301H273.854V116.541H264.054V115.541H273.854V114.801H264.054V120.461H261.914V113.461H275.994V120.461H271.954V121.661C271.954 121.807 271.96 121.927 271.974 122.021C272 122.101 272.067 122.154 272.174 122.181C272.28 122.221 272.454 122.241 272.694 122.241C272.947 122.254 273.3 122.261 273.754 122.261C274.18 122.261 274.514 122.241 274.754 122.201C274.994 122.174 275.167 122.087 275.274 121.941C275.38 121.794 275.454 121.547 275.494 121.201C275.534 120.854 275.574 120.367 275.614 119.741L277.654 119.961C277.6 120.734 277.54 121.367 277.474 121.861C277.42 122.354 277.327 122.741 277.194 123.021C277.06 123.301 276.847 123.501 276.554 123.621C276.274 123.754 275.894 123.834 275.414 123.861C274.934 123.887 274.314 123.901 273.554 123.901ZM260.774 124.101L260.134 122.301C261.147 122.234 262 122.134 262.694 122.001C263.4 121.854 263.967 121.674 264.394 121.461C264.834 121.247 265.16 121.001 265.374 120.721C265.587 120.441 265.714 120.134 265.754 119.801L267.954 119.861C267.847 120.607 267.527 121.274 266.994 121.861C266.474 122.447 265.7 122.934 264.674 123.321C263.66 123.707 262.36 123.967 260.774 124.101ZM260.594 113.661V106.141H269.114V107.541H266.554V108.201H268.454V110.861H266.554V111.501H264.594V110.861H262.654V109.861H266.454V109.201H262.654V108.201H264.594V107.541H262.654V111.501H269.314V112.861H262.594V113.661H260.594ZM269.414 111.441L268.294 109.821C268.854 109.274 269.367 108.621 269.834 107.861C270.314 107.087 270.72 106.254 271.054 105.361L273.034 105.601C272.7 106.694 272.214 107.754 271.574 108.781C270.947 109.807 270.227 110.694 269.414 111.441ZM270.114 111.901V110.201H277.314V111.901H270.114ZM270.794 108.501V106.741H277.794V108.501H270.794Z" fill="white"/>
</svg>
