<svg width="478" height="165" viewBox="0 0 478 165" fill="none" xmlns="http://www.w3.org/2000/svg">
<rect width="477.33" height="164.61" rx="10" fill="#F5A200"/>
<path d="M191.527 87.9966V52.9566H196.807V87.9966H191.527ZM169.927 87.9966V52.9566H175.207V87.9966H169.927ZM172.567 72.0606V67.2606H194.167V72.0606H172.567ZM220.973 88.4766C217.325 88.4766 214.141 87.7406 211.421 86.2686C208.733 84.7966 206.653 82.7166 205.181 80.0286C203.709 77.3086 202.973 74.1246 202.973 70.4766C202.973 66.7966 203.709 63.6126 205.181 60.9246C206.653 58.2366 208.733 56.1566 211.421 54.6846C214.141 53.2126 217.325 52.4766 220.973 52.4766C224.653 52.4766 227.837 53.2126 230.525 54.6846C233.213 56.1566 235.293 58.2366 236.765 60.9246C238.237 63.6126 238.973 66.7966 238.973 70.4766C238.973 74.1246 238.237 77.3086 236.765 80.0286C235.293 82.7166 233.213 84.7966 230.525 86.2686C227.837 87.7406 224.653 88.4766 220.973 88.4766ZM220.973 83.6766C223.565 83.6766 225.805 83.1486 227.693 82.0926C229.581 81.0046 231.021 79.4846 232.013 77.5326C233.037 75.5486 233.549 73.1966 233.549 70.4766C233.549 67.7566 233.037 65.4206 232.013 63.4686C231.021 61.4846 229.581 59.9646 227.693 58.9086C225.805 57.8206 223.565 57.2766 220.973 57.2766C218.381 57.2766 216.141 57.8206 214.253 58.9086C212.365 59.9646 210.909 61.4846 209.885 63.4686C208.893 65.4206 208.397 67.7566 208.397 70.4766C208.397 73.1966 208.893 75.5486 209.885 77.5326C210.909 79.4846 212.365 81.0046 214.253 82.0926C216.141 83.1486 218.381 83.6766 220.973 83.6766ZM245.114 87.9966V52.9566H251.834L262.106 74.4126H262.202L272.474 52.9566H279.194V87.9966H273.914V61.3566H273.818L264.65 80.5566H259.658L250.49 61.3566H250.394V87.9966H245.114ZM287.349 87.9966V52.9566H310.389V57.6606H292.629V67.3566H309.429V71.9646H292.629V83.2926H310.389V87.9966H287.349ZM170.487 115.937C172.3 115.91 173.813 115.77 175.027 115.517C176.253 115.263 177.227 114.863 177.947 114.317C178.68 113.757 179.2 113.023 179.507 112.117C179.827 111.197 179.987 110.07 179.987 108.737V101.137H182.147V108.737C182.147 110.35 181.94 111.73 181.527 112.877C181.113 114.01 180.46 114.937 179.567 115.657C178.673 116.377 177.507 116.91 176.067 117.257C174.64 117.617 172.9 117.817 170.847 117.857L170.487 115.937ZM169.647 111.337V101.137H171.807V111.337H169.647ZM166.547 106.337V104.437H185.147V106.337H166.547ZM187.247 109.177C188.633 108.977 190.06 108.623 191.527 108.117C193.007 107.61 194.46 106.99 195.887 106.257C197.313 105.523 198.633 104.71 199.847 103.817C201.073 102.923 202.12 101.997 202.987 101.037L204.487 102.397C203.753 103.223 202.887 104.03 201.887 104.817C200.9 105.59 199.82 106.323 198.647 107.017C197.487 107.697 196.28 108.317 195.027 108.877C193.773 109.437 192.513 109.91 191.247 110.297C189.98 110.683 188.753 110.963 187.567 111.137L187.247 109.177ZM195.747 118.397V106.937H197.987V118.397H195.747ZM223.627 112.677C221.533 111.957 219.453 111.303 217.387 110.717C215.333 110.13 213.393 109.63 211.567 109.217L212.107 107.217C214.027 107.63 216.04 108.143 218.147 108.757C220.253 109.357 222.3 110.003 224.287 110.697L223.627 112.677ZM210.267 118.397V101.197H212.467V118.397H210.267ZM243.627 112.677C241.533 111.957 239.453 111.303 237.387 110.717C235.333 110.13 233.393 109.63 231.567 109.217L232.107 107.217C234.027 107.63 236.04 108.143 238.147 108.757C240.253 109.357 242.3 110.003 244.287 110.697L243.627 112.677ZM230.267 118.397V101.197H232.467V118.397H230.267ZM251.147 115.637C252.907 115.45 254.387 115.137 255.587 114.697C256.787 114.243 257.747 113.623 258.467 112.837C259.2 112.037 259.727 111.03 260.047 109.817C260.38 108.59 260.553 107.103 260.567 105.357L262.607 105.437C262.593 107.437 262.38 109.157 261.967 110.597C261.553 112.037 260.907 113.237 260.027 114.197C259.147 115.157 258 115.91 256.587 116.457C255.187 116.99 253.487 117.357 251.487 117.557L251.147 115.637ZM250.587 111.677C250.373 110.69 250.14 109.737 249.887 108.817C249.647 107.897 249.387 107.03 249.107 106.217L251.047 105.717C251.3 106.45 251.547 107.277 251.787 108.197C252.04 109.117 252.293 110.137 252.547 111.257L250.587 111.677ZM255.127 111.337C254.927 110.337 254.7 109.357 254.447 108.397C254.207 107.423 253.94 106.51 253.647 105.657L255.587 105.177C255.88 106.057 256.153 106.99 256.407 107.977C256.673 108.95 256.9 109.93 257.087 110.917L255.127 111.337ZM268.367 115.797C271.127 115.703 273.427 115.197 275.267 114.277C277.107 113.343 278.487 111.997 279.407 110.237C280.34 108.477 280.807 106.31 280.807 103.737L281.847 104.837H267.447V102.837H281.747V103.797H282.947C282.947 106.743 282.4 109.243 281.307 111.297C280.227 113.337 278.627 114.903 276.507 115.997C274.4 117.09 271.8 117.677 268.707 117.757L268.367 115.797ZM282.947 105.497C282.44 105.497 281.973 105.37 281.547 105.117C281.12 104.863 280.78 104.523 280.527 104.097C280.273 103.67 280.147 103.203 280.147 102.697C280.147 102.177 280.273 101.71 280.527 101.297C280.78 100.87 281.12 100.53 281.547 100.277C281.973 100.023 282.44 99.8966 282.947 99.8966C283.467 99.8966 283.933 100.023 284.347 100.277C284.773 100.53 285.113 100.87 285.367 101.297C285.62 101.71 285.747 102.177 285.747 102.697C285.747 103.203 285.62 103.67 285.367 104.097C285.113 104.523 284.773 104.863 284.347 105.117C283.933 105.37 283.467 105.497 282.947 105.497ZM282.947 103.797C283.253 103.797 283.513 103.69 283.727 103.477C283.94 103.25 284.047 102.99 284.047 102.697C284.047 102.39 283.94 102.13 283.727 101.917C283.513 101.703 283.253 101.597 282.947 101.597C282.653 101.597 282.393 101.703 282.167 101.917C281.953 102.13 281.847 102.39 281.847 102.697C281.847 102.99 281.953 103.25 282.167 103.477C282.393 103.69 282.653 103.797 282.947 103.797ZM303.727 116.197C302.74 115.197 301.833 114.27 301.007 113.417C300.18 112.55 299.4 111.71 298.667 110.897C297.947 110.083 297.227 109.27 296.507 108.457C296.013 107.883 295.613 107.45 295.307 107.157C295.013 106.85 294.767 106.637 294.567 106.517C294.38 106.397 294.193 106.337 294.007 106.337C293.833 106.337 293.653 106.403 293.467 106.537C293.28 106.657 293.053 106.897 292.787 107.257C292.52 107.603 292.16 108.117 291.707 108.797C291.253 109.49 290.74 110.243 290.167 111.057C289.593 111.87 288.9 112.81 288.087 113.877L286.467 112.517C287.293 111.45 288.013 110.497 288.627 109.657C289.24 108.803 289.787 108.03 290.267 107.337C290.84 106.483 291.32 105.83 291.707 105.377C292.093 104.923 292.46 104.617 292.807 104.457C293.167 104.283 293.567 104.197 294.007 104.197C294.34 104.197 294.64 104.237 294.907 104.317C295.173 104.383 295.447 104.51 295.727 104.697C296.007 104.883 296.32 105.15 296.667 105.497C297.013 105.843 297.433 106.297 297.927 106.857C299.14 108.23 300.333 109.543 301.507 110.797C302.693 112.037 303.933 113.29 305.227 114.557L303.727 116.197Z" fill="white"/>
</svg>
