<svg width="423" height="495" viewBox="0 0 423 495" fill="none" xmlns="http://www.w3.org/2000/svg">
<path d="M194 0H229V486C229 486 223.7 494.695 212.924 494.133C202.147 493.572 194 486 194 486V0Z" fill="#4F3636"/>
<rect y="46" width="423" height="276" rx="10" fill="#4F3636"/>
<path d="M57.82 166.3V183.34H55.43V168.9L53 170.39V167.92L55.43 166.3H57.82Z" fill="white"/>
<path d="M66.7101 183.51C65.7501 183.51 64.9101 183.34 64.1801 182.99C63.4501 182.64 62.8801 182.14 62.4401 181.48C62.0001 180.82 61.7201 180.03 61.6001 179.09H64.0401C64.1501 179.82 64.4401 180.36 64.9101 180.7C65.3801 181.04 65.9801 181.21 66.7101 181.21C67.5001 181.21 68.1101 181 68.5501 180.58C68.9901 180.16 69.2101 179.56 69.2101 178.8V178.28C69.2101 177.43 69.0001 176.77 68.5901 176.31C68.1801 175.85 67.5901 175.61 66.8301 175.61H65.6201V173.34H66.8301C67.5001 173.34 68.0201 173.14 68.3801 172.74C68.7401 172.34 68.9201 171.78 68.9201 171.05V170.52C68.9201 169.85 68.7301 169.33 68.3401 168.96C67.9501 168.59 67.4001 168.41 66.6901 168.41C66.0901 168.41 65.5801 168.58 65.1601 168.92C64.7401 169.26 64.4501 169.8 64.3001 170.53H61.8701C62.1101 169.12 62.6501 168.04 63.4901 167.27C64.3301 166.5 65.3901 166.12 66.6801 166.12C68.1501 166.12 69.2901 166.51 70.0901 167.28C70.8901 168.05 71.3001 169.14 71.3001 170.55V170.83C71.3001 171.68 71.0701 172.42 70.6101 173.05C70.1501 173.68 69.5001 174.14 68.6501 174.44C69.5801 174.64 70.3001 175.09 70.8101 175.81C71.3201 176.53 71.5801 177.43 71.5801 178.53V178.81C71.5801 180.3 71.1501 181.46 70.3001 182.28C69.4501 183.1 68.2501 183.51 66.6901 183.51H66.7101Z" fill="white"/>
<path d="M75.3301 173.56V171.05H77.8401V173.56H75.3301ZM75.3301 183.34V180.83H77.8401V183.34H75.3301Z" fill="white"/>
<path d="M85.84 183.51C84.22 183.51 83 183.07 82.19 182.2C81.38 181.33 80.98 180.15 80.98 178.67V170.92C80.98 169.41 81.39 168.23 82.21 167.37C83.03 166.51 84.24 166.08 85.84 166.08C87.44 166.08 88.66 166.51 89.48 167.36C90.3 168.21 90.7 169.4 90.7 170.92V178.67C90.7 180.18 90.29 181.36 89.48 182.22C88.67 183.08 87.45 183.51 85.84 183.51ZM85.84 181.24C86.72 181.24 87.35 181.01 87.73 180.55C88.11 180.09 88.31 179.47 88.31 178.67V170.92C88.31 170.12 88.12 169.49 87.73 169.03C87.34 168.57 86.71 168.35 85.84 168.35C84.97 168.35 84.33 168.58 83.95 169.03C83.57 169.48 83.37 170.11 83.37 170.92V178.67C83.37 179.47 83.56 180.09 83.95 180.55C84.34 181.01 84.97 181.24 85.84 181.24Z" fill="white"/>
<path d="M99.2399 183.51C97.6199 183.51 96.3999 183.07 95.5899 182.2C94.7799 181.33 94.3799 180.15 94.3799 178.67V170.92C94.3799 169.41 94.7899 168.23 95.6099 167.37C96.4299 166.51 97.6399 166.08 99.2399 166.08C100.84 166.08 102.06 166.51 102.88 167.36C103.7 168.21 104.1 169.4 104.1 170.92V178.67C104.1 180.18 103.69 181.36 102.88 182.22C102.07 183.08 100.85 183.51 99.2399 183.51ZM99.2399 181.24C100.12 181.24 100.75 181.01 101.13 180.55C101.51 180.09 101.71 179.47 101.71 178.67V170.92C101.71 170.12 101.52 169.49 101.13 169.03C100.74 168.57 100.11 168.35 99.2399 168.35C98.3699 168.35 97.7299 168.58 97.3499 169.03C96.9699 169.48 96.7699 170.11 96.7699 170.92V178.67C96.7699 179.47 96.9599 180.09 97.3499 180.55C97.7399 181.01 98.3699 181.24 99.2399 181.24Z" fill="white"/>
<path d="M109.28 173.45C110.86 172.14 112.54 171.48 114.32 171.48C115.66 171.48 117.3 172.1 119.24 173.33C120.73 174.28 121.9 174.75 122.76 174.75C124.39 174.75 126.05 173.95 127.72 172.35V174.99C126.15 176.3 124.47 176.96 122.68 176.96C121.36 176.96 119.72 176.34 117.76 175.11C116.26 174.16 115.09 173.69 114.26 173.69C112.62 173.69 110.96 174.49 109.29 176.1V173.45H109.28Z" fill="white"/>
<path d="M132.61 183.34V181.27L138.55 173.35C138.89 172.9 139.16 172.43 139.35 171.94C139.54 171.45 139.64 171 139.64 170.57V170.55C139.64 169.87 139.44 169.34 139.04 168.97C138.64 168.6 138.08 168.41 137.34 168.41C136.65 168.41 136.09 168.62 135.66 169.03C135.23 169.44 134.96 170.02 134.87 170.77L132.4 170.78C132.61 169.3 133.15 168.16 134.01 167.35C134.87 166.54 135.97 166.14 137.33 166.14C138.86 166.14 140.04 166.53 140.88 167.3C141.72 168.07 142.13 169.17 142.13 170.58C142.13 171.19 142.01 171.82 141.75 172.48C141.49 173.14 141.15 173.77 140.71 174.37L135.78 181.07H142.23V183.34H132.62H132.61Z" fill="white"/>
<path d="M150.75 183.51C149.13 183.51 147.91 183.07 147.1 182.2C146.29 181.33 145.89 180.15 145.89 178.67V170.92C145.89 169.41 146.3 168.23 147.12 167.37C147.94 166.51 149.15 166.08 150.75 166.08C152.35 166.08 153.57 166.51 154.39 167.36C155.21 168.21 155.61 169.4 155.61 170.92V178.67C155.61 180.18 155.2 181.36 154.39 182.22C153.58 183.08 152.36 183.51 150.75 183.51ZM150.75 181.24C151.63 181.24 152.26 181.01 152.64 180.55C153.02 180.09 153.22 179.47 153.22 178.67V170.92C153.22 170.12 153.03 169.49 152.64 169.03C152.25 168.57 151.62 168.35 150.75 168.35C149.88 168.35 149.24 168.58 148.86 169.03C148.48 169.48 148.28 170.11 148.28 170.92V178.67C148.28 179.47 148.47 180.09 148.86 180.55C149.25 181.01 149.88 181.24 150.75 181.24Z" fill="white"/>
<path d="M162.44 167.37H165.56V170.51H162.44V167.37ZM162.44 177.91H165.56V181.05H162.44V177.91Z" fill="white"/>
<path d="M177.25 183.51C175.63 183.51 174.41 183.07 173.6 182.2C172.79 181.33 172.39 180.15 172.39 178.67V170.92C172.39 169.41 172.8 168.23 173.62 167.37C174.44 166.51 175.65 166.08 177.25 166.08C178.85 166.08 180.07 166.51 180.89 167.36C181.71 168.21 182.11 169.4 182.11 170.92V178.67C182.11 180.18 181.7 181.36 180.89 182.22C180.08 183.08 178.86 183.51 177.25 183.51ZM177.25 181.24C178.13 181.24 178.76 181.01 179.14 180.55C179.52 180.09 179.72 179.47 179.72 178.67V170.92C179.72 170.12 179.53 169.49 179.14 169.03C178.75 168.57 178.12 168.35 177.25 168.35C176.38 168.35 175.74 168.58 175.36 169.03C174.98 169.48 174.78 170.11 174.78 170.92V178.67C174.78 179.47 174.97 180.09 175.36 180.55C175.75 181.01 176.38 181.24 177.25 181.24Z" fill="white"/>
<path d="M190.64 183.51C189.02 183.51 187.8 183.07 186.99 182.2C186.18 181.33 185.78 180.15 185.78 178.67V170.92C185.78 169.41 186.19 168.23 187.01 167.37C187.83 166.51 189.04 166.08 190.64 166.08C192.24 166.08 193.46 166.51 194.28 167.36C195.1 168.21 195.5 169.4 195.5 170.92V178.67C195.5 180.18 195.09 181.36 194.28 182.22C193.47 183.08 192.25 183.51 190.64 183.51ZM190.64 181.24C191.52 181.24 192.15 181.01 192.53 180.55C192.91 180.09 193.11 179.47 193.11 178.67V170.92C193.11 170.12 192.92 169.49 192.53 169.03C192.14 168.57 191.51 168.35 190.64 168.35C189.77 168.35 189.13 168.58 188.75 169.03C188.37 169.48 188.17 170.11 188.17 170.92V178.67C188.17 179.47 188.36 180.09 188.75 180.55C189.14 181.01 189.77 181.24 190.64 181.24Z" fill="white"/>
<path d="M77.36 153.52C74.49 153.52 71.92 152.99 69.66 151.94C67.4 150.89 65.6 149.36 64.26 147.37C62.92 145.37 62.18 142.96 62.02 140.13H71.33C71.55 141.6 72.1 142.74 72.98 143.55C73.86 144.36 74.99 144.77 76.37 144.77C78.08 144.77 79.4 144.29 80.33 143.34C81.26 142.38 81.73 141.04 81.73 139.31V138.19C81.73 136.37 81.35 134.97 80.59 133.98C79.83 132.99 78.75 132.5 77.35 132.5H73.3V123.81H77.35C78.49 123.81 79.37 123.38 80 122.51C80.62 121.64 80.94 120.43 80.94 118.87V118.05C80.94 116.58 80.59 115.45 79.9 114.64C79.21 113.83 78.24 113.44 76.99 113.44C75.74 113.44 74.71 113.9 73.85 114.82C72.98 115.74 72.4 117.05 72.09 118.74H62.81C63.21 114.29 64.75 110.83 67.45 108.38C70.15 105.92 73.44 104.7 77.32 104.7C81.55 104.7 84.83 105.78 87.14 107.94C89.45 110.1 90.61 113.17 90.61 117.14V118.59C90.61 120.81 90.05 122.74 88.93 124.38C87.81 126.02 86.22 127.25 84.16 128.06C86.46 128.59 88.25 129.79 89.51 131.68C90.77 133.57 91.4 135.97 91.4 138.89V140.34C91.4 144.53 90.17 147.78 87.71 150.08C85.25 152.38 81.8 153.53 77.35 153.53L77.36 153.52Z" fill="white"/>
<path d="M121.68 99.5298L100.29 162.11H91.73L113.12 99.5298H121.67H121.68Z" fill="white"/>
<path d="M121.84 145.69V137.4L136.58 105.22H146.78L132.43 137H153.92V145.69H121.84ZM141.16 153.06V124.89H150.18V153.06H141.16Z" fill="white"/>
<path d="M175.58 153.03C183.262 153.03 189.49 146.802 189.49 139.12C189.49 131.437 183.262 125.21 175.58 125.21C167.898 125.21 161.67 131.437 161.67 139.12C161.67 146.802 167.898 153.03 175.58 153.03Z" fill="white"/>
<path d="M167.53 146.71V144.77C169.49 143.5 171.22 140.24 171.38 136.23H167.53V134.61H172.93V136.23C172.93 140.31 170.86 144.77 167.53 146.72V146.71ZM174.08 147.1H171.78V145.57H173.76C174.35 145.57 174.74 145.16 174.74 144.59V131.05H176.36V144.75C176.36 146.37 175.45 147.1 174.08 147.1ZM177.79 133.54H179.32C179.36 134.52 179.44 135.47 179.59 136.38L183.59 132.78V134.78L179.93 138.11C180.68 141.28 182.02 143.82 183.59 144.92V147.02C179.95 144.72 178.04 139.4 177.79 133.53V133.54Z" fill="#4F3636"/>
<path d="M253.94 153.52C251.07 153.52 248.5 152.99 246.24 151.94C243.98 150.89 242.18 149.36 240.84 147.37C239.5 145.37 238.76 142.96 238.6 140.13H247.91C248.13 141.6 248.68 142.74 249.56 143.55C250.44 144.36 251.57 144.77 252.95 144.77C254.66 144.77 255.98 144.29 256.91 143.34C257.84 142.38 258.31 141.04 258.31 139.31V138.19C258.31 136.37 257.93 134.97 257.17 133.98C256.41 132.99 255.33 132.5 253.93 132.5H249.88V123.81H253.93C255.07 123.81 255.95 123.38 256.58 122.51C257.2 121.64 257.52 120.43 257.52 118.87V118.05C257.52 116.58 257.17 115.45 256.48 114.64C255.79 113.83 254.82 113.44 253.57 113.44C252.32 113.44 251.29 113.9 250.43 114.82C249.56 115.74 248.98 117.05 248.67 118.74H239.39C239.79 114.29 241.33 110.83 244.03 108.38C246.73 105.92 250.02 104.7 253.9 104.7C258.13 104.7 261.41 105.78 263.72 107.94C266.03 110.1 267.19 113.17 267.19 117.14V118.59C267.19 120.81 266.63 122.74 265.51 124.38C264.39 126.02 262.8 127.25 260.74 128.06C263.04 128.59 264.83 129.79 266.09 131.68C267.35 133.57 267.98 135.97 267.98 138.89V140.34C267.98 144.53 266.75 147.78 264.29 150.08C261.83 152.38 258.38 153.53 253.93 153.53L253.94 153.52Z" fill="white"/>
<path d="M298.26 99.5298L276.87 162.11H268.31L289.7 99.5298H298.25H298.26Z" fill="white"/>
<path d="M316.38 153.52C312.54 153.52 309.32 152.27 306.72 149.77C304.12 147.27 302.67 143.75 302.36 139.21V139.18H311.38V139.21C311.56 140.96 312.09 142.33 312.99 143.31C313.89 144.29 315.06 144.77 316.51 144.77C318.09 144.77 319.31 144.25 320.18 143.21C321.05 142.17 321.48 140.71 321.48 138.85V134.84C321.48 132.95 321.1 131.5 320.33 130.48C319.56 129.46 318.47 128.95 317.04 128.95C315.75 128.95 314.64 129.28 313.73 129.94C312.82 130.6 312.19 131.52 311.84 132.7H303.42V105.19H329.12V113.88H312.44V122.34C313.14 121.66 314.08 121.13 315.25 120.76C316.42 120.39 317.58 120.2 318.72 120.2C322.47 120.2 325.37 121.48 327.42 124.03C329.47 126.59 330.5 130.19 330.5 134.84V138.85C330.5 143.52 329.27 147.14 326.81 149.69C324.35 152.25 320.88 153.52 316.38 153.52Z" fill="white"/>
<path d="M352.16 153.03C359.842 153.03 366.07 146.802 366.07 139.12C366.07 131.437 359.842 125.21 352.16 125.21C344.477 125.21 338.25 131.437 338.25 139.12C338.25 146.802 344.477 153.03 352.16 153.03Z" fill="white"/>
<path d="M353.02 135.28H352.95V147.14H351.4V135.28H351.35C350.53 139.6 347.73 144.11 344.14 146.18V144.29C346.92 142.47 349.24 138.51 349.94 135.28H344.14V133.71H351.4V131.09H352.95V133.71H360.21V135.28H354.43C355.11 138.51 357.43 142.47 360.21 144.29V146.18C356.64 144.11 353.84 139.6 353.02 135.28Z" fill="#4F3636"/>
<path d="M236.48 166.3V183.34H234.09V168.9L231.66 170.39V167.92L234.09 166.3H236.48Z" fill="white"/>
<path d="M245.83 183.51C244.21 183.51 242.99 183.07 242.18 182.2C241.37 181.33 240.97 180.15 240.97 178.67V170.92C240.97 169.41 241.38 168.23 242.2 167.37C243.02 166.51 244.23 166.08 245.83 166.08C247.43 166.08 248.65 166.51 249.47 167.36C250.29 168.21 250.69 169.4 250.69 170.92V178.67C250.69 180.18 250.28 181.36 249.47 182.22C248.66 183.08 247.44 183.51 245.83 183.51ZM245.83 181.24C246.71 181.24 247.34 181.01 247.72 180.55C248.1 180.09 248.3 179.47 248.3 178.67V170.92C248.3 170.12 248.11 169.49 247.72 169.03C247.33 168.57 246.7 168.35 245.83 168.35C244.96 168.35 244.32 168.58 243.94 169.03C243.56 169.48 243.36 170.11 243.36 170.92V178.67C243.36 179.47 243.55 180.09 243.94 180.55C244.33 181.01 244.96 181.24 245.83 181.24Z" fill="white"/>
<path d="M253.84 173.56V171.05H256.35V173.56H253.84ZM253.84 183.33V180.82H256.35V183.33H253.84Z" fill="white"/>
<path d="M264.35 183.51C262.73 183.51 261.51 183.07 260.7 182.2C259.89 181.33 259.49 180.15 259.49 178.67V170.92C259.49 169.41 259.9 168.23 260.72 167.37C261.54 166.51 262.75 166.08 264.35 166.08C265.95 166.08 267.17 166.51 267.99 167.36C268.81 168.21 269.21 169.4 269.21 170.92V178.67C269.21 180.18 268.8 181.36 267.99 182.22C267.18 183.08 265.96 183.51 264.35 183.51ZM264.35 181.24C265.23 181.24 265.86 181.01 266.24 180.55C266.62 180.09 266.82 179.47 266.82 178.67V170.92C266.82 170.12 266.63 169.49 266.24 169.03C265.85 168.57 265.22 168.35 264.35 168.35C263.48 168.35 262.84 168.58 262.46 169.03C262.08 169.48 261.88 170.11 261.88 170.92V178.67C261.88 179.47 262.07 180.09 262.46 180.55C262.85 181.01 263.48 181.24 264.35 181.24Z" fill="white"/>
<path d="M277.75 183.51C276.13 183.51 274.91 183.07 274.1 182.2C273.29 181.33 272.89 180.15 272.89 178.67V170.92C272.89 169.41 273.3 168.23 274.12 167.37C274.94 166.51 276.15 166.08 277.75 166.08C279.35 166.08 280.57 166.51 281.39 167.36C282.21 168.21 282.61 169.4 282.61 170.92V178.67C282.61 180.18 282.2 181.36 281.39 182.22C280.58 183.08 279.36 183.51 277.75 183.51ZM277.75 181.24C278.63 181.24 279.26 181.01 279.64 180.55C280.02 180.09 280.22 179.47 280.22 178.67V170.92C280.22 170.12 280.03 169.49 279.64 169.03C279.25 168.57 278.62 168.35 277.75 168.35C276.88 168.35 276.24 168.58 275.86 169.03C275.48 169.48 275.28 170.11 275.28 170.92V178.67C275.28 179.47 275.47 180.09 275.86 180.55C276.25 181.01 276.88 181.24 277.75 181.24Z" fill="white"/>
<path d="M287.79 173.44C289.37 172.13 291.05 171.47 292.83 171.47C294.17 171.47 295.81 172.09 297.75 173.32C299.24 174.27 300.41 174.74 301.27 174.74C302.9 174.74 304.56 173.94 306.23 172.34V174.98C304.66 176.29 302.98 176.95 301.19 176.95C299.87 176.95 298.23 176.33 296.27 175.1C294.77 174.15 293.6 173.68 292.77 173.68C291.13 173.68 289.47 174.48 287.8 176.09V173.44H287.79Z" fill="white"/>
<path d="M315.49 166.3V183.34H313.1V168.9L310.67 170.39V167.92L313.1 166.3H315.49Z" fill="white"/>
<path d="M319.75 180.72V178.65L325.47 166.31H327.93L322.35 178.51H330.71V180.72H319.75ZM327.1 183.35V173.32H329.43V183.35H327.1Z" fill="white"/>
<path d="M336.94 167.37H340.06V170.51H336.94V167.37ZM336.94 177.91H340.06V181.05H336.94V177.91Z" fill="white"/>
<path d="M351.75 183.51C350.13 183.51 348.91 183.07 348.1 182.2C347.29 181.33 346.89 180.15 346.89 178.67V170.92C346.89 169.41 347.3 168.23 348.12 167.37C348.94 166.51 350.15 166.08 351.75 166.08C353.35 166.08 354.57 166.51 355.39 167.36C356.21 168.21 356.61 169.4 356.61 170.92V178.67C356.61 180.18 356.2 181.36 355.39 182.22C354.58 183.08 353.36 183.51 351.75 183.51ZM351.75 181.24C352.63 181.24 353.26 181.01 353.64 180.55C354.02 180.09 354.22 179.47 354.22 178.67V170.92C354.22 170.12 354.03 169.49 353.64 169.03C353.25 168.57 352.62 168.35 351.75 168.35C350.88 168.35 350.24 168.58 349.86 169.03C349.48 169.48 349.28 170.11 349.28 170.92V178.67C349.28 179.47 349.47 180.09 349.86 180.55C350.25 181.01 350.88 181.24 351.75 181.24Z" fill="white"/>
<path d="M365.15 183.51C363.53 183.51 362.31 183.07 361.5 182.2C360.69 181.33 360.29 180.15 360.29 178.67V170.92C360.29 169.41 360.7 168.23 361.52 167.37C362.34 166.51 363.55 166.08 365.15 166.08C366.75 166.08 367.97 166.51 368.79 167.36C369.61 168.21 370.01 169.4 370.01 170.92V178.67C370.01 180.18 369.6 181.36 368.79 182.22C367.98 183.08 366.76 183.51 365.15 183.51ZM365.15 181.24C366.03 181.24 366.66 181.01 367.04 180.55C367.42 180.09 367.62 179.47 367.62 178.67V170.92C367.62 170.12 367.43 169.49 367.04 169.03C366.65 168.57 366.02 168.35 365.15 168.35C364.28 168.35 363.64 168.58 363.26 169.03C362.88 169.48 362.68 170.11 362.68 170.92V178.67C362.68 179.47 362.87 180.09 363.26 180.55C363.65 181.01 364.28 181.24 365.15 181.24Z" fill="white"/>
<path d="M213.94 137.84C216.425 137.84 218.44 135.825 218.44 133.34C218.44 130.855 216.425 128.84 213.94 128.84C211.455 128.84 209.44 130.855 209.44 133.34C209.44 135.825 211.455 137.84 213.94 137.84Z" fill="white"/>
<path d="M109.78 229.36C103.4 229.36 101 227.42 101 223.98C101 222.54 101.48 220.88 102.61 219.54H105.06C103.76 220.79 103.33 222.28 103.33 223.6C103.33 225.98 104.99 227.27 110.12 227.27H119.91V229.36H109.78ZM115.31 214.51C116.34 217.37 117.78 220.13 119.56 222.77H116.94C115.38 220.3 113.99 217.54 112.93 214.51H101.02V212.4H112.28C112.02 211.51 111.8 210.58 111.63 209.62H113.91C114.1 210.58 114.34 211.49 114.61 212.4H120.97V214.51H115.31Z" fill="white"/>
<path d="M129.03 229.34H126.08V227.49H129.1C133.92 227.49 137.62 225.47 137.62 221.01C137.62 217.79 135.44 215.68 131.72 215.68C129.03 215.68 125.22 216.52 122.46 217.36V215.32C125.08 214.6 128.84 213.78 131.8 213.78C136.74 213.78 139.62 216.59 139.62 220.98C139.62 227.1 134.63 229.33 129.04 229.33L129.03 229.34Z" fill="white"/>
<path d="M142.66 229.6C142.32 226.89 142.11 223.77 142.11 220.33C142.11 216.89 142.33 213.3 142.66 209.43H144.8C144.42 213.2 144.3 216.89 144.3 220.3C144.3 223.71 144.54 226.8 144.9 229.59H142.67L142.66 229.6ZM159.32 224.18V224.68C159.32 227.61 157.52 229.74 153.18 229.74C148.48 229.74 147.18 227.72 147.18 225.47C147.18 223.22 148.74 221.08 153.08 221.08C154.38 221.08 155.67 221.2 156.92 221.44V217.65H147.63V215.71H156.92V213.48H159.03V215.71H161.93V217.65H159.03V221.92C160.16 222.26 161.26 222.66 162.32 223.17V225.59C161.38 225.04 160.35 224.58 159.32 224.17V224.18ZM147.63 211.79V209.85H157.42V211.79H147.63ZM157.23 223.51C155.77 223.13 154.3 222.91 152.98 222.91C150.65 222.91 149.24 223.89 149.24 225.41C149.24 226.47 149.86 227.86 153.03 227.86C156.2 227.86 157.23 226.37 157.23 224V223.52V223.51ZM160.59 213.21C159.27 213.21 158.24 212.18 158.24 210.88C158.24 209.58 159.27 208.53 160.59 208.53C161.91 208.53 162.92 209.59 162.92 210.88C162.92 212.17 161.89 213.21 160.59 213.21ZM160.59 209.68C159.94 209.68 159.37 210.21 159.37 210.88C159.37 211.55 159.95 212.1 160.59 212.1C161.23 212.1 161.79 211.52 161.79 210.88C161.79 210.24 161.26 209.68 160.59 209.68Z" fill="white"/>
<path d="M172.42 229.65H167.02V227.49H172.35C179.93 227.49 182.09 225.09 182.09 221.9C182.09 219.07 180.27 217.56 176.45 217.56C173.57 217.56 171.24 218.26 168.89 219.86L164.07 223.15V220.68L177.46 211.87H165.07V209.73H181.56V211.51L174.24 216.12C175.13 215.93 176.14 215.74 177.41 215.74C181.95 215.74 184.51 218.16 184.51 221.88C184.51 226.42 181.27 229.66 172.41 229.66L172.42 229.65Z" fill="white"/>
<path d="M193.21 210.16C191.72 212.08 188.94 213.54 186.61 214.05V212.03C188.87 211.6 191.48 210.01 192.01 208.69H194.36C194.91 210.01 197.58 211.59 199.76 212.03V214.05C197.5 213.55 194.7 212.08 193.21 210.16ZM189.2 230.01V226.22C188.77 227.78 187.95 229.2 186.61 230.2V227.18C187.55 226.1 187.76 224.28 187.76 222.36V215.21H198.92V222.67H189.7C189.7 223.2 189.65 223.73 189.6 224.25H199.25V230.01H189.19H189.2ZM196.98 216.64H189.71V218.2H196.98V216.64ZM196.98 219.64H189.71V221.27H196.98V219.64ZM190.18 214.12V212.8H195.96V214.12H190.18ZM197.36 225.84H191.14V228.46H197.36V225.84ZM200.7 225.81V209.13H202.6V225.81H200.7ZM204.9 230.32H202.09V228.38H204.47C205.17 228.38 205.67 227.73 205.67 227.18V208.7H207.59V227.73C207.59 229.15 206.37 230.32 204.9 230.32Z" fill="white"/>
<path d="M211.28 230.01V228.02H221.12V222.16H212.58V220.14H221.12V214.31H214.64C214.11 215.7 213.49 216.9 212.84 217.84H210.42C212.1 215.75 213.52 211.98 213.76 209.13H215.92C215.8 210.23 215.58 211.31 215.3 212.32H221.13V208.7H223.29V212.32H231.62V214.31H223.29V220.14H230.92V222.16H223.29V228.02H232.24V230.01H211.29H211.28Z" fill="white"/>
<path d="M247.79 224.13C244.41 227.32 239.63 229.12 234.37 229.63V227.47C242.84 226.51 250.36 221.71 250.48 212.59H235.02V210.4H252.78V211.94C252.78 216.24 251.51 219.74 249.32 222.48L254.67 227.14V230L247.78 224.14L247.79 224.13Z" fill="white"/>
<path d="M262.5 229.7H257.8V227.56H262.43C269.97 227.56 273.83 224.44 273.83 218.03V212.63H261.3C261.13 216.11 259.67 219.04 256 220.33V218.03C258.5 216.81 259.46 214.62 259.46 210.52H276V218.2C276 225.26 271.9 229.7 262.51 229.7H262.5Z" fill="white"/>
<path d="M278.14 229.34V227.2H287.09V213.04H278.59V210.88H297.86V213.04H289.24V227.2H298.29V229.34H278.13H278.14Z" fill="white"/>
<path d="M310.21 223.58V221.37C315.27 221.37 318.23 219.19 318.23 214.53V212.35H300.16V210.21H320.47V214.41C320.47 220.41 316.51 223.48 310.22 223.58H310.21ZM300.15 229.8V227.59C305.05 227.21 307.4 223.75 307.4 219.29V216.55H309.56V219.45C309.56 225.09 305.96 229.32 300.15 229.79V229.8Z" fill="white"/>
<path d="M110.89 258.52H108.35C102.85 258.52 101.05 256.27 101.05 252.86V251.68H103.21V252.86C103.21 255.16 104.51 256.51 108.44 256.51H110.89C115.16 256.51 116.22 255.05 116.22 253.05V252.57C116.22 250.6 115.52 249.33 109.4 249.19C104.48 249.07 101.21 248.52 101.21 244.65V243.83C101.21 240.81 103.01 238.79 108.34 238.79H111.32C115.62 238.79 117.94 240.52 117.94 244.09V244.91H115.78V244.09C115.78 241.93 114.29 240.83 111.24 240.83H108.34C104.72 240.83 103.37 241.86 103.37 243.81V244.51C103.37 246.57 104.71 247.2 110.62 247.32C117.36 247.46 118.42 249.36 118.42 252.5V253.15C118.42 256.32 116.72 258.53 110.88 258.53L110.89 258.52Z" fill="white"/>
<path d="M130.09 258.52H128.75C123.06 258.52 120.66 255.9 120.66 250.5V246.73C120.66 241.33 123.16 238.81 128.75 238.81H130.24C136 238.81 137.75 241.52 137.75 245.7H135.64C135.64 242.65 134.34 240.9 130.24 240.9H128.75C124.57 240.9 122.8 242.72 122.8 246.73V250.5C122.8 254.77 124.77 256.43 128.75 256.43H130.09C134.51 256.43 135.63 254.53 135.63 251.27H137.74C137.74 255.3 136.54 258.52 130.08 258.52H130.09Z" fill="white"/>
<path d="M155.98 258.5L154.13 253.82H143.52L141.7 258.5H139.42L147.03 238.89H150.61L158.27 258.5H155.99H155.98ZM148.81 240.21L144.3 251.8H153.35L148.81 240.21Z" fill="white"/>
<path d="M174.39 258.43L165.7 250.03V248.13H170.19C173.33 248.13 174.77 247.34 174.77 245.11V244.22C174.77 242.13 173.81 240.96 170.76 240.96H162.62V258.46H160.51V238.9H170.74C175.44 238.9 176.84 240.82 176.84 244.16V245.22C176.84 248.87 174.66 250.09 170.31 250.09H168.65L177.17 258.44H174.39V258.43Z" fill="white"/>
<path d="M188.41 241V258.47H186.32V241H179.07V238.91H195.66V241H188.41Z" fill="white"/>
<path d="M207.39 258.52H204.85C199.35 258.52 197.55 256.26 197.55 252.86V251.68H199.71V252.86C199.71 255.16 201.01 256.51 204.94 256.51H207.39C211.66 256.51 212.72 255.05 212.72 253.05V252.57C212.72 250.6 212.02 249.33 205.9 249.19C200.98 249.07 197.71 248.52 197.71 244.65V243.83C197.71 240.81 199.51 238.79 204.84 238.79H207.82C212.12 238.79 214.44 240.52 214.44 244.09V244.91H212.28V244.09C212.28 241.93 210.79 240.83 207.74 240.83H204.84C201.22 240.83 199.87 241.86 199.87 243.81V244.51C199.87 246.57 201.21 247.2 207.12 247.32C213.86 247.46 214.92 249.36 214.92 252.5V253.15C214.92 256.32 213.22 258.53 207.38 258.53L207.39 258.52Z" fill="white"/>
<path d="M230.38 252.93C227 256.12 222.22 257.92 216.96 258.43V256.27C225.43 255.31 232.95 250.51 233.07 241.39H217.61V239.21H235.37V240.75C235.37 245.05 234.1 248.55 231.91 251.29L237.26 255.95V258.81L230.37 252.95L230.38 252.93Z" fill="white"/>
<path d="M246.46 258.45H240.6V256.34H246.36C253.03 256.34 255.55 254.16 256.34 251.01C252.62 249.52 249.26 249.02 242.18 249.02V246.96C249.24 246.96 253.34 247.66 256.63 248.98V241.35H243.45C243.16 245 241.7 247.95 238.58 249.49V247.02C240.48 245.8 241.58 243.28 241.58 239.22H258.77V248.24C258.77 254.07 255.89 258.47 246.46 258.47V258.45Z" fill="white"/>
<path d="M267.61 258.45H261.11V256.29H267.78C277.04 256.29 278.84 250.84 278.84 243.52V242.68H281V243.78C281 251.97 278.84 258.45 267.61 258.45ZM261.58 241.24V239.22H271.61V241.24H261.58ZM261.58 248.3V246.26H271.61V248.3H261.58ZM278.15 241.58V237.72H279.49V241.58H278.15ZM280.69 241.58V237.72H282.03V241.58H280.69Z" fill="white"/>
<path d="M300.78 243.14V258.5H298.62V243.14H295.93C294.9 249.57 289.71 256.56 283.52 258.45V256.12C288.3 254.46 292.83 248.66 293.7 243.13H283.55V240.97H298.62V238.23H300.78V240.97H303.85V243.13H300.78V243.14Z" fill="white"/>
<path d="M313.38 250.94C309.52 251.8 308.24 252.72 307.98 256.41H321.54V258.45H305.7C305.7 252.69 306.71 250.27 312.9 249.02C317.46 248.08 319.52 247.22 319.52 244.72C319.52 242.66 318.34 241 314.91 241H312.22C309.39 241 307.88 242.61 307.88 244.89V245.56H305.74V244.89C305.74 241.39 308.04 238.94 312.22 238.94H314.93C319.56 238.94 321.65 241.2 321.65 244.75C321.65 248.49 318.99 249.69 313.37 250.94H313.38Z" fill="white"/>
</svg>
