<svg width="230" height="79" viewBox="0 0 230 79" fill="none" xmlns="http://www.w3.org/2000/svg">
<rect width="230" height="79" rx="30" fill="#006B5C"/>
<path d="M195 39.5L185.25 45.1292L185.25 33.8708L195 39.5Z" fill="white"/>
<path d="M44.8 33.42H54.32V35.24H43.9L44.8 33.42ZM47.34 37.78H53.84V39.52H47.34V37.78ZM47.34 42.2H54.12V43.98H47.34V42.2ZM46.4 34.02H48.34V48.68H46.4V34.02ZM45.42 30.34L47.26 30.8C46.8867 31.88 46.4467 32.94 45.94 33.98C45.4333 35.02 44.8867 35.9933 44.3 36.9C43.7267 37.8067 43.1333 38.6067 42.52 39.3C42.4267 39.18 42.2867 39.04 42.1 38.88C41.9267 38.7067 41.7467 38.54 41.56 38.38C41.3733 38.22 41.2133 38.0933 41.08 38C41.68 37.3733 42.2467 36.6533 42.78 35.84C43.3267 35.0133 43.8267 34.1333 44.28 33.2C44.7333 32.2533 45.1133 31.3 45.42 30.34ZM40.4 30.2L42.24 30.76C41.8 31.8933 41.2867 33.0267 40.7 34.16C40.1133 35.28 39.4733 36.3333 38.78 37.32C38.1 38.3067 37.3933 39.18 36.66 39.94C36.6067 39.7933 36.5133 39.5933 36.38 39.34C36.26 39.0867 36.1267 38.8333 35.98 38.58C35.8467 38.3133 35.72 38.1133 35.6 37.98C36.24 37.34 36.8533 36.6067 37.44 35.78C38.04 34.9533 38.5933 34.06 39.1 33.1C39.6067 32.14 40.04 31.1733 40.4 30.2ZM38.32 35.5L40.22 33.6L40.24 33.64V48.66H38.32V35.5ZM61 32.76V36.06H68.58V32.76H61ZM59.18 30.94H70.52V37.88H59.18V30.94ZM56.34 39.8H63.68V48.54H61.8V41.62H58.12V48.68H56.34V39.8ZM65.66 39.8H73.34V48.58H71.44V41.62H67.46V48.68H65.66V39.8ZM57.14 45.82H62.58V47.64H57.14V45.82ZM66.54 45.82H72.34V47.64H66.54V45.82ZM75.4 38.16H93.8V40.24H75.4V38.16ZM99.9 41.4V42.26H108.7V41.4H99.9ZM99.9 43.28V44.14H108.7V43.28H99.9ZM99.9 39.56V40.4H108.7V39.56H99.9ZM98.1 38.5H110.58V45.2H98.1V38.5ZM105.4 44.64H107.26V46.46C107.26 46.6867 107.32 46.8333 107.44 46.9C107.56 46.9533 107.84 46.98 108.28 46.98C108.373 46.98 108.547 46.98 108.8 46.98C109.053 46.98 109.327 46.98 109.62 46.98C109.913 46.98 110.193 46.98 110.46 46.98C110.727 46.98 110.927 46.98 111.06 46.98C111.3 46.98 111.48 46.94 111.6 46.86C111.72 46.78 111.807 46.6133 111.86 46.36C111.913 46.1067 111.953 45.7267 111.98 45.22C112.153 45.34 112.4 45.46 112.72 45.58C113.04 45.6867 113.32 45.7667 113.56 45.82C113.507 46.5267 113.4 47.0733 113.24 47.46C113.08 47.8467 112.84 48.1133 112.52 48.26C112.213 48.4067 111.787 48.48 111.24 48.48C111.16 48.48 111.007 48.48 110.78 48.48C110.567 48.48 110.32 48.48 110.04 48.48C109.773 48.48 109.507 48.48 109.24 48.48C108.973 48.48 108.733 48.48 108.52 48.48C108.307 48.48 108.153 48.48 108.06 48.48C107.353 48.48 106.807 48.42 106.42 48.3C106.033 48.18 105.767 47.9733 105.62 47.68C105.473 47.4 105.4 47 105.4 46.48V44.64ZM101.04 44.74H102.9C102.767 45.3267 102.553 45.84 102.26 46.28C101.98 46.72 101.573 47.1 101.04 47.42C100.52 47.74 99.8467 48 99.02 48.2C98.1933 48.4133 97.1667 48.5867 95.94 48.72C95.8867 48.5067 95.7733 48.2533 95.6 47.96C95.4267 47.6667 95.2667 47.4333 95.12 47.26C96.1867 47.1933 97.0733 47.0933 97.78 46.96C98.5 46.8267 99.08 46.66 99.52 46.46C99.96 46.26 100.293 46.02 100.52 45.74C100.76 45.46 100.933 45.1267 101.04 44.74ZM106.24 35.76H112.9V37.24H106.24V35.76ZM106.44 32.1H113.42V33.6H106.44V32.1ZM106.56 30.1L108.28 30.48C107.973 31.4933 107.58 32.48 107.1 33.44C106.62 34.3867 106.1 35.1867 105.54 35.84C105.447 35.7467 105.307 35.64 105.12 35.52C104.947 35.3867 104.767 35.26 104.58 35.14C104.393 35.02 104.227 34.9267 104.08 34.86C104.627 34.2733 105.113 33.56 105.54 32.72C105.98 31.8667 106.32 30.9933 106.56 30.1ZM99.6 31.36H101.14V33.24H99.6V31.36ZM99.6 35.12H101.14V37.04H99.6V35.12ZM97.04 32.76H103.92V35.8H97.04V34.72H102.26V33.84H97.04V32.76ZM104.3 30.82V31.92H97.8V36.74H104.58V37.86H96.1V30.82H104.3ZM123.56 31.08C123.48 31.4667 123.367 31.94 123.22 32.5C123.087 33.0467 122.887 33.6667 122.62 34.36C122.393 34.92 122.113 35.4933 121.78 36.08C121.46 36.6667 121.127 37.2 120.78 37.68C121.007 37.5467 121.267 37.44 121.56 37.36C121.867 37.2667 122.173 37.2 122.48 37.16C122.8 37.1067 123.087 37.08 123.34 37.08C124.14 37.08 124.813 37.3133 125.36 37.78C125.907 38.2333 126.18 38.8933 126.18 39.76C126.18 40.0267 126.18 40.3533 126.18 40.74C126.18 41.1267 126.187 41.5333 126.2 41.96C126.213 42.3867 126.22 42.8067 126.22 43.22C126.233 43.6333 126.24 43.9933 126.24 44.3H124.34C124.353 44.0467 124.367 43.7533 124.38 43.42C124.393 43.0733 124.4 42.7133 124.4 42.34C124.413 41.9667 124.42 41.6067 124.42 41.26C124.42 40.9133 124.42 40.6067 124.42 40.34C124.407 39.74 124.227 39.3067 123.88 39.04C123.533 38.7733 123.127 38.64 122.66 38.64C122.06 38.64 121.46 38.78 120.86 39.06C120.273 39.34 119.767 39.68 119.34 40.08C119.06 40.36 118.767 40.68 118.46 41.04C118.167 41.4 117.853 41.7933 117.52 42.22L115.8 40.94C116.72 40.0733 117.5 39.2467 118.14 38.46C118.78 37.6733 119.307 36.9267 119.72 36.22C120.147 35.5 120.48 34.82 120.72 34.18C120.933 33.6333 121.107 33.08 121.24 32.52C121.373 31.9467 121.453 31.4133 121.48 30.92L123.56 31.08ZM116.4 33.1C116.933 33.18 117.52 33.24 118.16 33.28C118.8 33.3067 119.36 33.32 119.84 33.32C120.733 33.32 121.7 33.3 122.74 33.26C123.78 33.22 124.827 33.1533 125.88 33.06C126.947 32.9667 127.953 32.8333 128.9 32.66V34.52C128.193 34.6133 127.44 34.7 126.64 34.78C125.84 34.86 125.027 34.9267 124.2 34.98C123.373 35.02 122.58 35.0533 121.82 35.08C121.06 35.0933 120.367 35.1 119.74 35.1C119.46 35.1 119.127 35.1 118.74 35.1C118.367 35.0867 117.973 35.0667 117.56 35.04C117.16 35.0133 116.773 34.9933 116.4 34.98V33.1ZM131.94 38.3C131.753 38.3667 131.533 38.44 131.28 38.52C131.04 38.6 130.8 38.6867 130.56 38.78C130.32 38.8733 130.1 38.96 129.9 39.04C129.22 39.3067 128.427 39.6267 127.52 40C126.627 40.3733 125.707 40.8067 124.76 41.3C124.12 41.6333 123.567 41.9667 123.1 42.3C122.633 42.6333 122.267 42.98 122 43.34C121.747 43.7 121.62 44.0933 121.62 44.52C121.62 44.8667 121.7 45.1467 121.86 45.36C122.02 45.5733 122.24 45.74 122.52 45.86C122.813 45.9667 123.16 46.0467 123.56 46.1C123.973 46.14 124.433 46.16 124.94 46.16C125.74 46.16 126.647 46.1133 127.66 46.02C128.673 45.9267 129.62 45.8 130.5 45.64L130.44 47.66C129.96 47.7133 129.4 47.7667 128.76 47.82C128.12 47.8867 127.46 47.9333 126.78 47.96C126.113 48 125.48 48.02 124.88 48.02C123.88 48.02 122.98 47.9267 122.18 47.74C121.38 47.5533 120.747 47.2333 120.28 46.78C119.813 46.3133 119.58 45.6667 119.58 44.84C119.58 44.1867 119.727 43.6 120.02 43.08C120.327 42.5467 120.72 42.0667 121.2 41.64C121.693 41.2133 122.24 40.82 122.84 40.46C123.44 40.1 124.033 39.7733 124.62 39.48C125.247 39.1467 125.827 38.86 126.36 38.62C126.907 38.3667 127.413 38.14 127.88 37.94C128.36 37.74 128.807 37.54 129.22 37.34C129.567 37.1933 129.893 37.0533 130.2 36.92C130.507 36.7733 130.813 36.62 131.12 36.46L131.94 38.3ZM139.34 35.72V37.42H148.46V35.72H139.34ZM139.34 38.98V40.7H148.46V38.98H139.34ZM139.34 32.46V34.14H148.46V32.46H139.34ZM137.5 30.78H150.38V42.38H137.5V30.78ZM145.02 41.12H146.96V46.02C146.96 46.3267 147.013 46.5267 147.12 46.62C147.24 46.7 147.507 46.74 147.92 46.74C148 46.74 148.153 46.74 148.38 46.74C148.62 46.74 148.88 46.74 149.16 46.74C149.44 46.74 149.7 46.74 149.94 46.74C150.193 46.74 150.38 46.74 150.5 46.74C150.767 46.74 150.96 46.68 151.08 46.56C151.213 46.4267 151.307 46.16 151.36 45.76C151.413 45.36 151.453 44.76 151.48 43.96C151.613 44.0667 151.78 44.1733 151.98 44.28C152.193 44.3733 152.413 44.46 152.64 44.54C152.867 44.62 153.067 44.68 153.24 44.72C153.173 45.7333 153.053 46.5133 152.88 47.06C152.707 47.6067 152.447 47.9867 152.1 48.2C151.753 48.4133 151.28 48.52 150.68 48.52C150.587 48.52 150.433 48.52 150.22 48.52C150.02 48.52 149.793 48.52 149.54 48.52C149.287 48.52 149.033 48.52 148.78 48.52C148.527 48.52 148.3 48.52 148.1 48.52C147.913 48.52 147.773 48.52 147.68 48.52C146.987 48.52 146.44 48.4467 146.04 48.3C145.653 48.1533 145.387 47.8933 145.24 47.52C145.093 47.16 145.02 46.6667 145.02 46.04V41.12ZM140.18 41.72H142.22C142.113 42.6133 141.947 43.4333 141.72 44.18C141.507 44.9133 141.167 45.5667 140.7 46.14C140.233 46.7133 139.593 47.2133 138.78 47.64C137.98 48.08 136.947 48.44 135.68 48.72C135.627 48.56 135.54 48.3733 135.42 48.16C135.3 47.96 135.167 47.7533 135.02 47.54C134.873 47.34 134.733 47.18 134.6 47.06C135.72 46.8333 136.627 46.56 137.32 46.24C138.027 45.92 138.573 45.5467 138.96 45.12C139.347 44.68 139.627 44.18 139.8 43.62C139.973 43.06 140.1 42.4267 140.18 41.72ZM158.28 32.04C158.533 32.0667 158.8 32.0867 159.08 32.1C159.373 32.1133 159.64 32.12 159.88 32.12C160.08 32.12 160.4 32.12 160.84 32.12C161.293 32.1067 161.8 32.0933 162.36 32.08C162.933 32.0667 163.5 32.0533 164.06 32.04C164.62 32.0133 165.12 31.9867 165.56 31.96C166.013 31.9333 166.347 31.9133 166.56 31.9C166.92 31.8733 167.193 31.8467 167.38 31.82C167.58 31.7933 167.733 31.76 167.84 31.72L168.94 33.16C168.74 33.2933 168.533 33.4267 168.32 33.56C168.107 33.6933 167.893 33.8467 167.68 34.02C167.427 34.2067 167.093 34.4667 166.68 34.8C166.28 35.12 165.847 35.48 165.38 35.88C164.913 36.2667 164.453 36.6467 164 37.02C163.547 37.3933 163.14 37.7267 162.78 38.02C163.18 37.8867 163.58 37.8 163.98 37.76C164.38 37.7067 164.78 37.68 165.18 37.68C166.287 37.68 167.28 37.8933 168.16 38.32C169.04 38.7467 169.733 39.32 170.24 40.04C170.747 40.76 171 41.5933 171 42.54C171 43.5933 170.72 44.5333 170.16 45.36C169.613 46.1867 168.813 46.8333 167.76 47.3C166.72 47.7667 165.453 48 163.96 48C163.04 48 162.233 47.8733 161.54 47.62C160.847 47.3667 160.307 47.0133 159.92 46.56C159.547 46.0933 159.36 45.56 159.36 44.96C159.36 44.4667 159.493 44.0067 159.76 43.58C160.04 43.14 160.427 42.7933 160.92 42.54C161.427 42.2733 162.007 42.14 162.66 42.14C163.567 42.14 164.32 42.3267 164.92 42.7C165.533 43.06 166 43.54 166.32 44.14C166.653 44.74 166.833 45.3933 166.86 46.1L165.04 46.36C165 45.56 164.767 44.9067 164.34 44.4C163.927 43.8933 163.367 43.64 162.66 43.64C162.233 43.64 161.88 43.7533 161.6 43.98C161.333 44.2067 161.2 44.4733 161.2 44.78C161.2 45.22 161.42 45.5667 161.86 45.82C162.313 46.0733 162.893 46.2 163.6 46.2C164.733 46.2 165.7 46.06 166.5 45.78C167.3 45.4867 167.907 45.0667 168.32 44.52C168.733 43.96 168.94 43.2867 168.94 42.5C168.94 41.8733 168.753 41.3133 168.38 40.82C168.007 40.3267 167.493 39.9467 166.84 39.68C166.187 39.4 165.44 39.26 164.6 39.26C163.8 39.26 163.067 39.3533 162.4 39.54C161.747 39.7133 161.133 39.9733 160.56 40.32C159.987 40.6533 159.42 41.0733 158.86 41.58C158.313 42.0733 157.747 42.64 157.16 43.28L155.7 41.8C156.1 41.48 156.54 41.12 157.02 40.72C157.5 40.32 157.98 39.92 158.46 39.52C158.953 39.1067 159.413 38.72 159.84 38.36C160.28 37.9867 160.647 37.68 160.94 37.44C161.22 37.2133 161.56 36.94 161.96 36.62C162.36 36.2867 162.773 35.94 163.2 35.58C163.627 35.22 164.033 34.88 164.42 34.56C164.807 34.2267 165.127 33.9467 165.38 33.72C165.167 33.7333 164.873 33.7467 164.5 33.76C164.127 33.7733 163.713 33.7933 163.26 33.82C162.82 33.8333 162.373 33.8533 161.92 33.88C161.467 33.8933 161.053 33.9133 160.68 33.94C160.307 33.9533 160.02 33.9667 159.82 33.98C159.58 33.9933 159.327 34.0133 159.06 34.04C158.807 34.0533 158.567 34.0733 158.34 34.1L158.28 32.04Z" fill="white"/>
</svg>
