<svg width="262" height="322" viewBox="0 0 262 322" fill="none" xmlns="http://www.w3.org/2000/svg">
<path d="M252 0C257.523 0 262 4.4772 262 10V220.298H262.001V311.381C262.001 316.904 257.524 321.381 252.001 321.381H168.684C163.161 321.381 158.684 316.904 158.684 311.381V249.309H103.317V311.381C103.317 316.904 98.8401 321.381 93.3174 321.381H10C4.47716 321.381 4.40454e-06 316.904 0 311.381V10C5.07872e-05 4.4772 4.47718 0 10 0H252Z" fill="#006B5C"/>
<path d="M65.576 91.8C65.208 91.8 64.832 91.784 64.448 91.752C64.08 91.736 63.728 91.72 63.392 91.704C62.784 91.656 62.304 91.592 61.952 91.512C61.616 91.432 61.36 91.28 61.184 91.056C61.024 90.848 60.92 90.52 60.872 90.072C60.84 89.624 60.824 89 60.824 88.2V70.56H63.464V87.84C63.464 88.336 63.472 88.696 63.488 88.92C63.52 89.128 63.584 89.264 63.68 89.328C63.792 89.376 63.968 89.416 64.208 89.448C64.432 89.464 64.664 89.48 64.904 89.496C65.144 89.512 65.384 89.52 65.624 89.52C65.88 89.52 66.128 89.512 66.368 89.496C66.608 89.48 66.84 89.464 67.064 89.448C67.272 89.416 67.44 89.376 67.568 89.328C67.712 89.264 67.824 89.136 67.904 88.944C68 88.752 68.072 88.44 68.12 88.008C68.168 87.576 68.208 86.984 68.24 86.232C68.272 85.464 68.304 84.48 68.336 83.28L70.664 83.52C70.616 85.024 70.56 86.264 70.496 87.24C70.432 88.216 70.336 88.992 70.208 89.568C70.096 90.128 69.936 90.552 69.728 90.84C69.536 91.128 69.272 91.32 68.936 91.416C68.616 91.528 68.216 91.616 67.736 91.68C67.384 91.712 67.04 91.736 66.704 91.752C66.368 91.784 65.992 91.8 65.576 91.8ZM49.448 88.92L48.848 86.64C49.68 86.416 50.536 86.168 51.416 85.896C52.296 85.608 53.168 85.304 54.032 84.984C54.912 84.648 55.76 84.304 56.576 83.952L57.344 86.04C56.512 86.408 55.64 86.768 54.728 87.12C53.832 87.472 52.928 87.808 52.016 88.128C51.12 88.432 50.264 88.696 49.448 88.92ZM54.944 92.16V77.88H49.184V75.648H54.944V70.56H57.536V92.16H54.944ZM62.072 81.528L61.136 79.392C62.544 78.688 63.88 77.864 65.144 76.92C66.408 75.976 67.744 74.792 69.152 73.368L70.76 75.072C69.272 76.576 67.832 77.848 66.44 78.888C65.048 79.912 63.592 80.792 62.072 81.528ZM89.648 92.4C89.264 92.4 88.88 92.392 88.496 92.376C88.112 92.36 87.656 92.344 87.128 92.328L87.008 90.312C87.424 90.328 87.8 90.336 88.136 90.336C88.488 90.352 88.792 90.36 89.048 90.36C89.32 90.36 89.512 90.344 89.624 90.312C89.752 90.28 89.832 90.184 89.864 90.024C89.912 89.88 89.96 89.624 90.008 89.256C90.168 88.088 90.312 86.872 90.44 85.608C90.584 84.328 90.72 83.032 90.848 81.72C90.976 80.408 91.088 79.128 91.184 77.88H82.664C82.536 79.304 82.368 80.784 82.16 82.32C81.952 83.84 81.72 85.344 81.464 86.832C81.224 88.32 80.968 89.744 80.696 91.104L78.248 90.936C78.568 89.384 78.864 87.744 79.136 86.016C79.424 84.288 79.672 82.552 79.88 80.808C80.104 79.064 80.28 77.408 80.408 75.84H93.8C93.704 77.36 93.576 78.96 93.416 80.64C93.256 82.32 93.08 83.984 92.888 85.632C92.712 87.28 92.528 88.824 92.336 90.264C92.224 91.096 91.976 91.656 91.592 91.944C91.224 92.248 90.576 92.4 89.648 92.4ZM74.576 91.944L72.536 90.576C73.24 89.52 73.888 88.368 74.48 87.12C75.088 85.872 75.608 84.616 76.04 83.352L78.2 84.216C77.928 85.096 77.6 86 77.216 86.928C76.848 87.84 76.44 88.728 75.992 89.592C75.544 90.44 75.072 91.224 74.576 91.944ZM76.328 81.456C75.688 80.848 75 80.24 74.264 79.632C73.544 79.008 72.776 78.392 71.96 77.784L73.424 76.056C74.24 76.648 75.016 77.248 75.752 77.856C76.488 78.448 77.176 79.048 77.816 79.656L76.328 81.456ZM79.808 89.472V87.408H94.088V89.472H79.808ZM76.976 75.816C76.4 75.272 75.776 74.72 75.104 74.16C74.448 73.6 73.752 73.048 73.016 72.504L74.504 70.776C75.24 71.32 75.936 71.864 76.592 72.408C77.264 72.936 77.888 73.472 78.464 74.016L76.976 75.816ZM86.696 89.112L84.368 89.088C84.576 87.76 84.776 86.376 84.968 84.936C85.16 83.496 85.336 82.056 85.496 80.616C85.656 79.176 85.784 77.8 85.88 76.488L88.208 76.512C88.112 77.824 87.984 79.2 87.824 80.64C87.664 82.08 87.488 83.52 87.296 84.96C87.104 86.4 86.904 87.784 86.696 89.112ZM78.056 83.712V81.6H94.808V83.712H78.056ZM78.992 79.584L77.264 77.88C78.208 76.792 79.048 75.576 79.784 74.232C80.52 72.888 81.112 71.496 81.56 70.056L83.936 70.536C83.44 72.2 82.76 73.808 81.896 75.36C81.048 76.912 80.08 78.32 78.992 79.584ZM81.32 74.16V72.048H94.328V74.16H81.32ZM103.544 88.032V76.272H116.816V88.032H106.016V86.16H114.272V84.6H106.016V82.848H114.272V81.36H106.016V79.632H114.272V78.192H106.016V88.032H103.544ZM97.304 92.136L96.152 90.024C97.064 89.416 97.88 88.808 98.6 88.2C99.336 87.576 100.008 86.912 100.616 86.208L102.032 87.96C101.424 88.696 100.736 89.4 99.968 90.072C99.2 90.76 98.312 91.448 97.304 92.136ZM99.392 87.72V81.648H96.464V79.488H101.864V87.72H99.392ZM111.104 91.728C109.536 91.728 108.168 91.68 107 91.584C105.848 91.488 104.864 91.336 104.048 91.128C103.248 90.92 102.568 90.64 102.008 90.288C101.464 89.936 101.008 89.504 100.64 88.992C100.288 88.48 99.984 87.872 99.728 87.168L101.84 86.952C102.064 87.368 102.32 87.728 102.608 88.032C102.912 88.32 103.28 88.568 103.712 88.776C104.144 88.968 104.688 89.128 105.344 89.256C106 89.368 106.808 89.448 107.768 89.496C108.728 89.544 109.88 89.568 111.224 89.568H118.016L117.872 91.728H111.104ZM100.448 76.944C99.776 76.192 99.104 75.456 98.432 74.736C97.76 74.016 97.072 73.312 96.368 72.624L98.096 71.136C98.784 71.824 99.464 72.528 100.136 73.248C100.808 73.968 101.472 74.704 102.128 75.456L100.448 76.944ZM110.432 78.096L107.864 77.664C108.104 76.928 108.32 76.16 108.512 75.36C108.72 74.56 108.904 73.712 109.064 72.816L111.632 73.224C111.472 74.12 111.288 74.968 111.08 75.768C110.888 76.568 110.672 77.344 110.432 78.096ZM106.616 74.4C106.312 73.744 105.992 73.104 105.656 72.48C105.32 71.84 104.984 71.24 104.648 70.68L106.952 70.128C107.304 70.688 107.64 71.288 107.96 71.928C108.296 72.568 108.616 73.216 108.92 73.872L106.616 74.4ZM102.104 74.832V72.72H118.016V74.832H102.104ZM113.48 74.352L111.128 73.848C111.496 73.24 111.848 72.624 112.184 72C112.536 71.36 112.84 70.744 113.096 70.152L115.472 70.608C115.216 71.2 114.912 71.824 114.56 72.48C114.224 73.12 113.864 73.744 113.48 74.352ZM127.4 92.04V80.64H140.792V89.16C140.792 89.8 140.76 90.312 140.696 90.696C140.632 91.08 140.488 91.36 140.264 91.536C140.056 91.712 139.736 91.824 139.304 91.872C138.888 91.936 138.32 91.968 137.6 91.968C137.344 91.968 136.992 91.96 136.544 91.944C136.112 91.944 135.48 91.92 134.648 91.872L134.6 89.712C135.288 89.744 135.832 89.768 136.232 89.784C136.648 89.8 136.984 89.808 137.24 89.808C137.56 89.808 137.784 89.8 137.912 89.784C138.056 89.768 138.136 89.72 138.152 89.64C138.184 89.544 138.2 89.384 138.2 89.16V88.608H129.992V86.832H138.2V85.632H129.992V83.808H138.2V82.608H129.992V92.04H127.4ZM121.16 83.616L119.24 83.256C119.512 81.896 119.752 80.52 119.96 79.128C120.168 77.72 120.328 76.32 120.44 74.928L122.36 75.12C122.248 76.528 122.088 77.952 121.88 79.392C121.672 80.832 121.432 82.24 121.16 83.616ZM122.648 92.16V70.56H125.192V92.16H122.648ZM125.84 80.04C125.696 79.176 125.528 78.288 125.336 77.376C125.16 76.448 124.968 75.544 124.76 74.664L126.56 74.256C126.784 75.136 126.992 76.048 127.184 76.992C127.376 77.92 127.544 78.816 127.688 79.68L125.84 80.04ZM126.68 79.728V77.808H132.968V76.752H127.76V74.88H132.968V73.8H126.92V71.808H132.968V70.2H135.608V71.808H141.44V73.8H135.608V74.88H140.72V76.752H135.608V77.808H141.92V79.728H126.68ZM154.616 92.064V71.112H165.488L165.44 72.12C165.376 73.224 165.304 74.096 165.224 74.736C165.144 75.36 165.032 75.824 164.888 76.128C164.76 76.432 164.584 76.624 164.36 76.704C164.136 76.784 163.848 76.824 163.496 76.824C163.096 76.824 162.52 76.816 161.768 76.8C161.032 76.768 160.144 76.736 159.104 76.704L159.056 74.712C159.792 74.744 160.456 74.776 161.048 74.808C161.656 74.824 162.112 74.832 162.416 74.832C162.544 74.832 162.64 74.824 162.704 74.808C162.768 74.776 162.816 74.712 162.848 74.616C162.896 74.52 162.936 74.36 162.968 74.136C163 73.896 163.032 73.568 163.064 73.152H157.016V77.832H165.368V79.944H157.016V92.064H154.616ZM148.016 92.28V88.8H144.368V86.832H148.016V84.36H143.984V82.272H154.784V84.36H150.536V86.832H154.064V88.8H150.536V92.28H148.016ZM146.528 83.472C146.368 82.512 146.184 81.544 145.976 80.568C145.784 79.576 145.568 78.616 145.328 77.688L147.392 77.136C147.632 78.08 147.856 79.04 148.064 80.016C148.272 80.992 148.456 81.968 148.616 82.944L146.528 83.472ZM151.952 83.616L149.888 83.064C150.208 82.184 150.496 81.232 150.752 80.208C151.024 79.184 151.256 78.136 151.448 77.064L153.632 77.448C153.424 78.552 153.176 79.632 152.888 80.688C152.616 81.728 152.304 82.704 151.952 83.616ZM143.888 78.192V76.08H148.016V73.872H144.536V71.88H148.016V70.2H150.536V71.88H153.968V73.872H150.536V76.08H154.784V78.192H143.888ZM165.152 92.088C164.016 91.432 162.952 90.576 161.96 89.52C160.968 88.464 160.096 87.264 159.344 85.92C158.592 84.56 158 83.112 157.568 81.576L159.56 80.496C159.896 81.792 160.384 83.04 161.024 84.24C161.664 85.44 162.416 86.52 163.28 87.48C164.144 88.44 165.064 89.232 166.04 89.856L165.152 92.088ZM158.528 92.016L157.304 89.928C158.376 89.16 159.312 88.24 160.112 87.168C160.928 86.096 161.592 84.912 162.104 83.616C162.632 82.304 162.984 80.904 163.16 79.416L165.368 79.944C165.128 81.624 164.696 83.216 164.072 84.72C163.464 86.208 162.688 87.568 161.744 88.8C160.816 90.032 159.744 91.104 158.528 92.016ZM169.112 91.8L167.744 89.832C169.76 88.872 171.464 87.696 172.856 86.304C174.264 84.912 175.328 83.328 176.048 81.552C176.784 79.776 177.152 77.832 177.152 75.72V70.56H179.792V75.72C179.792 77.432 179.528 79.104 179 80.736C178.472 82.352 177.728 83.872 176.768 85.296C175.824 86.704 174.696 87.968 173.384 89.088C172.088 90.192 170.664 91.096 169.112 91.8ZM187.832 91.8C186.312 91.096 184.912 90.192 183.632 89.088C182.368 87.968 181.264 86.704 180.32 85.296C179.392 83.872 178.672 82.352 178.16 80.736C177.648 79.104 177.392 77.432 177.392 75.72H179.792C179.792 77.832 180.152 79.776 180.872 81.552C181.608 83.328 182.68 84.912 184.088 86.304C185.496 87.696 187.2 88.872 189.2 89.832L187.832 91.8ZM168.152 77.64V75.36H188.792V77.64H168.152ZM200.576 91.968C200.192 91.968 199.688 91.96 199.064 91.944C198.44 91.928 197.664 91.904 196.736 91.872L196.64 89.64C197.488 89.672 198.232 89.704 198.872 89.736C199.512 89.752 199.984 89.76 200.288 89.76C200.608 89.76 200.832 89.744 200.96 89.712C201.104 89.68 201.184 89.608 201.2 89.496C201.232 89.368 201.248 89.152 201.248 88.848V85.68H191.288V83.472H201.248V81.552H203.888V83.472H213.128V85.68H203.888V89.208C203.888 89.848 203.856 90.352 203.792 90.72C203.728 91.088 203.584 91.36 203.36 91.536C203.152 91.712 202.824 91.824 202.376 91.872C201.928 91.936 201.328 91.968 200.576 91.968ZM196.352 75.408C196.016 74.688 195.656 73.976 195.272 73.272C194.888 72.568 194.504 71.904 194.12 71.28L196.376 70.368C196.776 70.992 197.16 71.656 197.528 72.36C197.912 73.064 198.272 73.784 198.608 74.52L196.352 75.408ZM195.68 79.392V77.232H208.736V79.392H195.68ZM203.768 83.76L202.256 81.96C203.104 81.336 203.928 80.68 204.728 79.992C205.528 79.304 206.272 78.6 206.96 77.88L208.736 79.392C208 80.208 207.232 80.968 206.432 81.672C205.632 82.376 204.744 83.072 203.768 83.76ZM192.128 79.392V73.44H212.288V79.392H209.84V75.552H194.576V79.392H192.128ZM201.92 75.288C201.584 74.536 201.224 73.8 200.84 73.08C200.472 72.36 200.096 71.68 199.712 71.04L201.944 70.128C202.344 70.768 202.728 71.456 203.096 72.192C203.48 72.912 203.84 73.648 204.176 74.4L201.92 75.288ZM207.944 75.192L205.664 74.496C206.128 73.792 206.568 73.088 206.984 72.384C207.4 71.664 207.776 70.96 208.112 70.272L210.416 70.92C210.08 71.608 209.696 72.32 209.264 73.056C208.848 73.776 208.408 74.488 207.944 75.192ZM17.58 119.24L17.076 117.152C18.916 116.832 20.564 116.504 22.02 116.168C23.492 115.832 24.804 115.48 25.956 115.112C27.108 114.744 28.132 114.344 29.028 113.912C29.924 113.48 30.716 113.024 31.404 112.544C32.092 112.048 32.716 111.512 33.276 110.936L35.964 111.632C35.084 112.512 34.068 113.328 32.916 114.08C31.764 114.832 30.444 115.52 28.956 116.144C27.468 116.768 25.788 117.336 23.916 117.848C22.044 118.36 19.932 118.824 17.58 119.24ZM19.644 130.376L17.556 128.984C18.196 128.424 18.724 127.792 19.14 127.088C19.556 126.384 19.868 125.6 20.076 124.736C20.284 123.872 20.388 122.92 20.388 121.88V117.08H22.788V121.88C22.788 123.8 22.524 125.448 21.996 126.824C21.484 128.2 20.7 129.384 19.644 130.376ZM23.988 129.68L22.068 128.768C22.5 128.048 22.892 127.264 23.244 126.416C23.596 125.552 23.868 124.704 24.06 123.872L26.028 124.352C25.916 124.912 25.756 125.512 25.548 126.152C25.34 126.776 25.1 127.392 24.828 128C24.572 128.608 24.292 129.168 23.988 129.68ZM27.756 130.112C27.532 130.112 27.204 130.096 26.772 130.064C26.356 130.032 25.868 130 25.308 129.968L25.188 127.88C25.604 127.928 25.916 127.96 26.124 127.976C26.348 127.992 26.54 128 26.7 128C26.876 128 26.996 127.992 27.06 127.976C27.14 127.96 27.188 127.92 27.204 127.856C27.22 127.776 27.228 127.648 27.228 127.472V123.392H23.388V121.4H33.468V123.392H29.58V127.88C29.58 128.52 29.532 129 29.436 129.32C29.356 129.64 29.18 129.848 28.908 129.944C28.652 130.056 28.268 130.112 27.756 130.112ZM31.788 129.728C31.532 128.768 31.236 127.848 30.9 126.968C30.58 126.072 30.236 125.256 29.868 124.52L31.788 123.872C32.156 124.592 32.508 125.416 32.844 126.344C33.196 127.272 33.5 128.208 33.756 129.152L31.788 129.728ZM23.988 120.08V118.16H32.868V120.08H23.988ZM34.068 130.04V117.152H36.54V130.04H34.068ZM38.844 119.168C36.076 118.72 33.612 118.192 31.452 117.584C29.292 116.976 27.34 116.264 25.596 115.448C23.868 114.632 22.268 113.688 20.796 112.616L22.908 111.296C23.628 111.872 24.38 112.4 25.164 112.88C25.964 113.36 26.828 113.8 27.756 114.2C28.7 114.6 29.74 114.976 30.876 115.328C32.012 115.664 33.284 115.984 34.692 116.288C36.1 116.592 37.676 116.88 39.42 117.152L38.844 119.168ZM17.868 111.728V109.712H26.868V107.84H29.508V109.712H38.508V111.728H17.868ZM42.684 130.112L40.644 128.6C40.884 128.008 41.084 127.416 41.244 126.824C41.42 126.216 41.556 125.552 41.652 124.832C41.764 124.096 41.844 123.256 41.892 122.312C41.94 121.352 41.964 120.224 41.964 118.928V113.552H48.612V126.632C48.612 127.384 48.588 127.976 48.54 128.408C48.508 128.856 48.428 129.184 48.3 129.392C48.172 129.616 47.98 129.76 47.724 129.824C47.468 129.888 47.124 129.92 46.692 129.92C46.436 129.92 46.092 129.904 45.66 129.872C45.228 129.856 44.692 129.832 44.052 129.8L43.956 127.712C44.452 127.76 44.836 127.792 45.108 127.808C45.38 127.808 45.588 127.808 45.732 127.808C45.908 127.808 46.036 127.792 46.116 127.76C46.196 127.728 46.244 127.648 46.26 127.52C46.276 127.376 46.284 127.136 46.284 126.8V124.592H43.092V122.6H46.284V119.96H43.644V117.968H46.284V115.568H44.292V119.888C44.292 121.52 44.228 122.952 44.1 124.184C43.988 125.4 43.812 126.488 43.572 127.448C43.348 128.408 43.052 129.296 42.684 130.112ZM49.476 129.68L48.516 127.76C49.268 127.456 50.052 127.04 50.868 126.512C51.684 125.984 52.452 125.4 53.172 124.76L54.444 126.44C53.708 127.128 52.9 127.76 52.02 128.336C51.14 128.912 50.292 129.36 49.476 129.68ZM54.372 129.968C54.196 129.968 53.892 129.96 53.46 129.944C53.044 129.928 52.532 129.904 51.924 129.872L51.876 127.808C52.452 127.84 52.94 127.872 53.34 127.904C53.74 127.936 54.004 127.952 54.132 127.952C54.404 127.952 54.564 127.912 54.612 127.832C54.66 127.752 54.684 127.504 54.684 127.088V121.64H57.084V126.92C57.084 127.608 57.052 128.16 56.988 128.576C56.924 128.992 56.796 129.296 56.604 129.488C56.428 129.68 56.156 129.808 55.788 129.872C55.436 129.936 54.964 129.968 54.372 129.968ZM53.124 125.648C52.724 125.232 52.316 124.84 51.9 124.472C51.484 124.104 51.044 123.744 50.58 123.392L51.876 121.688C52.34 122.04 52.78 122.4 53.196 122.768C53.628 123.136 54.044 123.52 54.444 123.92L53.124 125.648ZM61.884 129.872C61.084 129.216 60.268 128.624 59.436 128.096C58.604 127.584 57.764 127.136 56.916 126.752L58.044 124.928C58.844 125.264 59.668 125.696 60.516 126.224C61.364 126.752 62.18 127.344 62.964 128L61.884 129.872ZM49.764 125.36L48.324 123.488C49.108 122.992 49.836 122.384 50.508 121.664C51.196 120.944 51.812 120.136 52.356 119.24C52.9 118.344 53.364 117.368 53.748 116.312C54.132 115.24 54.42 114.112 54.612 112.928L56.964 113.072C56.884 113.664 56.764 114.248 56.604 114.824C56.46 115.4 56.284 115.968 56.076 116.528L55.956 116.84C55.508 118.024 54.972 119.144 54.348 120.2C53.724 121.256 53.028 122.224 52.26 123.104C51.492 123.968 50.66 124.72 49.764 125.36ZM58.212 125.48L56.916 123.8C57.38 123.48 57.82 123.136 58.236 122.768C58.668 122.4 59.092 122.008 59.508 121.592L60.876 123.176C60.476 123.608 60.052 124.016 59.604 124.4C59.156 124.768 58.692 125.128 58.212 125.48ZM49.164 120.968V118.928H62.724V120.968H49.164ZM52.284 117.128C51.932 116.472 51.564 115.832 51.18 115.208C50.812 114.584 50.436 113.984 50.052 113.408L52.116 112.688C52.484 113.28 52.836 113.888 53.172 114.512C53.508 115.136 53.852 115.776 54.204 116.432L52.284 117.128ZM61.764 125.24C60.612 124.392 59.524 123.256 58.5 121.832C57.476 120.392 56.604 118.752 55.884 116.912L57.924 116.192C58.436 117.824 59.14 119.256 60.036 120.488C60.948 121.72 61.988 122.72 63.156 123.488L61.764 125.24ZM49.476 117.32V115.328H62.436V117.32H49.476ZM46.404 113.072V111.872H41.124V109.808H46.404V108.272H48.924V109.808H54.924V108.272H57.444V109.808H62.724V111.872H57.444V112.64H54.924V111.872H48.924V113.072H46.404ZM59.604 116.96L57.516 116.456C57.932 115.816 58.316 115.184 58.668 114.56C59.02 113.936 59.332 113.312 59.604 112.688L61.764 113.168C61.46 113.792 61.124 114.416 60.756 115.04C60.404 115.664 60.02 116.304 59.604 116.96ZM64.86 120.08V117.56H86.46V120.08H64.86ZM97.476 121.28V117.44H101.316V121.28H97.476ZM115.98 130.16V114.992H112.524V112.76H115.98V108.56H118.452V112.76H121.74V114.992H118.452V130.16H115.98ZM112.908 125.912L111.564 123.608C112.604 122.104 113.46 120.608 114.132 119.12C114.804 117.616 115.324 116.048 115.692 114.416L117.204 114.944C116.996 116.336 116.692 117.688 116.292 119C115.892 120.312 115.404 121.552 114.828 122.72C114.268 123.888 113.628 124.952 112.908 125.912ZM120.732 123.08C120.156 121.896 119.524 120.648 118.836 119.336C118.148 118.024 117.5 116.832 116.892 115.76L118.692 114.68C119.38 115.864 120.02 116.992 120.612 118.064C121.204 119.136 121.844 120.328 122.532 121.64L120.732 123.08ZM121.932 129.8L120.732 127.64C123.292 126.968 125.54 126.16 127.476 125.216C129.412 124.256 131.204 123.12 132.852 121.808L134.46 123.56C133.308 124.52 132.1 125.384 130.836 126.152C129.588 126.904 128.236 127.576 126.78 128.168C125.324 128.776 123.708 129.32 121.932 129.8ZM123.564 122.288L122.412 120.128C124.572 119.504 126.476 118.76 128.124 117.896C129.772 117.032 131.212 116.04 132.444 114.92L134.052 116.6C132.74 117.816 131.228 118.896 129.516 119.84C127.804 120.768 125.82 121.584 123.564 122.288ZM123.492 115.472L122.412 113.312C124.46 112.736 126.26 112.064 127.812 111.296C129.364 110.528 130.7 109.68 131.82 108.752L133.404 110.432C132.604 111.136 131.708 111.792 130.716 112.4C129.74 113.008 128.652 113.568 127.452 114.08C126.268 114.576 124.948 115.04 123.492 115.472ZM141.708 120.608V118.688H148.836V117.488H142.668V115.712H148.836V114.512H144.66V112.76H155.148V110.912H152.988V112.76H150.996V110.912H148.788V112.76H146.82V110.912H144.66V114.512H142.428V108.992H157.428V114.512H151.476V115.712H157.188V117.488H151.476V118.688H158.1V120.608H141.708ZM137.988 129.944L135.9 128.648C136.604 127.544 137.244 126.336 137.82 125.024C138.412 123.712 138.916 122.4 139.332 121.088L141.516 121.88C141.26 122.808 140.948 123.752 140.58 124.712C140.228 125.656 139.828 126.576 139.38 127.472C138.948 128.368 138.484 129.192 137.988 129.944ZM139.716 119.456C139.076 118.848 138.388 118.24 137.652 117.632C136.932 117.008 136.164 116.392 135.348 115.784L136.812 114.056C137.628 114.648 138.404 115.248 139.14 115.856C139.876 116.448 140.564 117.048 141.204 117.656L139.716 119.456ZM148.836 130.28V127.952H142.308V126.032H148.836V124.688H141.708V122.768H158.1V124.688H151.476V126.032H157.548V127.952H151.476V130.28H148.836ZM145.908 123.872C145.684 123.216 145.428 122.56 145.14 121.904C144.868 121.232 144.58 120.584 144.276 119.96L146.676 119.48C146.996 120.12 147.292 120.768 147.564 121.424C147.836 122.08 148.084 122.736 148.308 123.392L145.908 123.872ZM140.268 113.816C139.692 113.272 139.068 112.72 138.396 112.16C137.74 111.6 137.044 111.048 136.308 110.504L137.772 108.776C138.508 109.32 139.212 109.864 139.884 110.408C140.556 110.936 141.18 111.472 141.756 112.016L140.268 113.816ZM153.78 124.04L151.548 123.32C151.98 122.744 152.388 122.136 152.772 121.496C153.172 120.84 153.524 120.168 153.828 119.48L156.108 120.08C155.804 120.784 155.452 121.472 155.052 122.144C154.668 122.8 154.244 123.432 153.78 124.04ZM170.412 130.016L168.612 128.096C169.044 127.632 169.42 127.144 169.74 126.632C170.06 126.104 170.332 125.496 170.556 124.808C170.796 124.104 170.988 123.256 171.132 122.264C171.276 121.272 171.38 120.064 171.444 118.64C171.524 117.216 171.564 115.52 171.564 113.552V111.44H169.356V109.28H181.644V111.44H179.364V117.32H181.884V119.48H179.364V129.8H176.844V119.48H169.044V117.32H176.844V111.44H174.012V113.552C174.012 115.648 173.964 117.48 173.868 119.048C173.788 120.6 173.66 121.944 173.484 123.08C173.308 124.216 173.076 125.2 172.788 126.032C172.5 126.848 172.156 127.576 171.756 128.216C171.372 128.856 170.924 129.456 170.412 130.016ZM161.292 129.56V116.6H168.444V127.64H163.644V125.552H166.236V118.76H163.644V129.56H161.292ZM159.708 123.224L158.988 120.272C159.628 119.424 160.18 118.512 160.644 117.536C161.124 116.544 161.524 115.456 161.844 114.272C162.164 113.088 162.404 111.784 162.564 110.36L164.844 110.6C164.684 112.104 164.412 113.552 164.028 114.944C163.66 116.32 163.196 117.608 162.636 118.808V118.088C162.188 119.208 161.716 120.192 161.22 121.04C160.724 121.888 160.22 122.616 159.708 123.224ZM159.804 111.44V109.28H168.444V111.44H159.804ZM184.668 119.36L184.068 117.32C185.316 117.096 186.372 116.832 187.236 116.528C188.1 116.208 188.796 115.848 189.324 115.448C189.868 115.048 190.26 114.608 190.5 114.128C190.756 113.648 190.884 113.136 190.884 112.592H186.684V115.4H184.212V110.48H193.092V107.96H195.732V110.48H204.612V114.68H202.164V112.592H197.964V116.12C197.964 116.504 197.996 116.728 198.06 116.792C198.14 116.856 198.404 116.904 198.852 116.936C198.996 116.952 199.148 116.96 199.308 116.96C199.484 116.96 199.652 116.96 199.812 116.96C199.988 116.96 200.156 116.96 200.316 116.96C200.476 116.96 200.628 116.952 200.772 116.936C201.236 116.904 201.564 116.864 201.756 116.816C201.948 116.768 202.076 116.64 202.14 116.432C202.204 116.208 202.252 115.84 202.284 115.328L204.732 115.592C204.684 116.344 204.612 116.944 204.516 117.392C204.42 117.824 204.244 118.144 203.988 118.352C203.748 118.56 203.38 118.696 202.884 118.76C202.388 118.824 201.708 118.872 200.844 118.904C200.636 118.904 200.42 118.912 200.196 118.928C199.988 118.944 199.772 118.952 199.548 118.952C199.34 118.952 199.124 118.952 198.9 118.952C198.692 118.936 198.484 118.92 198.276 118.904C197.652 118.872 197.148 118.832 196.764 118.784C196.38 118.736 196.092 118.656 195.9 118.544C195.724 118.416 195.604 118.24 195.54 118.016C195.476 117.792 195.444 117.504 195.444 117.152V112.592H193.404C193.372 113.408 193.172 114.168 192.804 114.872C192.452 115.56 191.916 116.192 191.196 116.768C190.492 117.344 189.596 117.848 188.508 118.28C187.42 118.712 186.14 119.072 184.668 119.36ZM184.356 130.16L183.132 128.12C184.364 127.736 185.428 127.336 186.324 126.92C187.22 126.504 187.972 126.032 188.58 125.504C189.188 124.976 189.668 124.376 190.02 123.704C190.388 123.016 190.644 122.232 190.788 121.352C190.948 120.456 191.028 119.432 191.028 118.28H193.62C193.62 119.912 193.452 121.352 193.116 122.6C192.796 123.832 192.268 124.912 191.532 125.84C190.812 126.768 189.86 127.584 188.676 128.288C187.492 128.992 186.052 129.616 184.356 130.16ZM201.06 129.68C200.244 129.68 199.596 129.648 199.116 129.584C198.636 129.52 198.268 129.4 198.012 129.224C197.772 129.064 197.612 128.824 197.532 128.504C197.452 128.2 197.412 127.792 197.412 127.28V122.48H184.788V120.32H199.98V126.848C199.98 127.056 199.996 127.208 200.028 127.304C200.076 127.4 200.212 127.464 200.436 127.496C200.66 127.512 201.028 127.52 201.54 127.52C201.956 127.52 202.276 127.496 202.5 127.448C202.74 127.384 202.916 127.232 203.028 126.992C203.156 126.752 203.252 126.352 203.316 125.792C203.38 125.216 203.452 124.424 203.532 123.416L205.86 123.704C205.796 124.84 205.716 125.776 205.62 126.512C205.524 127.248 205.38 127.832 205.188 128.264C204.996 128.696 204.732 129.008 204.396 129.2C204.076 129.408 203.644 129.536 203.1 129.584C202.556 129.648 201.876 129.68 201.06 129.68ZM207.396 129.44V127.328H216.756V124.832H209.076V122.768H216.756V119.84H219.396V122.768H226.836V124.832H219.396V127.328H228.756V129.44H207.396ZM213.972 119.912L211.788 119C212.236 118.264 212.66 117.512 213.06 116.744C213.476 115.96 213.868 115.152 214.236 114.32L216.564 115.088C216.164 115.936 215.748 116.768 215.316 117.584C214.884 118.384 214.436 119.16 213.972 119.912ZM208.596 120.752L208.476 118.688C210.188 118.64 211.948 118.568 213.756 118.472C215.58 118.376 217.436 118.256 219.324 118.112C221.228 117.968 223.124 117.808 225.012 117.632L225.228 119.6C223.308 119.808 221.388 119.992 219.468 120.152C217.564 120.312 215.7 120.44 213.876 120.536C212.052 120.632 210.292 120.704 208.596 120.752ZM209.196 115.568V113.6H226.956V115.568H209.196ZM207.516 114.68V110H216.756V107.96H219.396V110H228.636V114.68H226.116V112.04H210.036V114.68H207.516ZM225.972 121.472C225.252 120.496 224.476 119.496 223.644 118.472C222.812 117.448 221.948 116.432 221.052 115.424L223.092 114.368C224.004 115.344 224.892 116.352 225.756 117.392C226.62 118.416 227.412 119.408 228.132 120.368L225.972 121.472ZM73.64 155.488L72.56 153.352C73.808 152.664 74.96 151.976 76.016 151.288C77.072 150.6 78.08 149.864 79.04 149.08C80.016 148.296 80.984 147.44 81.944 146.512H85.112C86.072 147.44 87.032 148.296 87.992 149.08C88.968 149.864 89.984 150.6 91.04 151.288C92.096 151.976 93.248 152.664 94.496 153.352L93.416 155.488C91.512 154.464 89.752 153.36 88.136 152.176C86.536 150.992 85 149.664 83.528 148.192C82.056 149.664 80.512 150.992 78.896 152.176C77.296 153.36 75.544 154.464 73.64 155.488ZM75.128 168.112V157.84H91.928V168.112H89.336V166.912H77.72V164.848H89.336V159.952H77.72V168.112H75.128ZM76.808 155.32V153.232H90.248V155.32H76.808ZM97.232 167.872V147.04H117.296V164.272C117.296 165.056 117.264 165.68 117.2 166.144C117.136 166.608 116.992 166.952 116.768 167.176C116.56 167.416 116.24 167.568 115.808 167.632C115.392 167.696 114.824 167.728 114.104 167.728C113.72 167.728 113.208 167.72 112.568 167.704C111.928 167.688 111.12 167.664 110.144 167.632L110.024 165.4C110.968 165.432 111.72 165.464 112.28 165.496C112.84 165.512 113.248 165.52 113.504 165.52C113.904 165.52 114.192 165.504 114.368 165.472C114.544 165.424 114.648 165.312 114.68 165.136C114.728 164.96 114.752 164.672 114.752 164.272V149.2H99.776V167.872H97.232ZM102.224 166.192V155.92H112.304V164.272H104.624V162.352H109.904V157.84H104.624V166.192H102.224ZM101.216 153.52V151.48H113.312V153.52H101.216ZM121.448 167.896L119.6 165.904C119.936 165.184 120.232 164.424 120.488 163.624C120.744 162.808 120.952 161.944 121.112 161.032C121.288 160.104 121.416 159.104 121.496 158.032C121.592 156.96 121.64 155.792 121.64 154.528V147.16H140.48V152.752H123.44V150.832H137.912V149.152H124.088V156.112C124.088 157.28 124.024 158.408 123.896 159.496C123.784 160.584 123.616 161.632 123.392 162.64C123.168 163.632 122.888 164.568 122.552 165.448C122.232 166.328 121.864 167.144 121.448 167.896ZM123.224 168.088L122.96 166.048C124.816 165.888 126.68 165.68 128.552 165.424C130.44 165.168 132.352 164.84 134.288 164.44L134.576 166.408C133.28 166.68 132 166.92 130.736 167.128C129.472 167.352 128.216 167.536 126.968 167.68C125.72 167.84 124.472 167.976 123.224 168.088ZM126.152 167.008V160.84H122.6V158.8H127.352V152.512H129.8V158.8H134.96V156.52H124.52V154.528H134.96V152.512H137.48V154.528H140.36V156.52H137.48V158.8H141.368V160.84H128.72V167.008H126.152ZM140.504 168.208C139.128 167.792 137.816 167.2 136.568 166.432C135.336 165.68 134.224 164.792 133.232 163.768C132.256 162.728 131.456 161.592 130.832 160.36L133.328 159.832C134.048 161.32 135.096 162.608 136.472 163.696C137.864 164.768 139.576 165.616 141.608 166.24L140.504 168.208ZM136.76 165.016L135.08 163.624C135.8 163.192 136.488 162.728 137.144 162.232C137.816 161.72 138.44 161.192 139.016 160.648L140.864 161.944C140.256 162.52 139.608 163.064 138.92 163.576C138.232 164.088 137.512 164.568 136.76 165.016ZM153.008 167.68C152.624 167.68 152.144 167.672 151.568 167.656C150.992 167.64 150.248 167.608 149.336 167.56L149.216 165.28C150.064 165.312 150.76 165.344 151.304 165.376C151.848 165.392 152.272 165.4 152.576 165.4C152.96 165.4 153.232 165.384 153.392 165.352C153.568 165.304 153.672 165.192 153.704 165.016C153.752 164.824 153.776 164.528 153.776 164.128V155.392H144.176V153.16H165.296V155.392H156.416V164.2C156.416 164.984 156.376 165.608 156.296 166.072C156.232 166.552 156.088 166.904 155.864 167.128C155.64 167.352 155.296 167.496 154.832 167.56C154.384 167.64 153.776 167.68 153.008 167.68ZM146.072 165.832L143.912 164.728C144.728 163.544 145.448 162.32 146.072 161.056C146.696 159.776 147.224 158.456 147.656 157.096L149.984 157.864C149.568 159.272 149.024 160.656 148.352 162.016C147.696 163.36 146.936 164.632 146.072 165.832ZM163.328 166C162.736 164.624 162.088 163.28 161.384 161.968C160.68 160.64 159.928 159.344 159.128 158.08L161.312 157C162.128 158.28 162.896 159.584 163.616 160.912C164.336 162.24 164.992 163.6 165.584 164.992L163.328 166ZM146.096 149.56V147.328H163.376V149.56H146.096ZM168.224 155.488L167.144 153.352C168.392 152.664 169.568 151.968 170.672 151.264C171.776 150.56 172.84 149.816 173.864 149.032C174.888 148.248 175.896 147.408 176.888 146.512H180.056C181.048 147.408 182.056 148.248 183.08 149.032C184.104 149.816 185.168 150.56 186.272 151.264C187.376 151.968 188.552 152.664 189.8 153.352L188.72 155.488C186.816 154.464 185.008 153.352 183.296 152.152C181.6 150.936 179.992 149.616 178.472 148.192C176.952 149.616 175.336 150.936 173.624 152.152C171.928 153.352 170.128 154.464 168.224 155.488ZM168.992 167.56L168.872 165.4C171.592 165.304 174.408 165.136 177.32 164.896C180.232 164.64 183.152 164.312 186.08 163.912L186.296 166C183.32 166.416 180.368 166.752 177.44 167.008C174.528 167.28 171.712 167.464 168.992 167.56ZM174.2 166.84L171.872 165.952C172.512 164.784 173.128 163.544 173.72 162.232C174.328 160.92 174.896 159.56 175.424 158.152L177.872 158.848C177.328 160.288 176.744 161.68 176.12 163.024C175.496 164.368 174.856 165.64 174.2 166.84ZM168.272 159.88V157.72H188.672V159.88H168.272ZM186.656 168.352C186.304 167.648 185.904 166.888 185.456 166.072C185.024 165.272 184.584 164.472 184.136 163.672C183.704 162.856 183.28 162.096 182.864 161.392L185.048 160.408C185.464 161.112 185.896 161.872 186.344 162.688C186.808 163.504 187.256 164.32 187.688 165.136C188.136 165.936 188.536 166.68 188.888 167.368L186.656 168.352ZM171.632 155.32V153.232H185.312V155.32H171.632Z" fill="white"/>
</svg>
