<svg width="628" height="628" viewBox="0 0 628 628" fill="none" xmlns="http://www.w3.org/2000/svg">
<path d="M301.019 1.17951C264.532 7.011 240.735 35.9319 247.864 65.7747L291.182 247.075C296.202 267.248 331.52 267.439 336.673 247.075L379.991 65.7747C389.785 28.5356 346.825 -6.9779 301.016 1.17951H301.019Z" fill="#816227"/>
<path d="M336.816 380.924C331.796 360.752 296.479 360.561 291.326 380.924L248.009 562.225C238.215 599.464 281.171 634.978 326.983 626.82C363.468 620.989 387.265 592.068 380.136 562.225L336.819 380.924H336.816Z" fill="#816227"/>
<path d="M1.17951 326.982C7.011 363.468 35.9319 387.265 65.7747 380.136L247.075 336.818C267.248 331.798 267.439 296.48 247.075 291.327L65.7747 248.009C28.5356 238.215 -6.9779 281.175 1.17951 326.985V326.982Z" fill="#816227"/>
<path d="M380.924 291.184C360.752 296.204 360.561 331.521 380.924 336.674L562.225 379.991C599.464 389.785 634.978 346.829 626.82 301.018C620.989 264.532 592.068 240.736 562.225 247.865L380.924 291.181V291.184Z" fill="#816227"/>
<path d="M522.985 114.419H105.015V513.58H522.985V114.419Z" fill="#816227"/>
<path d="M522.985 513.58H314H105.015L304.691 314L105.015 114.419H314H522.985L323.309 314L522.985 513.58Z" fill="#937029"/>
<path d="M505.743 131.661H122.256V496.34H505.743V131.661Z" fill="white"/>
<g style="mix-blend-mode:screen" opacity="0.15">
<path d="M517.76 119.644V508.356H110.239V119.644H517.76ZM116.92 501.678H511.079V126.322H116.92V501.678Z" fill="#967426"/>
</g>
<g style="mix-blend-mode:multiply" opacity="0.27">
<path d="M510.968 126.436V501.564H117.031V126.436H510.968ZM122.493 496.105H505.506V131.895H122.493V496.105Z" fill="#937029"/>
</g>
<path d="M264.369 268.692C264.369 268.965 264.143 269.191 263.865 269.186C248.601 268.919 236.265 256.41 236.265 241.071C236.265 225.732 248.601 213.224 263.865 212.956C264.138 212.956 264.369 213.177 264.369 213.45V222.355C264.369 222.618 264.158 222.829 263.891 222.839C254.062 223.091 246.145 231.173 246.145 241.071C246.145 250.97 254.062 259.051 263.891 259.303C264.153 259.308 264.369 259.519 264.369 259.787V268.692Z" fill="#006B5C"/>
<path d="M230.695 244.752L220.651 234.704C220.363 228.362 218.272 222.479 214.886 217.558C214.912 217.501 214.927 217.434 214.927 217.368V203.001H227.88C228.152 203.001 228.368 202.78 228.368 202.512V194.405C228.368 194.132 228.147 193.916 227.88 193.916H214.927V179.55C214.927 179.277 214.706 179.061 214.439 179.061H206.337C206.064 179.061 205.848 179.282 205.848 179.55V208.684C200.644 205.245 194.417 203.233 187.727 203.233C169.549 203.233 154.763 218.032 154.763 236.222C154.763 254.413 169.549 269.212 187.727 269.212C202.473 269.212 214.989 259.473 219.186 246.085L224.273 251.176C224.463 251.366 224.771 251.366 224.966 251.176L230.695 245.441C230.885 245.251 230.885 244.942 230.695 244.752ZM187.727 259.329C174.996 259.329 164.638 248.962 164.638 236.222C164.638 223.483 174.996 213.116 187.727 213.116C200.459 213.116 210.817 223.483 210.817 236.222C210.817 248.962 200.459 259.329 187.727 259.329Z" fill="#E61673"/>
<path d="M302.944 219.792C303.216 219.792 303.432 219.627 303.432 219.421V213.322C303.432 213.116 303.211 212.951 302.944 212.951H298.628L302.692 208.885C302.882 208.694 302.882 208.385 302.692 208.195L296.984 202.481C296.794 202.291 296.485 202.291 296.29 202.481L285.824 212.956H276.648C276.376 212.956 276.16 213.121 276.16 213.327V219.426C276.16 219.632 276.381 219.797 276.648 219.797H278.991L268.432 230.36C268.242 230.55 268.242 230.859 268.432 231.049L274.141 236.763C274.331 236.953 274.639 236.953 274.834 236.763L291.794 219.792H302.938H302.944Z" fill="#F5A200"/>
<path d="M317.432 248.386C316.913 243.455 314.483 239.085 310.902 236.027V226.546C310.902 226.273 310.681 226.057 310.414 226.057H302.337C302.065 226.057 301.849 226.278 301.849 226.546V231.796C300.832 231.626 299.784 231.528 298.72 231.528C288.347 231.528 279.9 239.975 279.9 250.358C279.9 260.74 288.342 269.187 298.72 269.187C305.934 269.187 312.207 265.1 315.367 259.124L320.613 264.374C320.803 264.564 321.111 264.564 321.306 264.374L327.015 258.66C327.205 258.47 327.205 258.161 327.015 257.971L317.432 248.381V248.386ZM298.72 259.309C293.788 259.309 289.78 255.294 289.78 250.363C289.78 245.431 293.793 241.416 298.72 241.416C303.648 241.416 307.66 245.431 307.66 250.363C307.66 255.294 303.653 259.309 298.72 259.309Z" fill="#F5A200"/>
<path d="M329.845 227.498L316.965 214.609C316.775 214.418 316.466 214.418 316.271 214.609L310.563 220.322C310.373 220.513 310.373 220.822 310.563 221.012L323.444 233.901C323.634 234.092 323.942 234.092 324.137 233.901L329.845 228.188C330.036 227.997 330.036 227.688 329.845 227.498Z" fill="#F5A200"/>
<path d="M377.186 244.268C377.186 234.905 371.868 226.761 364.095 222.705C363.766 222.535 363.73 222.082 364.038 221.871L371.005 217.089C373.549 215.344 373.759 211.221 370.034 209.27C369.962 209.234 369.88 209.214 369.798 209.214H340.096C339.824 209.214 339.608 209.435 339.608 209.703V217.357C339.608 217.63 339.829 217.846 340.096 217.846H353.074C353.557 217.846 353.747 218.469 353.352 218.737L350.464 220.718C347.9 222.479 347.71 226.658 351.528 228.584C351.605 228.625 351.697 228.64 351.785 228.635C359.959 228.064 366.921 233.818 368.303 241.488C365.122 235.666 358.942 231.708 351.856 231.708C341.529 231.708 333.129 240.114 333.129 250.45C333.129 260.786 341.529 269.191 351.856 269.191C352.884 269.191 353.891 269.104 354.872 268.944C366.946 267.359 377.191 256.627 377.191 244.268H377.186ZM342.994 250.45C342.994 245.565 346.965 241.591 351.846 241.591C356.727 241.591 360.699 245.565 360.699 250.45C360.699 255.335 356.727 259.308 351.846 259.308C346.965 259.308 342.994 255.335 342.994 250.45Z" fill="#00AAD4"/>
<path d="M465.66 272.208C456.777 272.208 449.553 264.976 449.553 256.091V248.092H440.5V256.091C440.5 269.974 451.788 281.267 465.66 281.267H473.907V272.208H465.66Z" fill="#403D3C"/>
<path d="M468.949 208.236V179.797C468.949 179.524 468.728 179.308 468.46 179.308H387.246C386.974 179.308 386.758 179.529 386.758 179.797V241.771C386.758 261.558 384.05 277.958 350.932 278.117C350.665 278.117 350.444 278.333 350.444 278.601V287.506C350.444 287.779 350.67 288 350.942 288C369.14 287.918 381.507 283.259 388.731 273.762C395.698 264.61 396.638 252.457 396.638 241.776V209.219C396.638 208.946 396.859 208.73 397.126 208.73H468.46C468.733 208.73 468.949 208.509 468.949 208.241V208.236ZM459.068 198.353C459.068 198.626 458.848 198.842 458.58 198.842H397.121C396.849 198.842 396.633 198.621 396.633 198.353V189.68C396.633 189.407 396.854 189.191 397.121 189.191H458.58C458.853 189.191 459.068 189.412 459.068 189.68V198.353Z" fill="#403D3C"/>
<path d="M468.81 245.014V236.933C468.81 236.66 468.589 236.444 468.322 236.444H452.256V228.851H460.158C460.43 228.851 460.646 228.63 460.646 228.362V220.281C460.646 220.008 460.425 219.792 460.158 219.792H452.256V216.271C452.256 215.998 452.035 215.782 451.767 215.782H443.691C443.418 215.782 443.203 216.004 443.203 216.271V219.792H427.095V216.271C427.095 215.998 426.874 215.782 426.607 215.782H418.531C418.258 215.782 418.043 216.004 418.043 216.271V219.792H407.715C407.443 219.792 407.227 220.013 407.227 220.281V228.362C407.227 228.635 407.448 228.851 407.715 228.851H418.043V236.444H402.315C402.043 236.444 401.827 236.665 401.827 236.933V245.014C401.827 245.287 402.048 245.503 402.315 245.503H468.322C468.594 245.503 468.81 245.282 468.81 245.014ZM427.095 228.851H443.203V236.444H427.095V228.851Z" fill="#403D3C"/>
<path d="M432.336 263.72C432.228 263.473 431.94 263.359 431.694 263.462L419.27 268.826V250.177C419.27 249.904 419.05 249.688 418.782 249.688H410.706C410.433 249.688 410.218 249.909 410.218 250.177V272.316C410.218 272.455 410.279 272.578 410.372 272.666L400.481 276.938C400.235 277.046 400.116 277.335 400.224 277.582L403.42 284.999C403.528 285.246 403.816 285.359 404.062 285.257L435.275 271.781C435.522 271.673 435.64 271.384 435.532 271.137L432.336 263.72Z" fill="#403D3C"/>
<path d="M453.288 255.4L464.339 250.63C464.584 250.524 464.874 250.64 464.98 250.886L468.172 258.307C468.28 258.558 468.162 258.844 467.917 258.95L456.866 263.72C456.621 263.826 456.33 263.71 456.225 263.465L453.033 256.043C452.925 255.792 453.043 255.506 453.288 255.4Z" fill="#403D3C"/>
<path d="M250.029 185.984V183.513L247.938 180.688H249.536L250.687 182.355L251.843 180.688H253.436L251.35 183.519V185.989H250.029V185.984Z" fill="#403D3C"/>
<path d="M257.613 180.615C258.517 180.615 259.247 180.888 259.807 181.434C260.367 181.979 260.644 182.612 260.644 183.338C260.644 184.064 260.362 184.707 259.797 185.248C259.232 185.788 258.502 186.056 257.618 186.056C256.735 186.056 255.99 185.788 255.43 185.253C254.864 184.718 254.582 184.079 254.582 183.343C254.582 182.607 254.859 181.984 255.419 181.439C255.979 180.893 256.709 180.626 257.613 180.626V180.615ZM257.613 184.949C258.112 184.949 258.517 184.8 258.821 184.502C259.129 184.203 259.278 183.817 259.278 183.333C259.278 182.849 259.124 182.458 258.821 182.159C258.517 181.861 258.112 181.717 257.613 181.717C257.115 181.717 256.704 181.866 256.401 182.159C256.092 182.453 255.938 182.844 255.938 183.333C255.938 183.822 256.092 184.208 256.401 184.502C256.709 184.8 257.115 184.949 257.613 184.949Z" fill="#403D3C"/>
<path d="M266.82 180.682L265.094 183.173L267.432 185.979H265.782L263.681 183.493V185.979H262.36V180.682H263.681V183.071L265.366 180.682H266.815H266.82Z" fill="#403D3C"/>
<path d="M272.662 180.682H273.982V183.688C273.982 184.46 273.751 185.047 273.299 185.449C272.842 185.85 272.189 186.046 271.336 186.046C270.483 186.046 269.846 185.845 269.384 185.438C268.922 185.032 268.69 184.45 268.69 183.693V180.682H270.011V183.729C270.011 184.1 270.129 184.393 270.376 184.615C270.617 184.836 270.936 184.949 271.326 184.949C271.717 184.949 272.056 184.836 272.302 184.61C272.544 184.383 272.667 184.059 272.667 183.637V180.682H272.662Z" fill="#403D3C"/>
<path d="M281.268 180.682V185.984H280.153L277.229 182.587V185.984H275.909V180.682H277.116L279.942 183.92V180.682H281.263H281.268Z" fill="#403D3C"/>
<path d="M286.333 180.682L288.687 185.984H287.268L286.832 184.939H284.458L284.062 185.984H282.665L284.802 180.682H286.333ZM286.446 184.007L285.588 181.948L284.813 184.007H286.446Z" fill="#403D3C"/>
<path d="M290.074 180.682H292.438C292.952 180.682 293.368 180.831 293.686 181.13C294.005 181.429 294.169 181.789 294.169 182.211C294.169 182.793 293.866 183.225 293.26 183.508C293.527 183.632 293.779 183.956 294.02 184.486C294.262 185.016 294.493 185.516 294.714 185.989H293.265C293.178 185.814 293.029 185.48 292.813 184.991C292.597 184.502 292.412 184.188 292.263 184.043C292.109 183.904 291.945 183.832 291.77 183.832H291.39V185.984H290.069V180.682H290.074ZM291.39 181.655V182.859H292.088C292.309 182.859 292.489 182.808 292.618 182.7C292.746 182.597 292.813 182.443 292.813 182.252C292.813 181.851 292.561 181.655 292.058 181.655H291.39Z" fill="#403D3C"/>
<path d="M300.031 180.682H301.352V183.688C301.352 184.46 301.12 185.047 300.668 185.449C300.211 185.85 299.559 186.046 298.706 186.046C297.853 186.046 297.216 185.845 296.753 185.438C296.291 185.032 296.06 184.45 296.06 183.693V180.682H297.38V183.729C297.38 184.1 297.498 184.393 297.745 184.615C297.986 184.836 298.305 184.949 298.695 184.949C299.086 184.949 299.425 184.836 299.672 184.61C299.913 184.383 300.036 184.059 300.036 183.637V180.682H300.031Z" fill="#403D3C"/>
<path d="M313.056 185.011V185.984H309.151V180.682H313.004V181.655H310.471V182.767H312.886V183.74H310.471V185.016H313.056V185.011Z" fill="#403D3C"/>
<path d="M320.3 180.682L318.23 183.235L320.526 185.984H318.815L317.382 184.234L315.969 185.984H314.284L316.534 183.24L314.412 180.687H316.123L317.387 182.252L318.63 180.687H320.305L320.3 180.682Z" fill="#403D3C"/>
<path d="M327.216 180.682V185.984H325.895V183.843H323.254V185.984H321.934V180.682H323.254V182.808H325.895V180.682H327.216Z" fill="#403D3C"/>
<path d="M330.54 180.682V185.984H329.219V180.682H330.54Z" fill="#403D3C"/>
<path d="M332.533 180.682H334.825C335.37 180.682 335.801 180.816 336.115 181.078C336.428 181.341 336.582 181.65 336.582 182.01C336.582 182.468 336.341 182.823 335.858 183.071C336.222 183.168 336.5 183.338 336.695 183.58C336.89 183.822 336.983 184.105 336.983 184.429C336.983 184.888 336.824 185.263 336.51 185.552C336.197 185.84 335.729 185.984 335.113 185.984H332.533V180.682ZM333.854 181.655V182.787H334.542C334.753 182.787 334.917 182.731 335.041 182.623C335.164 182.515 335.221 182.376 335.221 182.211C335.221 182.046 335.159 181.918 335.041 181.809C334.923 181.701 334.758 181.65 334.542 181.65H333.854V181.655ZM333.854 183.76V185.011H334.599C334.948 185.011 335.205 184.965 335.359 184.867C335.513 184.769 335.59 184.599 335.59 184.363C335.59 184.177 335.519 184.033 335.37 183.925C335.221 183.817 335.025 183.765 334.784 183.765H333.859L333.854 183.76Z" fill="#403D3C"/>
<path d="M340.096 180.682V185.984H338.776V180.682H340.096Z" fill="#403D3C"/>
<path d="M346.873 180.682V181.655H344.957V185.984H343.636V181.655H341.715V180.682H346.868H346.873Z" fill="#403D3C"/>
<path d="M349.822 180.682V185.984H348.502V180.682H349.822Z" fill="#403D3C"/>
<path d="M354.626 180.615C355.531 180.615 356.26 180.888 356.82 181.434C357.38 181.979 357.658 182.612 357.658 183.338C357.658 184.064 357.375 184.707 356.81 185.248C356.245 185.788 355.515 186.056 354.631 186.056C353.748 186.056 353.003 185.788 352.443 185.253C351.878 184.718 351.595 184.079 351.595 183.343C351.595 182.607 351.872 181.984 352.432 181.439C352.992 180.893 353.722 180.626 354.626 180.626V180.615ZM354.626 184.949C355.125 184.949 355.531 184.8 355.834 184.502C356.142 184.203 356.291 183.817 356.291 183.333C356.291 182.849 356.137 182.458 355.834 182.159C355.525 181.866 355.125 181.717 354.626 181.717C354.128 181.717 353.717 181.866 353.414 182.159C353.106 182.453 352.951 182.844 352.951 183.333C352.951 183.822 353.106 184.208 353.414 184.502C353.722 184.8 354.128 184.949 354.626 184.949Z" fill="#403D3C"/>
<path d="M364.753 180.682V185.984H363.638L360.714 182.587V185.984H359.394V180.682H360.601L363.427 183.92V180.682H364.748H364.753Z" fill="#403D3C"/>
<path d="M306.643 198.338L301.783 193.617H242.816C239.168 193.617 236.198 190.503 236.198 186.679V179.308H237.01V186.679C237.01 190.055 239.615 192.804 242.816 192.804H302.112L306.638 197.205L311.165 192.804H370.461C373.662 192.804 376.267 190.055 376.267 186.679V179.308H377.079V186.679C377.079 190.503 374.109 193.617 370.461 193.617H311.494L306.633 198.338H306.643Z" fill="#403D3C"/>
<path d="M156.494 194.585V192.717L161.837 185.582C162.145 185.176 162.387 184.754 162.556 184.316C162.726 183.879 162.813 183.467 162.813 183.081V183.06C162.813 182.448 162.633 181.974 162.274 181.634C161.914 181.295 161.405 181.13 160.748 181.13C160.131 181.13 159.628 181.315 159.237 181.686C158.847 182.057 158.61 182.576 158.528 183.256V183.266H156.304V183.256C156.494 181.933 156.977 180.909 157.747 180.178C158.518 179.447 159.515 179.076 160.727 179.076C162.104 179.076 163.168 179.426 163.918 180.121C164.668 180.816 165.043 181.804 165.043 183.076V183.086C165.043 183.626 164.93 184.198 164.704 184.79C164.478 185.382 164.165 185.953 163.764 186.494L159.33 192.531H165.125V194.58H156.494V194.585Z" fill="#221714"/>
<path d="M172.246 194.744C170.787 194.744 169.693 194.353 168.963 193.566C168.234 192.778 167.874 191.718 167.874 190.385V183.405C167.874 182.046 168.244 180.98 168.979 180.208C169.714 179.436 170.803 179.045 172.246 179.045C173.69 179.045 174.785 179.431 175.519 180.203C176.254 180.975 176.619 182.041 176.619 183.405V190.385C176.619 191.744 176.254 192.809 175.519 193.581C174.785 194.353 173.695 194.744 172.246 194.744ZM172.246 192.696C173.033 192.696 173.598 192.49 173.947 192.078C174.296 191.666 174.471 191.1 174.471 190.385V183.405C174.471 182.679 174.296 182.113 173.947 181.706C173.598 181.299 173.033 181.094 172.246 181.094C171.46 181.094 170.89 181.299 170.546 181.706C170.202 182.113 170.027 182.679 170.027 183.405V190.385C170.027 191.1 170.202 191.666 170.546 192.078C170.89 192.49 171.46 192.696 172.246 192.696Z" fill="#221714"/>
<path d="M179.547 194.585V192.716L184.891 185.582C185.199 185.175 185.44 184.753 185.61 184.316C185.78 183.878 185.867 183.466 185.867 183.08V183.06C185.867 182.447 185.687 181.974 185.327 181.634C184.968 181.294 184.459 181.129 183.801 181.129C183.185 181.129 182.681 181.315 182.291 181.685C181.9 182.056 181.664 182.576 181.582 183.255V183.266H179.357V183.255C179.547 181.932 180.03 180.908 180.801 180.177C181.572 179.446 182.568 179.076 183.781 179.076C185.158 179.076 186.221 179.426 186.971 180.121C187.722 180.816 188.097 181.804 188.097 183.075V183.086C188.097 183.626 187.984 184.197 187.758 184.789C187.532 185.381 187.218 185.953 186.817 186.493L182.383 192.531H188.179V194.58H179.537L179.547 194.585Z" fill="#221714"/>
<path d="M194.247 194.744C192.89 194.744 191.842 194.338 191.097 193.53C190.352 192.722 189.982 191.579 189.982 190.112V190.102C189.982 189.437 190.075 188.737 190.255 187.996C190.435 187.255 190.702 186.54 191.046 185.85L194.375 179.235H196.692L192.783 186.89L192.793 186.509C193.158 185.814 193.81 185.464 194.74 185.464C195.942 185.464 196.872 185.865 197.53 186.663C198.188 187.461 198.522 188.588 198.522 190.045V190.055C198.522 191.538 198.152 192.691 197.407 193.514C196.662 194.338 195.608 194.744 194.247 194.744ZM194.247 192.675C194.935 192.675 195.465 192.464 195.829 192.042C196.194 191.62 196.379 191.018 196.379 190.235V190.225C196.379 189.365 196.184 188.701 195.798 188.233C195.413 187.765 194.858 187.533 194.144 187.533C193.507 187.533 193.009 187.77 192.659 188.238C192.31 188.707 192.13 189.376 192.13 190.235V190.246C192.13 191.028 192.315 191.625 192.685 192.047C193.055 192.469 193.574 192.675 194.252 192.675H194.247Z" fill="#221714"/>
<g clip-path="url(#clip0_459_888)">
<path d="M159.82 367.77V384.81H157.43V370.37L155 371.86V369.39L157.43 367.77H159.82Z" fill="#4F3636"/>
<path d="M168.71 384.98C167.75 384.98 166.91 384.81 166.18 384.46C165.45 384.11 164.88 383.61 164.44 382.95C164 382.29 163.72 381.5 163.6 380.56H166.04C166.15 381.29 166.44 381.83 166.91 382.17C167.38 382.51 167.98 382.68 168.71 382.68C169.5 382.68 170.11 382.47 170.55 382.05C170.99 381.63 171.21 381.03 171.21 380.27V379.75C171.21 378.9 171 378.24 170.59 377.78C170.18 377.32 169.59 377.08 168.83 377.08H167.62V374.81H168.83C169.5 374.81 170.02 374.61 170.38 374.21C170.74 373.81 170.92 373.25 170.92 372.52V371.99C170.92 371.32 170.73 370.8 170.34 370.43C169.95 370.06 169.4 369.88 168.69 369.88C168.09 369.88 167.58 370.05 167.16 370.39C166.74 370.73 166.45 371.27 166.3 372H163.87C164.11 370.59 164.65 369.51 165.49 368.74C166.33 367.97 167.39 367.59 168.68 367.59C170.15 367.59 171.29 367.98 172.09 368.75C172.89 369.52 173.3 370.61 173.3 372.02V372.3C173.3 373.15 173.07 373.89 172.61 374.52C172.15 375.15 171.5 375.61 170.65 375.91C171.58 376.11 172.3 376.56 172.81 377.28C173.32 378 173.58 378.9 173.58 380V380.28C173.58 381.77 173.15 382.93 172.3 383.75C171.45 384.57 170.25 384.98 168.69 384.98H168.71Z" fill="#4F3636"/>
<path d="M177.33 375.03V372.52H179.84V375.03H177.33ZM177.33 384.81V382.3H179.84V384.81H177.33Z" fill="#4F3636"/>
<path d="M187.84 384.98C186.22 384.98 185 384.54 184.19 383.67C183.38 382.8 182.98 381.62 182.98 380.14V372.39C182.98 370.88 183.39 369.7 184.21 368.84C185.03 367.98 186.24 367.55 187.84 367.55C189.44 367.55 190.66 367.98 191.48 368.83C192.3 369.68 192.7 370.87 192.7 372.39V380.14C192.7 381.65 192.29 382.83 191.48 383.69C190.67 384.55 189.45 384.98 187.84 384.98ZM187.84 382.71C188.72 382.71 189.35 382.48 189.73 382.02C190.11 381.56 190.31 380.94 190.31 380.14V372.39C190.31 371.59 190.12 370.96 189.73 370.5C189.34 370.04 188.71 369.82 187.84 369.82C186.97 369.82 186.33 370.05 185.95 370.5C185.57 370.95 185.37 371.58 185.37 372.39V380.14C185.37 380.94 185.56 381.56 185.95 382.02C186.34 382.48 186.97 382.71 187.84 382.71Z" fill="#4F3636"/>
<path d="M201.24 384.98C199.62 384.98 198.4 384.54 197.59 383.67C196.78 382.8 196.38 381.62 196.38 380.14V372.39C196.38 370.88 196.79 369.7 197.61 368.84C198.43 367.98 199.64 367.55 201.24 367.55C202.84 367.55 204.06 367.98 204.88 368.83C205.7 369.68 206.1 370.87 206.1 372.39V380.14C206.1 381.65 205.69 382.83 204.88 383.69C204.07 384.55 202.85 384.98 201.24 384.98ZM201.24 382.71C202.12 382.71 202.75 382.48 203.13 382.02C203.51 381.56 203.71 380.94 203.71 380.14V372.39C203.71 371.59 203.52 370.96 203.13 370.5C202.74 370.04 202.11 369.82 201.24 369.82C200.37 369.82 199.73 370.05 199.35 370.5C198.97 370.95 198.77 371.58 198.77 372.39V380.14C198.77 380.94 198.96 381.56 199.35 382.02C199.74 382.48 200.37 382.71 201.24 382.71Z" fill="#4F3636"/>
<path d="M211.28 374.92C212.86 373.61 214.54 372.95 216.32 372.95C217.66 372.95 219.3 373.57 221.24 374.8C222.73 375.75 223.9 376.22 224.76 376.22C226.39 376.22 228.05 375.42 229.72 373.82V376.46C228.15 377.77 226.47 378.43 224.68 378.43C223.36 378.43 221.72 377.81 219.76 376.58C218.26 375.63 217.09 375.16 216.26 375.16C214.62 375.16 212.96 375.96 211.29 377.57V374.92H211.28Z" fill="#4F3636"/>
<path d="M234.61 384.81V382.74L240.55 374.82C240.89 374.37 241.16 373.9 241.35 373.41C241.54 372.92 241.64 372.47 241.64 372.04V372.02C241.64 371.34 241.44 370.81 241.04 370.44C240.64 370.07 240.08 369.88 239.34 369.88C238.65 369.88 238.09 370.09 237.66 370.5C237.23 370.91 236.96 371.49 236.87 372.24L234.4 372.25C234.61 370.77 235.15 369.63 236.01 368.82C236.87 368.01 237.97 367.61 239.33 367.61C240.86 367.61 242.04 368 242.88 368.77C243.72 369.54 244.13 370.64 244.13 372.05C244.13 372.66 244.01 373.29 243.75 373.95C243.49 374.61 243.15 375.24 242.71 375.84L237.78 382.54H244.23V384.81H234.62H234.61Z" fill="#4F3636"/>
<path d="M252.75 384.98C251.13 384.98 249.91 384.54 249.1 383.67C248.29 382.8 247.89 381.62 247.89 380.14V372.39C247.89 370.88 248.3 369.7 249.12 368.84C249.94 367.98 251.15 367.55 252.75 367.55C254.35 367.55 255.57 367.98 256.39 368.83C257.21 369.68 257.61 370.87 257.61 372.39V380.14C257.61 381.65 257.2 382.83 256.39 383.69C255.58 384.55 254.36 384.98 252.75 384.98ZM252.75 382.71C253.63 382.71 254.26 382.48 254.64 382.02C255.02 381.56 255.22 380.94 255.22 380.14V372.39C255.22 371.59 255.03 370.96 254.64 370.5C254.25 370.04 253.62 369.82 252.75 369.82C251.88 369.82 251.24 370.05 250.86 370.5C250.48 370.95 250.28 371.58 250.28 372.39V380.14C250.28 380.94 250.47 381.56 250.86 382.02C251.25 382.48 251.88 382.71 252.75 382.71Z" fill="#4F3636"/>
<path d="M264.44 368.84H267.56V371.98H264.44V368.84ZM264.44 379.38H267.56V382.52H264.44V379.38Z" fill="#4F3636"/>
<path d="M279.25 384.98C277.63 384.98 276.41 384.54 275.6 383.67C274.79 382.8 274.39 381.62 274.39 380.14V372.39C274.39 370.88 274.8 369.7 275.62 368.84C276.44 367.98 277.65 367.55 279.25 367.55C280.85 367.55 282.07 367.98 282.89 368.83C283.71 369.68 284.11 370.87 284.11 372.39V380.14C284.11 381.65 283.7 382.83 282.89 383.69C282.08 384.55 280.86 384.98 279.25 384.98ZM279.25 382.71C280.13 382.71 280.76 382.48 281.14 382.02C281.52 381.56 281.72 380.94 281.72 380.14V372.39C281.72 371.59 281.53 370.96 281.14 370.5C280.75 370.04 280.12 369.82 279.25 369.82C278.38 369.82 277.74 370.05 277.36 370.5C276.98 370.95 276.78 371.58 276.78 372.39V380.14C276.78 380.94 276.97 381.56 277.36 382.02C277.75 382.48 278.38 382.71 279.25 382.71Z" fill="#4F3636"/>
<path d="M292.64 384.98C291.02 384.98 289.8 384.54 288.99 383.67C288.18 382.8 287.78 381.62 287.78 380.14V372.39C287.78 370.88 288.19 369.7 289.01 368.84C289.83 367.98 291.04 367.55 292.64 367.55C294.24 367.55 295.46 367.98 296.28 368.83C297.1 369.68 297.5 370.87 297.5 372.39V380.14C297.5 381.65 297.09 382.83 296.28 383.69C295.47 384.55 294.25 384.98 292.64 384.98ZM292.64 382.71C293.52 382.71 294.15 382.48 294.53 382.02C294.91 381.56 295.11 380.94 295.11 380.14V372.39C295.11 371.59 294.92 370.96 294.53 370.5C294.14 370.04 293.51 369.82 292.64 369.82C291.77 369.82 291.13 370.05 290.75 370.5C290.37 370.95 290.17 371.58 290.17 372.39V380.14C290.17 380.94 290.36 381.56 290.75 382.02C291.14 382.48 291.77 382.71 292.64 382.71Z" fill="#4F3636"/>
<path d="M179.36 354.99C176.49 354.99 173.92 354.46 171.66 353.41C169.4 352.36 167.6 350.83 166.26 348.84C164.92 346.84 164.18 344.43 164.02 341.6H173.33C173.55 343.07 174.1 344.21 174.98 345.02C175.86 345.83 176.99 346.24 178.37 346.24C180.08 346.24 181.4 345.76 182.33 344.81C183.26 343.85 183.73 342.51 183.73 340.78V339.66C183.73 337.84 183.35 336.44 182.59 335.45C181.83 334.46 180.75 333.97 179.35 333.97H175.3V325.28H179.35C180.49 325.28 181.37 324.85 182 323.98C182.62 323.11 182.94 321.9 182.94 320.34V319.52C182.94 318.05 182.59 316.92 181.9 316.11C181.21 315.3 180.24 314.91 178.99 314.91C177.74 314.91 176.71 315.37 175.85 316.29C174.98 317.21 174.4 318.52 174.09 320.21H164.81C165.21 315.76 166.75 312.3 169.45 309.85C172.15 307.39 175.44 306.17 179.32 306.17C183.55 306.17 186.83 307.25 189.14 309.41C191.45 311.57 192.61 314.64 192.61 318.61V320.06C192.61 322.28 192.05 324.21 190.93 325.85C189.81 327.49 188.22 328.72 186.16 329.53C188.46 330.06 190.25 331.26 191.51 333.15C192.77 335.04 193.4 337.44 193.4 340.36V341.81C193.4 346 192.17 349.25 189.71 351.55C187.25 353.85 183.8 355 179.35 355L179.36 354.99Z" fill="#4F3636"/>
<path d="M223.679 301L202.289 363.58H193.729L215.119 301H223.669H223.679Z" fill="#4F3636"/>
<path d="M223.84 347.16V338.87L238.58 306.69H248.78L234.43 338.47H255.92V347.16H223.84ZM243.16 354.53V326.36H252.18V354.53H243.16Z" fill="#4F3636"/>
<path d="M277.58 354.5C285.262 354.5 291.49 348.272 291.49 340.59C291.49 332.908 285.262 326.68 277.58 326.68C269.898 326.68 263.67 332.908 263.67 340.59C263.67 348.272 269.898 354.5 277.58 354.5Z" fill="#4F3636"/>
<path d="M269.53 348.18V346.24C271.49 344.97 273.22 341.71 273.38 337.7H269.53V336.08H274.93V337.7C274.93 341.78 272.86 346.24 269.53 348.19V348.18ZM276.08 348.57H273.78V347.04H275.76C276.35 347.04 276.74 346.63 276.74 346.06V332.52H278.36V346.22C278.36 347.84 277.45 348.57 276.08 348.57ZM279.79 335.01H281.32C281.36 335.99 281.44 336.94 281.59 337.85L285.59 334.25V336.25L281.93 339.58C282.68 342.75 284.02 345.29 285.59 346.39V348.49C281.95 346.19 280.04 340.87 279.79 335V335.01Z" fill="white"/>
<path d="M355.94 354.99C353.07 354.99 350.5 354.46 348.24 353.41C345.98 352.36 344.18 350.83 342.84 348.84C341.5 346.84 340.76 344.43 340.6 341.6H349.91C350.13 343.07 350.68 344.21 351.56 345.02C352.44 345.83 353.57 346.24 354.95 346.24C356.66 346.24 357.98 345.76 358.91 344.81C359.84 343.85 360.31 342.51 360.31 340.78V339.66C360.31 337.84 359.93 336.44 359.17 335.45C358.41 334.46 357.33 333.97 355.93 333.97H351.88V325.28H355.93C357.07 325.28 357.95 324.85 358.58 323.98C359.2 323.11 359.52 321.9 359.52 320.34V319.52C359.52 318.05 359.17 316.92 358.48 316.11C357.79 315.3 356.82 314.91 355.57 314.91C354.32 314.91 353.29 315.37 352.43 316.29C351.56 317.21 350.98 318.52 350.67 320.21H341.39C341.79 315.76 343.33 312.3 346.03 309.85C348.73 307.39 352.02 306.17 355.9 306.17C360.13 306.17 363.41 307.25 365.72 309.41C368.03 311.57 369.19 314.64 369.19 318.61V320.06C369.19 322.28 368.63 324.21 367.51 325.85C366.39 327.49 364.8 328.72 362.74 329.53C365.04 330.06 366.83 331.26 368.09 333.15C369.35 335.04 369.98 337.44 369.98 340.36V341.81C369.98 346 368.75 349.25 366.29 351.55C363.83 353.85 360.38 355 355.93 355L355.94 354.99Z" fill="#4F3636"/>
<path d="M400.26 301L378.87 363.58H370.31L391.7 301H400.25H400.26Z" fill="#4F3636"/>
<path d="M418.38 354.99C414.54 354.99 411.32 353.74 408.72 351.24C406.12 348.74 404.67 345.22 404.36 340.68V340.65H413.38V340.68C413.56 342.43 414.09 343.8 414.99 344.78C415.89 345.76 417.06 346.24 418.51 346.24C420.09 346.24 421.31 345.72 422.18 344.68C423.05 343.64 423.48 342.18 423.48 340.32V336.31C423.48 334.42 423.1 332.97 422.33 331.95C421.56 330.93 420.47 330.42 419.04 330.42C417.75 330.42 416.64 330.75 415.73 331.41C414.82 332.07 414.19 332.99 413.84 334.17H405.42V306.66H431.12V315.35H414.44V323.81C415.14 323.13 416.08 322.6 417.25 322.23C418.42 321.86 419.58 321.67 420.72 321.67C424.47 321.67 427.37 322.95 429.42 325.5C431.47 328.06 432.5 331.66 432.5 336.31V340.32C432.5 344.99 431.27 348.61 428.81 351.16C426.35 353.72 422.88 354.99 418.38 354.99Z" fill="#4F3636"/>
<path d="M454.16 354.5C461.842 354.5 468.07 348.272 468.07 340.59C468.07 332.908 461.842 326.68 454.16 326.68C446.477 326.68 440.25 332.908 440.25 340.59C440.25 348.272 446.477 354.5 454.16 354.5Z" fill="#4F3636"/>
<path d="M455.02 336.75H454.95V348.61H453.4V336.75H453.35C452.53 341.07 449.73 345.58 446.14 347.65V345.76C448.92 343.94 451.24 339.98 451.94 336.75H446.14V335.18H453.4V332.56H454.95V335.18H462.21V336.75H456.43C457.11 339.98 459.43 343.94 462.21 345.76V347.65C458.64 345.58 455.84 341.07 455.02 336.75Z" fill="white"/>
<path d="M338.48 367.77V384.81H336.09V370.37L333.66 371.86V369.39L336.09 367.77H338.48Z" fill="#4F3636"/>
<path d="M347.83 384.98C346.21 384.98 344.99 384.54 344.18 383.67C343.37 382.8 342.97 381.62 342.97 380.14V372.39C342.97 370.88 343.38 369.7 344.2 368.84C345.02 367.98 346.23 367.55 347.83 367.55C349.43 367.55 350.65 367.98 351.47 368.83C352.29 369.68 352.69 370.87 352.69 372.39V380.14C352.69 381.65 352.28 382.83 351.47 383.69C350.66 384.55 349.44 384.98 347.83 384.98ZM347.83 382.71C348.71 382.71 349.34 382.48 349.72 382.02C350.1 381.56 350.3 380.94 350.3 380.14V372.39C350.3 371.59 350.11 370.96 349.72 370.5C349.33 370.04 348.7 369.82 347.83 369.82C346.96 369.82 346.32 370.05 345.94 370.5C345.56 370.95 345.36 371.58 345.36 372.39V380.14C345.36 380.94 345.55 381.56 345.94 382.02C346.33 382.48 346.96 382.71 347.83 382.71Z" fill="#4F3636"/>
<path d="M355.84 375.03V372.52H358.35V375.03H355.84ZM355.84 384.8V382.29H358.35V384.8H355.84Z" fill="#4F3636"/>
<path d="M366.35 384.98C364.73 384.98 363.51 384.54 362.7 383.67C361.89 382.8 361.49 381.62 361.49 380.14V372.39C361.49 370.88 361.9 369.7 362.72 368.84C363.54 367.98 364.75 367.55 366.35 367.55C367.95 367.55 369.17 367.98 369.99 368.83C370.81 369.68 371.21 370.87 371.21 372.39V380.14C371.21 381.65 370.8 382.83 369.99 383.69C369.18 384.55 367.96 384.98 366.35 384.98ZM366.35 382.71C367.23 382.71 367.86 382.48 368.24 382.02C368.62 381.56 368.82 380.94 368.82 380.14V372.39C368.82 371.59 368.63 370.96 368.24 370.5C367.85 370.04 367.22 369.82 366.35 369.82C365.48 369.82 364.84 370.05 364.46 370.5C364.08 370.95 363.88 371.58 363.88 372.39V380.14C363.88 380.94 364.07 381.56 364.46 382.02C364.85 382.48 365.48 382.71 366.35 382.71Z" fill="#4F3636"/>
<path d="M379.75 384.98C378.13 384.98 376.91 384.54 376.1 383.67C375.29 382.8 374.89 381.62 374.89 380.14V372.39C374.89 370.88 375.3 369.7 376.12 368.84C376.94 367.98 378.15 367.55 379.75 367.55C381.35 367.55 382.57 367.98 383.39 368.83C384.21 369.68 384.61 370.87 384.61 372.39V380.14C384.61 381.65 384.2 382.83 383.39 383.69C382.58 384.55 381.36 384.98 379.75 384.98ZM379.75 382.71C380.63 382.71 381.26 382.48 381.64 382.02C382.02 381.56 382.22 380.94 382.22 380.14V372.39C382.22 371.59 382.03 370.96 381.64 370.5C381.25 370.04 380.62 369.82 379.75 369.82C378.88 369.82 378.24 370.05 377.86 370.5C377.48 370.95 377.28 371.58 377.28 372.39V380.14C377.28 380.94 377.47 381.56 377.86 382.02C378.25 382.48 378.88 382.71 379.75 382.71Z" fill="#4F3636"/>
<path d="M389.79 374.91C391.37 373.6 393.05 372.94 394.83 372.94C396.17 372.94 397.81 373.56 399.75 374.79C401.24 375.74 402.41 376.21 403.27 376.21C404.9 376.21 406.56 375.41 408.23 373.81V376.45C406.66 377.76 404.98 378.42 403.19 378.42C401.87 378.42 400.23 377.8 398.27 376.57C396.77 375.62 395.6 375.15 394.77 375.15C393.13 375.15 391.47 375.95 389.8 377.56V374.91H389.79Z" fill="#4F3636"/>
<path d="M417.49 367.77V384.81H415.1V370.37L412.67 371.86V369.39L415.1 367.77H417.49Z" fill="#4F3636"/>
<path d="M421.75 382.19V380.12L427.47 367.78H429.93L424.35 379.98H432.71V382.19H421.75ZM429.1 384.82V374.79H431.43V384.82H429.1Z" fill="#4F3636"/>
<path d="M438.94 368.84H442.06V371.98H438.94V368.84ZM438.94 379.38H442.06V382.52H438.94V379.38Z" fill="#4F3636"/>
<path d="M453.75 384.98C452.13 384.98 450.91 384.54 450.1 383.67C449.29 382.8 448.89 381.62 448.89 380.14V372.39C448.89 370.88 449.3 369.7 450.12 368.84C450.94 367.98 452.15 367.55 453.75 367.55C455.35 367.55 456.57 367.98 457.39 368.83C458.21 369.68 458.61 370.87 458.61 372.39V380.14C458.61 381.65 458.2 382.83 457.39 383.69C456.58 384.55 455.36 384.98 453.75 384.98ZM453.75 382.71C454.63 382.71 455.26 382.48 455.64 382.02C456.02 381.56 456.22 380.94 456.22 380.14V372.39C456.22 371.59 456.03 370.96 455.64 370.5C455.25 370.04 454.62 369.82 453.75 369.82C452.88 369.82 452.24 370.05 451.86 370.5C451.48 370.95 451.28 371.58 451.28 372.39V380.14C451.28 380.94 451.47 381.56 451.86 382.02C452.25 382.48 452.88 382.71 453.75 382.71Z" fill="#4F3636"/>
<path d="M467.15 384.98C465.53 384.98 464.31 384.54 463.5 383.67C462.69 382.8 462.29 381.62 462.29 380.14V372.39C462.29 370.88 462.7 369.7 463.52 368.84C464.34 367.98 465.55 367.55 467.15 367.55C468.75 367.55 469.97 367.98 470.79 368.83C471.61 369.68 472.01 370.87 472.01 372.39V380.14C472.01 381.65 471.6 382.83 470.79 383.69C469.98 384.55 468.76 384.98 467.15 384.98ZM467.15 382.71C468.03 382.71 468.66 382.48 469.04 382.02C469.42 381.56 469.62 380.94 469.62 380.14V372.39C469.62 371.59 469.43 370.96 469.04 370.5C468.65 370.04 468.02 369.82 467.15 369.82C466.28 369.82 465.64 370.05 465.26 370.5C464.88 370.95 464.68 371.58 464.68 372.39V380.14C464.68 380.94 464.87 381.56 465.26 382.02C465.65 382.48 466.28 382.71 467.15 382.71Z" fill="#4F3636"/>
<path d="M315.94 339.31C318.425 339.31 320.44 337.295 320.44 334.81C320.44 332.325 318.425 330.31 315.94 330.31C313.455 330.31 311.44 332.325 311.44 334.81C311.44 337.295 313.455 339.31 315.94 339.31Z" fill="#4F3636"/>
</g>
<path d="M212.78 430.83C206.4 430.83 204 428.89 204 425.45C204 424.01 204.48 422.35 205.61 421.01H208.06C206.76 422.26 206.33 423.75 206.33 425.07C206.33 427.45 207.99 428.74 213.12 428.74H222.91V430.83H212.78ZM218.31 415.98C219.34 418.84 220.78 421.6 222.56 424.24H219.94C218.38 421.77 216.99 419.01 215.93 415.98H204.02V413.87H215.28C215.02 412.98 214.8 412.05 214.63 411.09H216.91C217.1 412.05 217.34 412.96 217.61 413.87H223.97V415.98H218.31Z" fill="#4F3636"/>
<path d="M232.03 430.81H229.08V428.96H232.1C236.92 428.96 240.62 426.94 240.62 422.48C240.62 419.26 238.44 417.15 234.72 417.15C232.03 417.15 228.22 417.99 225.46 418.83V416.79C228.08 416.07 231.84 415.25 234.8 415.25C239.74 415.25 242.62 418.06 242.62 422.45C242.62 428.57 237.63 430.8 232.04 430.8L232.03 430.81Z" fill="#4F3636"/>
<path d="M245.66 431.07C245.32 428.36 245.11 425.24 245.11 421.8C245.11 418.36 245.33 414.77 245.66 410.9H247.8C247.42 414.67 247.3 418.36 247.3 421.77C247.3 425.18 247.54 428.27 247.9 431.06H245.67L245.66 431.07ZM262.32 425.65V426.15C262.32 429.08 260.52 431.21 256.18 431.21C251.48 431.21 250.18 429.19 250.18 426.94C250.18 424.69 251.74 422.55 256.08 422.55C257.38 422.55 258.67 422.67 259.92 422.91V419.12H250.63V417.18H259.92V414.95H262.03V417.18H264.93V419.12H262.03V423.39C263.16 423.73 264.26 424.13 265.32 424.64V427.06C264.38 426.51 263.35 426.05 262.32 425.64V425.65ZM250.63 413.26V411.32H260.42V413.26H250.63ZM260.23 424.98C258.77 424.6 257.3 424.38 255.98 424.38C253.65 424.38 252.24 425.36 252.24 426.88C252.24 427.94 252.86 429.33 256.03 429.33C259.2 429.33 260.23 427.84 260.23 425.47V424.99V424.98ZM263.59 414.68C262.27 414.68 261.24 413.65 261.24 412.35C261.24 411.05 262.27 410 263.59 410C264.91 410 265.92 411.06 265.92 412.35C265.92 413.64 264.89 414.68 263.59 414.68ZM263.59 411.15C262.94 411.15 262.37 411.68 262.37 412.35C262.37 413.02 262.95 413.57 263.59 413.57C264.23 413.57 264.79 412.99 264.79 412.35C264.79 411.71 264.26 411.15 263.59 411.15Z" fill="#4F3636"/>
<path d="M275.42 431.12H270.02V428.96H275.35C282.93 428.96 285.09 426.56 285.09 423.37C285.09 420.54 283.27 419.03 279.45 419.03C276.57 419.03 274.24 419.73 271.89 421.33L267.07 424.62V422.15L280.46 413.34H268.07V411.2H284.56V412.98L277.24 417.59C278.13 417.4 279.14 417.21 280.41 417.21C284.95 417.21 287.51 419.63 287.51 423.35C287.51 427.89 284.27 431.13 275.41 431.13L275.42 431.12Z" fill="#4F3636"/>
<path d="M296.21 411.63C294.72 413.55 291.94 415.01 289.61 415.52V413.5C291.87 413.07 294.48 411.48 295.01 410.16H297.36C297.91 411.48 300.58 413.06 302.76 413.5V415.52C300.5 415.02 297.7 413.55 296.21 411.63ZM292.2 431.48V427.69C291.77 429.25 290.95 430.67 289.61 431.67V428.65C290.55 427.57 290.76 425.75 290.76 423.83V416.68H301.92V424.14H292.7C292.7 424.67 292.65 425.2 292.6 425.72H302.25V431.48H292.19H292.2ZM299.98 418.11H292.71V419.67H299.98V418.11ZM299.98 421.11H292.71V422.74H299.98V421.11ZM293.18 415.59V414.27H298.96V415.59H293.18ZM300.36 427.31H294.14V429.93H300.36V427.31ZM303.7 427.28V410.6H305.6V427.28H303.7ZM307.9 431.79H305.09V429.85H307.47C308.17 429.85 308.67 429.2 308.67 428.65V410.17H310.59V429.2C310.59 430.62 309.37 431.79 307.9 431.79Z" fill="#4F3636"/>
<path d="M314.28 431.48V429.49H324.12V423.63H315.58V421.61H324.12V415.78H317.64C317.11 417.17 316.49 418.37 315.84 419.31H313.42C315.1 417.22 316.52 413.45 316.76 410.6H318.92C318.8 411.7 318.58 412.78 318.3 413.79H324.13V410.17H326.29V413.79H334.62V415.78H326.29V421.61H333.92V423.63H326.29V429.49H335.24V431.48H314.29H314.28Z" fill="#4F3636"/>
<path d="M350.79 425.6C347.41 428.79 342.63 430.59 337.37 431.1V428.94C345.84 427.98 353.36 423.18 353.48 414.06H338.02V411.87H355.78V413.41C355.78 417.71 354.51 421.21 352.32 423.95L357.67 428.61V431.47L350.78 425.61L350.79 425.6Z" fill="#4F3636"/>
<path d="M365.5 431.17H360.8V429.03H365.43C372.97 429.03 376.83 425.91 376.83 419.5V414.1H364.3C364.13 417.58 362.67 420.51 359 421.8V419.5C361.5 418.28 362.46 416.09 362.46 411.99H379V419.67C379 426.73 374.9 431.17 365.51 431.17H365.5Z" fill="#4F3636"/>
<path d="M381.14 430.81V428.67H390.09V414.51H381.59V412.35H400.86V414.51H392.24V428.67H401.29V430.81H381.13H381.14Z" fill="#4F3636"/>
<path d="M413.21 425.05V422.84C418.27 422.84 421.23 420.66 421.23 416V413.82H403.16V411.68H423.47V415.88C423.47 421.88 419.51 424.95 413.22 425.05H413.21ZM403.15 431.27V429.06C408.05 428.68 410.4 425.22 410.4 420.76V418.02H412.56V420.92C412.56 426.56 408.96 430.79 403.15 431.26V431.27Z" fill="#4F3636"/>
<path d="M213.89 459.99H211.35C205.85 459.99 204.05 457.74 204.05 454.33V453.15H206.21V454.33C206.21 456.63 207.51 457.98 211.44 457.98H213.89C218.16 457.98 219.22 456.52 219.22 454.52V454.04C219.22 452.07 218.52 450.8 212.4 450.66C207.48 450.54 204.21 449.99 204.21 446.12V445.3C204.21 442.28 206.01 440.26 211.34 440.26H214.32C218.62 440.26 220.94 441.99 220.94 445.56V446.38H218.78V445.56C218.78 443.4 217.29 442.3 214.24 442.3H211.34C207.72 442.3 206.37 443.33 206.37 445.28V445.98C206.37 448.04 207.71 448.67 213.62 448.79C220.36 448.93 221.42 450.83 221.42 453.97V454.62C221.42 457.79 219.72 460 213.88 460L213.89 459.99Z" fill="#4F3636"/>
<path d="M233.09 459.99H231.75C226.06 459.99 223.66 457.37 223.66 451.97V448.2C223.66 442.8 226.16 440.28 231.75 440.28H233.24C239 440.28 240.75 442.99 240.75 447.17H238.64C238.64 444.12 237.34 442.37 233.24 442.37H231.75C227.57 442.37 225.8 444.19 225.8 448.2V451.97C225.8 456.24 227.77 457.9 231.75 457.9H233.09C237.51 457.9 238.63 456 238.63 452.74H240.74C240.74 456.77 239.54 459.99 233.08 459.99H233.09Z" fill="#4F3636"/>
<path d="M258.98 459.97L257.13 455.29H246.52L244.7 459.97H242.42L250.03 440.36H253.61L261.27 459.97H258.99H258.98ZM251.81 441.68L247.3 453.27H256.35L251.81 441.68Z" fill="#4F3636"/>
<path d="M277.39 459.9L268.7 451.5V449.6H273.19C276.33 449.6 277.77 448.81 277.77 446.58V445.69C277.77 443.6 276.81 442.43 273.76 442.43H265.62V459.93H263.51V440.37H273.74C278.44 440.37 279.84 442.29 279.84 445.63V446.69C279.84 450.34 277.66 451.56 273.31 451.56H271.65L280.17 459.91H277.39V459.9Z" fill="#4F3636"/>
<path d="M291.41 442.47V459.94H289.32V442.47H282.07V440.38H298.66V442.47H291.41Z" fill="#4F3636"/>
<path d="M310.39 459.99H307.85C302.35 459.99 300.55 457.73 300.55 454.33V453.15H302.71V454.33C302.71 456.63 304.01 457.98 307.94 457.98H310.39C314.66 457.98 315.72 456.52 315.72 454.52V454.04C315.72 452.07 315.02 450.8 308.9 450.66C303.98 450.54 300.71 449.99 300.71 446.12V445.3C300.71 442.28 302.51 440.26 307.84 440.26H310.82C315.12 440.26 317.44 441.99 317.44 445.56V446.38H315.28V445.56C315.28 443.4 313.79 442.3 310.74 442.3H307.84C304.22 442.3 302.87 443.33 302.87 445.28V445.98C302.87 448.04 304.21 448.67 310.12 448.79C316.86 448.93 317.92 450.83 317.92 453.97V454.62C317.92 457.79 316.22 460 310.38 460L310.39 459.99Z" fill="#4F3636"/>
<path d="M333.38 454.4C330 457.59 325.22 459.39 319.96 459.9V457.74C328.43 456.78 335.95 451.98 336.07 442.86H320.61V440.68H338.37V442.22C338.37 446.52 337.1 450.02 334.91 452.76L340.26 457.42V460.28L333.37 454.42L333.38 454.4Z" fill="#4F3636"/>
<path d="M349.46 459.92H343.6V457.81H349.36C356.03 457.81 358.55 455.63 359.34 452.48C355.62 450.99 352.26 450.49 345.18 450.49V448.43C352.24 448.43 356.34 449.13 359.63 450.45V442.82H346.45C346.16 446.47 344.7 449.42 341.58 450.96V448.49C343.48 447.27 344.58 444.75 344.58 440.69H361.77V449.71C361.77 455.54 358.89 459.94 349.46 459.94V459.92Z" fill="#4F3636"/>
<path d="M370.61 459.92H364.11V457.76H370.78C380.04 457.76 381.84 452.31 381.84 444.99V444.15H384V445.25C384 453.44 381.84 459.92 370.61 459.92ZM364.58 442.71V440.69H374.61V442.71H364.58ZM364.58 449.77V447.73H374.61V449.77H364.58ZM381.15 443.05V439.19H382.49V443.05H381.15ZM383.69 443.05V439.19H385.03V443.05H383.69Z" fill="#4F3636"/>
<path d="M403.78 444.61V459.97H401.62V444.61H398.93C397.9 451.04 392.71 458.03 386.52 459.92V457.59C391.3 455.93 395.83 450.13 396.7 444.6H386.55V442.44H401.62V439.7H403.78V442.44H406.85V444.6H403.78V444.61Z" fill="#4F3636"/>
<path d="M416.38 452.41C412.52 453.27 411.24 454.19 410.98 457.88H424.54V459.92H408.7C408.7 454.16 409.71 451.74 415.9 450.49C420.46 449.55 422.52 448.69 422.52 446.19C422.52 444.13 421.34 442.47 417.91 442.47H415.22C412.39 442.47 410.88 444.08 410.88 446.36V447.03H408.74V446.36C408.74 442.86 411.04 440.41 415.22 440.41H417.93C422.56 440.41 424.65 442.67 424.65 446.22C424.65 449.96 421.99 451.16 416.37 452.41H416.38Z" fill="#4F3636"/>
<defs>
<clipPath id="clip0_459_888">
<rect width="317.01" height="83.98" fill="white" transform="translate(155 301)"/>
</clipPath>
</defs>
</svg>
