<svg width="93" height="37" viewBox="0 0 93 37" fill="none" xmlns="http://www.w3.org/2000/svg">
<g clip-path="url(#clip0_459_851)">
<path d="M45.9485 36.5026C45.9485 36.6123 45.8554 36.7074 45.7408 36.7074C39.3599 36.6562 34.1534 31.5785 34.089 25.3009C34.0245 19.0232 39.1236 13.8577 45.5045 13.6895C45.6191 13.6895 45.7122 13.7773 45.7194 13.8943L45.7552 17.538C45.7552 17.6477 45.6692 17.7355 45.5546 17.7355C41.4439 17.8745 38.1711 21.2109 38.214 25.2643C38.257 29.3177 41.6015 32.5955 45.7122 32.6614C45.8196 32.6614 45.9127 32.7492 45.9127 32.8589L45.9485 36.5026Z" fill="#4F3636"/>
<path d="M31.7759 26.8299L27.5362 22.7546C27.3858 20.1572 26.4906 17.7574 25.0511 15.7599C25.0583 15.738 25.0655 15.7087 25.0655 15.6794L25.0082 9.79691L30.4223 9.74569C30.5369 9.74569 30.6228 9.65058 30.6228 9.54083L30.587 6.21909C30.587 6.10935 30.4939 6.02155 30.3793 6.02155L24.9652 6.07276L24.9079 0.190224C24.9079 0.0804748 24.8148 -0.00732422 24.7002 -0.00732422L21.3128 0.0219421C21.1982 0.0219421 21.1123 0.117058 21.1123 0.226807L21.234 12.1528C19.0426 10.7627 16.4358 9.96519 13.6356 9.98714C6.04437 10.0603 -0.0787579 16.177 1.92703e-05 23.6253C0.0787964 31.0736 6.32367 37.0732 13.9149 37.0073C20.081 36.9488 25.266 32.9173 26.9633 27.4226L29.1118 29.4859C29.1905 29.5663 29.3194 29.559 29.3982 29.4859L31.7687 27.1153C31.8475 27.0348 31.8475 26.9104 31.7687 26.8299H31.7759ZM13.8791 32.9539C8.55808 33.0051 4.18237 28.7981 4.13224 23.5814C4.08211 18.3646 8.36472 14.0844 13.6858 14.0405C19.0068 13.9893 23.3825 18.1964 23.4326 23.4131C23.4899 28.6298 19.2002 32.91 13.8791 32.9539Z" fill="#4F3636"/>
<path d="M61.8689 16.3384C61.9834 16.3384 62.0694 16.2652 62.0694 16.1847L62.0407 13.6898C62.0407 13.6093 61.9476 13.5361 61.833 13.5434L60.0283 13.5581L61.7113 11.8752C61.7901 11.7948 61.7901 11.6704 61.7113 11.5899L59.2979 9.27054C59.2191 9.19006 59.0902 9.19738 59.0114 9.27054L54.6786 13.5946L50.8472 13.6312C50.7326 13.6312 50.6467 13.7044 50.6467 13.7849L50.6753 16.2798C50.6753 16.3603 50.7684 16.4335 50.883 16.4262H51.8642L47.4956 20.7795C47.4168 20.86 47.4168 20.9844 47.4956 21.0649L49.9091 23.3842C49.9878 23.4647 50.1167 23.4574 50.1955 23.3842L57.2138 16.375L61.876 16.3311L61.8689 16.3384Z" fill="#4F3636"/>
<path d="M68.042 27.9939C67.8057 25.9745 66.7744 24.1966 65.2633 22.9601L65.2204 19.075C65.2204 18.9652 65.1273 18.8774 65.0127 18.8774L61.6396 18.9067C61.525 18.9067 61.4391 19.0018 61.4391 19.1116L61.4606 21.2627C61.0309 21.1968 60.594 21.1602 60.15 21.1675C55.8101 21.2041 52.3224 24.6941 52.3654 28.9451C52.4084 33.196 55.9748 36.6202 60.3075 36.5836C63.3226 36.5543 65.9294 34.8642 67.2256 32.3985L69.4385 34.5276C69.5173 34.6081 69.6462 34.6008 69.725 34.5276L72.0883 32.1644C72.1671 32.0839 72.1671 31.9595 72.0883 31.879L68.042 27.9866V27.9939ZM60.2717 32.5302C58.2092 32.5521 56.5191 30.9205 56.4976 28.9012C56.4761 26.8818 58.1376 25.2209 60.2001 25.2063C62.2627 25.1843 63.9528 26.8159 63.9743 28.8353C63.9958 30.8547 62.3343 32.5156 60.2789 32.5302H60.2717Z" fill="#4F3636"/>
<path d="M73.1411 19.3969L67.7054 14.1656C67.6267 14.0851 67.4978 14.0924 67.419 14.1656L65.0557 16.5288C64.9769 16.6093 64.9769 16.7337 65.0557 16.8142L70.4913 22.0455C70.5701 22.126 70.699 22.1187 70.7778 22.0455L73.1411 19.6823C73.2198 19.6018 73.2198 19.4774 73.1411 19.3969Z" fill="#4F3636"/>
<path d="M93 26.0837C92.957 22.2498 90.7011 18.9354 87.4355 17.3038C87.2994 17.2379 87.2779 17.0477 87.4068 16.9599L90.3001 14.9771C91.36 14.2528 91.4245 12.5626 89.8632 11.7798C89.8346 11.7651 89.7988 11.7578 89.763 11.7578L77.3448 11.8676C77.2303 11.8676 77.1443 11.9627 77.1443 12.0724L77.1801 15.2039C77.1801 15.3137 77.2732 15.4015 77.3878 15.4015L82.8163 15.3503C83.0168 15.3503 83.1027 15.599 82.938 15.7161L81.742 16.5355C80.675 17.2672 80.6177 18.9793 82.2219 19.7475C82.2577 19.7622 82.2935 19.7695 82.3293 19.7695C85.7453 19.5061 88.6744 21.8328 89.2903 24.9716C87.9368 22.601 85.3371 21.006 82.3722 21.0279C78.0538 21.0645 74.5805 24.5399 74.6234 28.7689C74.6664 32.9979 78.2114 36.4074 82.5298 36.3708C82.9595 36.3708 83.382 36.3269 83.7902 36.2611C88.832 35.566 93.0645 31.1321 93.0143 26.0764L93 26.0837ZM78.7342 28.7396C78.7127 26.7422 80.3527 25.096 82.3937 25.0813C84.4348 25.0667 86.1106 26.6763 86.1321 28.6738C86.1536 30.6712 84.5064 32.3174 82.4725 32.3321C80.4315 32.3467 78.7557 30.737 78.7342 28.7396Z" fill="#4F3636"/>
</g>
<defs>
<clipPath id="clip0_459_851">
<rect width="93" height="37" fill="white"/>
</clipPath>
</defs>
</svg>
