<svg width="348" height="542" viewBox="0 0 348 542" fill="none" xmlns="http://www.w3.org/2000/svg">
<path d="M141.804 94.5968C141.804 94.5968 79.2277 60.4314 69.8856 44.7665C64.6324 35.9536 68.6545 18.4336 86.8429 16.1663C116.117 12.5175 160.956 89.7725 160.956 89.7725C160.956 89.7725 163.162 100.97 141.804 94.5968Z" fill="#403D3C"/>
<path d="M338.991 210.563C339.866 293.272 274.142 339.214 192.481 340.072C110.819 340.935 44.1374 296.392 43.2684 213.683C42.3882 130.974 70.799 1.35407 189.372 0.0115201C314.597 -1.40345 338.117 127.849 338.991 210.563Z" fill="#403D3C"/>
<path d="M134.879 121.557C120.821 137.086 106.32 146.535 77.1491 139C47.0037 131.207 56.7031 89.2 74.4998 64.5001C89.5048 43.6736 114.95 14.7274 134.879 36.0001C158.529 61.2416 148.311 106.717 134.879 121.557Z" fill="white"/>
<path d="M98.6343 79.8334C103.198 73.4446 105.248 67.0867 103.213 65.6327C101.177 64.1788 95.8277 68.1793 91.2638 74.5682C86.6998 80.957 84.65 87.3149 86.6853 88.7688C88.7206 90.2228 94.0704 86.2223 98.6343 79.8334Z" fill="#403D3C"/>
<path d="M167.541 391.306L160.633 391.495C150.856 391.768 144.249 379.574 145.737 366.282L150.65 322.457C151.408 315.677 156.839 310.474 162.778 310.307L166.972 310.19C172.911 310.023 178.242 314.931 178.872 321.671L182.933 365.246C184.164 378.46 177.317 391.027 167.541 391.3V391.306Z" fill="#403D3C"/>
<path d="M231.955 391.501L238.863 391.312C248.64 391.039 254.561 378.499 252.333 365.313L244.991 321.828C243.854 315.104 238.144 310.207 232.206 310.374L228.011 310.491C222.073 310.658 217.026 315.85 216.769 322.613L215.132 366.349C214.636 379.613 222.173 391.779 231.95 391.507L231.955 391.501Z" fill="#403D3C"/>
<path d="M140.456 178.893C140.456 178.893 118.067 157.112 92.8426 142.087C73.5845 130.623 42.4329 100.301 36.7062 95.2207C24.4729 84.3634 3.72185 94.4854 0.201139 112.468C-2.41154 125.81 20.9577 150.042 39.5473 169.434C61.2955 192.129 84.3583 203.756 84.3583 203.756C84.3583 203.756 133.559 205.332 140.456 178.893Z" fill="#403D3C"/>
<rect x="53" y="391" width="295" height="51" fill="#006B5C"/>
<rect x="74" y="442" width="66" height="51" fill="#F5A200"/>
<rect x="267" y="440" width="66" height="51" fill="#F5A200"/>
<path d="M206 442L235.445 493H176.555L206 442Z" fill="#E61673"/>
<rect x="53" y="491" width="295" height="51" fill="#006B5C"/>
</svg>
