<svg width="164" height="150" viewBox="0 0 164 150" fill="none" xmlns="http://www.w3.org/2000/svg">
<path d="M145.885 75.9057C146.315 109.926 119.315 128.886 85.7246 129.306C52.1346 129.726 24.6646 111.466 24.2346 77.4357C23.7946 43.4257 42.3446 0.535681 84.0846 0.00568059C129.165 -0.564319 145.455 41.8757 145.885 75.9057Z" fill="#494645"/>
<path d="M50.7946 147.946L48.0546 147.196C44.1746 146.136 43.0246 140.546 45.1946 135.496L52.3546 118.826C53.4646 116.246 56.2246 114.846 58.5746 115.486L60.2446 115.936C62.6046 116.576 64.1146 119.146 63.5646 121.876L59.9646 139.516C58.8746 144.866 54.6746 148.996 50.7946 147.936V147.946Z" fill="#494645"/>
<path d="M115.315 149.516L118.005 148.586C121.805 147.266 122.575 141.616 120.065 136.716L111.785 120.576C110.505 118.076 107.655 116.866 105.345 117.666L103.715 118.236C101.405 119.036 100.075 121.706 100.815 124.386L105.605 141.746C107.055 147.006 111.525 150.846 115.325 149.526L115.315 149.516Z" fill="#494645"/>
<path d="M39.1046 51.0761C39.1046 51.0761 22.3046 23.4561 14.5046 19.9261C10.1146 17.9361 1.30457 20.8161 0.0745698 29.5261C-1.91543 43.5461 36.5846 60.3861 36.5846 60.3861C36.5846 60.3861 42.1846 60.8061 39.1046 51.0761Z" fill="#494645"/>
<path d="M142.355 64.2459C142.355 64.2459 162.185 85.8559 163.735 93.1959C164.615 97.3259 160.715 103.616 153.335 102.076C141.455 99.6059 134.255 63.5759 134.255 63.5759C134.255 63.5759 134.885 58.9259 142.355 64.2459Z" fill="#494645"/>
</svg>
