<svg width="222" height="229" viewBox="0 0 222 229" fill="none" xmlns="http://www.w3.org/2000/svg">
<path d="M192.702 82.7255L196.115 64.8071L202.65 67.723C207.612 70.074 213.734 65.0682 213.795 58.5014C213.939 53.2854 210.511 49.2194 206.138 49.4121C206.138 49.4121 203.053 49.5497 198.988 49.7214L202.398 31.8201C202.767 29.8832 201.478 28.0108 199.519 27.6377L183.013 24.4937L185.375 19.2758C187.73 14.3749 182.647 8.29588 176.011 8.20796C170.74 8.04398 166.645 11.4199 166.858 15.7489C166.858 15.7489 166.975 18.1408 167.136 21.4697L150.647 18.329C148.688 17.956 146.802 19.2235 146.433 21.1604L143.02 39.0789L136.485 36.163C131.523 33.812 125.401 38.8178 125.339 45.3846C125.195 50.6006 128.623 54.6666 132.997 54.4739C132.997 54.4739 136.081 54.3363 140.146 54.1645L136.737 72.0659C136.368 74.0028 137.657 75.8752 139.615 76.2483L188.488 85.557C190.446 85.93 192.333 84.6624 192.702 82.7255Z" fill="#E61673"/>
<path d="M171.59 124.074C173.341 158.734 146.552 179.105 112.33 180.828C78.1033 182.56 49.4054 164.997 47.6451 130.333C45.894 95.6735 63.1401 51.2459 105.674 49.0895C151.607 46.7637 169.842 89.405 171.594 124.065L171.59 124.074Z" fill="#494645"/>
<path d="M94.9029 202.236L92.0042 202.383C87.9038 202.586 85.0169 197.537 85.5139 191.952L87.1565 173.519C87.4151 170.666 89.6376 168.437 92.1252 168.308L93.8852 168.222C96.3728 168.093 98.6619 170.102 98.9838 172.924L101.098 191.168C101.735 196.701 98.9902 202.039 94.8898 202.241L94.9029 202.236Z" fill="#494645"/>
<path d="M131.827 200.368L134.726 200.221C138.827 200.019 141.192 194.701 140.13 189.191L136.632 171.021C136.087 168.211 133.651 166.215 131.158 166.331L129.398 166.416C126.91 166.546 124.844 168.766 124.795 171.613L124.524 189.976C124.438 195.543 127.723 200.58 131.814 200.373L131.827 200.368Z" fill="#494645"/>
<path d="M53.6012 119.737C53.6012 119.737 55.5898 149.594 52.1433 156.419C50.2107 160.267 43.096 162.783 38.1969 156.853C30.3155 147.303 47.5767 114.036 47.5767 114.036C47.5767 114.036 51.0501 110.735 53.5965 119.728L53.6012 119.737Z" fill="#494645"/>
<path d="M160.479 96.1848C160.479 96.1848 157.914 66.3833 161.22 59.4787C163.08 55.5988 170.144 52.944 175.155 58.7745C183.22 68.167 166.605 101.758 166.605 101.758C166.605 101.758 163.199 105.13 160.47 96.1808L160.479 96.1848Z" fill="#494645"/>
</svg>
