<svg width="223" height="196" viewBox="0 0 223 196" fill="none" xmlns="http://www.w3.org/2000/svg">
<path d="M176.816 100.844C174.583 132.872 146.493 149.886 113.35 149.267C80.2071 148.648 54.5568 130.624 56.7891 98.596C59.0215 66.568 80.6516 26.7795 121.843 27.5517C166.322 28.3861 179.057 68.8195 176.825 100.848L176.816 100.844Z" fill="#494645"/>
<path d="M114.343 102.338C135.239 102.738 153.086 89.7261 154.207 73.2743C155.328 56.8225 139.298 43.1611 118.403 42.7606C97.5071 42.3601 79.6592 55.3722 78.5382 71.824C77.4172 88.2757 93.4476 101.937 114.343 102.338Z" fill="white"/>
<path d="M96.8471 79.8173C98.6434 79.8525 100.368 75.8583 100.7 70.8962C101.031 65.934 99.8432 61.8829 98.0468 61.8478C96.2505 61.8127 94.5257 65.8068 94.1945 70.7689C93.8632 75.7311 95.0508 79.7822 96.8471 79.8173Z" fill="#46353A"/>
<path d="M128.887 81.0942C130.684 81.1293 132.408 77.1352 132.74 72.173C133.071 67.2109 131.883 63.1598 130.087 63.1247C128.291 63.0895 126.566 67.0837 126.235 72.0458C125.903 77.0079 127.091 81.0591 128.887 81.0942Z" fill="#46353A"/>
<path d="M88.0326 166.154L85.3607 165.543C81.584 164.681 80.524 159.5 82.711 154.711L89.9 138.92C91.0072 136.48 93.7231 135.076 96.0178 135.599L97.6431 135.967C99.9377 136.49 101.388 138.839 100.811 141.397L97.0884 157.977C95.9608 163.002 91.8166 166.999 88.0308 166.133L88.0326 166.154Z" fill="#494645"/>
<path d="M152.439 166.837L155.108 165.87C158.882 164.505 159.71 159.159 157.281 154.634L149.289 139.707C148.057 137.398 145.247 136.352 142.959 137.183L141.335 137.772C139.047 138.604 137.689 141.157 138.394 143.653L142.922 159.828C144.293 164.737 148.665 168.203 152.443 166.828L152.439 166.837Z" fill="#494645"/>
<path d="M72.353 76.7945C72.353 76.7945 52.5541 53.4162 44.424 51.2909C39.8441 50.0957 31.4459 54.1486 31.2217 62.5233C30.8557 76.0022 70.9193 85.9292 70.9193 85.9292C70.9193 85.9292 76.5219 85.4615 72.353 76.7945Z" fill="#494645"/>
<path d="M167.98 91.7093C167.98 91.7093 195.054 101.218 199.556 106.736C202.091 109.842 201.212 116.884 193.881 118.86C182.072 122.037 160.366 94.7305 160.366 94.7305C160.366 94.7305 158.972 90.5187 167.98 91.7093Z" fill="#494645"/>
</svg>
