<svg width="179" height="179" viewBox="0 0 179 179" fill="none" xmlns="http://www.w3.org/2000/svg">
<path d="M37.856 92.4321C38.9307 123.312 64.2285 139.345 94.7194 138.28C125.21 137.216 149.336 119.478 148.261 88.5981C147.186 57.7183 128.525 19.6193 90.6397 20.933C49.7283 22.3524 36.7813 61.5523 37.856 92.4321Z" fill="#494645"/>
<path d="M58.3898 55.2095C58.891 69.5111 74.962 80.5592 94.2972 79.882C113.632 79.2047 126.435 67.4068 125.934 53.1052C125.433 38.8035 111.834 27.4273 92.492 28.0976C73.1569 28.7748 57.8885 40.9078 58.3826 55.2024L58.3898 55.2095Z" fill="white"/>
<path d="M107.72 56.0437C109.278 56.0521 110.559 52.6697 110.581 48.489C110.604 44.3082 109.36 40.9123 107.802 40.9039C106.245 40.8955 104.964 44.2778 104.941 48.4586C104.919 52.6393 106.163 56.0353 107.72 56.0437Z" fill="#46353A"/>
<path d="M81.1755 56.0437C82.733 56.0521 84.0138 52.6697 84.0363 48.489C84.0589 44.3082 82.8146 40.9123 81.2572 40.9039C79.6998 40.8955 78.419 44.2778 78.3964 48.4586C78.3739 52.6393 79.6181 56.0353 81.1755 56.0437Z" fill="#46353A"/>
<path d="M108.53 152.83L111.111 152.735C114.759 152.611 116.94 147.907 116.079 142.985L113.224 126.754C112.782 124.24 110.634 122.431 108.421 122.509L106.852 122.563C104.632 122.634 102.757 124.592 102.683 127.117L102.187 143.455C102.037 148.406 104.882 152.94 108.537 152.809L108.53 152.83Z" fill="#494645"/>
<path d="M73.4093 157.155L70.8259 157.058C67.1745 156.911 65.0203 152.208 65.9021 147.286L68.8264 131.078C69.2762 128.568 71.4271 126.769 73.6473 126.852L75.2118 126.909C77.432 126.991 79.2939 128.961 79.3603 131.482L79.785 147.823C79.9122 152.783 77.0428 157.288 73.3995 157.153L73.4093 157.155Z" fill="#494645"/>
<path d="M43.6488 62.7466C43.6488 62.7466 21.5179 48.5363 18.497 42.5305C16.7937 39.1505 18.734 32.8129 25.4783 32.4527C36.3404 31.8764 55.0002 57.8797 55.0002 57.8797C55.0002 57.8797 51.3394 65.6528 43.6488 62.7466Z" fill="#494645"/>
</svg>
