<svg width="122" height="148" viewBox="0 0 122 148" fill="none" xmlns="http://www.w3.org/2000/svg">
<path d="M121.66 76.67C121.66 110.7 94.42 129.31 60.83 129.31C27.23 129.31 3.92664e-06 110.7 3.92664e-06 76.67C-0.00999607 42.65 19.08 0 60.82 0C105.91 0 121.65 42.65 121.65 76.67H121.66Z" fill="#494645"/>
<path d="M96.001 39.1298C96.001 21.9398 78.731 7.99977 57.421 7.99977C36.111 7.99977 20.561 21.9398 20.561 39.1298C20.561 56.3198 36.111 70.2598 57.421 70.2598C78.731 70.2598 96.001 56.3198 96.001 39.1298Z" fill="white"/>
<path d="M75.0519 36.3086C75.1168 31.7748 73.616 28.0772 71.6998 28.0498C69.7835 28.0224 68.1775 31.6755 68.1126 36.2093C68.0477 40.7431 69.5485 44.4407 71.4648 44.4681C73.381 44.4956 74.987 40.8424 75.0519 36.3086Z" fill="#46353A"/>
<path d="M46.6178 36.3086C46.6827 31.7748 45.1819 28.0772 43.2657 28.0498C41.3495 28.0224 39.7434 31.6755 39.6785 36.2093C39.6136 40.7431 41.1144 44.4407 43.0307 44.4681C44.9469 44.4956 46.5529 40.8424 46.6178 36.3086Z" fill="#46353A"/>
<path d="M40.61 147.38H37.77C33.75 147.38 31.17 142.29 31.93 136.84L34.45 118.87C34.84 116.09 37.13 114.01 39.58 114.01H41.31C43.75 114.01 45.89 116.09 46.07 118.87L47.24 136.84C47.6 142.29 44.64 147.38 40.61 147.38Z" fill="#494645"/>
<path d="M76.8601 147.38H79.7001C83.7201 147.38 86.3001 142.29 85.5401 136.84L83.0201 118.87C82.6301 116.09 80.3401 114.01 77.8901 114.01H76.1601C73.7201 114.01 71.5801 116.09 71.4001 118.87L70.2301 136.84C69.8701 142.29 72.8301 147.38 76.8601 147.38Z" fill="#494645"/>
</svg>
