<svg width="172" height="133" viewBox="0 0 172 133" fill="none" xmlns="http://www.w3.org/2000/svg">
<path d="M137.392 56.4591C137.392 56.4591 166.242 71.0391 170.372 78.5391C172.692 82.7591 170.512 91.7691 161.932 93.6791C148.112 96.7591 128.312 59.6991 128.312 59.6991C128.312 59.6991 127.462 54.1491 137.392 56.4591Z" fill="#494645"/>
<path d="M32.8422 43.1189C32.8422 43.1189 23.6722 12.1189 17.0322 6.70892C13.2922 3.66892 4.04217 4.19892 0.622174 12.2989C-4.88783 25.3389 28.0122 51.4689 28.0122 51.4689C28.0122 51.4689 33.3222 53.3089 32.8322 43.1189H32.8422Z" fill="#494645"/>
<path d="M19.6721 78.8286C20.8821 112.839 48.7621 130.469 82.3421 129.269C115.922 128.069 142.472 108.499 141.262 74.4986C140.042 40.4886 119.452 -1.4514 77.7321 0.0386026C32.6721 1.6486 18.4621 44.8286 19.6721 78.8286Z" fill="#494645"/>
<path d="M82.4139 78.8023C103.708 78.0438 120.473 63.5004 119.861 46.3187C119.249 29.1369 101.491 15.8233 80.1976 16.5817C58.904 17.3402 42.1382 31.8836 42.7502 49.0653C43.3622 66.2471 61.1203 79.5608 82.4139 78.8023Z" fill="white"/>
<path d="M97.6479 55.8967C99.5521 55.8288 100.943 51.4919 100.755 46.2099C100.567 40.9279 98.8708 36.701 96.9666 36.7688C95.0624 36.8366 93.6713 41.1735 93.8595 46.4555C94.0476 51.7376 95.7438 55.9645 97.6479 55.8967Z" fill="#46353A"/>
<path d="M65.5889 57.0373C67.493 56.9695 68.8841 52.6326 68.696 47.3505C68.5079 42.0685 66.8117 37.8416 64.9075 37.9094C63.0034 37.9772 61.6122 42.3141 61.8004 47.5962C61.9885 52.8782 63.6847 57.1051 65.5889 57.0373Z" fill="#46353A"/>
<path d="M134.882 127.699L135.622 124.959C136.672 121.079 130.592 113.019 125.132 112.339L108.972 114.329C106.192 113.979 103.582 115.649 102.942 118.009L102.492 119.679C101.852 122.039 103.302 124.639 105.942 125.539L120.522 132.279C125.692 134.039 133.832 131.579 134.882 127.699Z" fill="#494645"/>
<path d="M24.3522 125.138L23.0822 122.598C21.2822 118.998 23.7022 112.908 28.9122 111.148L47.0722 106.858C49.7322 105.958 52.6122 107.078 53.7122 109.258L54.4822 110.798C55.5822 112.988 54.6822 115.828 52.2722 117.228L41.1722 128.148C36.4622 130.908 26.1522 128.728 24.3522 125.128V125.138Z" fill="#494645"/>
</svg>
