<svg width="218" height="201" viewBox="0 0 218 201" fill="none" xmlns="http://www.w3.org/2000/svg">
<path d="M112.539 42.6232C133.505 42.5854 150.144 56.2347 150.174 72.6852C150.203 89.1358 133.614 102.845 112.648 102.883C91.6822 102.921 75.0434 89.2715 75.0137 72.8209C74.9841 56.3703 91.5735 42.6611 112.539 42.6232Z" stroke="#AF9347" stroke-width="2"/>
<path d="M92.4821 82.1953C94.3875 82.1918 95.9244 77.9044 95.9148 72.6191C95.9053 67.3337 94.3529 63.0519 92.4475 63.0553C90.5422 63.0587 89.0053 67.3462 89.0148 72.6315C89.0244 77.9169 90.5767 82.1987 92.4821 82.1953Z" fill="#AF9347"/>
<path d="M124.551 82.1484C126.457 82.145 127.994 77.8575 127.984 72.5722C127.975 67.2868 126.422 63.005 124.517 63.0084C122.612 63.0119 121.075 67.2993 121.084 72.5846C121.094 77.87 122.646 82.1518 124.551 82.1484Z" fill="#AF9347"/>
<mask id="path-4-inside-1_459_897" fill="white">
<path d="M114.394 25.0033C156.583 24.9279 173.147 62.2369 175.153 94.911C183.583 98.1466 194.496 102.79 197.397 106.145C200.158 109.339 199.78 116.72 192.578 118.943C187.792 120.418 180.951 116.505 174.562 111.399C171.902 127.106 162.738 138.755 149.814 145.923L157.533 159.103C160.318 163.849 159.868 169.537 156.147 171.067L153.517 172.151L153.52 172.141C149.796 173.681 145.121 170.1 143.378 164.923L138.59 150.735C131.236 153.088 123.132 154.3 114.616 154.316C109.389 154.326 104.314 153.884 99.4715 153.003L97.6809 165.259C96.8925 170.658 92.9384 175.023 88.9967 174.181L88.9997 174.203L86.2176 173.609C82.2856 172.769 80.8212 167.251 82.712 162.082L87.2409 149.654C67.3743 142.174 53.7273 125.845 53.6843 101.787C53.6747 96.4097 54.1436 90.8163 55.1012 85.2088C43.0909 81.1529 27.1939 74.1437 26.8225 65.3633C26.4475 56.5725 34.5842 52.14 39.2657 53.295C43.8519 54.4289 52.4676 62.2769 59.269 69.0832C67.6443 45.3405 85.6191 25.0552 114.394 25.0033Z"/>
</mask>
<path d="M114.394 25.0033L114.39 23.0033L114.39 23.0033L114.394 25.0033ZM175.153 94.911L173.157 95.0336L173.236 96.3174L174.437 96.7782L175.153 94.911ZM197.397 106.145L195.884 107.453L195.884 107.453L197.397 106.145ZM192.578 118.943L193.167 120.855L193.168 120.854L192.578 118.943ZM174.562 111.399L175.811 109.837L173.157 107.716L172.59 111.065L174.562 111.399ZM149.814 145.923L148.844 144.174L147.053 145.167L148.088 146.934L149.814 145.923ZM157.533 159.103L155.807 160.114L155.808 160.115L157.533 159.103ZM156.147 171.067L155.387 169.217L155.386 169.218L156.147 171.067ZM153.517 172.151L151.614 171.536L150.286 175.644L154.279 174L153.517 172.151ZM153.52 172.141L155.423 172.756L156.753 168.64L152.756 170.293L153.52 172.141ZM143.378 164.923L145.273 164.285L145.273 164.284L143.378 164.923ZM138.59 150.735L140.485 150.095L139.856 148.23L137.981 148.83L138.59 150.735ZM114.616 154.316L114.62 156.316L114.62 156.316L114.616 154.316ZM99.4715 153.003L99.8292 151.036L97.7918 150.665L97.4925 152.714L99.4715 153.003ZM97.6809 165.259L95.7019 164.97L95.7019 164.97L97.6809 165.259ZM88.9967 174.181L89.4149 172.225L86.6411 171.632L87.0141 174.444L88.9967 174.181ZM88.9997 174.203L88.582 176.159L91.3553 176.751L90.9824 173.94L88.9997 174.203ZM86.2176 173.609L85.7997 175.565L85.7999 175.565L86.2176 173.609ZM82.712 162.082L84.5902 162.769L84.5911 162.767L82.712 162.082ZM87.2409 149.654L89.12 150.339L89.7975 148.479L87.9457 147.782L87.2409 149.654ZM53.6843 101.787L51.6843 101.791L51.6843 101.791L53.6843 101.787ZM55.1012 85.2088L57.0727 85.5455L57.3604 83.8608L55.7411 83.314L55.1012 85.2088ZM26.8225 65.3633L28.8207 65.2788L28.8206 65.2781L26.8225 65.3633ZM39.2657 53.295L39.7457 51.3535L39.7448 51.3532L39.2657 53.295ZM59.269 69.0832L57.8543 70.4969L60.0988 72.743L61.1551 69.7485L59.269 69.0832ZM114.394 25.0033L114.397 27.0033C134.799 26.9668 148.901 35.925 158.22 48.846C167.598 61.8498 172.169 78.9427 173.157 95.0336L175.153 94.911L177.15 94.7885C176.131 78.2053 171.417 60.3066 161.464 46.5062C151.452 32.623 136.178 22.9644 114.39 23.0033L114.394 25.0033ZM175.153 94.911L174.437 96.7782C178.631 98.3881 183.41 100.336 187.485 102.287C189.523 103.263 191.356 104.226 192.838 105.134C194.358 106.066 195.367 106.855 195.884 107.453L197.397 106.145L198.91 104.837C197.977 103.757 196.534 102.708 194.928 101.724C193.285 100.717 191.319 99.6878 189.212 98.6792C184.998 96.6611 180.106 94.6696 175.87 93.0438L175.153 94.911ZM197.397 106.145L195.884 107.453C196.78 108.49 197.295 110.436 196.787 112.409C196.31 114.26 194.924 116.126 191.988 117.032L192.578 118.943L193.168 120.854C197.434 119.538 199.838 116.601 200.661 113.407C201.452 110.335 200.775 106.994 198.91 104.837L197.397 106.145ZM192.578 118.943L191.989 117.032C190.306 117.551 187.964 117.185 185.008 115.823C182.11 114.487 178.946 112.342 175.811 109.837L174.562 111.399L173.313 112.961C176.567 115.562 180.018 117.927 183.334 119.455C186.592 120.957 190.064 121.811 193.167 120.855L192.578 118.943ZM174.562 111.399L172.59 111.065C170.04 126.123 161.282 137.276 148.844 144.174L149.814 145.923L150.784 147.672C164.194 140.235 173.764 128.089 176.534 111.733L174.562 111.399ZM149.814 145.923L148.088 146.934L155.807 160.114L157.533 159.103L159.258 158.092L151.539 144.912L149.814 145.923ZM157.533 159.103L155.808 160.115C157.014 162.17 157.47 164.356 157.291 166.084C157.111 167.811 156.36 168.817 155.387 169.217L156.147 171.067L156.908 172.917C159.655 171.787 160.99 169.184 161.269 166.498C161.548 163.813 160.837 160.781 159.258 158.091L157.533 159.103ZM156.147 171.067L155.386 169.218L152.755 170.301L153.517 172.151L154.279 174L156.909 172.916L156.147 171.067ZM153.517 172.151L155.42 172.765L155.423 172.756L153.52 172.141L151.617 171.526L151.614 171.536L153.517 172.151ZM153.52 172.141L152.756 170.293C151.749 170.709 150.387 170.53 148.884 169.434C147.396 168.35 146.025 166.517 145.273 164.285L143.378 164.923L141.482 165.561C142.474 168.506 144.312 171.052 146.528 172.667C148.729 174.272 151.567 175.113 154.284 173.989L153.52 172.141ZM143.378 164.923L145.273 164.284L140.485 150.095L138.59 150.735L136.695 151.374L141.483 165.563L143.378 164.923ZM138.59 150.735L137.981 148.83C130.841 151.114 122.943 152.3 114.612 152.316L114.616 154.316L114.62 156.316C123.32 156.3 131.631 155.061 139.2 152.64L138.59 150.735ZM114.616 154.316L114.612 152.316C109.5 152.326 104.546 151.893 99.8292 151.036L99.4715 153.003L99.1138 154.971C104.082 155.874 109.277 156.326 114.62 156.316L114.616 154.316ZM99.4715 153.003L97.4925 152.714L95.7019 164.97L97.6809 165.259L99.6599 165.549L101.45 153.292L99.4715 153.003ZM97.6809 165.259L95.7019 164.97C95.362 167.298 94.342 169.347 93.0722 170.682C91.7898 172.03 90.4815 172.453 89.4149 172.225L88.9967 174.181L88.5786 176.136C91.4536 176.751 94.0932 175.413 95.9704 173.439C97.8602 171.452 99.2114 168.62 99.6599 165.548L97.6809 165.259ZM88.9967 174.181L87.0141 174.444L87.0171 174.466L88.9997 174.203L90.9824 173.94L90.9794 173.918L88.9967 174.181ZM88.9997 174.203L89.4174 172.247L86.6353 171.653L86.2176 173.609L85.7999 175.565L88.582 176.159L88.9997 174.203ZM86.2176 173.609L86.6354 171.653C85.6072 171.433 84.6877 170.577 84.2013 168.909C83.7146 167.24 83.7716 165.007 84.5902 162.769L82.712 162.082L80.8337 161.395C79.7615 164.326 79.6054 167.437 80.3612 170.029C81.1172 172.622 82.896 174.945 85.7997 175.565L86.2176 173.609ZM82.712 162.082L84.5911 162.767L89.12 150.339L87.2409 149.654L85.3618 148.969L80.8329 161.397L82.712 162.082ZM87.2409 149.654L87.9457 147.782C68.7711 140.562 55.7257 124.922 55.6843 101.784L53.6843 101.787L51.6843 101.791C51.729 126.769 65.9775 143.785 86.5362 151.526L87.2409 149.654ZM53.6843 101.787L55.6843 101.784C55.6749 96.5232 56.1337 91.0437 57.0727 85.5455L55.1012 85.2088L53.1298 84.8721C52.1534 90.5889 51.6745 96.2961 51.6843 101.791L53.6843 101.787ZM55.1012 85.2088L55.7411 83.314C49.7851 81.3026 42.971 78.5919 37.6362 75.3488C34.9677 73.7266 32.7542 72.0215 31.2065 70.2726C29.6589 68.5237 28.8876 66.8601 28.8207 65.2788L26.8225 65.3633L24.8243 65.4478C24.9431 68.2567 26.2981 70.7618 28.211 72.9234C30.1238 75.085 32.7048 77.0321 35.5583 78.7667C41.2674 82.2373 48.407 85.0592 54.4613 87.1037L55.1012 85.2088ZM26.8225 65.3633L28.8206 65.2781C28.6629 61.5799 30.2736 58.864 32.399 57.1598C34.6132 55.3845 37.1933 54.8437 38.7866 55.2368L39.2657 53.295L39.7448 51.3532C36.6566 50.5913 32.8276 51.6892 29.8968 54.0391C26.8772 56.4602 24.6071 60.3559 24.8243 65.4485L26.8225 65.3633ZM39.2657 53.295L38.7857 55.2365C39.611 55.4406 40.7889 56.0024 42.2885 56.9658C43.7567 57.9091 45.4091 59.1554 47.1631 60.604C50.6697 63.5001 54.4729 67.1131 57.8543 70.4969L59.269 69.0832L60.6837 67.6695C57.2637 64.247 53.3584 60.5328 49.7102 57.5199C47.8868 56.014 46.1003 54.6603 44.4506 53.6005C42.8324 52.5608 41.2135 51.7164 39.7457 51.3535L39.2657 53.295ZM59.269 69.0832L61.1551 69.7485C69.3713 46.4569 86.7868 27.0531 114.397 27.0033L114.394 25.0033L114.39 23.0033C84.4515 23.0573 65.9173 44.224 57.3829 68.4179L59.269 69.0832Z" fill="#AF9347" mask="url(#path-4-inside-1_459_897)"/>
</svg>
