<svg width="173" height="208" viewBox="0 0 173 208" fill="none" xmlns="http://www.w3.org/2000/svg">
<path d="M23.729 133.55C23.299 167.57 50.299 186.53 83.889 186.95C117.479 187.37 144.949 169.11 145.379 135.08C145.809 101.06 127.269 58.17 85.519 57.64C40.439 57.07 24.149 99.51 23.719 133.54L23.729 133.55Z" fill="#494645"/>
<path d="M125.341 103.877C124.658 86.698 106.845 73.4576 85.555 74.3038C64.2646 75.15 47.5589 89.7624 48.2417 106.941C48.9245 124.12 66.7373 137.361 88.0276 136.515C109.318 135.669 126.024 121.056 125.341 103.877Z" fill="white"/>
<path d="M106.282 104.867C106.349 99.5816 104.858 95.2779 102.953 95.254C101.048 95.23 99.4494 99.4949 99.383 104.78C99.3165 110.065 100.807 114.369 102.712 114.392C104.618 114.416 106.216 110.152 106.282 104.867Z" fill="#46353A"/>
<path d="M74.2094 104.449C74.2758 99.1637 72.7852 94.86 70.8799 94.836C68.9747 94.8121 67.3764 99.077 67.31 104.362C67.2435 109.647 68.7342 113.951 70.6394 113.975C72.5447 113.998 74.143 109.734 74.2094 104.449Z" fill="#46353A"/>
<path d="M118.809 205.58L121.549 204.83C125.429 203.77 126.579 198.18 124.409 193.13L117.249 176.46C116.139 173.88 113.379 172.48 111.029 173.12L109.359 173.57C106.999 174.21 105.489 176.78 106.039 179.51L109.639 197.15C110.729 202.5 114.929 206.63 118.809 205.57V205.58Z" fill="#494645"/>
<path d="M54.2889 207.15L51.5989 206.22C47.7989 204.9 47.0289 199.25 49.5389 194.35L57.8189 178.21C59.0989 175.71 61.9489 174.5 64.2589 175.3L65.8889 175.87C68.1989 176.67 69.5289 179.34 68.7889 182.02L63.9989 199.38C62.5489 204.64 58.0789 208.48 54.2789 207.16L54.2889 207.15Z" fill="#494645"/>
<path d="M130.199 112.58C130.199 112.58 151.999 88.7102 160.339 86.7502C165.029 85.6502 173.119 90.1702 172.649 98.9502C171.899 113.09 130.879 122.2 130.879 122.2C130.879 122.2 125.299 121.53 130.199 112.58Z" fill="#494645"/>
<path d="M34.499 123.21C34.499 123.21 6.59898 132.27 1.63898 137.89C-1.15102 141.05 -0.861024 148.44 6.31898 150.74C17.879 154.44 41.879 126.61 41.879 126.61C41.879 126.61 43.619 122.25 34.499 123.2V123.21Z" fill="#494645"/>
<path d="M45.8468 57.2487C48.9404 56.9968 51.244 54.2847 50.9921 51.1911C50.7402 48.0975 48.0281 45.7939 44.9345 46.0458C41.8409 46.2977 39.5372 49.0098 39.7892 52.1034C40.0411 55.197 42.7532 57.5006 45.8468 57.2487Z" fill="#EA5053"/>
<path d="M37.1492 18.3263C41.6047 30.1637 44.5268 39.5575 40.2632 41.7809C35.9996 44.0043 30.2738 36.404 23.2335 26.0914C16.3075 15.9501 11.9848 6.35934 19.7032 2.32956C27.4216 -1.70022 32.8209 6.81964 37.1484 18.3163L37.1492 18.3263Z" fill="#EA5053"/>
</svg>
