<svg width="159" height="186" viewBox="0 0 159 186" fill="none" xmlns="http://www.w3.org/2000/svg">
<g clip-path="url(#clip0_455_39)">
<path d="M124.71 97.1001C124.71 97.1001 140.87 121.57 147.62 124.86C151.42 126.71 158.46 124.46 158.76 116.92C159.25 104.79 126.03 89.0801 126.03 89.0801C126.03 89.0801 121.36 88.5601 124.71 97.1001Z" fill="#494645"/>
<path d="M14.6401 111.58C-6.9599 81.2702 3.4101 48.8902 30.7701 29.3902C58.1301 9.89022 92.1201 10.6602 113.72 40.9702C135.32 71.2802 146.84 120.34 112.84 144.56C76.1201 170.73 36.2301 141.88 14.6401 111.57V111.58Z" fill="#494645"/>
<path d="M62.79 134.95C52.92 122.4 58.23 101.77 74.64 88.8702C91.05 75.9702 110.14 75.6902 120 88.2302C129.87 100.78 126.77 121.39 110.36 134.3C93.95 147.2 72.65 147.5 62.78 134.95H62.79Z" fill="white"/>
<path d="M111.428 115.747C113.097 115.042 113.004 111.043 111.219 106.815C109.435 102.587 106.635 99.7299 104.966 100.434C103.297 101.139 103.391 105.137 105.175 109.366C106.96 113.594 109.759 116.451 111.428 115.747Z" fill="#46353A"/>
<path d="M86.2026 131.182C87.8715 130.478 87.778 126.479 85.9936 122.251C84.2092 118.022 81.4096 115.165 79.7407 115.87C78.0717 116.574 78.1653 120.573 79.9497 124.801C81.7341 129.03 84.5336 131.886 86.2026 131.182Z" fill="#46353A"/>
<path d="M33.87 2.51011L36.19 0.860112C39.47 -1.47989 44.52 1.17011 47.06 6.05011L55.43 22.1401C56.73 24.6301 56.06 27.6501 54.07 29.0701L52.66 30.0701C50.67 31.4901 47.72 31.0401 45.96 28.8801L34.58 14.9301C31.13 10.7001 30.59 4.84011 33.86 2.50011L33.87 2.51011Z" fill="#494645"/>
<path d="M4.35004 23.5501L2.03004 25.2001C-1.24996 27.5401 -0.389956 33.1801 3.39004 37.1701L15.87 50.3401C17.8 52.3801 20.87 52.7401 22.86 51.3201L24.27 50.3201C26.26 48.9001 26.79 45.9701 25.33 43.6001L15.86 28.2901C12.99 23.6501 7.62004 21.2201 4.35004 23.5501Z" fill="#494645"/>
<path d="M69.1901 146.09C69.1901 146.09 87.0501 169.36 87.9501 176.8C88.4601 180.99 84.0301 186.91 76.8101 184.74C65.1901 181.24 61.1801 144.71 61.1801 144.71C61.1801 144.71 62.2101 140.13 69.1901 146.08V146.09Z" fill="#494645"/>
</g>
<defs>
<clipPath id="clip0_455_39">
<rect width="158.76" height="185.2" fill="white"/>
</clipPath>
</defs>
</svg>
