<svg width="642" height="1135" viewBox="0 0 642 1135" fill="none" xmlns="http://www.w3.org/2000/svg">
<rect x="72" width="500" height="500" fill="#DFF8FF"/>
<rect x="72" y="500" width="500" height="600" fill="#403D3C"/>
<path d="M236.824 634.824C234.179 634.824 232.141 634.269 230.712 633.16C229.304 632.051 228.6 630.472 228.6 628.424C228.6 626.333 229.304 624.744 230.712 623.656C232.12 622.568 234.157 622.024 236.824 622.024C238.232 622.024 239.64 622.184 241.048 622.504C242.456 622.803 243.917 623.304 245.432 624.008C246.968 624.691 248.621 625.587 250.392 626.696C252.184 627.805 254.147 629.16 256.28 630.76L253.72 633.736C251.309 631.837 249.112 630.291 247.128 629.096C245.165 627.901 243.341 627.027 241.656 626.472C239.992 625.917 238.381 625.64 236.824 625.64C235.416 625.64 234.371 625.864 233.688 626.312C233.005 626.76 232.664 627.464 232.664 628.424C232.664 630.259 233.976 631.176 236.6 631.176C238.093 631.176 239.171 630.877 239.832 630.28C240.515 629.683 240.856 628.744 240.856 627.464V607.176H245.144V612.2H256.216V615.816H245.144V627.464C245.144 629.96 244.461 631.805 243.096 633C241.752 634.216 239.661 634.824 236.824 634.824ZM282.168 636.168C280.739 635.144 279.427 634.227 278.232 633.416C277.037 632.605 275.896 631.859 274.808 631.176C273.72 630.472 272.632 629.789 271.544 629.128C270.456 628.445 269.304 627.731 268.088 626.984C266.808 626.216 265.773 625.576 264.984 625.064C264.216 624.552 263.629 624.104 263.224 623.72C262.819 623.315 262.541 622.92 262.392 622.536C262.243 622.152 262.168 621.693 262.168 621.16C262.168 620.627 262.243 620.157 262.392 619.752C262.563 619.325 262.861 618.92 263.288 618.536C263.715 618.131 264.323 617.683 265.112 617.192C265.901 616.68 266.936 616.072 268.216 615.368C269.475 614.664 270.84 613.885 272.312 613.032C273.784 612.179 275.288 611.283 276.824 610.344C278.381 609.384 279.875 608.413 281.304 607.432L283.736 610.888C282.883 611.464 281.944 612.061 280.92 612.68C279.917 613.299 278.904 613.907 277.88 614.504C276.856 615.08 275.875 615.635 274.936 616.168C273.997 616.701 273.144 617.181 272.376 617.608C271.629 618.013 271.032 618.333 270.584 618.568C269.645 619.08 268.92 619.485 268.408 619.784C267.917 620.083 267.565 620.339 267.352 620.552C267.16 620.744 267.064 620.947 267.064 621.16C267.064 621.373 267.128 621.576 267.256 621.768C267.405 621.939 267.704 622.163 268.152 622.44C268.6 622.696 269.304 623.101 270.264 623.656C270.755 623.933 271.405 624.307 272.216 624.776C273.048 625.245 273.976 625.789 275 626.408C276.024 627.005 277.091 627.656 278.2 628.36C279.331 629.064 280.451 629.789 281.56 630.536C282.691 631.261 283.747 631.976 284.728 632.68L282.168 636.168ZM306.52 634.888C304.109 634.888 302.221 634.323 300.856 633.192C299.512 632.061 298.84 630.504 298.84 628.52C298.84 626.515 299.523 624.957 300.888 623.848C302.275 622.717 304.216 622.152 306.712 622.152C307.736 622.152 308.771 622.323 309.816 622.664C310.861 622.984 311.939 623.485 313.048 624.168C314.179 624.851 315.363 625.725 316.6 626.792C317.859 627.859 319.213 629.128 320.664 630.6L318.072 633.448C316.365 631.763 314.936 630.397 313.784 629.352C312.653 628.307 311.683 627.517 310.872 626.984C310.083 626.429 309.368 626.056 308.728 625.864C308.109 625.672 307.437 625.576 306.712 625.576C305.389 625.576 304.419 625.811 303.8 626.28C303.203 626.728 302.904 627.432 302.904 628.392C302.904 629.373 303.203 630.109 303.8 630.6C304.419 631.091 305.325 631.336 306.52 631.336C307.821 631.336 308.803 631.059 309.464 630.504C310.125 629.928 310.456 629.107 310.456 628.04V611.4C312.355 611.4 314.125 611.432 315.768 611.496C317.411 611.539 319.021 611.613 320.6 611.72L320.376 615.464C318.989 615.357 317.517 615.283 315.96 615.24C314.424 615.176 312.803 615.144 311.096 615.144L314.616 612.424V627.624C314.616 630.013 313.933 631.816 312.568 633.032C311.224 634.269 309.208 634.888 306.52 634.888ZM291.704 629.8C292.621 627.283 293.453 624.787 294.2 622.312C294.968 619.837 295.683 617.331 296.344 614.792C297.005 612.232 297.624 609.597 298.2 606.888L302.264 607.272C301.688 610.024 301.059 612.733 300.376 615.4C299.715 618.045 298.989 620.659 298.2 623.24C297.432 625.821 296.579 628.392 295.64 630.952L291.704 629.8ZM291.48 615.144V611.4H307.672V615.144H291.48ZM337.24 635.144C334.061 635.144 331.587 634.621 329.816 633.576C328.067 632.531 327.192 631.059 327.192 629.16C327.192 627.56 327.853 626.312 329.176 625.416C330.52 624.499 332.376 624.04 334.744 624.04C336.92 624.04 338.552 624.445 339.64 625.256C340.728 626.045 341.272 627.24 341.272 628.84C341.272 629.416 341.197 630.035 341.048 630.696C340.899 631.336 340.675 631.997 340.376 632.68L336.568 632.264C336.867 631.581 337.08 630.995 337.208 630.504C337.336 630.013 337.4 629.587 337.4 629.224C337.4 627.901 336.408 627.24 334.424 627.24C333.4 627.24 332.611 627.411 332.056 627.752C331.501 628.072 331.224 628.531 331.224 629.128C331.224 629.981 331.704 630.643 332.664 631.112C333.645 631.581 335 631.816 336.728 631.816C340.056 631.816 342.52 631.336 344.12 630.376C345.741 629.395 346.552 627.901 346.552 625.896C346.552 624.168 345.912 622.909 344.632 622.12C343.373 621.331 341.336 620.936 338.52 620.936C336.92 620.936 335.501 621.075 334.264 621.352C333.048 621.608 331.917 622.035 330.872 622.632L326.744 624.936L325.016 621.672L342.648 612.104V612.744H326.904V609.096H349.016V612.744L333.176 621.32L330.936 619.464C331.619 619.208 332.387 618.984 333.24 618.792C334.115 618.579 335.011 618.397 335.928 618.248C336.845 618.099 337.731 617.981 338.584 617.896C339.437 617.789 340.205 617.736 340.888 617.736C344.109 617.736 346.584 618.419 348.312 619.784C350.04 621.149 350.904 623.101 350.904 625.64C350.904 628.669 349.72 631.016 347.352 632.68C344.984 634.323 341.613 635.144 337.24 635.144ZM377.112 636.168C375.683 635.144 374.371 634.227 373.176 633.416C371.981 632.605 370.84 631.859 369.752 631.176C368.664 630.472 367.576 629.789 366.488 629.128C365.4 628.445 364.248 627.731 363.032 626.984C361.752 626.216 360.717 625.576 359.928 625.064C359.16 624.552 358.573 624.104 358.168 623.72C357.763 623.315 357.485 622.92 357.336 622.536C357.187 622.152 357.112 621.693 357.112 621.16C357.112 620.627 357.187 620.157 357.336 619.752C357.507 619.325 357.805 618.92 358.232 618.536C358.659 618.131 359.267 617.683 360.056 617.192C360.845 616.68 361.88 616.072 363.16 615.368C364.419 614.664 365.784 613.885 367.256 613.032C368.728 612.179 370.232 611.283 371.768 610.344C373.325 609.384 374.819 608.413 376.248 607.432L378.68 610.888C377.827 611.464 376.888 612.061 375.864 612.68C374.861 613.299 373.848 613.907 372.824 614.504C371.8 615.08 370.819 615.635 369.88 616.168C368.941 616.701 368.088 617.181 367.32 617.608C366.573 618.013 365.976 618.333 365.528 618.568C364.589 619.08 363.864 619.485 363.352 619.784C362.861 620.083 362.509 620.339 362.296 620.552C362.104 620.744 362.008 620.947 362.008 621.16C362.008 621.373 362.072 621.576 362.2 621.768C362.349 621.939 362.648 622.163 363.096 622.44C363.544 622.696 364.248 623.101 365.208 623.656C365.699 623.933 366.349 624.307 367.16 624.776C367.992 625.245 368.92 625.789 369.944 626.408C370.968 627.005 372.035 627.656 373.144 628.36C374.275 629.064 375.395 629.789 376.504 630.536C377.635 631.261 378.691 631.976 379.672 632.68L377.112 636.168ZM390.264 635.016L386.52 633.672L396.856 607.496L400.792 608.648L395.32 622.312L393.976 621.448C395.085 620.573 396.173 619.912 397.24 619.464C398.328 618.995 399.373 618.76 400.376 618.76C401.165 618.76 401.848 618.92 402.424 619.24C403 619.539 403.491 620.008 403.896 620.648C404.301 621.267 404.653 622.024 404.952 622.92C405.251 623.816 405.528 624.861 405.784 626.056C405.976 626.931 406.168 627.677 406.36 628.296C406.552 628.893 406.797 629.363 407.096 629.704C407.395 630.024 407.789 630.184 408.28 630.184C409.133 630.184 409.901 629.597 410.584 628.424C411.267 627.251 411.917 625.363 412.536 622.76L416.28 624.008C415.768 626.397 415.128 628.36 414.36 629.896C413.613 631.411 412.728 632.531 411.704 633.256C410.68 633.981 409.464 634.344 408.056 634.344C407.139 634.344 406.339 634.184 405.656 633.864C404.995 633.565 404.419 633.107 403.928 632.488C403.459 631.869 403.043 631.123 402.68 630.248C402.339 629.352 402.04 628.328 401.784 627.176C401.571 626.259 401.347 625.491 401.112 624.872C400.877 624.232 400.589 623.752 400.248 623.432C399.907 623.091 399.448 622.92 398.872 622.92C398.488 622.92 398.04 623.005 397.528 623.176C397.037 623.325 396.525 623.603 395.992 624.008C395.459 624.392 394.925 624.925 394.392 625.608C393.88 626.291 393.421 627.144 393.016 628.168L390.264 635.016Z" fill="white"/>
<path d="M510.066 897.926C524.182 962.959 479.845 1009.85 415.63 1023.78C351.411 1037.73 291.637 1013.44 277.503 948.401C263.386 883.367 282.17 793.931 361.975 776.594C448.159 757.876 495.954 832.874 510.07 897.907L510.066 897.926Z" fill="#AF9347"/>
<path d="M394.914 917.995C435.64 909.155 462.873 875.351 455.74 842.491C448.608 809.631 409.811 790.159 369.086 798.998C328.36 807.838 301.128 841.642 308.26 874.502C315.392 907.362 354.189 926.834 394.914 917.995Z" fill="#403D3C"/>
<path d="M350.642 873.412C354.668 872.538 356.249 864.077 354.173 854.514C352.098 844.951 347.151 837.907 343.125 838.781C339.099 839.655 337.518 848.116 339.594 857.679C341.67 867.242 346.616 874.286 350.642 873.412Z" fill="#AF9347"/>
<path d="M416.762 859.068C420.788 858.194 422.369 849.733 420.294 840.17C418.218 830.607 413.272 823.563 409.246 824.437C405.22 825.311 403.639 833.772 405.714 843.335C407.79 852.898 412.736 859.942 416.762 859.068Z" fill="#AF9347"/>
<path d="M389.33 1069.71L383.891 1070.9C376.196 1072.56 369.16 1063.9 368.36 1053.18L365.722 1017.79C365.323 1012.31 368.833 1007.4 373.499 1006.38L376.803 1005.67C381.469 1004.65 386.427 1007.74 387.915 1012.98L397.601 1046.84C400.532 1057.11 397.002 1068.07 389.307 1069.73L389.33 1069.71Z" fill="#AF9347"/>
<path d="M458.612 1054.67L464.05 1053.49C471.746 1051.83 474.564 1041.03 470.837 1030.94L458.555 997.647C456.648 992.5 451.416 989.482 446.735 990.479L443.432 991.189C438.766 992.209 435.548 997.054 436.344 1002.46L441.554 1037.29C443.126 1047.85 450.911 1056.35 458.588 1054.69L458.612 1054.67Z" fill="#AF9347"/>
<path d="M497.769 867.338C497.769 867.338 518.802 813.952 530.372 804.947C536.877 799.862 551.273 801.333 554.904 815.629C560.735 838.647 503.537 882.161 503.537 882.161C503.537 882.161 494.81 885.034 497.77 867.357L497.769 867.338Z" fill="#AF9347"/>
<path d="M288.214 934.969C288.214 934.969 269.171 989.074 257.943 998.531C251.629 1003.84 237.19 1002.91 233.034 988.761C226.355 965.98 281.907 920.393 281.907 920.393C281.907 920.393 290.522 917.189 288.227 934.983L288.214 934.969Z" fill="#AF9347"/>
<rect y="911" width="10" height="224" fill="#B7B7B7"/>
<rect x="158" y="911" width="10" height="224" fill="#B7B7B7"/>
<rect x="316" y="911" width="10" height="224" fill="#B7B7B7"/>
<rect x="474" y="911" width="10" height="224" fill="#B7B7B7"/>
<rect x="632" y="910" width="10" height="224" fill="#B7B7B7"/>
<path d="M162 915C162 960.287 126.63 997 83 997C39.3695 997 4 960.287 4 915" stroke="#CDB166" stroke-width="6"/>
<path d="M320 915C320 960.287 284.63 997 241 997C197.37 997 162 960.287 162 915" stroke="#CDB166" stroke-width="6"/>
<path d="M478 915C478 960.287 442.63 997 399 997C355.37 997 320 960.287 320 915" stroke="#CDB166" stroke-width="6"/>
<path d="M636 915C636 960.287 600.63 997 557 997C513.37 997 478 960.287 478 915" stroke="#CDB166" stroke-width="6"/>
</svg>
