<svg width="188" height="188" viewBox="0 0 188 188" fill="none" xmlns="http://www.w3.org/2000/svg">
<path d="M185.565 90.1987C183.859 79.5277 175.389 72.5649 166.653 74.6512C166.653 74.6512 161.834 75.8038 155.105 77.4102V43.0084C155.105 38.9246 151.793 35.6179 147.715 35.6179H109.896L113.301 21.3481C116.17 10.4424 103.605 0.0425938 90.2063 2.43132C79.535 4.13681 72.572 12.6069 74.6583 21.3429C74.6583 21.3429 76.1291 27.4973 78.0641 35.6127H40.292C36.2081 35.6127 32.9014 38.9246 32.9014 43.0031V77.4467L21.3538 74.6877C10.4478 71.8243 0.0476643 84.3938 2.43646 97.7926C4.14199 108.464 12.6123 115.426 21.3486 113.34C21.3486 113.34 26.1679 112.188 32.8962 110.581V144.983C32.8962 149.067 36.2081 152.373 40.2868 152.373H78.1059L74.7 166.643C71.8366 177.544 84.4012 187.944 97.8004 185.555C108.472 183.849 115.435 175.379 113.348 166.643C113.348 166.643 111.878 160.489 109.943 152.373H147.72C151.804 152.373 155.111 149.062 155.111 144.983V110.539L166.658 113.298C177.559 116.162 187.959 103.598 185.57 90.1987H185.565Z" fill="#D95882"/>
<path d="M32.8962 108.495C33.3604 108.495 33.8194 108.651 34.1897 108.943C34.6904 109.34 34.9825 109.945 34.9825 110.581V144.983C34.9825 147.909 37.3608 150.287 40.2869 150.287H78.059C78.6953 150.287 79.3212 150.579 79.7176 151.08C80.114 151.581 80.2809 152.238 80.1296 152.858L76.7238 167.128C75.738 170.873 76.8437 174.685 79.8167 177.914C84.0153 182.467 90.9313 184.658 97.4301 183.5C102.656 182.665 107.069 180.042 109.567 176.302C111.466 173.46 112.071 170.289 111.314 167.128L107.908 152.858C107.762 152.238 107.908 151.581 108.3 151.08C108.696 150.579 109.301 150.287 109.937 150.287H147.709C149.665 150.287 151.371 149.223 152.294 147.643C152.56 146.615 152.8 145.567 153.019 144.503V110.581C153.019 110.242 153.108 109.903 153.264 109.606C148.993 81.812 133.429 55.5621 98.588 52.0677C61.7286 48.3699 38.6335 78.2759 30.2727 109.063L32.4111 108.552C32.5728 108.516 32.7345 108.495 32.8962 108.495Z" fill="#494645"/>
<path d="M131.839 105.66C133.636 87.7475 117.098 71.4205 94.8996 69.1931C72.7011 66.9657 53.2486 79.6814 51.4512 97.5944C49.6537 115.507 66.1919 131.834 88.3903 134.062C110.589 136.289 130.041 123.573 131.839 105.66Z" fill="white"/>
<path d="M75.5582 98.9238C76.111 93.4152 74.9489 88.788 72.9626 88.5887C70.9764 88.3894 68.9181 92.6934 68.3654 98.202C67.8126 103.711 68.9747 108.338 70.9609 108.537C72.9472 108.736 75.0054 104.432 75.5582 98.9238Z" fill="#45353A"/>
<path d="M108.978 102.279C109.531 96.7702 108.369 92.143 106.382 91.9437C104.396 91.7444 102.338 96.0484 101.785 101.557C101.232 107.066 102.394 111.693 104.381 111.892C106.367 112.091 108.425 107.787 108.978 102.279Z" fill="#45353A"/>
<path d="M93.8522 187.996C87.3378 187.996 81.0372 185.393 76.7551 180.746C72.8381 176.501 71.3569 171.17 72.6817 166.122L75.4616 154.47H40.2869C35.0608 154.47 30.81 150.22 30.81 144.994V113.236L21.8338 115.38C17.5778 116.397 13.1496 115.567 9.37346 113.043C4.6689 109.903 1.39344 104.469 0.381589 98.1317C-1.03708 90.1832 1.59685 81.9739 7.25589 76.7584C11.5015 72.8415 16.8319 71.3603 21.8859 72.685L30.8152 74.8182V43.0189C30.8152 37.7929 35.066 33.5422 40.2921 33.5422H75.4251L72.6347 21.8438C71.6176 17.5879 72.447 13.1599 74.9714 9.38379C78.1112 4.67935 83.546 1.40398 89.883 0.38695C97.837 -1.03168 106.041 1.60217 111.257 7.26106C115.174 11.5065 116.655 16.8368 115.33 21.8907L112.55 33.5422H147.725C152.951 33.5422 157.202 37.7929 157.202 43.0189V74.7765L166.178 72.6329C170.434 71.6158 174.862 72.4451 178.639 74.9694C183.338 78.1092 186.613 83.5334 187.631 89.8598C189.044 97.8397 186.415 106.039 180.761 111.254C176.516 115.171 171.185 116.652 166.137 115.327L157.207 113.194V144.994C157.207 150.22 152.957 154.47 147.73 154.47H112.597L115.393 166.169C116.41 170.425 115.581 174.853 113.056 178.629C109.917 183.333 104.482 186.608 98.1447 187.625C96.7208 187.881 95.2865 188.001 93.8678 188.001L93.8522 187.996ZM32.8963 108.495C33.3605 108.495 33.8195 108.652 34.1898 108.944C34.6905 109.34 34.9826 109.945 34.9826 110.581V144.983C34.9826 147.909 37.3609 150.287 40.2869 150.287H78.059C78.6954 150.287 79.3212 150.579 79.7176 151.08C80.114 151.581 80.2809 152.238 80.1297 152.859L76.7238 167.128C75.7381 170.873 76.8438 174.686 79.8167 177.914C84.0154 182.467 90.9314 184.658 97.4302 183.5C102.656 182.665 107.069 180.042 109.567 176.303C111.466 173.46 112.071 170.289 111.314 167.128L107.909 152.859C107.762 152.238 107.909 151.581 108.3 151.08C108.696 150.579 109.301 150.287 109.937 150.287H147.71C150.636 150.287 153.014 147.909 153.014 144.983V110.581C153.014 109.945 153.306 109.319 153.807 108.923C154.307 108.526 154.965 108.365 155.585 108.511L167.133 111.27C170.878 112.25 174.696 111.15 177.919 108.177C182.472 103.978 184.663 97.0625 183.505 90.5639C183.505 90.5535 183.505 90.5379 183.5 90.5274C182.67 85.338 180.047 80.9256 176.307 78.4273C173.465 76.5289 170.294 75.9239 167.133 76.6801L155.585 79.4392C154.965 79.5852 154.307 79.4392 153.807 79.048C153.306 78.6516 153.014 78.0466 153.014 77.4103V43.0085C153.014 40.0826 150.636 37.7043 147.71 37.7043H109.937C109.301 37.7043 108.675 37.4122 108.279 36.9115C107.882 36.4108 107.716 35.7536 107.867 35.133L111.273 20.8632C112.258 17.1185 111.153 13.3007 108.18 10.0775C103.981 5.52427 97.0651 3.32852 90.5663 4.49159C85.3402 5.32608 80.9277 7.94951 78.4294 11.6891C76.5308 14.5315 75.9258 17.7026 76.6821 20.8632L80.088 35.133C80.234 35.7536 80.088 36.4108 79.6968 36.9115C79.3004 37.4122 78.6954 37.7043 78.059 37.7043H40.2869C37.3609 37.7043 34.9826 40.0826 34.9826 43.0085V77.4103C34.9826 78.0466 34.6905 78.6725 34.1898 79.0689C33.6891 79.4652 33.0319 79.6321 32.4112 79.4809L20.8637 76.7219C17.1188 75.7361 13.3061 76.8418 10.0776 79.8147C5.52427 84.0132 3.33368 90.929 4.49156 97.4276C5.32608 102.654 7.94957 107.066 11.6892 109.564C14.5318 111.463 17.7029 112.068 20.8637 111.311L32.4112 108.552C32.5729 108.516 32.7346 108.495 32.8963 108.495Z" fill="#AF9347"/>
<path d="M187.625 89.8492C186.608 83.5227 183.333 78.0933 178.633 74.9588C174.857 72.4344 170.429 71.6052 166.173 72.6222L157.197 74.7658V43.0083C157.197 37.7823 152.946 33.5316 147.72 33.5316H112.545L115.325 21.88C116.655 16.8261 115.169 11.4958 111.252 7.25038C106.031 1.5915 97.8265 -1.03714 89.8777 0.376273C83.5459 1.38809 78.1111 4.66868 74.966 9.37311C72.4416 13.1492 71.6124 17.5772 72.6294 21.8331L75.4198 33.5316H40.2868C35.0607 33.5316 30.8099 37.7823 30.8099 43.0083V74.8075L21.8806 72.6743C16.8318 71.3444 11.4962 72.8308 7.25058 76.7477C1.59154 81.9685 -1.03717 90.1725 0.376284 98.1211C1.38813 104.453 4.66881 109.887 9.36815 113.032C13.1443 115.557 17.5725 116.386 21.8285 115.369L29.1357 113.622C29.4747 112.104 29.8554 110.581 30.2675 109.063L20.8583 111.311C17.6976 112.067 14.5265 111.462 11.6839 109.564C7.94427 107.066 5.32077 102.653 4.48626 97.4274C3.32837 90.9288 5.51897 84.013 10.0723 79.8144C13.2956 76.8416 17.1083 75.7359 20.8583 76.7216L32.4059 79.4806C33.0266 79.6267 33.6838 79.465 34.1845 79.0686C34.6852 78.6722 34.9773 78.0464 34.9773 77.4101V43.0083C34.9773 40.0823 37.3556 37.704 40.2816 37.704H78.0537C78.6901 37.704 79.2951 37.412 79.6915 36.9113C80.0879 36.4106 80.2339 35.7534 80.0827 35.1328L76.6768 20.863C75.9205 17.7024 76.5255 14.5313 78.4241 11.6888C80.9224 7.94926 85.3349 5.32584 90.561 4.49135C97.0598 3.33349 103.976 5.52403 108.174 10.0772C111.147 13.3004 112.253 17.113 111.267 20.863L107.861 35.1328C107.715 35.7534 107.877 36.4106 108.274 36.9113C108.67 37.412 109.296 37.704 109.932 37.704H147.704C150.63 37.704 153.009 40.0823 153.009 43.0083V77.4101C153.009 78.0464 153.301 78.6514 153.801 79.0478C154.302 79.4441 154.959 79.585 155.58 79.4389L167.128 76.6799C170.288 75.9236 173.459 76.5286 176.302 78.4271C180.042 80.9254 182.665 85.3377 183.494 90.5272C183.494 90.5376 183.494 90.5533 183.5 90.5637C184.657 97.0623 182.467 103.978 177.914 108.177C174.69 111.15 170.872 112.25 167.128 111.269L155.58 108.51C154.959 108.364 154.302 108.526 153.801 108.922C153.567 109.105 153.384 109.345 153.254 109.606C154.74 119.286 154.86 129.148 153.942 138.307C153.728 140.44 153.415 142.505 153.009 144.503V144.983C153.009 145.953 152.743 146.86 152.284 147.643C151.694 149.901 150.985 152.06 150.156 154.126C154.193 153.041 157.176 149.359 157.176 144.983V113.184L166.105 115.317C171.154 116.647 176.49 115.16 180.73 111.243C186.384 106.028 189.018 97.829 187.599 89.8492H187.625Z" fill="#AF9347"/>
<path d="M147.715 150.292H109.942C109.306 150.292 108.701 150.584 108.305 151.085C107.908 151.586 107.762 152.243 107.914 152.864L111.319 167.133C112.076 170.294 111.471 173.465 109.572 176.307C107.074 180.047 102.661 182.67 97.4352 183.505C90.9364 184.663 84.0204 182.472 79.8218 177.919C76.8488 174.696 75.7483 170.883 76.7288 167.133L80.1347 152.864C80.2807 152.243 80.1191 151.586 79.7227 151.085C79.3263 150.584 78.7004 150.292 78.0641 150.292H40.292C37.3659 150.292 34.9876 147.914 34.9876 144.988V110.586C34.9876 109.95 34.6955 109.345 34.1948 108.949C33.8245 108.656 33.3655 108.5 32.9013 108.5C32.7396 108.5 32.5779 108.521 32.4162 108.557L30.2778 109.069C29.8658 110.586 29.485 112.109 29.146 113.627L30.815 113.231V144.988C30.815 150.214 35.0658 154.465 40.292 154.465H75.4666L72.6867 166.116C71.3567 171.165 72.8431 176.5 76.7601 180.741C79.4619 183.667 82.9564 185.784 86.8056 186.947C91.6562 187.344 96.4077 187.354 101.003 186.973C106.093 185.539 110.391 182.592 113.046 178.613C115.57 174.837 116.399 170.409 115.382 166.153L112.587 154.454H147.72C148.57 154.454 149.394 154.329 150.176 154.12C151 152.055 151.715 149.896 152.304 147.638C151.386 149.218 149.676 150.282 147.72 150.282L147.715 150.292Z" fill="#AF9347"/>
<path d="M120.233 155.357C120.598 152.827 130.508 125.367 147.49 142.026C147.49 142.026 156.341 151.409 134.394 164.161C124.166 170.101 119.863 157.886 120.233 155.357Z" fill="#494645"/>
<path d="M65.2179 155.518C64.8528 152.989 55.3655 125.367 38.3832 142.026C38.3832 142.026 29.5321 151.408 51.4798 164.16C61.7078 170.101 65.583 158.048 65.2127 155.518H65.2179Z" fill="#494645"/>
</svg>
