<svg width="186" height="189" viewBox="0 0 186 189" fill="none" xmlns="http://www.w3.org/2000/svg">
<path d="M146.836 88.6103C152.198 124.813 126.018 148.933 90.1156 154.267C54.2124 159.595 22.173 144.114 16.8122 107.916C11.4504 71.7137 25.1315 23.3138 69.7474 16.6906C117.931 9.53664 141.474 52.4075 146.836 88.6103Z" fill="#494645"/>
<path d="M116.489 61.6712C113.781 43.3804 93.1277 31.2933 70.3589 34.6738C47.59 38.0544 31.3275 55.6225 34.0354 73.9133C36.7433 92.2041 57.3963 104.291 80.1651 100.911C102.934 97.5302 119.197 79.9621 116.489 61.6712Z" fill="white"/>
<path d="M61.9507 69.7665C60.881 62.5413 57.891 56.9994 55.2723 57.3882C52.6536 57.777 51.3978 63.9493 52.4675 71.1745C53.5372 78.3997 56.5272 83.9416 59.1459 83.5528C61.7646 83.164 63.0204 76.9917 61.9507 69.7665Z" fill="#45353A"/>
<path d="M96.0289 64.2222C95.1963 58.5982 92.8686 54.2845 90.8298 54.5872C88.7909 54.8899 87.8131 59.6944 88.6457 65.3184C89.4784 70.9423 91.8061 75.2561 93.8449 74.9534C95.8837 74.6507 96.8616 69.8461 96.0289 64.2222Z" fill="#45353A"/>
<path d="M75.4165 179.528L72.4046 180.137C68.1434 180.996 64.3309 176.18 63.9822 170.271L62.8349 150.794C62.6577 147.78 64.6454 145.099 67.2306 144.578L69.0601 144.21C71.6508 143.689 74.3509 145.423 75.1358 148.313L80.1944 167.005C81.7254 172.673 79.6721 178.671 75.411 179.529L75.4165 179.528Z" fill="#494645"/>
<path d="M125.276 169.64L128.231 168.798C132.41 167.604 133.581 161.58 131.174 156.173L123.232 138.343C122.006 135.585 119.011 134.117 116.47 134.839L114.675 135.353C112.136 136.08 110.532 138.862 111.164 141.787L115.266 160.711C116.51 166.452 121.092 170.834 125.27 169.641L125.276 169.64Z" fill="#494645"/>
<path d="M133.81 79.1533C133.81 79.1533 164.977 84.7535 171.105 90.0302C174.552 92.9963 175.297 100.914 167.941 104.409C156.098 110.03 126.399 83.8604 126.399 83.8604C126.399 83.8604 123.904 79.4682 133.805 79.1599L133.81 79.1533Z" fill="#494645"/>
<path d="M30.0945 121.868C30.0945 121.868 22.8435 128.708 19.0328 122.266C15.2222 115.824 15.0389 105.474 21.6269 103.879C28.2149 102.284 33.8532 118.342 30.0945 121.868Z" fill="#494645"/>
<path d="M55.3627 92.0811L48.6179 91.0835C47.123 90.8624 45.729 91.8901 45.5044 93.379L40.2829 127.986C40.0583 129.475 41.088 130.861 42.5829 131.082L49.3278 132.08C50.8227 132.301 52.2167 131.273 52.4413 129.784L57.6628 95.1774C57.8874 93.6885 56.8577 92.3022 55.3627 92.0811Z" fill="#AF9347"/>
<path d="M41.5205 101.251C41.5205 101.251 51.3202 99.3417 51.0626 106.814C50.8115 114.291 45.3968 123.136 38.981 120.97C32.5653 118.803 36.4557 102.22 41.5205 101.251Z" fill="#494645"/>
<path d="M48.6113 34.6498C30.9037 38.0993 19.3308 55.1869 22.7644 72.813C26.198 90.4392 43.3387 101.933 61.0463 98.4839C78.7538 95.0344 90.3268 77.9468 86.8932 60.3206C83.4596 42.6945 66.3188 31.2003 48.6113 34.6498ZM59.4565 90.3231C46.2787 92.8902 33.5192 84.3387 30.9628 71.216C28.4065 58.0932 37.0177 45.3787 50.201 42.8106C63.3843 40.2424 76.1384 48.795 78.6947 61.9177C81.2511 75.0404 72.6399 87.755 59.4565 90.3231Z" fill="#AF9347"/>
</svg>
