<svg width="247" height="33" viewBox="0 0 247 33" fill="none" xmlns="http://www.w3.org/2000/svg">
<path d="M9.2522 31.428C6.2762 31.428 3.9842 30.804 2.3762 29.556C0.792195 28.308 0.000195339 26.532 0.000195339 24.228C0.000195339 21.876 0.792195 20.088 2.3762 18.864C3.9602 17.64 6.2522 17.028 9.2522 17.028C10.8362 17.028 12.4202 17.208 14.0042 17.568C15.5882 17.904 17.2322 18.468 18.9362 19.26C20.6642 20.028 22.5242 21.036 24.5162 22.284C26.5322 23.532 28.7402 25.056 31.1402 26.856L28.2602 30.204C25.5482 28.068 23.0762 26.328 20.8442 24.984C18.6362 23.64 16.5842 22.656 14.6882 22.032C12.8162 21.408 11.0042 21.096 9.2522 21.096C7.6682 21.096 6.4922 21.348 5.7242 21.852C4.9562 22.356 4.5722 23.148 4.5722 24.228C4.5722 26.292 6.0482 27.324 9.0002 27.324C10.6802 27.324 11.8922 26.988 12.6362 26.316C13.4042 25.644 13.7882 24.588 13.7882 23.148V0.323975H18.6122V5.97598H31.0682V10.044H18.6122V23.148C18.6122 25.956 17.8442 28.032 16.3082 29.376C14.7962 30.744 12.4442 31.428 9.2522 31.428ZM60.2642 32.94C58.6562 31.788 57.1802 30.756 55.8362 29.844C54.4922 28.932 53.2082 28.092 51.9842 27.324C50.7602 26.532 49.5362 25.764 48.3122 25.02C47.0882 24.252 45.7922 23.448 44.4242 22.608C42.9842 21.744 41.8202 21.024 40.9322 20.448C40.0682 19.872 39.4082 19.368 38.9522 18.936C38.4962 18.48 38.1842 18.036 38.0162 17.604C37.8482 17.172 37.7642 16.656 37.7642 16.056C37.7642 15.456 37.8482 14.928 38.0162 14.472C38.2082 13.992 38.5442 13.536 39.0242 13.104C39.5042 12.648 40.1882 12.144 41.0762 11.592C41.9642 11.016 43.1282 10.332 44.5682 9.53998C45.9842 8.74798 47.5202 7.87198 49.1762 6.91198C50.8322 5.95198 52.5242 4.94398 54.2522 3.88798C56.0042 2.80798 57.6842 1.71598 59.2922 0.611976L62.0282 4.49997C61.0682 5.14798 60.0122 5.81998 58.8602 6.51597C57.7322 7.21198 56.5922 7.89598 55.4402 8.56798C54.2882 9.21598 53.1842 9.83998 52.1282 10.44C51.0722 11.04 50.1122 11.58 49.2482 12.06C48.4082 12.516 47.7362 12.876 47.2322 13.14C46.1762 13.716 45.3602 14.172 44.7842 14.508C44.2322 14.844 43.8362 15.132 43.5962 15.372C43.3802 15.588 43.2722 15.816 43.2722 16.056C43.2722 16.296 43.3442 16.524 43.4882 16.74C43.6562 16.932 43.9922 17.184 44.4962 17.496C45.0002 17.784 45.7922 18.24 46.8722 18.864C47.4242 19.176 48.1562 19.596 49.0682 20.124C50.0042 20.652 51.0482 21.264 52.2002 21.96C53.3522 22.632 54.5522 23.364 55.8002 24.156C57.0722 24.948 58.3322 25.764 59.5802 26.604C60.8522 27.42 62.0402 28.224 63.1442 29.016L60.2642 32.94ZM87.6602 31.5C84.9482 31.5 82.8242 30.864 81.2882 29.592C79.7762 28.32 79.0202 26.568 79.0202 24.336C79.0202 22.08 79.7882 20.328 81.3242 19.08C82.8842 17.808 85.0682 17.172 87.8762 17.172C89.0282 17.172 90.1922 17.364 91.3682 17.748C92.5442 18.108 93.7562 18.672 95.0042 19.44C96.2762 20.208 97.6082 21.192 99.0002 22.392C100.416 23.592 101.94 25.02 103.572 26.676L100.656 29.88C98.7362 27.984 97.1282 26.448 95.8322 25.272C94.5602 24.096 93.4682 23.208 92.5562 22.608C91.6682 21.984 90.8642 21.564 90.1442 21.348C89.4482 21.132 88.6922 21.024 87.8762 21.024C86.3882 21.024 85.2962 21.288 84.6002 21.816C83.9282 22.32 83.5922 23.112 83.5922 24.192C83.5922 25.296 83.9282 26.124 84.6002 26.676C85.2962 27.228 86.3162 27.504 87.6602 27.504C89.1242 27.504 90.2282 27.192 90.9722 26.568C91.7162 25.92 92.0882 24.996 92.0882 23.796V5.07598C94.2242 5.07598 96.2162 5.11198 98.0642 5.18397C99.9122 5.23198 101.724 5.31598 103.5 5.43598L103.248 9.64798C101.688 9.52798 100.032 9.44398 98.2802 9.39598C96.5522 9.32398 94.7282 9.28798 92.8082 9.28798L96.7682 6.22798V23.328C96.7682 26.016 96.0002 28.044 94.4642 29.412C92.9522 30.804 90.6842 31.5 87.6602 31.5ZM70.9922 25.776C72.0242 22.944 72.9602 20.136 73.8002 17.352C74.6642 14.568 75.4682 11.748 76.2122 8.89198C76.9562 6.01198 77.6522 3.04798 78.3002 -2.5034e-05L82.8722 0.431976C82.2242 3.52798 81.5162 6.57598 80.7482 9.57598C80.0042 12.552 79.1882 15.492 78.3002 18.396C77.4362 21.3 76.4762 24.192 75.4202 27.072L70.9922 25.776ZM70.7402 9.28798V5.07598H88.9562V9.28798H70.7402ZM122.22 31.788C118.644 31.788 115.86 31.2 113.868 30.024C111.9 28.848 110.916 27.192 110.916 25.056C110.916 23.256 111.66 21.852 113.148 20.844C114.66 19.812 116.748 19.296 119.412 19.296C121.86 19.296 123.696 19.752 124.92 20.664C126.144 21.552 126.756 22.896 126.756 24.696C126.756 25.344 126.672 26.04 126.504 26.784C126.336 27.504 126.084 28.248 125.748 29.016L121.464 28.548C121.8 27.78 122.04 27.12 122.184 26.568C122.328 26.016 122.4 25.536 122.4 25.128C122.4 23.64 121.284 22.896 119.052 22.896C117.9 22.896 117.012 23.088 116.388 23.472C115.764 23.832 115.452 24.348 115.452 25.02C115.452 25.98 115.992 26.724 117.072 27.252C118.176 27.78 119.7 28.044 121.644 28.044C125.388 28.044 128.16 27.504 129.96 26.424C131.784 25.32 132.696 23.64 132.696 21.384C132.696 19.44 131.976 18.024 130.536 17.136C129.12 16.248 126.828 15.804 123.66 15.804C121.86 15.804 120.264 15.96 118.872 16.272C117.504 16.56 116.232 17.04 115.056 17.712L110.412 20.304L108.468 16.632L128.304 5.86797V6.58798H110.592V2.48398H135.468V6.58798L117.648 16.236L115.128 14.148C115.896 13.86 116.76 13.608 117.72 13.392C118.704 13.152 119.712 12.948 120.744 12.78C121.776 12.612 122.772 12.48 123.732 12.384C124.692 12.264 125.556 12.204 126.324 12.204C129.948 12.204 132.732 12.972 134.676 14.508C136.62 16.044 137.592 18.24 137.592 21.096C137.592 24.504 136.26 27.144 133.596 29.016C130.932 30.864 127.14 31.788 122.22 31.788ZM144.504 32.544L141.336 28.548C141.84 27.516 142.272 26.448 142.632 25.344C143.016 24.24 143.328 23.04 143.568 21.744C143.808 20.424 143.988 18.96 144.108 17.352C144.228 15.744 144.288 13.908 144.288 11.844V0.935976H173.124V9.93598H147.636V6.65998H168.408V4.42798H148.716V15.12C148.716 16.968 148.62 18.708 148.428 20.34C148.26 21.948 147.996 23.472 147.636 24.912C147.3 26.328 146.868 27.672 146.34 28.944C145.812 30.192 145.2 31.392 144.504 32.544ZM147.24 32.652L146.808 28.944C149.472 28.752 152.208 28.476 155.016 28.116C157.824 27.756 160.644 27.3 163.476 26.748L163.944 30.312C162.048 30.696 160.164 31.044 158.292 31.356C156.42 31.668 154.56 31.92 152.712 32.112C150.864 32.328 149.04 32.508 147.24 32.652ZM151.38 30.852V22.068H146.196V18.468H153.108V9.57598H157.608V18.468H164.448V15.696H149.328V12.204H164.448V9.57598H169.056V12.204H172.944V15.696H169.056V18.468H174.384V22.068H156.168V30.852H151.38ZM172.872 32.832C170.856 32.28 168.912 31.44 167.04 30.312C165.192 29.208 163.524 27.888 162.036 26.352C160.548 24.816 159.336 23.124 158.4 21.276L162.972 20.376C163.98 22.464 165.456 24.252 167.4 25.74C169.344 27.204 171.816 28.356 174.816 29.196L172.872 32.832ZM168.264 28.152L165.024 25.92C166.032 25.296 166.98 24.624 167.868 23.904C168.78 23.184 169.632 22.44 170.424 21.672L173.952 23.76C173.112 24.552 172.212 25.32 171.252 26.064C170.292 26.808 169.296 27.504 168.264 28.152ZM194.256 31.428C189.72 31.428 186.276 30.72 183.924 29.304C181.596 27.864 180.432 25.764 180.432 23.004C180.432 20.676 181.284 18.564 182.988 16.668C184.716 14.748 187.392 12.984 191.016 11.376C194.664 9.76798 199.332 8.24398 205.02 6.80398L206.136 11.124C201.408 12.324 197.508 13.536 194.436 14.76C191.388 15.984 189.132 17.244 187.668 18.54C186.204 19.836 185.472 21.216 185.472 22.68C185.472 25.632 188.496 27.108 194.544 27.108C195.528 27.108 196.572 27.06 197.676 26.964C198.78 26.868 200.028 26.736 201.42 26.568C202.836 26.376 204.48 26.124 206.352 25.812L206.928 30.168C204.576 30.576 202.344 30.888 200.232 31.104C198.12 31.32 196.128 31.428 194.256 31.428ZM187.164 15.372C186.468 12.996 185.88 10.668 185.4 8.38798C184.92 6.10798 184.536 3.86398 184.248 1.65598L189.144 0.899976C189.456 3.13198 189.852 5.36398 190.332 7.59598C190.812 9.80398 191.388 12.012 192.06 14.22L187.164 15.372ZM231.372 30.816C228.756 30.816 226.704 30.216 225.216 29.016C223.728 27.792 222.984 26.112 222.984 23.976C222.984 21.816 223.716 20.136 225.18 18.936C226.668 17.736 228.732 17.136 231.372 17.136C232.524 17.136 233.616 17.28 234.648 17.568C235.704 17.832 236.796 18.324 237.924 19.044C239.052 19.74 240.324 20.712 241.74 21.96C243.156 23.184 244.812 24.744 246.708 26.64L243.792 29.808C242.064 28.056 240.576 26.628 239.328 25.524C238.104 24.396 237.036 23.52 236.124 22.896C235.212 22.272 234.36 21.84 233.568 21.6C232.776 21.336 231.972 21.204 231.156 21.204C228.588 21.204 227.304 22.128 227.304 23.976C227.304 25.824 228.588 26.748 231.156 26.748C232.548 26.748 233.532 26.46 234.108 25.884C234.684 25.308 234.972 24.348 234.972 23.004V0.683975H239.688V23.256C239.688 25.728 238.98 27.612 237.564 28.908C236.148 30.18 234.084 30.816 231.372 30.816ZM223.236 10.296V6.22798H246.132V10.296H223.236ZM216.36 31.392C215.76 28.92 215.316 26.484 215.028 24.084C214.74 21.66 214.596 19.104 214.596 16.416C214.596 13.752 214.74 11.22 215.028 8.81998C215.316 6.39597 215.748 3.94797 216.324 1.47598L221.112 2.05197C220.536 4.37997 220.104 6.73197 219.816 9.10798C219.552 11.46 219.42 13.896 219.42 16.416C219.42 18.936 219.552 21.384 219.816 23.76C220.104 26.136 220.536 28.464 221.112 30.744L216.36 31.392Z" fill="#4F3636"/>
</svg>
