<svg width="349" height="167" viewBox="0 0 349 167" fill="none" xmlns="http://www.w3.org/2000/svg">
<path d="M14.9995 21.552C14.2315 21.552 13.6395 21.408 13.2235 21.12C12.8235 20.848 12.6235 20.352 12.6235 19.632V0.647976H14.8555V8.37598C15.5115 7.99198 16.1915 7.56798 16.8955 7.10398C17.5995 6.63998 18.2635 6.16798 18.8875 5.68798C19.5275 5.20798 20.0475 4.76798 20.4475 4.36798L22.1035 5.97598C21.5595 6.47198 20.8635 7.01598 20.0155 7.60798C19.1835 8.18398 18.3115 8.74398 17.3995 9.28798C16.4875 9.83198 15.6395 10.296 14.8555 10.68V18.624C14.8555 18.912 14.9195 19.128 15.0475 19.272C15.1755 19.4 15.4315 19.464 15.8155 19.464H18.3115C18.7915 19.464 19.1595 19.384 19.4155 19.224C19.6875 19.048 19.8955 18.704 20.0395 18.192C20.1835 17.664 20.2955 16.888 20.3755 15.864C20.5835 16.024 20.9035 16.192 21.3355 16.368C21.7675 16.528 22.1195 16.64 22.3915 16.704C22.2315 18.032 22.0075 19.048 21.7195 19.752C21.4475 20.456 21.0795 20.928 20.6155 21.168C20.1675 21.424 19.5915 21.552 18.8875 21.552H14.9995ZM7.27153 21.864V16.608C6.67953 16.88 5.98353 17.184 5.18353 17.52C4.38353 17.856 3.59953 18.176 2.83153 18.48C2.06353 18.768 1.41553 19.008 0.887531 19.2L-0.000469357 17.16C0.415531 17.032 0.943531 16.856 1.58353 16.632C2.23953 16.392 2.91953 16.136 3.62353 15.864C4.34353 15.592 5.02353 15.32 5.66353 15.048C6.30353 14.776 6.83953 14.536 7.27153 14.328V8.59198H0.791531V6.40798H7.27153V0.647976H9.52753V21.864H7.27153ZM37.6315 22.44C37.6155 22.168 37.5595 21.824 37.4635 21.408C37.3675 21.008 37.2795 20.704 37.1995 20.496H38.8315C39.4395 20.496 39.8395 20.424 40.0315 20.28C40.2235 20.12 40.3755 19.792 40.4875 19.296C40.5195 19.2 40.5515 19.072 40.5835 18.912H30.6235C30.7675 18.256 30.9115 17.472 31.0555 16.56C31.2155 15.648 31.3595 14.688 31.4875 13.68H29.2315V11.808H31.7275C31.8395 10.896 31.9275 10.008 31.9915 9.14398C32.0715 8.27998 32.1195 7.51198 32.1355 6.83998H43.5595C43.5595 8.51998 43.5115 10.176 43.4155 11.808H45.9835V13.68H43.2955C43.2475 14.288 43.1995 14.88 43.1515 15.456C43.1035 16.016 43.0475 16.544 42.9835 17.04H45.6715V18.912H42.7435C42.6795 19.296 42.6075 19.632 42.5275 19.92C42.3195 20.848 41.9355 21.496 41.3755 21.864C40.8315 22.248 40.0875 22.44 39.1435 22.44H37.6315ZM30.4555 8.25598C30.3435 8.14398 30.1755 8.00798 29.9515 7.84798C29.7275 7.67198 29.4955 7.50398 29.2555 7.34398C29.0315 7.18398 28.8395 7.07998 28.6795 7.03198C29.2715 6.51998 29.8635 5.88798 30.4555 5.13598C31.0635 4.36798 31.6235 3.54398 32.1355 2.66398C32.6475 1.76798 33.0555 0.879976 33.3595 -2.43187e-05L35.4475 0.719975C35.1435 1.50398 34.7835 2.27998 34.3675 3.04798H45.4075V4.94398H33.2395C32.8235 5.56798 32.3755 6.15998 31.8955 6.71998C31.4315 7.27998 30.9515 7.79198 30.4555 8.25598ZM25.5355 21.672L23.6635 20.328C23.9995 19.88 24.3595 19.336 24.7435 18.696C25.1435 18.056 25.5275 17.384 25.8955 16.68C26.2795 15.976 26.6235 15.288 26.9275 14.616C27.2315 13.944 27.4635 13.352 27.6235 12.84C27.7195 12.92 27.8715 13.056 28.0795 13.248C28.3035 13.424 28.5355 13.6 28.7755 13.776C29.0155 13.952 29.2075 14.08 29.3515 14.16C29.1915 14.656 28.9595 15.24 28.6555 15.912C28.3675 16.568 28.0315 17.256 27.6475 17.976C27.2795 18.68 26.9115 19.36 26.5435 20.016C26.1755 20.656 25.8395 21.208 25.5355 21.672ZM27.5035 10.752C27.2155 10.48 26.8315 10.176 26.3515 9.83998C25.8715 9.48798 25.3755 9.15998 24.8635 8.85598C24.3515 8.53598 23.9035 8.29598 23.5195 8.13598L24.5995 6.40798C25.2715 6.71198 25.9995 7.09598 26.7835 7.55998C27.5675 8.02398 28.2235 8.48798 28.7515 8.95198C28.6395 9.07998 28.4955 9.26398 28.3195 9.50398C28.1595 9.72798 27.9995 9.95998 27.8395 10.2C27.6955 10.424 27.5835 10.608 27.5035 10.752ZM28.4155 5.13598C28.1275 4.87998 27.7435 4.58398 27.2635 4.24798C26.7835 3.89598 26.2875 3.56798 25.7755 3.26398C25.2635 2.94398 24.8075 2.70398 24.4075 2.54398L25.5355 0.839976C25.9515 1.01598 26.4235 1.25598 26.9515 1.55998C27.4795 1.84798 27.9835 2.15998 28.4635 2.49598C28.9595 2.81598 29.3595 3.11998 29.6635 3.40798C29.5835 3.50398 29.4555 3.67198 29.2795 3.91198C29.1035 4.13598 28.9275 4.36798 28.7515 4.60798C28.5915 4.83198 28.4795 5.00798 28.4155 5.13598ZM37.9915 17.04H40.8715C40.9355 16.544 40.9915 16.008 41.0395 15.432C41.0875 14.856 41.1355 14.272 41.1835 13.68H38.3755C38.3115 14.32 38.2475 14.936 38.1835 15.528C38.1195 16.12 38.0555 16.624 37.9915 17.04ZM33.0955 17.04H35.8315C35.9115 16.624 35.9915 16.12 36.0715 15.528C36.1515 14.936 36.2235 14.32 36.2875 13.68H33.5755C33.4955 14.32 33.4155 14.936 33.3355 15.528C33.2555 16.12 33.1755 16.624 33.0955 17.04ZM38.5435 11.808H41.3035C41.3355 11.248 41.3595 10.712 41.3755 10.2C41.3915 9.67198 41.3995 9.17598 41.3995 8.71198H38.7355C38.7195 9.17598 38.6955 9.67198 38.6635 10.2C38.6315 10.712 38.5915 11.248 38.5435 11.808ZM33.7915 11.808H36.4795C36.5275 11.216 36.5675 10.656 36.5995 10.128C36.6475 9.58398 36.6795 9.11198 36.6955 8.71198H34.0555C34.0395 9.14398 34.0075 9.62398 33.9595 10.152C33.9115 10.68 33.8555 11.232 33.7915 11.808ZM55.8475 18.264V7.05598H59.6395C59.7995 6.44798 59.9355 5.86398 60.0475 5.30398H53.9515V3.47998H58.0315C57.8235 3.06398 57.5595 2.62398 57.2395 2.15998C56.9355 1.67998 56.6475 1.27198 56.3755 0.935975L58.2235 0.119976C58.9435 1.03198 59.5515 1.96798 60.0475 2.92798L59.0635 3.47998H62.3275C62.5195 3.15998 62.7195 2.79998 62.9275 2.39998C63.1515 1.98398 63.3595 1.56798 63.5515 1.15198C63.7595 0.735976 63.9195 0.375976 64.0315 0.0719762L66.1915 0.671976C66.0315 1.02398 65.7995 1.46398 65.4955 1.99198C65.1915 2.51998 64.9035 3.01598 64.6315 3.47998H69.0955V5.30398H62.3995C62.3355 5.55998 62.2635 5.84798 62.1835 6.16798C62.1035 6.48798 62.0235 6.78398 61.9435 7.05598H67.3435V18.264H55.8475ZM61.2475 21.624C59.5995 21.624 58.2235 21.536 57.1195 21.36C56.0155 21.2 55.0795 20.936 54.3115 20.568C53.5595 20.216 52.8875 19.752 52.2955 19.176C52.0075 19.384 51.6155 19.632 51.1195 19.92C50.6235 20.208 50.1275 20.496 49.6315 20.784C49.1355 21.072 48.7355 21.32 48.4315 21.528L47.4955 19.44C47.7675 19.328 48.1435 19.168 48.6235 18.96C49.1195 18.736 49.6075 18.504 50.0875 18.264C50.5835 18.024 50.9595 17.816 51.2155 17.64V11.16H47.8795V9.21598H53.2555V17.472C53.6555 18.032 54.1675 18.48 54.7915 18.816C55.4155 19.136 56.2475 19.368 57.2875 19.512C58.3275 19.64 59.6475 19.704 61.2475 19.704C63.1835 19.704 64.8395 19.672 66.2155 19.608C67.6075 19.544 68.7755 19.456 69.7195 19.344C69.6715 19.456 69.6075 19.664 69.5275 19.968C69.4475 20.256 69.3755 20.552 69.3115 20.856C69.2475 21.16 69.2075 21.4 69.1915 21.576C68.7915 21.576 68.2715 21.576 67.6315 21.576C67.0075 21.592 66.3275 21.6 65.5915 21.6C64.8555 21.616 64.1115 21.624 63.3595 21.624C62.6075 21.624 61.9035 21.624 61.2475 21.624ZM58.0555 16.608H65.1355V14.976H58.0555V16.608ZM58.0555 13.44H65.1355V11.832H58.0555V13.44ZM58.0555 10.296H65.1355V8.68798H58.0555V10.296ZM51.9355 5.99998C51.6635 5.61598 51.3195 5.19198 50.9035 4.72798C50.4875 4.26398 50.0475 3.81598 49.5835 3.38398C49.1355 2.95198 48.7115 2.59198 48.3115 2.30398L49.7755 0.935975C50.1755 1.20798 50.6075 1.55998 51.0715 1.99198C51.5515 2.42398 52.0075 2.87198 52.4395 3.33598C52.8875 3.78398 53.2475 4.18398 53.5195 4.53598C53.4075 4.61598 53.2395 4.75198 53.0155 4.94398C52.8075 5.13598 52.5995 5.33598 52.3915 5.54398C52.1835 5.73598 52.0315 5.88798 51.9355 5.99998ZM74.7595 22.128V0.359975H76.9195V4.70398L78.1675 3.83998C78.4075 4.14398 78.6635 4.48798 78.9355 4.87198C79.2075 5.23998 79.4635 5.59998 79.7035 5.95198C79.9435 6.30398 80.1275 6.60798 80.2555 6.86398L78.7435 7.91998H84.6475V6.57598H80.3995V5.03998H84.6475V3.76798H79.2235V2.18398H84.6475V0.311976H86.8315V2.18398H92.4475V3.76798H86.8315V5.03998H91.1515V6.57598H86.8315V7.91998H93.3595V9.47998H78.3835V7.91998H78.7435C78.5355 7.51998 78.2555 7.03998 77.9035 6.47998C77.5515 5.90398 77.2235 5.41598 76.9195 5.01598V22.128H74.7595ZM80.5435 22.128V10.632H91.1755V19.92C91.1755 20.688 90.9595 21.248 90.5275 21.6C90.1115 21.952 89.4635 22.128 88.5835 22.128H86.8315C86.8155 21.824 86.7755 21.488 86.7115 21.12C86.6635 20.752 86.5835 20.424 86.4715 20.136H88.1755C88.5115 20.136 88.7275 20.088 88.8235 19.992C88.9355 19.88 88.9915 19.672 88.9915 19.368V18.048H82.7515V22.128H80.5435ZM72.7915 11.808C72.6795 11.76 72.4955 11.696 72.2395 11.616C71.9995 11.536 71.7595 11.464 71.5195 11.4C71.2955 11.32 71.1195 11.272 70.9915 11.256C71.1195 10.888 71.2395 10.424 71.3515 9.86398C71.4795 9.30398 71.5835 8.70398 71.6635 8.06398C71.7595 7.40798 71.8315 6.78398 71.8795 6.19198C71.9435 5.59998 71.9755 5.10398 71.9755 4.70398L73.8715 4.89598C73.8555 5.43998 73.8075 6.04798 73.7275 6.71998C73.6635 7.37598 73.5755 8.03998 73.4635 8.71198C73.3515 9.38398 73.2315 9.99198 73.1035 10.536C72.9915 11.08 72.8875 11.504 72.7915 11.808ZM82.7515 16.536H88.9915V15.12H82.7515V16.536ZM82.7515 13.608H88.9915V12.24H82.7515V13.608ZM106.92 22.104V0.983976H115.68V5.54398C115.68 6.42398 115.472 7.07198 115.056 7.48798C114.64 7.90398 114.008 8.11198 113.16 8.11198H111.264C111.232 7.79198 111.168 7.43198 111.072 7.03198C110.992 6.61598 110.904 6.29598 110.808 6.07198H112.704C113.024 6.07198 113.256 6.01598 113.4 5.90398C113.544 5.79198 113.616 5.58398 113.616 5.27998V2.92798H108.984V9.11998H116.112C116.016 12.08 115.328 14.704 114.048 16.992C114.512 17.584 115.032 18.144 115.608 18.672C116.184 19.184 116.792 19.656 117.432 20.088C117.272 20.232 117.04 20.48 116.736 20.832C116.448 21.184 116.232 21.472 116.088 21.696C114.872 20.864 113.816 19.888 112.92 18.768C112.52 19.296 112.08 19.8 111.6 20.28C111.136 20.744 110.624 21.176 110.064 21.576C109.952 21.448 109.792 21.272 109.584 21.048C109.376 20.84 109.176 20.656 108.984 20.496V22.104H106.92ZM99.7435 22.104V17.64H95.7355V15.792H99.7435V13.656H95.3515V11.808H97.9675C97.8235 11.376 97.6555 10.928 97.4635 10.464C97.2715 9.98398 97.0955 9.59998 96.9355 9.31198L98.7595 8.78398C98.9515 9.18398 99.1595 9.68798 99.3835 10.296C99.6075 10.888 99.7755 11.392 99.8875 11.808H101.568C101.76 11.344 101.96 10.816 102.168 10.224C102.376 9.61598 102.52 9.12798 102.6 8.75998L104.472 9.21598C104.36 9.58398 104.208 10.008 104.016 10.488C103.84 10.952 103.656 11.392 103.464 11.808H106.104V13.656H101.784V15.792H105.696V17.64H101.784V22.104H99.7435ZM95.0635 8.51998V6.67198H99.7435V4.65598H96.0475V2.87998H99.7435V0.287976H101.784V2.87998H105.432V4.65598H101.784V6.67198H106.368V8.51998H95.0635ZM108.984 19.848C110.04 19.064 110.944 18.128 111.696 17.04C110.64 15.232 109.928 13.224 109.56 11.016H108.984V19.848ZM112.824 15.096C113.416 13.8 113.792 12.44 113.952 11.016H111.432C111.56 11.752 111.736 12.464 111.96 13.152C112.2 13.824 112.488 14.472 112.824 15.096ZM120.12 22.176C120.04 22 119.912 21.776 119.736 21.504C119.576 21.232 119.4 20.968 119.208 20.712C119.016 20.456 118.856 20.272 118.728 20.16C120.056 19.696 121.288 19.072 122.424 18.288C123.576 17.504 124.584 16.608 125.448 15.6C126.328 14.592 127.032 13.512 127.56 12.36C128.104 11.192 128.448 9.99998 128.592 8.78398H119.328V6.64798H128.664V0.407976H130.968V6.64798H140.328V8.78398H131.04C131.184 9.96798 131.536 11.136 132.096 12.288C132.656 13.44 133.376 14.52 134.256 15.528C135.136 16.536 136.136 17.44 137.256 18.24C138.392 19.024 139.608 19.648 140.904 20.112C140.776 20.256 140.608 20.456 140.4 20.712C140.208 20.984 140.024 21.248 139.848 21.504C139.672 21.776 139.544 22 139.464 22.176C138.072 21.52 136.736 20.712 135.456 19.752C134.192 18.776 133.064 17.664 132.072 16.416C131.096 15.168 130.344 13.808 129.816 12.336C129.288 13.84 128.528 15.216 127.536 16.464C126.544 17.712 125.408 18.816 124.128 19.776C122.848 20.736 121.512 21.536 120.12 22.176ZM149.736 22.224C149.704 21.92 149.64 21.552 149.544 21.12C149.448 20.704 149.344 20.376 149.232 20.136H151.752C152.088 20.136 152.328 20.08 152.472 19.968C152.616 19.84 152.688 19.624 152.688 19.32V16.056H143.064V14.136H152.688V12.456H153.696C154.08 12.2 154.528 11.896 155.04 11.544C155.568 11.176 156.024 10.824 156.408 10.488H147.264V8.63998H159.504L160.464 9.57598C160.16 9.87998 159.76 10.232 159.264 10.632C158.784 11.032 158.264 11.44 157.704 11.856C157.144 12.256 156.616 12.624 156.12 12.96C155.624 13.296 155.208 13.56 154.872 13.752V14.136H164.088V16.056H154.872V19.968C154.872 21.472 154 22.224 152.256 22.224H149.736ZM143.352 10.296V4.96798H147.36C147.232 4.61598 147.048 4.22398 146.808 3.79198C146.584 3.34398 146.344 2.91198 146.088 2.49598C145.832 2.07998 145.592 1.74398 145.368 1.48798L147.24 0.599975C147.48 0.887975 147.744 1.24798 148.032 1.67998C148.32 2.11198 148.592 2.55198 148.848 2.99998C149.104 3.44798 149.296 3.83998 149.424 4.17598L147.672 4.96798H156.432C156.72 4.58398 157.04 4.10398 157.392 3.52798C157.744 2.93598 158.072 2.34398 158.376 1.75198C158.696 1.15998 158.928 0.679976 159.072 0.311976L161.28 0.911975C161.024 1.48798 160.672 2.15998 160.224 2.92798C159.792 3.67998 159.368 4.35998 158.952 4.96798H163.8V10.296H161.688V6.76798H145.44V10.296H143.352ZM152.784 4.89598C152.688 4.54398 152.528 4.12798 152.304 3.64798C152.096 3.15198 151.856 2.66398 151.584 2.18398C151.328 1.70398 151.08 1.31198 150.84 1.00798L152.832 0.263975C153.056 0.551975 153.296 0.927976 153.552 1.39198C153.824 1.85598 154.072 2.32798 154.296 2.80798C154.536 3.28798 154.712 3.70398 154.824 4.05598L152.784 4.89598ZM179.04 20.28C178.96 19.992 178.784 19.632 178.512 19.2C178.256 18.752 178 18.416 177.744 18.192C179.184 17.968 180.408 17.552 181.416 16.944C182.424 16.336 183.2 15.592 183.744 14.712C184.304 13.832 184.608 12.88 184.656 11.856C184.704 10.896 184.568 10.016 184.248 9.21598C183.944 8.39998 183.504 7.68798 182.928 7.07998C182.352 6.47198 181.68 5.99198 180.912 5.63998C180.16 5.27198 179.352 5.06398 178.488 5.01598C178.376 6.56798 178.144 8.13598 177.792 9.71998C177.44 11.304 176.96 12.776 176.352 14.136C175.76 15.496 175.048 16.632 174.216 17.544C173.656 18.152 173.088 18.512 172.512 18.624C171.952 18.736 171.36 18.664 170.736 18.408C170.128 18.152 169.584 17.736 169.104 17.16C168.624 16.568 168.256 15.864 168 15.048C167.744 14.232 167.64 13.352 167.688 12.408C167.768 11 168.096 9.70398 168.672 8.51998C169.264 7.33598 170.056 6.31998 171.048 5.47198C172.04 4.60798 173.176 3.95998 174.456 3.52798C175.736 3.07998 177.104 2.89598 178.56 2.97598C179.712 3.03998 180.8 3.30398 181.824 3.76798C182.848 4.23198 183.752 4.86398 184.536 5.66398C185.32 6.46398 185.92 7.39998 186.336 8.47198C186.768 9.54398 186.952 10.728 186.888 12.024C186.776 14.104 186.032 15.864 184.656 17.304C183.28 18.744 181.408 19.736 179.04 20.28ZM171.36 16.176C171.536 16.288 171.744 16.344 171.984 16.344C172.224 16.328 172.456 16.2 172.68 15.96C173.304 15.304 173.864 14.408 174.36 13.272C174.872 12.136 175.296 10.864 175.632 9.45598C175.968 8.04798 176.184 6.61598 176.28 5.15998C175.064 5.38398 173.984 5.84798 173.04 6.55198C172.096 7.25598 171.344 8.11998 170.784 9.14398C170.224 10.168 169.912 11.288 169.848 12.504C169.8 13.384 169.928 14.152 170.232 14.808C170.536 15.448 170.912 15.904 171.36 16.176ZM195.168 21.048C195.088 20.888 194.952 20.68 194.76 20.424C194.584 20.168 194.4 19.92 194.208 19.68C194.016 19.44 193.848 19.264 193.704 19.152C195.928 18.32 197.544 17.216 198.552 15.84C199.56 14.464 200.112 12.688 200.208 10.512C199.2 10.528 198.216 10.544 197.256 10.56C196.312 10.576 195.448 10.592 194.664 10.608C193.896 10.624 193.248 10.64 192.72 10.656C192.208 10.656 191.88 10.664 191.736 10.68L191.64 8.51998C191.768 8.51998 192.176 8.51998 192.864 8.51998C193.552 8.51998 194.424 8.51998 195.48 8.51998C196.536 8.50398 197.68 8.48798 198.912 8.47198C200.144 8.45598 201.376 8.43998 202.608 8.42398C203.856 8.39198 205.008 8.36798 206.064 8.35198C207.12 8.33598 207.992 8.31998 208.68 8.30398C209.384 8.28798 209.8 8.27198 209.928 8.25598L209.952 10.416C209.792 10.416 209.352 10.424 208.632 10.44C207.912 10.44 207.016 10.448 205.944 10.464C204.872 10.464 203.72 10.472 202.488 10.488C202.376 13.096 201.728 15.248 200.544 16.944C199.36 18.64 197.568 20.008 195.168 21.048ZM195.024 4.94398L194.904 2.75998C195.032 2.75998 195.376 2.75998 195.936 2.75998C196.512 2.75998 197.208 2.75198 198.024 2.73598C198.856 2.71998 199.728 2.70398 200.64 2.68798C201.552 2.65598 202.416 2.63198 203.232 2.61598C204.064 2.59998 204.76 2.58398 205.32 2.56798C205.896 2.53598 206.24 2.51998 206.352 2.51998L206.4 4.67998C206.256 4.66398 205.896 4.66398 205.32 4.67998C204.76 4.67998 204.072 4.68798 203.256 4.70398C202.456 4.71998 201.608 4.74398 200.712 4.77598C199.832 4.79198 198.984 4.81598 198.168 4.84798C197.352 4.86398 196.656 4.87998 196.08 4.89598C195.52 4.91198 195.168 4.92798 195.024 4.94398ZM209.664 6.33598C209.472 5.99998 209.216 5.63198 208.896 5.23198C208.592 4.83198 208.272 4.44798 207.936 4.07998C207.616 3.71198 207.32 3.40798 207.048 3.16798L208.152 2.35198C208.392 2.55998 208.688 2.86398 209.04 3.26398C209.392 3.66398 209.728 4.07198 210.048 4.48798C210.384 4.88798 210.64 5.22398 210.816 5.49598L209.664 6.33598ZM211.752 4.63198C211.56 4.29598 211.304 3.93598 210.984 3.55198C210.664 3.15198 210.336 2.77598 210 2.42398C209.664 2.05598 209.36 1.75998 209.088 1.53598L210.168 0.695975C210.424 0.903975 210.728 1.20798 211.08 1.60798C211.432 1.99198 211.776 2.38398 212.112 2.78398C212.464 3.18398 212.728 3.51998 212.904 3.79198L211.752 4.63198ZM221.616 21.336C221.472 21.112 221.248 20.808 220.944 20.424C220.64 20.056 220.368 19.792 220.128 19.632C222.448 18.64 224.144 17.32 225.216 15.672C226.288 14.024 226.832 11.928 226.848 9.38398H222.144V14.376H219.936V9.38398C219.024 9.38398 218.176 9.39198 217.392 9.40798C216.624 9.40798 215.968 9.41598 215.424 9.43198C214.88 9.43198 214.512 9.43998 214.32 9.45598V7.24798C214.464 7.24798 214.8 7.25598 215.328 7.27198C215.872 7.27198 216.544 7.27998 217.344 7.29598C218.144 7.29598 219.008 7.30398 219.936 7.31998C219.936 5.94398 219.928 4.79998 219.912 3.88798C219.912 2.97598 219.896 2.39198 219.864 2.13598H222.216C222.2 2.37598 222.184 2.96798 222.168 3.91198C222.152 4.85598 222.144 5.99198 222.144 7.31998H226.848C226.848 6.95198 226.84 6.49598 226.824 5.95198C226.824 5.39198 226.816 4.81598 226.8 4.22398C226.8 3.63198 226.792 3.09598 226.776 2.61598C226.776 2.13598 226.768 1.79998 226.752 1.60798H229.056V7.31998C229.968 7.30398 230.816 7.29598 231.6 7.29598C232.384 7.27998 233.056 7.27198 233.616 7.27198C234.176 7.25598 234.56 7.24798 234.768 7.24798V9.45598C234.56 9.43998 234.176 9.43198 233.616 9.43198C233.072 9.41598 232.4 9.40798 231.6 9.40798C230.816 9.39198 229.968 9.38398 229.056 9.38398C229.04 12.344 228.416 14.784 227.184 16.704C225.952 18.608 224.096 20.152 221.616 21.336ZM233.208 5.73598C233.016 5.39998 232.76 5.03998 232.44 4.65598C232.136 4.25598 231.816 3.87198 231.48 3.50398C231.16 3.13598 230.864 2.83198 230.592 2.59198L231.696 1.75198C231.936 1.97598 232.232 2.28798 232.584 2.68798C232.936 3.07198 233.272 3.47198 233.592 3.88798C233.928 4.28798 234.184 4.62398 234.36 4.89598L233.208 5.73598ZM235.296 4.05598C235.104 3.71998 234.848 3.35998 234.528 2.97598C234.208 2.57598 233.88 2.19998 233.544 1.84798C233.208 1.47998 232.904 1.18398 232.632 0.959976L233.712 0.119976C233.968 0.327976 234.272 0.623976 234.624 1.00798C234.976 1.39198 235.32 1.78398 235.656 2.18398C236.008 2.58398 236.272 2.91998 236.448 3.19198L235.296 4.05598ZM248.496 20.64V9.62398C247.184 10.536 245.84 11.376 244.464 12.144C243.104 12.912 241.768 13.584 240.456 14.16C240.296 13.888 240.072 13.56 239.784 13.176C239.512 12.776 239.24 12.464 238.968 12.24C240.312 11.744 241.72 11.104 243.192 10.32C244.664 9.51998 246.096 8.62398 247.488 7.63198C248.896 6.63998 250.176 5.60798 251.328 4.53598C252.48 3.46398 253.416 2.40798 254.136 1.36798L256.056 2.71198C255.368 3.60798 254.568 4.49598 253.656 5.37598C252.76 6.25598 251.8 7.10398 250.776 7.91998V20.64H248.496ZM265.704 19.488L264.456 17.256C265.592 16.984 266.784 16.576 268.032 16.032C269.28 15.472 270.512 14.824 271.728 14.088C272.96 13.352 274.136 12.568 275.256 11.736C276.376 10.888 277.384 10.04 278.28 9.19198C279.192 8.34398 279.936 7.52798 280.512 6.74398C280.56 6.91998 280.648 7.16798 280.776 7.48798C280.904 7.79198 281.04 8.09598 281.184 8.39998C281.328 8.68798 281.44 8.90398 281.52 9.04798C280.752 10.008 279.776 11 278.592 12.024C277.408 13.048 276.104 14.04 274.68 15C273.256 15.944 271.776 16.808 270.24 17.592C268.704 18.376 267.192 19.008 265.704 19.488ZM268.56 8.83198C268.384 8.63998 268.104 8.39198 267.72 8.08798C267.352 7.76798 266.944 7.44798 266.496 7.12798C266.048 6.79198 265.608 6.48798 265.176 6.21598C264.76 5.92798 264.408 5.71998 264.12 5.59198L265.608 3.71998C265.896 3.87998 266.248 4.10398 266.664 4.39198C267.096 4.67998 267.536 4.98398 267.984 5.30398C268.432 5.62398 268.848 5.93598 269.232 6.23998C269.616 6.54398 269.912 6.79198 270.12 6.98398L268.56 8.83198ZM294.864 22.104V13.608C293.248 13.672 291.648 13.72 290.064 13.752C288.48 13.784 287.056 13.8 285.792 13.8L285.456 11.76C286.432 11.776 287.608 11.776 288.984 11.76C290.376 11.744 291.808 11.728 293.28 11.712C293.376 11.632 293.472 11.552 293.568 11.472C293.664 11.376 293.768 11.272 293.88 11.16C293.304 10.68 292.664 10.176 291.96 9.64798C291.272 9.11998 290.584 8.61598 289.896 8.13598C289.208 7.65598 288.584 7.24798 288.024 6.91198L289.392 5.20798C289.76 5.43198 290.136 5.67998 290.52 5.95198C290.904 6.20798 291.296 6.47998 291.696 6.76798C292.112 6.25598 292.56 5.67998 293.04 5.03998C293.52 4.38398 293.936 3.78398 294.288 3.23998C293.024 3.30398 291.776 3.35198 290.544 3.38398C289.312 3.41598 288.152 3.42398 287.064 3.40798C287.016 3.16798 286.928 2.83198 286.8 2.39998C286.688 1.95198 286.584 1.61598 286.488 1.39198C287.384 1.43998 288.424 1.46398 289.608 1.46398C290.808 1.44798 292.064 1.40798 293.376 1.34398C294.688 1.26398 295.976 1.16798 297.24 1.05597C298.504 0.943975 299.664 0.815976 300.72 0.671976C301.776 0.527976 302.624 0.367976 303.264 0.191976L304.656 2.01598C303.536 2.27198 302.184 2.49598 300.6 2.68798C299.016 2.87998 297.36 3.03998 295.632 3.16798L296.664 3.71998C296.424 4.08798 296.12 4.52798 295.752 5.03998C295.384 5.55198 294.992 6.07198 294.576 6.59998C294.176 7.11198 293.784 7.59198 293.4 8.03998C293.752 8.29598 294.088 8.55998 294.408 8.83198C294.744 9.10398 295.064 9.36798 295.368 9.62398C295.928 9.03198 296.488 8.41598 297.048 7.77598C297.608 7.11998 298.12 6.50398 298.584 5.92798C299.048 5.35198 299.4 4.87998 299.64 4.51198L301.608 5.68798C301.192 6.24798 300.68 6.87998 300.072 7.58398C299.464 8.27198 298.824 8.97598 298.152 9.69598C297.48 10.4 296.832 11.048 296.208 11.64C297.424 11.608 298.568 11.576 299.64 11.544C300.712 11.496 301.64 11.456 302.424 11.424C301.944 10.784 301.456 10.2 300.96 9.67198L302.64 8.54398C303.136 9.03998 303.64 9.62398 304.152 10.296C304.664 10.968 305.144 11.648 305.592 12.336C306.04 13.008 306.408 13.624 306.696 14.184C306.568 14.232 306.384 14.328 306.144 14.472C305.904 14.616 305.664 14.768 305.424 14.928C305.2 15.072 305.024 15.2 304.896 15.312C304.736 14.992 304.544 14.648 304.32 14.28C304.112 13.912 303.88 13.536 303.624 13.152C302.76 13.216 301.76 13.28 300.624 13.344C299.504 13.408 298.328 13.472 297.096 13.536V22.104H294.864ZM286.776 21.024C286.616 20.704 286.416 20.392 286.176 20.088C285.952 19.784 285.688 19.504 285.384 19.248C286.6 18.768 287.704 18.136 288.696 17.352C289.704 16.568 290.552 15.736 291.24 14.856L292.92 16.08C292.216 17.008 291.304 17.912 290.184 18.792C289.08 19.672 287.944 20.416 286.776 21.024ZM305.16 21.024C304.456 20.672 303.72 20.232 302.952 19.704C302.184 19.16 301.456 18.576 300.768 17.952C300.08 17.328 299.496 16.704 299.016 16.08L300.576 14.832C301.056 15.424 301.616 16.008 302.256 16.584C302.896 17.144 303.576 17.656 304.296 18.12C305.016 18.568 305.728 18.936 306.432 19.224C306.208 19.464 305.968 19.768 305.712 20.136C305.472 20.504 305.288 20.8 305.16 21.024ZM320.064 19.824C318.608 19.824 317.544 19.608 316.872 19.176C316.216 18.728 315.888 17.928 315.888 16.776V10.512C314.992 10.688 314.144 10.856 313.344 11.016C312.544 11.176 311.856 11.312 311.28 11.424C310.72 11.52 310.312 11.592 310.056 11.64L309.576 9.43198C310.136 9.35198 310.984 9.22398 312.12 9.04798C313.272 8.87198 314.528 8.66398 315.888 8.42398V2.47198H318.168V8.03998C319.496 7.79998 320.768 7.56798 321.984 7.34398C323.2 7.11998 324.248 6.91998 325.128 6.74398C326.024 6.55198 326.616 6.40798 326.904 6.31198L328.32 7.41598C328.064 7.83198 327.728 8.33598 327.312 8.92798C326.896 9.51998 326.448 10.136 325.968 10.776C325.488 11.416 325.008 12.024 324.528 12.6C324.064 13.176 323.64 13.664 323.256 14.064L321.552 12.6C321.872 12.328 322.224 11.976 322.608 11.544C323.008 11.112 323.408 10.648 323.808 10.152C324.224 9.63998 324.608 9.15198 324.96 8.68798C324.144 8.84798 323.128 9.05598 321.912 9.31198C320.712 9.55198 319.464 9.79998 318.168 10.056V16.056C318.168 16.632 318.328 17.032 318.648 17.256C318.968 17.48 319.472 17.592 320.16 17.592C321.04 17.592 321.952 17.56 322.896 17.496C323.84 17.416 324.728 17.32 325.56 17.208C326.408 17.096 327.096 16.968 327.624 16.824C327.576 16.984 327.52 17.224 327.456 17.544C327.408 17.864 327.36 18.184 327.312 18.504C327.28 18.808 327.264 19.04 327.264 19.2C326.816 19.312 326.272 19.408 325.632 19.488C325.008 19.568 324.352 19.632 323.664 19.68C322.976 19.728 322.312 19.768 321.672 19.8C321.048 19.816 320.512 19.824 320.064 19.824ZM328.32 5.99998C328.112 5.66398 327.84 5.30398 327.504 4.91998C327.184 4.53598 326.856 4.16798 326.52 3.81598C326.184 3.44798 325.872 3.15198 325.584 2.92798L326.64 2.03998C326.896 2.24798 327.2 2.54398 327.552 2.92798C327.92 3.31198 328.272 3.70398 328.608 4.10398C328.96 4.48798 329.232 4.81598 329.424 5.08798L328.32 5.99998ZM330.336 4.19998C330.128 3.87998 329.856 3.52798 329.52 3.14398C329.184 2.75998 328.84 2.39998 328.488 2.06398C328.152 1.71198 327.84 1.42398 327.552 1.19998L328.584 0.311976C328.84 0.519976 329.152 0.807976 329.52 1.17598C329.904 1.54398 330.272 1.92798 330.624 2.32798C330.976 2.71198 331.248 3.03198 331.44 3.28798L330.336 4.19998ZM347.304 20.832C347 20.56 346.544 20.224 345.936 19.824C345.344 19.424 344.672 19.008 343.92 18.576C343.184 18.128 342.424 17.696 341.64 17.28C340.872 16.864 340.144 16.496 339.456 16.176C338.768 15.84 338.192 15.6 337.728 15.456L339.096 13.584C339.784 13.824 340.576 14.16 341.472 14.592C342.368 15.008 343.272 15.464 344.184 15.96C345.112 16.44 345.968 16.928 346.752 17.424C347.552 17.904 348.2 18.336 348.696 18.72L347.304 20.832ZM345.888 12.792C345.568 12.536 345.088 12.232 344.448 11.88C343.824 11.512 343.136 11.144 342.384 10.776C341.648 10.392 340.944 10.056 340.272 9.76798C339.6 9.47998 339.056 9.27998 338.64 9.16798L339.96 7.29598C340.456 7.45598 341.032 7.67998 341.688 7.96798C342.344 8.23998 343.016 8.54398 343.704 8.87998C344.392 9.19998 345.04 9.52798 345.648 9.86398C346.272 10.184 346.784 10.48 347.184 10.752L345.888 12.792ZM347.64 7.29598C347.32 7.03998 346.84 6.73598 346.2 6.38398C345.576 6.03198 344.888 5.67198 344.136 5.30398C343.4 4.93598 342.696 4.60798 342.024 4.31998C341.352 4.01598 340.808 3.79998 340.392 3.67198L341.736 1.84798C342.216 1.99198 342.784 2.20798 343.44 2.49598C344.112 2.78398 344.8 3.09598 345.504 3.43198C346.208 3.76798 346.856 4.09598 347.448 4.41598C348.056 4.73598 348.536 5.01598 348.888 5.25598L347.64 7.29598ZM3.08578 70.272C3.00578 70.128 2.87778 69.952 2.70178 69.744C2.52578 69.552 2.34178 69.36 2.14978 69.168C1.95778 68.976 1.78978 68.832 1.64578 68.736C3.02178 67.952 4.00578 67 4.59778 65.88C5.18978 64.76 5.48578 63.368 5.48578 61.704V58.512C4.98978 58.608 4.46978 58.704 3.92578 58.8C3.38178 58.88 2.82978 58.96 2.26978 59.04C2.22178 58.784 2.11778 58.448 1.95778 58.032C1.79778 57.6 1.64578 57.28 1.50178 57.072C3.13378 56.944 4.70178 56.72 6.20578 56.4C7.70978 56.064 9.11778 55.648 10.4298 55.152C9.72578 54.736 9.04578 54.288 8.38978 53.808C7.74978 53.312 7.14178 52.768 6.56578 52.176H1.86178V50.448H11.3898V48.216H13.6698V50.448H23.2938V52.176H18.6138C18.0218 52.736 17.4138 53.264 16.7898 53.76C16.1658 54.24 15.5178 54.688 14.8458 55.104C16.2218 55.6 17.6618 56.008 19.1658 56.328C20.6698 56.648 22.1898 56.888 23.7258 57.048C23.5658 57.272 23.4058 57.592 23.2458 58.008C23.0858 58.408 22.9818 58.736 22.9338 58.992C22.4698 58.912 22.0058 58.832 21.5418 58.752C21.0938 58.672 20.6458 58.592 20.1978 58.512V70.104H18.1098V63.384H13.5258V68.064C13.5258 69.408 12.7498 70.08 11.1978 70.08H10.1658C10.1338 69.808 10.0698 69.472 9.97378 69.072C9.89378 68.688 9.81378 68.392 9.73378 68.184H10.8618C11.1498 68.184 11.3498 68.136 11.4618 68.04C11.5738 67.928 11.6298 67.744 11.6298 67.488V63.384H7.45378C7.26178 64.888 6.79778 66.224 6.06178 67.392C5.32578 68.56 4.33378 69.52 3.08578 70.272ZM7.57378 58.872H18.1098V58.056C17.1338 57.832 16.1898 57.576 15.2778 57.288C14.3818 56.984 13.5098 56.648 12.6618 56.28C11.8938 56.632 11.0858 56.96 10.2378 57.264C9.40578 57.552 8.51778 57.816 7.57378 58.056V58.872ZM7.54978 61.848H18.1098V60.432H7.57378V61.704C7.57378 61.768 7.56578 61.816 7.54978 61.848ZM8.36578 69.168C8.18978 69.04 7.92578 68.872 7.57378 68.664C7.22178 68.472 6.95778 68.344 6.78178 68.28C7.26178 67.72 7.71778 67.072 8.14978 66.336C8.58178 65.584 8.90178 64.888 9.10978 64.248L10.8378 64.872C10.5498 65.608 10.1978 66.344 9.78178 67.08C9.38178 67.8 8.90978 68.496 8.36578 69.168ZM16.1418 68.832C15.9818 68.416 15.7818 67.96 15.5418 67.464C15.3018 66.968 15.0458 66.488 14.7738 66.024C14.5178 65.56 14.2858 65.168 14.0778 64.848L15.6378 64.2C15.8938 64.52 16.1578 64.912 16.4298 65.376C16.7018 65.84 16.9578 66.312 17.1978 66.792C17.4538 67.272 17.6618 67.704 17.8218 68.088C17.6138 68.152 17.3338 68.272 16.9818 68.448C16.6458 68.624 16.3658 68.752 16.1418 68.832ZM12.6618 54.168C13.8938 53.544 14.9498 52.88 15.8298 52.176H9.39778C9.89378 52.56 10.4138 52.92 10.9578 53.256C11.5018 53.576 12.0698 53.88 12.6618 54.168ZM26.6778 70.104C26.4538 69.96 26.1658 69.792 25.8138 69.6C25.4618 69.424 25.1898 69.312 24.9978 69.264C25.4138 68.56 25.7498 67.848 26.0058 67.128C26.2778 66.408 26.4778 65.568 26.6058 64.608C26.7338 63.648 26.7978 62.448 26.7978 61.008V53.928H32.7498V63.024C33.8858 62.4 34.8458 61.656 35.6298 60.792H33.2778V59.208H36.8058C36.9658 58.984 37.1098 58.752 37.2378 58.512C37.3658 58.256 37.4858 58 37.5978 57.744H34.1178V56.16H36.0378C35.8298 55.808 35.5818 55.424 35.2938 55.008C35.0058 54.576 34.7258 54.208 34.4538 53.904L36.0138 53.064C36.2858 53.368 36.5818 53.776 36.9018 54.288C37.2378 54.8 37.5018 55.216 37.6938 55.536L36.6858 56.16H38.1498C38.3898 55.28 38.5338 54.352 38.5818 53.376L40.4778 53.568C40.4138 54.016 40.3418 54.456 40.2618 54.888C40.1818 55.32 40.0858 55.744 39.9738 56.16H41.9658L41.2698 55.824C41.5898 55.456 41.9178 55.008 42.2538 54.48C42.6058 53.936 42.8698 53.472 43.0458 53.088L44.7738 53.736C44.5498 54.088 44.2858 54.488 43.9818 54.936C43.6778 55.384 43.3898 55.792 43.1178 56.16H45.7098V57.744H42.1578C42.2858 58 42.4218 58.248 42.5658 58.488C42.7258 58.728 42.8858 58.968 43.0458 59.208H46.7658V60.792H44.4378C44.9018 61.24 45.4218 61.656 45.9978 62.04C46.5738 62.424 47.1898 62.752 47.8458 63.024C47.6698 63.136 47.4458 63.36 47.1738 63.696C46.9178 64.032 46.7258 64.304 46.5978 64.512C46.2458 64.304 45.9018 64.096 45.5658 63.888C45.2298 63.68 44.9018 63.464 44.5818 63.24C44.3258 63.528 44.0058 63.872 43.6218 64.272C43.2538 64.656 42.9338 64.96 42.6618 65.184C42.5338 65.04 42.3178 64.84 42.0138 64.584C41.7098 64.328 41.4698 64.152 41.2938 64.056C41.5658 63.832 41.8858 63.52 42.2538 63.12C42.6378 62.72 42.9578 62.376 43.2138 62.088C42.7818 61.672 42.3978 61.24 42.0618 60.792H37.9098C37.5738 61.256 37.2058 61.696 36.8058 62.112C37.0458 62.368 37.3258 62.712 37.6458 63.144C37.9818 63.56 38.2538 63.912 38.4618 64.2C38.2538 64.28 37.9898 64.432 37.6698 64.656C37.3498 64.88 37.0938 65.056 36.9018 65.184C36.7418 64.912 36.5258 64.592 36.2538 64.224C35.9978 63.856 35.7578 63.536 35.5338 63.264C35.0378 63.664 34.4698 64.064 33.8298 64.464C33.7338 64.304 33.5738 64.096 33.3498 63.84C33.1258 63.568 32.9258 63.36 32.7498 63.216V68.064C32.7498 69.36 31.9818 70.008 30.4458 70.008H29.2218C29.2058 69.752 29.1498 69.416 29.0538 69C28.9738 68.584 28.8938 68.272 28.8138 68.064H30.0378C30.3418 68.064 30.5578 68.016 30.6858 67.92C30.8138 67.808 30.8778 67.608 30.8778 67.32V63.888H28.5258C28.4138 65.104 28.2138 66.216 27.9258 67.224C27.6378 68.216 27.2218 69.176 26.6778 70.104ZM31.9338 53.16V51.696H25.8618V50.064H31.9338V48.264H33.9978V50.064H38.5818V48.264H40.6458V50.064H46.6458V51.696H40.6458V53.016H38.5818V51.696H33.9978V53.16H31.9338ZM37.3338 70.176C37.3178 69.92 37.2618 69.6 37.1658 69.216C37.0698 68.848 36.9818 68.56 36.9018 68.352H38.1258C38.4298 68.352 38.6458 68.304 38.7738 68.208C38.9018 68.096 38.9658 67.896 38.9658 67.608V61.344H40.8378V65.904L41.5818 64.872C42.0458 65.176 42.5578 65.496 43.1178 65.832C43.6778 66.168 44.2298 66.488 44.7738 66.792C45.3178 67.096 45.7898 67.36 46.1898 67.584C46.0458 67.744 45.8538 68.008 45.6138 68.376C45.3898 68.728 45.2298 68.992 45.1338 69.168C44.4458 68.752 43.7098 68.288 42.9258 67.776C42.1418 67.248 41.4458 66.744 40.8378 66.264V68.184C40.8378 69.512 40.0698 70.176 38.5338 70.176H37.3338ZM34.4298 68.88L33.6618 67.152C34.0938 66.992 34.5818 66.8 35.1258 66.576C35.6698 66.352 36.2138 66.104 36.7578 65.832C37.3178 65.56 37.8138 65.296 38.2458 65.04L38.4618 66.792C38.1578 66.984 37.7658 67.208 37.2858 67.464C36.8218 67.704 36.3338 67.952 35.8218 68.208C35.3258 68.464 34.8618 68.688 34.4298 68.88ZM28.6218 62.16H30.8778V59.736H28.6458V61.008C28.6458 61.2 28.6458 61.4 28.6458 61.608C28.6458 61.8 28.6378 61.984 28.6218 62.16ZM28.6458 58.008H30.8778V55.656H28.6458V58.008ZM38.8458 59.208H41.0538C40.9418 58.984 40.8218 58.752 40.6938 58.512C40.5818 58.256 40.4778 58 40.3818 57.744H39.4698C39.3898 58 39.2938 58.256 39.1818 58.512C39.0858 58.752 38.9738 58.984 38.8458 59.208ZM49.6698 60.48V58.152H70.4298V60.48H49.6698ZM84.1098 67.824C82.6538 67.824 81.5898 67.608 80.9178 67.176C80.2618 66.728 79.9338 65.928 79.9338 64.776V58.512C79.0378 58.688 78.1898 58.856 77.3898 59.016C76.5898 59.176 75.9018 59.312 75.3258 59.424C74.7658 59.52 74.3578 59.592 74.1018 59.64L73.6218 57.432C74.1818 57.352 75.0298 57.224 76.1658 57.048C77.3178 56.872 78.5738 56.664 79.9338 56.424V50.472H82.2138V56.04C83.5418 55.8 84.8138 55.568 86.0298 55.344C87.2458 55.12 88.2938 54.92 89.1738 54.744C90.0698 54.552 90.6618 54.408 90.9498 54.312L92.3658 55.416C92.1098 55.832 91.7738 56.336 91.3578 56.928C90.9418 57.52 90.4938 58.136 90.0138 58.776C89.5338 59.416 89.0538 60.024 88.5738 60.6C88.1098 61.176 87.6858 61.664 87.3018 62.064L85.5978 60.6C85.9178 60.328 86.2698 59.976 86.6538 59.544C87.0538 59.112 87.4538 58.648 87.8538 58.152C88.2698 57.64 88.6538 57.152 89.0058 56.688C88.1898 56.848 87.1738 57.056 85.9578 57.312C84.7578 57.552 83.5098 57.8 82.2138 58.056V64.056C82.2138 64.632 82.3738 65.032 82.6938 65.256C83.0138 65.48 83.5178 65.592 84.2058 65.592C85.0858 65.592 85.9978 65.56 86.9418 65.496C87.8858 65.416 88.7738 65.32 89.6058 65.208C90.4538 65.096 91.1418 64.968 91.6698 64.824C91.6218 64.984 91.5658 65.224 91.5018 65.544C91.4538 65.864 91.4058 66.184 91.3578 66.504C91.3258 66.808 91.3098 67.04 91.3098 67.2C90.8618 67.312 90.3178 67.408 89.6778 67.488C89.0538 67.568 88.3978 67.632 87.7098 67.68C87.0218 67.728 86.3578 67.768 85.7178 67.8C85.0938 67.816 84.5578 67.824 84.1098 67.824ZM92.3658 54C92.1578 53.664 91.8858 53.304 91.5498 52.92C91.2298 52.536 90.9018 52.168 90.5658 51.816C90.2298 51.448 89.9178 51.152 89.6298 50.928L90.6858 50.04C90.9418 50.248 91.2458 50.544 91.5978 50.928C91.9658 51.312 92.3178 51.704 92.6538 52.104C93.0058 52.488 93.2778 52.816 93.4698 53.088L92.3658 54ZM94.3818 52.2C94.1738 51.88 93.9018 51.528 93.5658 51.144C93.2298 50.76 92.8858 50.4 92.5338 50.064C92.1978 49.712 91.8858 49.424 91.5978 49.2L92.6298 48.312C92.8858 48.52 93.1978 48.808 93.5658 49.176C93.9498 49.544 94.3178 49.928 94.6698 50.328C95.0218 50.712 95.2938 51.032 95.4858 51.288L94.3818 52.2ZM111.35 68.832C111.046 68.56 110.59 68.224 109.982 67.824C109.39 67.424 108.718 67.008 107.966 66.576C107.23 66.128 106.47 65.696 105.686 65.28C104.918 64.864 104.19 64.496 103.502 64.176C102.814 63.84 102.238 63.6 101.774 63.456L103.142 61.584C103.83 61.824 104.622 62.16 105.518 62.592C106.414 63.008 107.318 63.464 108.23 63.96C109.158 64.44 110.014 64.928 110.798 65.424C111.598 65.904 112.246 66.336 112.742 66.72L111.35 68.832ZM109.934 60.792C109.614 60.536 109.134 60.232 108.494 59.88C107.87 59.512 107.182 59.144 106.43 58.776C105.694 58.392 104.99 58.056 104.318 57.768C103.646 57.48 103.102 57.28 102.686 57.168L104.006 55.296C104.502 55.456 105.078 55.68 105.734 55.968C106.39 56.24 107.062 56.544 107.75 56.88C108.438 57.2 109.086 57.528 109.694 57.864C110.318 58.184 110.83 58.48 111.23 58.752L109.934 60.792ZM111.686 55.296C111.366 55.04 110.886 54.736 110.246 54.384C109.622 54.032 108.934 53.672 108.182 53.304C107.446 52.936 106.742 52.608 106.07 52.32C105.398 52.016 104.854 51.8 104.438 51.672L105.782 49.848C106.262 49.992 106.83 50.208 107.486 50.496C108.158 50.784 108.846 51.096 109.55 51.432C110.254 51.768 110.902 52.096 111.494 52.416C112.102 52.736 112.582 53.016 112.934 53.256L111.686 55.296ZM123.806 67.032L122.654 65.88L128.678 59.832L122.654 53.808L123.806 52.656L129.854 58.68L135.878 52.656L137.054 53.808L131.03 59.832L137.03 65.88L135.878 67.032L129.854 61.008L123.806 67.032ZM145.521 70.056V59.544C145.041 60.504 144.529 61.432 143.985 62.328C143.457 63.208 142.953 63.952 142.473 64.56C142.361 64.448 142.193 64.32 141.969 64.176C141.761 64.016 141.545 63.864 141.321 63.72C141.097 63.576 140.913 63.464 140.769 63.384C141.201 62.888 141.649 62.288 142.113 61.584C142.593 60.88 143.049 60.136 143.481 59.352C143.913 58.568 144.297 57.8 144.633 57.048C144.985 56.296 145.257 55.632 145.449 55.056H141.585V53.136H145.521V48.456H147.609V53.136H151.065V55.056H147.609V56.592C147.817 56.88 148.081 57.232 148.401 57.648C148.737 58.048 149.089 58.464 149.457 58.896C149.841 59.328 150.209 59.736 150.561 60.12C150.929 60.488 151.249 60.784 151.521 61.008C152.641 60.576 153.753 60.032 154.857 59.376C155.977 58.72 157.009 58 157.953 57.216C158.897 56.416 159.689 55.608 160.329 54.792L162.033 56.184C160.753 57.672 159.321 58.984 157.737 60.12C156.169 61.24 154.361 62.232 152.313 63.096C152.201 62.904 152.033 62.64 151.809 62.304C151.585 61.952 151.369 61.648 151.161 61.392C150.953 61.584 150.737 61.792 150.513 62.016C150.289 62.224 150.137 62.392 150.057 62.52C149.753 62.2 149.377 61.768 148.929 61.224C148.481 60.68 148.041 60.12 147.609 59.544V70.056H145.521ZM151.209 69.96C151.145 69.816 151.033 69.616 150.873 69.36C150.729 69.104 150.569 68.84 150.393 68.568C150.233 68.312 150.089 68.112 149.961 67.968C151.017 67.68 152.089 67.296 153.177 66.816C154.281 66.336 155.345 65.784 156.369 65.16C157.393 64.52 158.337 63.84 159.201 63.12C160.065 62.384 160.793 61.624 161.385 60.84L163.065 62.304C161.529 64.128 159.753 65.672 157.737 66.936C155.721 68.184 153.545 69.192 151.209 69.96ZM152.601 56.712C152.441 56.488 152.217 56.184 151.929 55.8C151.641 55.416 151.377 55.12 151.137 54.912C152.145 54.448 153.153 53.88 154.161 53.208C155.169 52.536 156.097 51.816 156.945 51.048C157.809 50.264 158.513 49.512 159.057 48.792L160.809 50.064C159.785 51.328 158.593 52.52 157.233 53.64C155.873 54.744 154.329 55.768 152.601 56.712ZM177.585 70.2V66.888H171.777V65.208H177.585V63.72H171.057V62.088H174.993C174.881 61.784 174.745 61.44 174.585 61.056C174.425 60.672 174.297 60.36 174.201 60.12H170.457V58.512H177.585V57.096H171.993V55.464H177.585V54.144H171.777V48.984H185.553V54.144H179.601V55.464H185.289V57.096H179.601V58.512H186.657V60.12H183.081C182.985 60.36 182.857 60.672 182.697 61.056C182.537 61.44 182.393 61.784 182.265 62.088H186.153V63.72H179.601V65.208H185.553V66.888H179.601V70.2H177.585ZM166.737 69.552L164.817 68.424C165.153 67.96 165.505 67.392 165.873 66.72C166.257 66.032 166.625 65.312 166.977 64.56C167.345 63.792 167.673 63.056 167.961 62.352C168.249 61.648 168.473 61.032 168.633 60.504C168.761 60.6 168.937 60.736 169.161 60.912C169.385 61.072 169.609 61.232 169.833 61.392C170.057 61.536 170.241 61.648 170.385 61.728C170.241 62.224 170.025 62.824 169.737 63.528C169.449 64.216 169.129 64.936 168.777 65.688C168.425 66.44 168.065 67.16 167.697 67.848C167.345 68.52 167.025 69.088 166.737 69.552ZM168.513 58.488C168.225 58.216 167.857 57.92 167.409 57.6C166.961 57.264 166.497 56.952 166.017 56.664C165.537 56.36 165.097 56.128 164.697 55.968L165.801 54.264C166.201 54.456 166.641 54.688 167.121 54.96C167.601 55.232 168.073 55.528 168.537 55.848C169.001 56.152 169.401 56.448 169.737 56.736C169.657 56.832 169.529 57 169.353 57.24C169.177 57.48 169.009 57.72 168.849 57.96C168.689 58.184 168.577 58.36 168.513 58.488ZM169.617 53.16C169.345 52.888 168.985 52.584 168.537 52.248C168.089 51.912 167.625 51.6 167.145 51.312C166.681 51.008 166.257 50.768 165.873 50.592L167.025 48.96C167.393 49.136 167.817 49.368 168.297 49.656C168.793 49.944 169.273 50.256 169.737 50.592C170.217 50.912 170.609 51.208 170.913 51.48C170.833 51.576 170.705 51.736 170.529 51.96C170.353 52.168 170.177 52.392 170.001 52.632C169.825 52.856 169.697 53.032 169.617 53.16ZM177.057 62.088H180.201C180.313 61.816 180.433 61.488 180.561 61.104C180.705 60.72 180.833 60.392 180.945 60.12H176.337C176.449 60.392 176.569 60.72 176.697 61.104C176.841 61.488 176.961 61.816 177.057 62.088ZM173.625 52.608H175.761V50.616H173.625V52.608ZM177.561 52.608H179.673V50.616H177.561V52.608ZM181.473 52.608H183.585V50.616H181.473V52.608ZM199.977 67.824C198.521 67.824 197.457 67.608 196.785 67.176C196.129 66.728 195.801 65.928 195.801 64.776V58.512C194.905 58.688 194.057 58.856 193.257 59.016C192.457 59.176 191.769 59.312 191.193 59.424C190.633 59.52 190.225 59.592 189.969 59.64L189.489 57.432C190.049 57.352 190.897 57.224 192.033 57.048C193.185 56.872 194.441 56.664 195.801 56.424V50.472H198.081V56.04C199.409 55.8 200.681 55.568 201.897 55.344C203.113 55.12 204.161 54.92 205.041 54.744C205.937 54.552 206.529 54.408 206.817 54.312L208.233 55.416C207.977 55.832 207.641 56.336 207.225 56.928C206.809 57.52 206.361 58.136 205.881 58.776C205.401 59.416 204.921 60.024 204.441 60.6C203.977 61.176 203.553 61.664 203.169 62.064L201.465 60.6C201.785 60.328 202.137 59.976 202.521 59.544C202.921 59.112 203.321 58.648 203.721 58.152C204.137 57.64 204.521 57.152 204.873 56.688C204.057 56.848 203.041 57.056 201.825 57.312C200.625 57.552 199.377 57.8 198.081 58.056V64.056C198.081 64.632 198.241 65.032 198.561 65.256C198.881 65.48 199.385 65.592 200.073 65.592C200.953 65.592 201.865 65.56 202.809 65.496C203.753 65.416 204.641 65.32 205.473 65.208C206.321 65.096 207.009 64.968 207.537 64.824C207.489 64.984 207.433 65.224 207.369 65.544C207.321 65.864 207.273 66.184 207.225 66.504C207.193 66.808 207.177 67.04 207.177 67.2C206.729 67.312 206.185 67.408 205.545 67.488C204.921 67.568 204.265 67.632 203.577 67.68C202.889 67.728 202.225 67.768 201.585 67.8C200.961 67.816 200.425 67.824 199.977 67.824ZM208.233 54C208.025 53.664 207.753 53.304 207.417 52.92C207.097 52.536 206.769 52.168 206.433 51.816C206.097 51.448 205.785 51.152 205.497 50.928L206.553 50.04C206.809 50.248 207.113 50.544 207.465 50.928C207.833 51.312 208.185 51.704 208.521 52.104C208.873 52.488 209.145 52.816 209.337 53.088L208.233 54ZM210.249 52.2C210.041 51.88 209.769 51.528 209.433 51.144C209.097 50.76 208.753 50.4 208.401 50.064C208.065 49.712 207.753 49.424 207.465 49.2L208.497 48.312C208.753 48.52 209.065 48.808 209.433 49.176C209.817 49.544 210.185 49.928 210.537 50.328C210.889 50.712 211.161 51.032 211.353 51.288L210.249 52.2ZM227.217 68.832C226.913 68.56 226.457 68.224 225.849 67.824C225.257 67.424 224.585 67.008 223.833 66.576C223.097 66.128 222.337 65.696 221.553 65.28C220.785 64.864 220.057 64.496 219.369 64.176C218.681 63.84 218.105 63.6 217.641 63.456L219.009 61.584C219.697 61.824 220.489 62.16 221.385 62.592C222.281 63.008 223.185 63.464 224.097 63.96C225.025 64.44 225.881 64.928 226.665 65.424C227.465 65.904 228.113 66.336 228.609 66.72L227.217 68.832ZM225.801 60.792C225.481 60.536 225.001 60.232 224.361 59.88C223.737 59.512 223.049 59.144 222.297 58.776C221.561 58.392 220.857 58.056 220.185 57.768C219.513 57.48 218.969 57.28 218.553 57.168L219.873 55.296C220.369 55.456 220.945 55.68 221.601 55.968C222.257 56.24 222.929 56.544 223.617 56.88C224.305 57.2 224.953 57.528 225.561 57.864C226.185 58.184 226.697 58.48 227.097 58.752L225.801 60.792ZM227.553 55.296C227.233 55.04 226.753 54.736 226.113 54.384C225.489 54.032 224.801 53.672 224.049 53.304C223.313 52.936 222.609 52.608 221.937 52.32C221.265 52.016 220.721 51.8 220.305 51.672L221.649 49.848C222.129 49.992 222.697 50.208 223.353 50.496C224.025 50.784 224.713 51.096 225.417 51.432C226.121 51.768 226.769 52.096 227.361 52.416C227.969 52.736 228.449 53.016 228.801 53.256L227.553 55.296ZM238.809 68.76C238.713 68.664 238.545 68.536 238.305 68.376C238.065 68.216 237.817 68.064 237.561 67.92C237.321 67.76 237.129 67.664 236.985 67.632C237.641 66.912 238.289 66.024 238.929 64.968C239.569 63.896 240.177 62.728 240.753 61.464C241.329 60.184 241.841 58.88 242.289 57.552C241.425 57.664 240.585 57.784 239.769 57.912C238.969 58.024 238.321 58.144 237.825 58.272C237.809 58.128 237.769 57.92 237.705 57.648C237.657 57.36 237.593 57.08 237.513 56.808C237.449 56.52 237.393 56.32 237.345 56.208C237.905 56.16 238.697 56.088 239.721 55.992C240.745 55.88 241.793 55.768 242.865 55.656C243.185 54.616 243.441 53.6 243.633 52.608C243.825 51.616 243.953 50.688 244.017 49.824L246.177 50.208C246.113 50.992 245.985 51.832 245.793 52.728C245.601 53.608 245.369 54.52 245.097 55.464C245.849 55.416 246.465 55.392 246.945 55.392C247.569 55.392 248.113 55.496 248.577 55.704C249.057 55.896 249.433 56.24 249.705 56.736C249.977 57.232 250.129 57.92 250.161 58.8C250.193 59.68 250.073 60.792 249.801 62.136C249.513 63.656 249.177 64.872 248.793 65.784C248.425 66.696 247.953 67.36 247.377 67.776C246.817 68.176 246.105 68.376 245.241 68.376C244.793 68.376 244.361 68.328 243.945 68.232C243.529 68.136 243.129 67.968 242.745 67.728C242.761 67.44 242.769 67.08 242.769 66.648C242.769 66.216 242.745 65.864 242.697 65.592C243.449 66.056 244.225 66.288 245.025 66.288C245.457 66.288 245.825 66.16 246.129 65.904C246.433 65.648 246.713 65.192 246.969 64.536C247.225 63.864 247.481 62.92 247.737 61.704C247.945 60.712 248.057 59.92 248.073 59.328C248.089 58.736 248.025 58.288 247.881 57.984C247.753 57.68 247.569 57.48 247.329 57.384C247.089 57.288 246.809 57.24 246.489 57.24C246.233 57.24 245.937 57.248 245.601 57.264C245.265 57.28 244.905 57.304 244.521 57.336C244.025 58.824 243.457 60.296 242.817 61.752C242.177 63.192 241.513 64.52 240.825 65.736C240.153 66.952 239.481 67.96 238.809 68.76ZM256.713 62.4C256.457 61.968 256.097 61.472 255.633 60.912C255.185 60.336 254.697 59.76 254.169 59.184C253.641 58.608 253.121 58.088 252.609 57.624C252.113 57.144 251.673 56.776 251.289 56.52L252.897 55.128C253.313 55.416 253.777 55.8 254.289 56.28C254.817 56.76 255.345 57.28 255.873 57.84C256.417 58.384 256.913 58.928 257.361 59.472C257.825 60 258.185 60.464 258.441 60.864L256.713 62.4ZM256.161 55.32C255.873 55.064 255.521 54.8 255.105 54.528C254.705 54.24 254.289 53.976 253.857 53.736C253.425 53.48 253.041 53.28 252.705 53.136L253.521 52.008C253.825 52.136 254.201 52.336 254.649 52.608C255.097 52.88 255.537 53.16 255.969 53.448C256.417 53.736 256.769 53.984 257.025 54.192L256.161 55.32ZM257.649 53.064C257.361 52.808 257.001 52.544 256.569 52.272C256.153 52 255.729 51.744 255.297 51.504C254.865 51.264 254.481 51.08 254.145 50.952L254.937 49.824C255.241 49.952 255.617 50.144 256.065 50.4C256.529 50.656 256.985 50.92 257.433 51.192C257.881 51.464 258.233 51.704 258.489 51.912L257.649 53.064ZM269.073 66.936C269.009 66.616 268.857 66.224 268.617 65.76C268.377 65.28 268.137 64.912 267.897 64.656C269.961 64.448 271.753 64.12 273.273 63.672C274.809 63.208 275.993 62.592 276.825 61.824C277.657 61.04 278.049 60.088 278.001 58.968C277.953 57.736 277.481 56.848 276.585 56.304C275.689 55.744 274.361 55.496 272.601 55.56C272.105 55.576 271.489 55.64 270.753 55.752C270.017 55.848 269.233 55.984 268.401 56.16C267.569 56.32 266.737 56.504 265.905 56.712C265.073 56.904 264.289 57.112 263.553 57.336C262.833 57.56 262.225 57.776 261.729 57.984C261.729 57.952 261.681 57.824 261.585 57.6C261.489 57.36 261.377 57.096 261.249 56.808C261.121 56.504 261.001 56.232 260.889 55.992C260.793 55.752 260.729 55.624 260.697 55.608C261.193 55.496 261.817 55.36 262.569 55.2C263.337 55.024 264.169 54.84 265.065 54.648C265.977 54.456 266.889 54.272 267.801 54.096C268.729 53.92 269.601 53.776 270.417 53.664C271.233 53.536 271.937 53.464 272.529 53.448C275.105 53.352 277.033 53.792 278.313 54.768C279.609 55.744 280.289 57.112 280.353 58.872C280.417 60.488 279.969 61.84 279.009 62.928C278.065 64 276.737 64.856 275.025 65.496C273.313 66.136 271.329 66.616 269.073 66.936ZM297.273 70.056C296.985 69.496 296.601 68.864 296.121 68.16C295.657 67.44 295.137 66.696 294.561 65.928C294.001 65.144 293.425 64.384 292.833 63.648C292.241 62.912 291.673 62.24 291.129 61.632C290.585 61.008 290.113 60.496 289.713 60.096C289.169 59.552 288.905 59.088 288.921 58.704C288.937 58.32 289.217 57.88 289.761 57.384C290.289 56.904 290.897 56.304 291.585 55.584C292.289 54.848 292.993 54.072 293.697 53.256C294.417 52.424 295.073 51.608 295.665 50.808C296.257 50.008 296.705 49.304 297.009 48.696L299.073 50.112C298.721 50.624 298.249 51.24 297.657 51.96C297.065 52.68 296.417 53.424 295.713 54.192C295.025 54.944 294.353 55.672 293.697 56.376C293.041 57.064 292.465 57.64 291.969 58.104C291.521 58.504 291.529 58.936 291.993 59.4C292.393 59.8 292.857 60.304 293.385 60.912C293.913 61.52 294.465 62.184 295.041 62.904C295.617 63.608 296.185 64.32 296.745 65.04C297.305 65.76 297.817 66.44 298.281 67.08C298.745 67.704 299.113 68.232 299.385 68.664C299.209 68.744 298.977 68.864 298.689 69.024C298.401 69.2 298.121 69.384 297.849 69.576C297.593 69.768 297.401 69.928 297.273 70.056ZM318.969 68.784C317.193 68.784 315.881 68.456 315.033 67.8C314.201 67.144 313.785 66.336 313.785 65.376C313.785 64.768 313.937 64.248 314.241 63.816C314.545 63.384 314.945 63.056 315.441 62.832C315.937 62.608 316.457 62.496 317.001 62.496C318.057 62.496 318.921 62.864 319.593 63.6C320.281 64.32 320.689 65.24 320.817 66.36C321.585 66.104 322.233 65.672 322.761 65.064C323.289 64.44 323.553 63.648 323.553 62.688C323.553 61.952 323.377 61.304 323.025 60.744C322.689 60.184 322.217 59.744 321.609 59.424C321.001 59.104 320.297 58.944 319.497 58.944C317.401 58.944 315.657 59.544 314.265 60.744C313.977 61 313.593 61.328 313.113 61.728C312.633 62.112 312.185 62.456 311.769 62.76L310.281 61.152C311.033 60.704 311.841 60.128 312.705 59.424C313.569 58.72 314.425 57.944 315.273 57.096C316.137 56.248 316.953 55.376 317.721 54.48C318.489 53.584 319.161 52.712 319.737 51.864C319.065 52.024 318.297 52.184 317.433 52.344C316.569 52.488 315.721 52.616 314.889 52.728C314.073 52.824 313.377 52.888 312.801 52.92L312.417 50.808C312.849 50.824 313.385 50.816 314.025 50.784C314.681 50.736 315.369 50.672 316.089 50.592C316.825 50.512 317.537 50.424 318.225 50.328C318.929 50.216 319.553 50.096 320.097 49.968C320.657 49.84 321.065 49.72 321.321 49.608L322.977 50.736C322.609 51.456 322.129 52.224 321.537 53.04C320.961 53.84 320.321 54.648 319.617 55.464C318.913 56.28 318.185 57.064 317.433 57.816C317.801 57.64 318.209 57.496 318.657 57.384C319.105 57.272 319.537 57.216 319.953 57.216C321.121 57.216 322.145 57.448 323.025 57.912C323.905 58.376 324.593 59.016 325.089 59.832C325.601 60.648 325.857 61.6 325.857 62.688C325.857 63.856 325.561 64.904 324.969 65.832C324.393 66.744 323.585 67.464 322.545 67.992C321.521 68.52 320.329 68.784 318.969 68.784ZM318.561 66.744H318.849C318.801 66.04 318.609 65.464 318.273 65.016C317.937 64.568 317.513 64.344 317.001 64.344C316.665 64.344 316.385 64.432 316.161 64.608C315.953 64.768 315.849 65.008 315.849 65.328C315.849 65.728 316.057 66.056 316.473 66.312C316.889 66.568 317.585 66.712 318.561 66.744ZM87.2275 117.024V104.904H83.3395V102.84H87.2275V97.488H89.4835V102.84H93.1075V96.936H95.2435V102.84H98.9155V97.488H101.076V102.84H105.156V104.904H101.076V112.056H93.1075V104.904H89.4835V114.936H104.052V117.024H87.2275ZM95.2435 110.04H98.9155V104.904H95.2435V110.04ZM119.7 116.28C119.62 115.992 119.444 115.632 119.172 115.2C118.916 114.752 118.66 114.416 118.404 114.192C119.844 113.968 121.068 113.552 122.076 112.944C123.084 112.336 123.86 111.592 124.404 110.712C124.964 109.832 125.268 108.88 125.316 107.856C125.364 106.896 125.228 106.016 124.908 105.216C124.604 104.4 124.164 103.688 123.588 103.08C123.012 102.472 122.34 101.992 121.572 101.64C120.82 101.272 120.012 101.064 119.148 101.016C119.036 102.568 118.804 104.136 118.452 105.72C118.1 107.304 117.62 108.776 117.012 110.136C116.42 111.496 115.708 112.632 114.876 113.544C114.316 114.152 113.748 114.512 113.172 114.624C112.612 114.736 112.02 114.664 111.396 114.408C110.788 114.152 110.244 113.736 109.764 113.16C109.284 112.568 108.916 111.864 108.66 111.048C108.404 110.232 108.3 109.352 108.348 108.408C108.428 107 108.756 105.704 109.332 104.52C109.924 103.336 110.716 102.32 111.708 101.472C112.7 100.608 113.836 99.96 115.116 99.528C116.396 99.08 117.764 98.896 119.22 98.976C120.372 99.04 121.46 99.304 122.484 99.768C123.508 100.232 124.412 100.864 125.196 101.664C125.98 102.464 126.58 103.4 126.996 104.472C127.428 105.544 127.612 106.728 127.548 108.024C127.436 110.104 126.692 111.864 125.316 113.304C123.94 114.744 122.068 115.736 119.7 116.28ZM112.02 112.176C112.196 112.288 112.404 112.344 112.644 112.344C112.884 112.328 113.116 112.2 113.34 111.96C113.964 111.304 114.524 110.408 115.02 109.272C115.532 108.136 115.956 106.864 116.292 105.456C116.628 104.048 116.844 102.616 116.94 101.16C115.724 101.384 114.644 101.848 113.7 102.552C112.756 103.256 112.004 104.12 111.444 105.144C110.884 106.168 110.572 107.288 110.508 108.504C110.46 109.384 110.588 110.152 110.892 110.808C111.196 111.448 111.572 111.904 112.02 112.176ZM140.58 118.176V110.16H131.796V101.184H140.58V96.336H142.836V101.184H151.644V110.16H142.836V118.176H140.58ZM142.836 108H149.364V103.224H142.836V108ZM134.1 108H140.58V103.224H134.1V108ZM157.14 116.76C157.044 116.664 156.876 116.536 156.636 116.376C156.396 116.216 156.148 116.064 155.892 115.92C155.652 115.76 155.46 115.664 155.316 115.632C155.972 114.912 156.62 114.024 157.26 112.968C157.9 111.896 158.508 110.728 159.084 109.464C159.66 108.184 160.172 106.88 160.62 105.552C159.756 105.664 158.916 105.784 158.1 105.912C157.3 106.024 156.652 106.144 156.156 106.272C156.14 106.128 156.1 105.92 156.036 105.648C155.988 105.36 155.924 105.08 155.844 104.808C155.78 104.52 155.724 104.32 155.676 104.208C156.236 104.16 157.028 104.088 158.052 103.992C159.076 103.88 160.124 103.768 161.196 103.656C161.516 102.616 161.772 101.6 161.964 100.608C162.156 99.616 162.284 98.688 162.348 97.824L164.508 98.208C164.444 98.992 164.316 99.832 164.124 100.728C163.932 101.608 163.7 102.52 163.428 103.464C164.18 103.416 164.796 103.392 165.276 103.392C165.9 103.392 166.444 103.496 166.908 103.704C167.388 103.896 167.764 104.24 168.036 104.736C168.308 105.232 168.46 105.92 168.492 106.8C168.524 107.68 168.404 108.792 168.132 110.136C167.844 111.656 167.508 112.872 167.124 113.784C166.756 114.696 166.284 115.36 165.708 115.776C165.148 116.176 164.436 116.376 163.572 116.376C163.124 116.376 162.692 116.328 162.276 116.232C161.86 116.136 161.46 115.968 161.076 115.728C161.092 115.44 161.1 115.08 161.1 114.648C161.1 114.216 161.076 113.864 161.028 113.592C161.78 114.056 162.556 114.288 163.356 114.288C163.788 114.288 164.156 114.16 164.46 113.904C164.764 113.648 165.044 113.192 165.3 112.536C165.556 111.864 165.812 110.92 166.068 109.704C166.276 108.712 166.388 107.92 166.404 107.328C166.42 106.736 166.356 106.288 166.212 105.984C166.084 105.68 165.9 105.48 165.66 105.384C165.42 105.288 165.14 105.24 164.82 105.24C164.564 105.24 164.268 105.248 163.932 105.264C163.596 105.28 163.236 105.304 162.852 105.336C162.356 106.824 161.788 108.296 161.148 109.752C160.508 111.192 159.844 112.52 159.156 113.736C158.484 114.952 157.812 115.96 157.14 116.76ZM175.044 110.4C174.788 109.968 174.428 109.472 173.964 108.912C173.516 108.336 173.028 107.76 172.5 107.184C171.972 106.608 171.452 106.088 170.94 105.624C170.444 105.144 170.004 104.776 169.62 104.52L171.228 103.128C171.644 103.416 172.108 103.8 172.62 104.28C173.148 104.76 173.676 105.28 174.204 105.84C174.748 106.384 175.244 106.928 175.692 107.472C176.156 108 176.516 108.464 176.772 108.864L175.044 110.4ZM174.492 103.32C174.204 103.064 173.852 102.8 173.436 102.528C173.036 102.24 172.62 101.976 172.188 101.736C171.756 101.48 171.372 101.28 171.036 101.136L171.852 100.008C172.156 100.136 172.532 100.336 172.98 100.608C173.428 100.88 173.868 101.16 174.3 101.448C174.748 101.736 175.1 101.984 175.356 102.192L174.492 103.32ZM175.98 101.064C175.692 100.808 175.332 100.544 174.9 100.272C174.484 100 174.06 99.744 173.628 99.504C173.196 99.264 172.812 99.08 172.476 98.952L173.268 97.824C173.572 97.952 173.948 98.144 174.396 98.4C174.86 98.656 175.316 98.92 175.764 99.192C176.212 99.464 176.564 99.704 176.82 99.912L175.98 101.064ZM86.9875 166.128V153.072C86.5395 153.712 86.0835 154.304 85.6195 154.848C85.1555 155.392 84.7075 155.872 84.2755 156.288C84.0675 156.064 83.8035 155.824 83.4835 155.568C83.1795 155.312 82.9075 155.104 82.6675 154.944C83.1315 154.56 83.6195 154.04 84.1315 153.384C84.6595 152.728 85.1795 152.008 85.6915 151.224C86.2195 150.44 86.7075 149.64 87.1555 148.824C87.6195 148.008 88.0115 147.24 88.3315 146.52C88.6675 145.784 88.9075 145.152 89.0515 144.624L91.0915 145.32C90.8835 145.976 90.6115 146.664 90.2755 147.384C89.9395 148.104 89.5715 148.832 89.1715 149.568V154.68C89.6195 154.264 90.0835 153.728 90.5635 153.072C91.0435 152.416 91.5155 151.704 91.9795 150.936C92.4435 150.168 92.8675 149.384 93.2515 148.584C93.6515 147.784 93.9955 147.024 94.2835 146.304C94.5715 145.568 94.7795 144.928 94.9075 144.384L96.9715 145.008C96.7955 145.616 96.5795 146.248 96.3235 146.904C96.0675 147.544 95.7795 148.192 95.4595 148.848H104.868V150.912H98.0755V154.056H104.004V156.048H98.0755V159.168H104.124V161.232H98.0755V166.08H95.8915V150.912H94.3795C93.8195 151.904 93.2275 152.848 92.6035 153.744C91.9795 154.624 91.3635 155.376 90.7555 156C90.5795 155.792 90.3395 155.576 90.0355 155.352C89.7315 155.128 89.4435 154.944 89.1715 154.8V166.128H86.9875ZM112.164 153.864V145.368H123.708V153.864H112.164ZM119.148 165.216V155.952H127.932V165.216H119.148ZM108.036 165.216V155.952H116.772V165.216H108.036ZM114.396 151.968H121.476V147.288H114.396V151.968ZM121.284 163.272H125.796V157.944H121.284V163.272ZM110.196 163.272H114.636V157.944H110.196V163.272ZM134.172 165.24C133.916 165.064 133.564 164.88 133.116 164.688C132.684 164.512 132.316 164.392 132.012 164.328C132.412 163.704 132.828 162.92 133.26 161.976C133.708 161.016 134.156 159.96 134.604 158.808C135.052 157.656 135.484 156.456 135.9 155.208C136.332 153.96 136.716 152.736 137.052 151.536C136.108 151.632 135.204 151.696 134.34 151.728C133.476 151.76 132.764 151.76 132.204 151.728L132.036 149.496C132.724 149.576 133.556 149.608 134.532 149.592C135.524 149.576 136.556 149.512 137.628 149.4C137.836 148.536 138.004 147.728 138.132 146.976C138.276 146.224 138.372 145.56 138.42 144.984L140.724 145.32C140.66 145.832 140.556 146.408 140.412 147.048C140.268 147.688 140.108 148.368 139.932 149.088C140.668 148.96 141.348 148.824 141.972 148.68C142.612 148.536 143.156 148.376 143.604 148.2L144.012 150.288C143.5 150.464 142.828 150.64 141.996 150.816C141.164 150.992 140.276 151.144 139.332 151.272C138.98 152.536 138.588 153.832 138.156 155.16C137.74 156.488 137.3 157.784 136.836 159.048C136.372 160.312 135.916 161.48 135.468 162.552C135.02 163.608 134.588 164.504 134.172 165.24ZM150.516 164.16C148.788 164.432 147.188 164.504 145.716 164.376C144.244 164.232 142.972 163.92 141.9 163.44C140.828 162.96 140.028 162.344 139.5 161.592L140.748 160.008C141.26 160.632 142.004 161.136 142.98 161.52C143.956 161.888 145.116 162.104 146.46 162.168C147.804 162.232 149.276 162.12 150.876 161.832C150.764 162.136 150.668 162.528 150.588 163.008C150.524 163.472 150.5 163.856 150.516 164.16ZM149.844 155.568C149.124 155.328 148.276 155.136 147.3 154.992C146.34 154.848 145.372 154.752 144.396 154.704C143.436 154.656 142.588 154.664 141.852 154.728L142.116 152.544C142.676 152.512 143.324 152.512 144.06 152.544C144.812 152.576 145.588 152.632 146.388 152.712C147.188 152.792 147.948 152.888 148.668 153C149.404 153.112 150.036 153.232 150.564 153.36L149.844 155.568ZM163.092 165.528C163.028 165.208 162.9 164.816 162.708 164.352C162.532 163.888 162.332 163.52 162.108 163.248C163.868 163.392 165.404 163.344 166.716 163.104C168.044 162.848 169.068 162.416 169.788 161.808C170.524 161.2 170.892 160.416 170.892 159.456C170.892 158.624 170.572 157.992 169.932 157.56C169.292 157.128 168.492 156.912 167.532 156.912C166.46 156.912 165.332 157.136 164.148 157.584C162.964 158.032 161.868 158.8 160.86 159.888L160.764 160.008L160.74 160.032L158.988 158.712C159.788 157.928 160.46 156.856 161.004 155.496C161.564 154.136 161.996 152.696 162.3 151.176C159.996 151.272 158.02 151.272 156.372 151.176L156.204 148.968C156.956 149.08 157.9 149.144 159.036 149.16C160.172 149.176 161.372 149.152 162.636 149.088C162.732 148.304 162.796 147.544 162.828 146.808C162.876 146.072 162.884 145.384 162.852 144.744H165.18C165.196 145.336 165.18 145.992 165.132 146.712C165.1 147.416 165.028 148.168 164.916 148.968C166.036 148.888 167.116 148.8 168.156 148.704C169.212 148.592 170.164 148.464 171.012 148.32C171.876 148.176 172.58 148.024 173.124 147.864L173.028 150.048C172.036 150.272 170.788 150.472 169.284 150.648C167.78 150.824 166.212 150.96 164.58 151.056C164.404 151.952 164.188 152.848 163.932 153.744C163.676 154.64 163.372 155.496 163.02 156.312C163.836 155.848 164.636 155.496 165.42 155.256C166.204 155 166.964 154.872 167.7 154.872C168.756 154.872 169.7 155.056 170.532 155.424C171.364 155.776 172.02 156.296 172.5 156.984C172.98 157.672 173.22 158.504 173.22 159.48C173.22 161.416 172.364 162.944 170.652 164.064C168.956 165.168 166.436 165.656 163.092 165.528ZM190.908 164.28C190.828 163.992 190.652 163.632 190.38 163.2C190.124 162.752 189.868 162.416 189.612 162.192C191.052 161.968 192.276 161.552 193.284 160.944C194.292 160.336 195.068 159.592 195.612 158.712C196.172 157.832 196.476 156.88 196.524 155.856C196.572 154.896 196.436 154.016 196.116 153.216C195.812 152.4 195.372 151.688 194.796 151.08C194.22 150.472 193.548 149.992 192.78 149.64C192.028 149.272 191.22 149.064 190.356 149.016C190.244 150.568 190.012 152.136 189.66 153.72C189.308 155.304 188.828 156.776 188.22 158.136C187.628 159.496 186.916 160.632 186.084 161.544C185.524 162.152 184.956 162.512 184.38 162.624C183.82 162.736 183.228 162.664 182.604 162.408C181.996 162.152 181.452 161.736 180.972 161.16C180.492 160.568 180.124 159.864 179.868 159.048C179.612 158.232 179.508 157.352 179.556 156.408C179.636 155 179.964 153.704 180.54 152.52C181.132 151.336 181.924 150.32 182.916 149.472C183.908 148.608 185.044 147.96 186.324 147.528C187.604 147.08 188.972 146.896 190.428 146.976C191.58 147.04 192.668 147.304 193.692 147.768C194.716 148.232 195.62 148.864 196.404 149.664C197.188 150.464 197.788 151.4 198.204 152.472C198.636 153.544 198.82 154.728 198.756 156.024C198.644 158.104 197.9 159.864 196.524 161.304C195.148 162.744 193.276 163.736 190.908 164.28ZM183.228 160.176C183.404 160.288 183.612 160.344 183.852 160.344C184.092 160.328 184.324 160.2 184.548 159.96C185.172 159.304 185.732 158.408 186.228 157.272C186.74 156.136 187.164 154.864 187.5 153.456C187.836 152.048 188.052 150.616 188.148 149.16C186.932 149.384 185.852 149.848 184.908 150.552C183.964 151.256 183.212 152.12 182.652 153.144C182.092 154.168 181.78 155.288 181.716 156.504C181.668 157.384 181.796 158.152 182.1 158.808C182.404 159.448 182.78 159.904 183.228 160.176ZM222.66 166.176C220.628 165.52 218.812 164.608 217.212 163.44C215.612 162.256 214.292 160.648 213.252 158.616H211.356V163.368C212.22 163.208 213.028 163.048 213.78 162.888C214.532 162.712 215.084 162.56 215.436 162.432V164.328C215.132 164.44 214.7 164.56 214.14 164.688C213.58 164.816 212.94 164.952 212.22 165.096C211.5 165.24 210.764 165.376 210.012 165.504C209.276 165.648 208.564 165.768 207.876 165.864C207.204 165.976 206.628 166.072 206.148 166.152L205.668 164.28C205.988 164.248 206.468 164.184 207.108 164.088C207.764 163.992 208.468 163.88 209.22 163.752V158.616H205.884C205.628 160.168 205.26 161.56 204.78 162.792C204.3 164.008 203.724 165.056 203.052 165.936C202.94 165.84 202.764 165.72 202.524 165.576C202.284 165.432 202.044 165.288 201.804 165.144C201.564 165.016 201.372 164.928 201.228 164.88C202.076 163.728 202.756 162.28 203.268 160.536C203.78 158.792 204.036 156.632 204.036 154.056V145.056H221.844V150.6H217.956V152.76H222.012V154.464H217.956V156.744H223.308V158.616H220.86L221.7 159.408C221.348 159.76 220.868 160.176 220.26 160.656C219.652 161.12 219.068 161.536 218.508 161.904C219.292 162.448 220.132 162.928 221.028 163.344C221.924 163.744 222.86 164.088 223.836 164.376C223.644 164.552 223.428 164.84 223.188 165.24C222.948 165.64 222.772 165.952 222.66 166.176ZM206.22 148.872H219.684V146.736H206.22V148.872ZM206.1 156.744H210.3V154.464H207.324V152.76H210.3V150.6H206.22V154.056C206.22 154.52 206.204 154.976 206.172 155.424C206.156 155.872 206.132 156.312 206.1 156.744ZM212.364 156.744H215.892V154.464H212.364V156.744ZM212.364 152.76H215.892V150.6H212.364V152.76ZM217.02 160.656C217.452 160.384 217.916 160.064 218.412 159.696C218.908 159.328 219.348 158.968 219.732 158.616H215.364C215.828 159.368 216.38 160.048 217.02 160.656ZM232.692 165.768C232.66 165.448 232.596 165.048 232.5 164.568C232.404 164.088 232.292 163.72 232.164 163.464H234.636C234.988 163.464 235.236 163.408 235.38 163.296C235.524 163.168 235.596 162.944 235.596 162.624V153.792H226.044V151.704H247.212V153.792H237.9V163.416C237.9 164.232 237.676 164.824 237.228 165.192C236.796 165.576 236.116 165.768 235.188 165.768H232.692ZM228.564 147.888V145.776H244.692V147.888H228.564ZM245.508 163.632C245.252 163.104 244.9 162.504 244.452 161.832C244.004 161.144 243.516 160.448 242.988 159.744C242.476 159.04 241.956 158.384 241.428 157.776C240.916 157.168 240.452 156.68 240.036 156.312L241.764 155.088C242.228 155.52 242.732 156.048 243.276 156.672C243.82 157.28 244.364 157.928 244.908 158.616C245.452 159.304 245.948 159.968 246.396 160.608C246.86 161.248 247.22 161.808 247.476 162.288C247.332 162.368 247.124 162.496 246.852 162.672C246.58 162.832 246.316 163 246.06 163.176C245.82 163.352 245.636 163.504 245.508 163.632ZM227.676 163.584C227.548 163.44 227.356 163.28 227.1 163.104C226.86 162.912 226.612 162.736 226.356 162.576C226.116 162.4 225.916 162.288 225.756 162.24C226.252 161.872 226.756 161.408 227.268 160.848C227.796 160.272 228.3 159.648 228.78 158.976C229.276 158.304 229.716 157.632 230.1 156.96C230.5 156.288 230.804 155.672 231.012 155.112L233.1 155.928C232.748 156.76 232.268 157.664 231.66 158.64C231.052 159.6 230.396 160.52 229.692 161.4C229.004 162.264 228.332 162.992 227.676 163.584ZM267.876 166.344C267.668 165.96 267.388 165.528 267.036 165.048C266.7 164.584 266.332 164.112 265.932 163.632C265.212 163.776 264.38 163.928 263.436 164.088C262.492 164.248 261.5 164.4 260.46 164.544C259.42 164.688 258.38 164.816 257.34 164.928C256.3 165.056 255.316 165.168 254.388 165.264C253.476 165.36 252.676 165.432 251.988 165.48L251.556 163.272C251.924 163.272 252.356 163.256 252.852 163.224C253.364 163.192 253.916 163.152 254.508 163.104C254.78 162.688 255.068 162.2 255.372 161.64C255.692 161.08 256.004 160.496 256.308 159.888C256.612 159.28 256.876 158.72 257.1 158.208H250.596V156.216H270.18V158.208H259.668C259.332 158.944 258.94 159.736 258.492 160.584C258.044 161.416 257.612 162.176 257.196 162.864C258.492 162.736 259.788 162.592 261.084 162.432C262.38 162.272 263.508 162.112 264.468 161.952C263.684 161.088 262.996 160.424 262.404 159.96L264.06 158.64C264.46 158.944 264.924 159.36 265.452 159.888C265.98 160.4 266.516 160.96 267.06 161.568C267.62 162.176 268.132 162.776 268.596 163.368C269.076 163.944 269.46 164.448 269.748 164.88C269.62 164.96 269.42 165.096 269.148 165.288C268.892 165.48 268.644 165.672 268.404 165.864C268.164 166.056 267.988 166.216 267.876 166.344ZM250.164 154.272C250.084 154.112 249.956 153.912 249.78 153.672C249.604 153.432 249.42 153.2 249.228 152.976C249.036 152.736 248.868 152.552 248.724 152.424C249.732 152.04 250.764 151.528 251.82 150.888C252.892 150.248 253.924 149.544 254.916 148.776C255.924 147.992 256.812 147.2 257.58 146.4C258.364 145.584 258.972 144.808 259.404 144.072L261.444 144.36C261.956 145.08 262.604 145.816 263.388 146.568C264.172 147.304 265.044 148.024 266.004 148.728C266.964 149.432 267.956 150.08 268.98 150.672C270.02 151.248 271.036 151.728 272.028 152.112C271.836 152.352 271.604 152.672 271.332 153.072C271.06 153.456 270.82 153.832 270.612 154.2C269.396 153.656 268.14 152.976 266.844 152.16C265.548 151.328 264.332 150.424 263.196 149.448C262.076 148.456 261.14 147.456 260.388 146.448C259.876 147.168 259.22 147.904 258.42 148.656C257.62 149.408 256.74 150.144 255.78 150.864C254.82 151.568 253.852 152.216 252.876 152.808C251.916 153.4 251.012 153.888 250.164 154.272ZM254.724 153.84V151.824H266.1V153.84H254.724Z" fill="#4F3636"/>
</svg>
